<?xml version="1.0" encoding="utf-8"?>
<!-- Generator: Adobe Illustrator 16.0.0, SVG Export Plug-In . SVG Version: 6.00 Build 0)  -->
<!DOCTYPE svg PUBLIC "-//W3C//DTD SVG 1.1//EN" "http://www.w3.org/Graphics/SVG/1.1/DTD/svg11.dtd">
<svg version="1.1" id="图层_1" xmlns="http://www.w3.org/2000/svg" xmlns:xlink="http://www.w3.org/1999/xlink" x="0px" y="0px"
	 width="283.46px" height="283.46px" viewBox="0 0 283.46 283.46" enable-background="new 0 0 283.46 283.46" xml:space="preserve">
<g>
	<path fill="#272636" d="M136.199,17.907L136.199,17.907c-0.048,1.424-0.079,2.851-0.079,4.288
		C136.121,20.76,136.151,19.331,136.199,17.907L136.199,17.907z M136.199,17.907c-0.048,1.424-0.079,2.851-0.079,4.288
		C136.121,20.76,136.151,19.331,136.199,17.907L136.199,17.907z M280.681,145.328c0.03-1.148,0.049-2.299,0.049-3.454
		c0-76.771-62.232-139.002-139.003-139.002c-1.399,0-2.794,0.026-4.184,0.067V2.94c-5.004,0.147-9.94,0.565-14.799,1.229
		c0.019-0.144,0.036-0.285,0.055-0.427C61.222,12.186,12.504,60.951,4.135,122.55c-0.056,0.008-0.11,0.013-0.166,0.021
		c-0.671,4.885-1.091,9.849-1.24,14.88c0.063-0.011,0.129-0.021,0.19-0.029c-0.037,1.334-0.063,2.673-0.063,4.016
		c0,76.774,62.232,139.008,139.002,139.008c1.1,0,2.196-0.017,3.288-0.043c-0.011,0.062-0.019,0.125-0.027,0.187
		c5.032-0.129,9.993-0.533,14.877-1.196c0.007-0.053,0.013-0.103,0.021-0.155c24.429-3.256,46.775-12.97,65.535-27.186
		c0.958-1.086,1.588-2.473,1.588-4.031c0-3.403-2.761-6.971-6.162-6.971c-1.767,0-3.34,0.701-4.462,1.889h-0.078
		c-15.982,11.759-34.792,19.897-55.255,23.068c0.006-0.157,0.016-0.313,0.021-0.47c0.065-1.756,0.11-3.52,0.11-5.292
		c0-76.707-62.184-138.891-138.891-138.891c-1.079,0-2.154,0.017-3.226,0.041c-0.181,0.006-0.362,0.013-0.541,0.017
		C27.422,68.688,68.707,27.55,121.501,18.989c-0.003,0.14-0.009,0.278-0.011,0.417c-0.025,1.074-0.041,2.147-0.041,3.227
		c0,76.707,62.183,138.891,138.89,138.891c1.772,0,3.533-0.045,5.291-0.11c-2.041,14.331-6.439,27.87-12.971,40.204v0.104
		c-0.173,0.585-0.359,1.159-0.359,1.787c0,3.403,3.569,6.162,6.971,6.162c2.652,0,4.866-1.701,5.733-4.046v0.043
		c7.226-13.957,12.276-29.263,14.481-45.463l0,0c0.665-4.881,1.07-9.844,1.196-14.876
		C278.734,145.648,278.734,145.648,280.681,145.328L280.681,145.328z M22.423,135.893c68.678,0,124.353,55.674,124.353,124.351
		c0,2.194-0.062,4.375-0.173,6.539c-0.012,0.205-0.024,0.408-0.035,0.612c-1.518,0.057-3.04,0.088-4.572,0.088
		c-69.514,0-125.071-55.562-125.071-125.074c0-2.147,0.06-4.277,0.164-6.395c0.205-0.009,0.406-0.022,0.613-0.03
		C19.268,135.926,20.842,135.893,22.423,135.893L22.423,135.893z M266.876,146.813c-2.166,0.111-4.345,0.171-6.538,0.171
		c-68.678,0-124.354-55.673-124.354-124.351c0-1.583,0.034-3.155,0.094-4.724c0.039-0.001,0.082-0.001,0.121-0.003
		c1.877-0.082,3.765-0.133,5.662-0.133c69.526,0,125.073,55.549,125.073,125.07C266.934,144.173,266.916,145.495,266.876,146.813
		L266.876,146.813z M266.876,146.813"/>
</g>
</svg>
