<?xml version="1.0" encoding="utf-8"?>
<!-- Generator: Adobe Illustrator 16.0.0, SVG Export Plug-In . SVG Version: 6.00 Build 0)  -->
<!DOCTYPE svg PUBLIC "-//W3C//DTD SVG 1.1//EN" "http://www.w3.org/Graphics/SVG/1.1/DTD/svg11.dtd">
<svg version="1.1" id="图层_1" xmlns="http://www.w3.org/2000/svg" xmlns:xlink="http://www.w3.org/1999/xlink" x="0px" y="0px"
	 width="283.46px" height="283.46px" viewBox="0 0 283.46 283.46" enable-background="new 0 0 283.46 283.46" xml:space="preserve">
<g>
	<path fill="#272636" d="M43.664,43.256c21.091-21.092,48.292-34.774,78.341-39.09c36.733-5.273,73.338,4.085,103.043,26.336
		c29.713,22.26,48.981,54.754,54.259,91.494c10.895,75.869-41.975,146.43-117.804,157.333c-31.797,4.563-64.402-2.102-91.813-18.742
		c-4.687-2.851-6.177-8.958-3.333-13.64c2.871-4.653,8.949-6.185,13.638-3.335c23.48,14.271,51.423,19.979,78.688,16.062
		c64.984-9.321,110.3-69.816,100.972-134.854c-4.521-31.49-21.038-59.339-46.51-78.41c-25.466-19.08-56.836-27.089-88.317-22.563
		C59.773,33.17,14.478,93.672,23.82,158.696c2.448,17.022,8.359,32.929,17.591,47.27c2.961,4.619,1.615,10.782-2.969,13.723
		c-4.612,2.969-10.761,1.636-13.723-2.97C13.943,199.95,7.037,181.39,4.166,161.517c-5.272-36.735,4.079-73.349,26.352-103.063
		C34.566,53.028,38.961,47.96,43.664,43.256L43.664,43.256L43.664,43.256z M43.664,43.256"/>
	<path fill="#272636" d="M152.902,150.121l60.374,0.043c5.48,0.008,9.926-4.436,9.934-9.917c0.009-5.484-4.44-9.934-9.917-9.937
		l-60.45-0.048l-0.195-59.954c-0.026-5.489-4.47-9.92-9.959-9.893c-5.482,0.018-9.91,4.476-9.891,9.958l0.194,59.871l-59.945-0.037
		c-5.489,0-9.925,4.434-9.934,9.918c-0.001,2.766,1.121,5.258,2.94,7.06c1.791,1.774,4.259,2.866,6.976,2.874l60.023,0.044
		l0.192,60.944c0.006,2.744,1.128,5.224,2.94,7.02c1.806,1.789,4.288,2.878,7.019,2.873c5.48-0.021,9.903-4.471,9.892-9.96
		L152.902,150.121L152.902,150.121L152.902,150.121z M152.902,150.121"/>
</g>
</svg>
