<?xml version="1.0" encoding="utf-8"?>
<!-- Generator: Adobe Illustrator 16.0.0, SVG Export Plug-In . SVG Version: 6.00 Build 0)  -->
<!DOCTYPE svg PUBLIC "-//W3C//DTD SVG 1.1//EN" "http://www.w3.org/Graphics/SVG/1.1/DTD/svg11.dtd">
<svg version="1.1" id="图层_1" xmlns="http://www.w3.org/2000/svg" xmlns:xlink="http://www.w3.org/1999/xlink" x="0px" y="0px"
	 width="283.46px" height="283.46px" viewBox="0 0 283.46 283.46" enable-background="new 0 0 283.46 283.46" xml:space="preserve">
<g>
	<path fill="#272636" d="M141.73,2.73c-50.688,0-91.755,41.078-91.755,91.755c0,50.677,91.755,186.245,91.755,186.245
		s91.755-135.567,91.755-186.245C233.485,43.808,192.397,2.73,141.73,2.73L141.73,2.73z M141.73,113.827
		c-15.427,0-27.925-12.508-27.925-27.925c0-15.427,12.498-27.924,27.925-27.924c15.417,0,27.925,12.497,27.925,27.924
		C169.655,101.319,157.147,113.827,141.73,113.827L141.73,113.827z M141.73,113.827"/>
</g>
</svg>
