<?xml version="1.0" encoding="utf-8"?>
<!-- Generator: Adobe Illustrator 16.0.0, SVG Export Plug-In . SVG Version: 6.00 Build 0)  -->
<!DOCTYPE svg PUBLIC "-//W3C//DTD SVG 1.1//EN" "http://www.w3.org/Graphics/SVG/1.1/DTD/svg11.dtd">
<svg version="1.1" id="图层_1" xmlns="http://www.w3.org/2000/svg" xmlns:xlink="http://www.w3.org/1999/xlink" x="0px" y="0px"
	 width="283.46px" height="283.46px" viewBox="0 0 283.46 283.46" enable-background="new 0 0 283.46 283.46" xml:space="preserve">
<g>
	<path fill="#272636" d="M141.736,280.73l-4.254-2.41c-30.371-17.207-56.048-38.927-74.253-62.811
		c-22.935-30.085-34.563-63.636-34.563-99.714c0-15.129,2.991-29.855,8.892-43.775c5.699-13.443,13.845-25.538,24.212-35.944
		C72.162,25.644,84.248,17.447,97.693,11.71c13.969-5.959,28.785-8.98,44.038-8.98c30.201,0,58.593,11.761,79.948,33.116
		c21.354,21.354,33.115,49.748,33.115,79.949c0,36.33-11.652,69.972-34.632,99.987c-18.326,23.938-43.281,44.977-74.173,62.53
		L141.736,280.73L141.736,280.73z M141.729,19.971c-25.524,0-49.584,10.039-67.746,28.271c-8.803,8.838-15.719,19.101-20.552,30.505
		c-4.994,11.78-7.524,24.243-7.524,37.046c0,32.218,10.441,62.25,31.033,89.264c15.958,20.936,38.292,40.158,64.788,55.801
		c26.904-15.884,48.67-34.56,64.745-55.556c20.623-26.938,31.08-57.054,31.08-89.509c0-25.596-9.967-49.658-28.066-67.756
		C191.389,29.938,167.325,19.971,141.729,19.971L141.729,19.971z M141.729,19.971"/>
	<path fill="#272636" d="M140.35,169.725c-29.089,0-52.756-23.667-52.756-52.758c0-29.089,23.667-52.756,52.756-52.756
		c4.762,0,8.62,3.859,8.62,8.621c0,4.76-3.858,8.62-8.62,8.62c-19.583,0-35.515,15.933-35.515,35.515
		c0,19.584,15.932,35.517,35.515,35.517c19.584,0,35.517-15.933,35.517-35.517c0-9.37-3.617-18.211-10.185-24.893
		c-3.338-3.396-3.29-8.853,0.105-12.19s8.854-3.29,12.191,0.105c9.755,9.926,15.129,23.06,15.129,36.978
		C193.108,146.058,169.441,169.725,140.35,169.725L140.35,169.725z M140.35,169.725"/>
</g>
</svg>
