<?xml version="1.0" encoding="utf-8"?>
<!-- Generator: Adobe Illustrator 16.0.0, SVG Export Plug-In . SVG Version: 6.00 Build 0)  -->
<!DOCTYPE svg PUBLIC "-//W3C//DTD SVG 1.1//EN" "http://www.w3.org/Graphics/SVG/1.1/DTD/svg11.dtd">
<svg version="1.1" id="图层_1" xmlns="http://www.w3.org/2000/svg" xmlns:xlink="http://www.w3.org/1999/xlink" x="0px" y="0px"
	 width="283.46px" height="283.46px" viewBox="0 0 283.46 283.46" enable-background="new 0 0 283.46 283.46" xml:space="preserve">
<g>
	<path fill="#272636" d="M269.805,87.624c-7.001-16.553-17.022-31.417-29.786-44.181c-12.765-12.766-27.63-22.787-44.183-29.789
		C178.697,6.406,160.493,2.73,141.731,2.73c-18.764,0-36.968,3.676-54.107,10.925C71.07,20.656,56.205,30.678,43.443,43.443
		C30.677,56.207,20.656,71.071,13.656,87.624C6.405,104.764,2.73,122.967,2.73,141.731c0,18.762,3.675,36.966,10.926,54.105
		c7,16.554,17.021,31.419,29.787,44.183c12.762,12.764,27.627,22.785,44.181,29.786c17.14,7.25,35.344,10.925,54.107,10.925h78.067
		c2.708,0,4.902-2.194,4.902-4.902s-2.194-4.904-4.902-4.904h-78.067c-71.237,0-129.193-57.956-129.193-129.192
		c0-71.237,57.956-129.193,129.193-129.193c71.235,0,129.191,57.956,129.191,129.193c0,24.41-6.784,48.007-19.656,68.529
		l-88.802-49.956c5.365-8.452,12.49-19.776,21.97-34.978c1.731-2.778,1.82-6.284,0.232-9.146c-1.588-2.862-4.609-4.643-7.884-4.643
		h-31.842V96.204h62.938c2.708,0,4.904-2.195,4.904-4.903s-2.196-4.904-4.904-4.904h-62.938v-25.44c0-2.708-2.196-4.904-4.904-4.904
		s-4.903,2.195-4.903,4.904v25.44h-62.6c-2.708,0-4.905,2.196-4.905,4.904s2.197,4.903,4.905,4.903h62.6v15.333H87.09
		c-2.708,0-4.905,2.197-4.905,4.905c0,2.708,2.196,4.903,4.905,4.903h88.267c-8.366,13.413-15.724,25.109-21.63,34.405
		c-21.446-10.508-40.441-15.015-56.564-13.406c-7.925,0.792-14.925,3.073-20.806,6.779c-5.371,3.386-9.744,7.989-12.646,13.314
		c-3.913,7.185-5.089,15.352-3.311,22.996c1.857,7.984,6.741,14.491,13.753,18.321c16.026,8.751,32.836,9.121,48.613,1.065
		c13.071-6.674,21.267-16.922,23.152-19.437c0.713-0.818,2.719-3.484,11.262-16.8l93.179,52.419c0.76,0.427,1.585,0.632,2.399,0.632
		c0.311,0,0.619-0.032,0.922-0.09c1.298-0.203,2.514-0.921,3.308-2.095c15.532-22.991,23.741-49.865,23.741-77.72
		C280.73,122.967,277.054,104.764,269.805,87.624L269.805,87.624z M138.558,178.901l-0.186,0.192l-0.19,0.261
		c-0.795,1.079-8.105,10.723-19.873,16.73c-12.942,6.608-26.214,6.293-39.453-0.938c-9.418-5.144-12.287-17.45-6.53-28.017
		c4.624-8.489,13.79-13.826,25.812-15.027c1.743-0.172,3.538-0.26,5.387-0.26c12.821,0,28.108,4.17,44.886,12.238
		C142.964,172.566,139.479,177.82,138.558,178.901L138.558,178.901z M138.558,178.901"/>
</g>
</svg>
