<?xml version="1.0" encoding="utf-8"?>
<!-- Generator: Adobe Illustrator 16.0.0, SVG Export Plug-In . SVG Version: 6.00 Build 0)  -->
<!DOCTYPE svg PUBLIC "-//W3C//DTD SVG 1.1//EN" "http://www.w3.org/Graphics/SVG/1.1/DTD/svg11.dtd">
<svg version="1.1" id="图层_1" xmlns="http://www.w3.org/2000/svg" xmlns:xlink="http://www.w3.org/1999/xlink" x="0px" y="0px"
	 width="283.46px" height="283.46px" viewBox="0 0 283.46 283.46" enable-background="new 0 0 283.46 283.46" xml:space="preserve">
<g>
	<defs>
		<rect id="SVGID_1_" x="2.73" y="95.636" width="278" height="92.189"/>
	</defs>
	<clipPath id="SVGID_2_">
		<use xlink:href="#SVGID_1_"  overflow="visible"/>
	</clipPath>
	<path clip-path="url(#SVGID_2_)" fill="#272636" d="M138.733,145.742c0.335,0.144,0.67,0.287,1.053,0.287
		c0.384,0,0.72-0.144,1.056-0.287c3.688-2.061,6.802-5.174,8.86-8.862c0.145-0.335,0.24-0.671,0.24-1.006
		c0-0.335-0.096-0.671-0.24-1.054c-2.059-3.689-5.178-6.792-8.957-8.862c-0.244-0.134-0.575-0.239-0.959-0.239
		c-0.429,0-0.764,0.098-1.1,0.287c-3.64,2.062-6.755,5.125-8.814,8.814c-0.143,0.335-0.239,0.67-0.239,1.054
		c0,0.383,0.097,0.718,0.288,1.054C131.98,140.567,135.045,143.681,138.733,145.742"/>
	<path clip-path="url(#SVGID_2_)" fill="#272636" d="M248.044,147.897c-0.245-0.134-0.432-0.191-0.767-0.191
		c-0.288,0-0.571,0.102-0.814,0.238c-2.728,1.54-5.067,3.791-6.61,6.611c-0.135,0.245-0.191,0.526-0.191,0.767
		c0,0.287,0.102,0.571,0.239,0.814c1.539,2.727,3.789,5.067,6.611,6.61c0.243,0.134,0.525,0.191,0.766,0.191
		c0.239,0,0.479-0.049,0.813-0.191c2.827-1.533,5.112-3.841,6.611-6.658c0.131-0.248,0.191-0.479,0.191-0.767
		s-0.058-0.521-0.191-0.767C253.16,151.735,250.866,149.44,248.044,147.897"/>
	<path clip-path="url(#SVGID_2_)" fill="#272636" d="M280.666,162.651L280.666,162.651c-19.018,3.257-36.406,5.509-52.165,7.041
		v-26.729h25.58v-5.03H228.5v-13.221h29.123c0.384-2.012,0.876-11.83,1.104-14.323c0.396-4.357-2.108-6.994-5.749-6.994H228.5v-7.76
		h-12.981c-0.383,0.049-0.718,0.144-1.054,0.288c-0.527,0.335-1.055,0.719-1.055,1.82v5.653h-27.064
		c-1.724,0-2.597,1.002-3.017,1.964c-0.249,0.57-0.433,1.196-0.433,1.916v17.531h30.514v13.125h-26.968v5.03h26.968v27.926
		c-15.663,1.103-29.459,1.294-42.152,0.911v-51.878h8.048v-5.029h-8.048V96.546h-11.735c-0.335,0-0.619,0.06-0.959,0.191
		c-0.522,0.204-1.102,0.671-1.245,1.485v16.67h-33.483v5.029h33.483v51.207c-13.987-0.959-25.962-2.634-36.692-4.791v-54.943
		c2.826-4.742,4.599-8.334,6.131-14.85H113.68c-1.628,0-2.06,1.533-2.06,1.677c-2.155,9.868-8.034,21.761-18.682,31.471
		c-0.227,0.208-0.239,0.432-0.239,0.623c0,0.144,0,0.24,0.048,0.288l0.144,0.192c0.144,0.143,0.288,0.191,0.431,0.191
		c4.456-1.15,9.676-3.257,14.083-6.275v38.657c-11.114-2.826-20.454-5.94-29.027-9.005c4.981-8,8.909-17.102,11.448-27.401H66.689
		v-12.071h28.789v-4.982H66.689V96.546H54.043c-0.431,0.048-0.766,0.144-1.102,0.289c-0.575,0.334-1.102,0.766-1.102,1.867v11.209
		H21.663v4.982H51.84v12.071H28.704v4.982h45.315c-1.964,6.659-4.599,12.646-7.713,18.06c-12.263-4.359-22.657-7.713-33.915-7.713
		c-27.111,0-34.967,18.873-26.297,31.616l-0.191-0.432c4.071,6.371,13.125,11.4,24.478,11.4c15.136,0,29.65-7.76,41.003-20.886
		c30.705,14.562,79.516,32.717,192.612,18.922C268.643,181.62,281.767,162.938,280.666,162.651 M27.985,176.83L27.985,176.83
		L27.985,176.83L27.985,176.83c-19.304,0-25.148-14.227-16.574-22.801c4.359-3.258,10.442-5.222,18.298-5.222
		c10.347,0,19.4,4.167,30.753,9.771C51.361,169.98,39.673,176.83,27.985,176.83 M197.843,119.73h-0.335v-9.245
		c0-1.005,0.575-1.531,1.149-1.772c0.336-0.141,0.767-0.191,1.198-0.24h42.152c1.916,0,2.491,1.102,2.491,1.821
		c0,1.916-0.335,6.083-0.575,9.437H197.843z"/>
	<polygon clip-path="url(#SVGID_2_)" fill="#272636" points="27.986,176.83 27.985,176.83 27.985,176.83 	"/>
</g>
</svg>
