<?xml version="1.0" encoding="utf-8"?>
<!-- Generator: Adobe Illustrator 16.0.0, SVG Export Plug-In . SVG Version: 6.00 Build 0)  -->
<!DOCTYPE svg PUBLIC "-//W3C//DTD SVG 1.1//EN" "http://www.w3.org/Graphics/SVG/1.1/DTD/svg11.dtd">
<svg version="1.1" id="图层_1" xmlns="http://www.w3.org/2000/svg" xmlns:xlink="http://www.w3.org/1999/xlink" x="0px" y="0px"
	 width="283.46px" height="283.46px" viewBox="0 0 283.46 283.46" enable-background="new 0 0 283.46 283.46" xml:space="preserve">
<g>
	<path fill="#272636" d="M85.4,153.943c24.528,0,43.039,10.09,62.105,17.779c-20.075,24.425-40.186,43.458-62.105,43.458
		c-19.38,0-51.496-6.611-51.496-30.236C33.939,164.38,62.367,153.943,85.4,153.943L85.4,153.943z M280.73,27.086v229.289
		c0,13.396-10.96,24.355-24.355,24.355H27.086c-13.396,0-24.356-10.959-24.356-24.355V27.086C2.73,13.69,13.689,2.73,27.086,2.73
		h229.289C269.77,2.73,280.73,13.69,280.73,27.086L280.73,27.086z M280.626,189.119c-19.38-4.488-56.505-17.953-91.855-30.27
		c7.654-13.222,14.022-28.079,18.614-44.466l0.869-3.237c0.872-3.305,1.671-7.863,2.402-11.273h-55.321V85.886h69.551V72.039
		h-69.518V44.03h-27.938v28.009H57.948v13.847h69.482v13.987H71.866v13.848h103.753c-2.436,12.561-7.098,25.191-13.187,36.151
		c-4.835-1.602-48.85-14.543-77.554-14.543c-22.964,0-61.064,17.569-61.064,49.615c0,31.593,21.921,49.373,61.064,49.373
		c37.577,0,65.237-18.79,87.608-52.087c42.588,18.546,82.148,39.004,108.14,50.729V189.119L280.626,189.119z M280.626,189.119"/>
</g>
</svg>
