<?xml version="1.0" encoding="utf-8"?>
<!-- Generator: Adobe Illustrator 16.0.0, SVG Export Plug-In . SVG Version: 6.00 Build 0)  -->
<!DOCTYPE svg PUBLIC "-//W3C//DTD SVG 1.1//EN" "http://www.w3.org/Graphics/SVG/1.1/DTD/svg11.dtd">
<svg version="1.1" id="图层_1" xmlns="http://www.w3.org/2000/svg" xmlns:xlink="http://www.w3.org/1999/xlink" x="0px" y="0px"
	 width="283.46px" height="283.46px" viewBox="0 0 283.46 283.46" enable-background="new 0 0 283.46 283.46" xml:space="preserve">
<g>
	<polygon fill="#272636" points="181.762,20.521 181.762,2.73 101.699,2.73 101.699,20.521 130.984,20.521 130.984,33.865 
		108.37,33.865 108.37,52.331 175.09,52.331 175.09,33.865 152.476,33.865 152.476,20.521 	"/>
	<path fill="#272636" d="M221.795,27.193h-13.345v17.383h13.345c14.996,0,19.677,7.652,19.677,22.649l0.113,35.959l0.343,130.84
		c0,18.333-8.474,28.109-26.806,28.109l-146.784-0.228c-18.333,0-27.549-9.549-27.549-27.882V67.226
		c0-14.997,5.879-21.565,20.875-21.565H75.01V27.193H61.666c-22.365,0-40.032,17.665-40.032,40.032v166.799
		c0,25.704,21.001,46.705,46.705,46.705h146.784c25.703,0,46.704-21.001,46.704-46.705V67.226
		C261.827,44.858,244.161,27.193,221.795,27.193z"/>
</g>
</svg>
