<?xml version="1.0" encoding="utf-8"?>
<!-- Generator: Adobe Illustrator 16.0.0, SVG Export Plug-In . SVG Version: 6.00 Build 0)  -->
<!DOCTYPE svg PUBLIC "-//W3C//DTD SVG 1.1//EN" "http://www.w3.org/Graphics/SVG/1.1/DTD/svg11.dtd">
<svg version="1.1" id="图层_1" xmlns="http://www.w3.org/2000/svg" xmlns:xlink="http://www.w3.org/1999/xlink" x="0px" y="0px"
	 width="283.46px" height="283.46px" viewBox="0 0 283.46 283.46" enable-background="new 0 0 283.46 283.46" xml:space="preserve">
<g>
	<path fill="#272636" d="M146.011,26.038c-3.303-1.568-7.217-1.134-10.085,1.101c-0.134,0.111-14.1,11.02-29.512,22.195
		C79.591,68.771,71.774,72.007,70.195,72.52H28.284c-7.852,0-14.734,3.203-19.404,9.029c-4.026,5.004-6.15,11.565-6.15,18.971
		v82.421c0,15.434,12.743,28,28.422,28h11.777c5.26,0,9.529-4.203,9.529-9.386c0-5.17-4.269-9.362-9.529-9.362H31.152
		c-5.159,0-9.362-4.159-9.362-9.252V100.52c0-3.458,0.845-9.241,6.494-9.241h42.545c4.882,0,12.376-1.98,45.058-25.532
		c5.838-4.192,11.52-8.418,16.446-12.121v174.895c-3.97-3.303-8.396-6.927-12.921-10.53c-29.88-23.819-37.275-25.798-42.29-25.798
		l0,0c-5.259,0-9.529,4.192-9.529,9.362c0,4.915,3.847,8.94,8.729,9.341c1.391,0.479,8.619,3.626,32.815,23.041
		c13.844,11.108,26.276,21.951,26.399,22.051c1.779,1.557,4.037,2.368,6.338,2.368c1.313,0,2.647-0.267,3.893-0.822
		c3.424-1.523,5.627-4.871,5.627-8.563V34.478C151.394,30.875,149.302,27.594,146.011,26.038L146.011,26.038L146.011,26.038z
		 M219.77,42.017c-4.648-2.435-10.419-0.7-12.899,3.881c-2.457,4.571-0.7,10.242,3.959,12.666
		c31.358,16.402,50.841,48.16,50.841,82.922c0,34.738-19.493,66.507-50.853,82.909c-4.647,2.426-6.416,8.108-3.947,12.678
		c1.713,3.158,5.016,4.981,8.418,4.981c1.513,0,3.047-0.355,4.481-1.101c37.597-19.672,60.96-57.779,60.96-99.467
		C280.73,99.785,257.367,61.666,219.77,42.017L219.77,42.017L219.77,42.017z M220.971,176.358
		c6.583-10.431,10.053-22.497,10.053-34.872c0-12.388-3.48-24.454-10.053-34.884c-6.416-10.163-15.49-18.37-26.232-23.719
		c-4.692-2.335-10.43-0.489-12.811,4.125c-2.38,4.626-0.5,10.265,4.192,12.6c15.946,7.939,25.844,23.985,25.844,41.878
		c0,17.891-9.897,33.937-25.833,41.867c-4.692,2.346-6.571,7.983-4.192,12.598c1.68,3.259,5.026,5.149,8.508,5.149
		c1.456,0,2.924-0.334,4.304-1.013C205.481,194.74,214.555,186.533,220.971,176.358L220.971,176.358L220.971,176.358z
		 M220.971,176.358"/>
</g>
</svg>
