<?xml version="1.0" encoding="utf-8"?>
<!-- Generator: Adobe Illustrator 16.0.0, SVG Export Plug-In . SVG Version: 6.00 Build 0)  -->
<!DOCTYPE svg PUBLIC "-//W3C//DTD SVG 1.1//EN" "http://www.w3.org/Graphics/SVG/1.1/DTD/svg11.dtd">
<svg version="1.1" id="图层_1" xmlns="http://www.w3.org/2000/svg" xmlns:xlink="http://www.w3.org/1999/xlink" x="0px" y="0px"
	 width="283.46px" height="283.46px" viewBox="0 0 283.46 283.46" enable-background="new 0 0 283.46 283.46" xml:space="preserve">
<g>
	<defs>
		<rect id="SVGID_1_" x="2.73" y="16.474" width="278" height="250.513"/>
	</defs>
	<clipPath id="SVGID_2_">
		<use xlink:href="#SVGID_1_"  overflow="visible"/>
	</clipPath>
	<path clip-path="url(#SVGID_2_)" fill="#FE761B" d="M89.322,183.689c5.893-0.437,10.899-1.034,15.022-1.798
		c2.157,7.253,3.705,12.825,4.643,16.718c0.937,3.891,0.378,7.443-1.681,10.657c-2.059,3.216-5.587,6.129-10.586,8.742
		l-35.567,18.589c-11.691,6.109-20.734,3.044-27.13-9.193l-18.33-35.074l12.126-6.338l4.156,7.948l39.665-20.728l-9.037-17.293
		L8.597,184.142L2.73,172.916l66.215-34.605l20.772,39.746l-51.876,27.11l7.709,14.752c2.884,5.518,6.919,6.922,12.11,4.208
		l30.569-15.977c2.54-1.327,4.388-2.796,5.544-4.408c1.158-1.615,1.395-3.537,0.715-5.773
		C93.81,195.733,92.087,190.974,89.322,183.689"/>
	<path clip-path="url(#SVGID_2_)" fill="#FE761B" d="M107.89,181.289l-7.196-11.576l7.541-6.133l-7.45-14.259l-8.032,4.196
		l-5.311-10.16l8.032-4.199l-7.538-14.423l10.572-5.526l7.538,14.424l6.555-3.424l5.311,10.161l-6.555,3.427l6.21,11.882
		c1.994-1.771,3.73-3.375,5.206-4.809c1.688,3.363,3.221,6.3,4.605,8.813c1.912-4.861,3.206-9.937,3.884-15.229l-4.958,2.592
		l-16.575-31.715l46.547-24.327l16.574,31.715l-30.076,15.718c-0.089,1.89-0.234,3.809-0.434,5.757l35.813-18.716
		c2.541,4.931,5.308,10.528,8.304,16.79l6.558,14.045c1.351,3.12,1.921,5.952,1.704,8.501c-0.217,2.547-1.226,4.526-3.028,5.938
		c-1.802,1.412-6.489,4.219-14.065,8.42c-1.752-2.354-3.53-4.658-5.335-6.915l-27.084,14.155l-10.599-20.282
		c-3.424-1.027-6.202-1.749-8.333-2.167l-2.927,2.781l11.136,21.309c2.283,4.37,2.8,7.77,1.545,10.197
		c-1.251,2.429-5.526,5.479-12.822,9.153c-2.203-2.883-4.726-6.051-7.573-9.502l6.558-3.426c1.146-0.599,1.105-2.074-0.122-4.424
		l-7.751-14.832L107.89,181.289z M172.65,139.099l-11.312,5.912c0.048,1.088,0.074,2.17,0.077,3.245
		c4.409,0.583,9.726,1.404,15.948,2.464l-2.357,9.266l-14.327-3.362c-0.691,4.467-1.858,8.794-3.491,12.987
		c-2.25-0.979-5.453-1.983-9.606-3.012c2.521-5.56,4.031-11.149,4.539-16.771l-11.636,6.081c-0.267,1.356-0.573,2.734-0.92,4.133
		l3.279-1.713l7.921,15.161l26.226-13.705l3.212,6.146c2.103-1.169,2.945-2.714,2.532-4.636
		C182.319,159.372,178.958,151.975,172.65,139.099 M150.155,104.843l-25.567,13.362l2.182,4.18l25.57-13.362L150.155,104.843z
		 M157.993,119.84l-2.185-4.18l-25.567,13.363l2.182,4.18L157.993,119.84z"/>
	<path clip-path="url(#SVGID_2_)" fill="#FE761B" d="M169.764,88.859l23.599-12.335l32.036,61.3l-14.26,7.452l3.427,6.556
		l-9.343,4.882L169.764,88.859z M189.482,90.655l-5.412,2.828l8.568,16.39l5.409-2.827L189.482,90.655z M211.582,132.944
		l-8.567-16.392l-5.409,2.828l8.564,16.39L211.582,132.944z M266.199,104.294c3.337-0.003,6.946-0.152,10.83-0.442
		c3.443,9.12,4.485,14.94,3.126,17.461c-1.363,2.518-3.302,4.437-5.813,5.748l-5.409,2.827c-6.284,3.284-11.322,1.292-15.119-5.975
		l-7.41-14.177l-5.982,3.126c3.052,8.038,4.014,14.866,2.88,20.484c-1.134,5.616-4.376,11.527-9.723,17.73
		c-4.542-2.564-8.393-4.413-11.555-5.541c4.938-5.26,7.95-9.72,9.043-13.388c1.093-3.665,0.674-8.245-1.259-13.738l-9.465,4.946
		l-4.883-9.342l49.991-26.124l4.88,9.342l-13.109,6.853l6.338,12.128c1.087,2.076,2.337,2.743,3.759,2l1.473-0.771
		c1.285-0.67,1.65-1.921,1.092-3.751C269.328,111.859,268.098,108.727,266.199,104.294 M209.537,104.277
		c6.255-5.53,11.578-11.181,15.972-16.955c-3.26-1.773-6.558-3.962-9.9-6.564l-10.929,8.634l-6.849-8.314l9.708-7.474
		c-2.286-2.248-4.593-4.695-6.914-7.342l9.307-6.949c2.238,2.62,4.513,5.013,6.828,7.177l23.988-18.483l6.712,7.654L225.069,73.31
		c2.318,1.642,4.676,3.052,7.065,4.235c2.474-4.318,4.478-8.703,6.009-13.155l10.353,2.834c-1.707,4.856-3.753,9.523-6.14,14.005
		c4.222,0.96,6.988,1.096,8.301,0.411c0.956-0.499,1.279-1.625,0.974-3.378c-0.309-1.751-1.173-4.689-2.601-8.814
		c3.142-0.248,6.374-0.652,9.699-1.208c2.71,8.251,3.666,13.786,2.862,16.606c-0.805,2.821-2.477,4.895-5.018,6.223
		c-4.943,2.583-11.801,2.775-20.567,0.574c-4.703,6.77-10.29,13.118-16.759,19.037C218.069,109.624,214.833,107.49,209.537,104.277"
		/>
	<path clip-path="url(#SVGID_2_)" fill="#FE761B" d="M102.207,65.765c26.842-13.867,57.924-11.184,81.57,4.282l8.662-4.477
		c-26.576-19.493-62.973-23.587-94.188-7.462c-31.215,16.126-48.938,48.18-48.419,81.135l8.663-4.476
		C59.564,106.533,75.363,79.632,102.207,65.765"/>
	<path clip-path="url(#SVGID_2_)" fill="#FE761B" d="M180.695,217.698c-22.916,11.838-48.919,11.607-70.75,1.671l-9.49,4.902
		c25.267,13.817,56.739,15.267,84.194,1.083c27.455-14.185,44.487-40.688,47.839-69.292L223,160.963
		C218.469,184.519,203.611,205.86,180.695,217.698"/>
	<path clip-path="url(#SVGID_2_)" fill="#FE761B" d="M93.604,49.115c36.304-18.754,78.906-12.939,108.753,11.332l20.526-10.603
		c-36.4-34.546-92.128-44.168-139.167-19.868c-47.039,24.3-71.44,75.316-64.332,124.997l20.526-10.604
		C37.391,105.98,57.301,67.869,93.604,49.115"/>
	<path clip-path="url(#SVGID_2_)" fill="#FE761B" d="M189.295,234.348c-32.668,16.876-70.436,13.847-99.423-4.612l-21.504,11.109
		c36.22,28.548,87.243,35.15,130.815,12.643c43.57-22.508,67.712-67.943,65.391-114.001l-21.506,11.107
		C241.347,184.917,221.963,217.47,189.295,234.348"/>
</g>
</svg>
