<?xml version="1.0" encoding="utf-8"?>
<!-- Generator: Adobe Illustrator 16.0.0, SVG Export Plug-In . SVG Version: 6.00 Build 0)  -->
<!DOCTYPE svg PUBLIC "-//W3C//DTD SVG 1.1//EN" "http://www.w3.org/Graphics/SVG/1.1/DTD/svg11.dtd">
<svg version="1.1" id="图层_1" xmlns="http://www.w3.org/2000/svg" xmlns:xlink="http://www.w3.org/1999/xlink" x="0px" y="0px"
	 width="283.46px" height="283.46px" viewBox="0 0 283.46 283.46" enable-background="new 0 0 283.46 283.46" xml:space="preserve">
<g>
	<path fill="#272636" d="M245.981,254.667H37.48c-19.192,0-34.75-15.558-34.75-34.751V63.543c0-19.192,15.558-34.75,34.75-34.75
		h208.501c19.189,0,34.749,15.558,34.749,34.75v156.374C280.73,239.11,265.17,254.667,245.981,254.667L245.981,254.667z
		 M37.48,237.292h208.501c9.595,0,17.374-7.779,17.374-17.376V98.293H20.106v121.623c0,9.597,7.779,17.376,17.375,17.376H37.48z
		 M245.981,46.167H37.48c-9.595,0-17.374,7.779-17.374,17.376v17.375h243.249V63.543C263.355,53.946,255.578,46.167,245.981,46.167
		L245.981,46.167z M46.168,150.419h86.875c4.797,0,8.688,3.887,8.688,8.686c0,4.798-3.891,8.688-8.688,8.688H46.168
		c-4.799,0-8.688-3.891-8.688-8.688C37.48,154.306,41.369,150.419,46.168,150.419L46.168,150.419z M46.168,185.167h69.5
		c4.797,0,8.687,3.888,8.687,8.687s-3.89,8.688-8.687,8.688h-69.5c-4.799,0-8.688-3.89-8.688-8.688S41.369,185.167,46.168,185.167
		L46.168,185.167z M167.793,150.419h17.374c4.798,0,8.688,3.887,8.688,8.686c0,4.798-3.891,8.688-8.688,8.688h-17.374
		c-4.801,0-8.688-3.891-8.688-8.688C159.105,154.306,162.993,150.419,167.793,150.419L167.793,150.419z M167.793,150.419"/>
</g>
</svg>
