<?xml version="1.0" encoding="utf-8"?>
<!-- Generator: Adobe Illustrator 16.0.0, SVG Export Plug-In . SVG Version: 6.00 Build 0)  -->
<!DOCTYPE svg PUBLIC "-//W3C//DTD SVG 1.1//EN" "http://www.w3.org/Graphics/SVG/1.1/DTD/svg11.dtd">
<svg version="1.1" id="图层_1" xmlns="http://www.w3.org/2000/svg" xmlns:xlink="http://www.w3.org/1999/xlink" x="0px" y="0px"
	 width="283.46px" height="283.46px" viewBox="0 0 283.46 283.46" enable-background="new 0 0 283.46 283.46" xml:space="preserve">
<g>
	<path fill="#272636" d="M250.676,45.248H32.784c-16.596,0-30.054,11.149-30.054,24.904v143.161
		c0,13.753,13.458,24.899,30.054,24.899h217.893c16.598,0,30.054-11.148,30.054-24.899V70.154
		C280.732,56.397,267.274,45.248,250.676,45.248L250.676,45.248z M269.46,213.321c0,6.865-7.378,12.442-18.784,12.442H32.784
		c-8.295,0-19-5.577-19-12.442v-19.924c1.181,0.131,254.162,0.207,255.677,0.131V213.321L269.46,213.321z M269.46,169.753
		c-1.477-0.062-2.427-0.018-3.757-0.018l-247.946-0.001c-1.324,0-2.578,0.056-3.758,0.187V70.147c0-6.873,10.489-12.45,18.784-12.45
		h217.893c8.295,0,18.784,5.577,18.784,12.45V169.753L269.46,169.753z M269.46,169.753"/>
	<path fill="#272636" d="M26.201,79.521h76.27v9.905h-76.27V79.521L26.201,79.521z M26.201,79.521"/>
	<path fill="#272636" d="M26.201,102.303h92.613v10.896H26.201V102.303L26.201,102.303z M26.201,102.303"/>
	<path fill="#272636" d="M26.201,125.581h58.935v9.904H26.201V125.581L26.201,125.581z M26.201,125.581"/>
</g>
</svg>
