<?xml version="1.0" encoding="utf-8"?>
<!-- Generator: Adobe Illustrator 16.0.0, SVG Export Plug-In . SVG Version: 6.00 Build 0)  -->
<!DOCTYPE svg PUBLIC "-//W3C//DTD SVG 1.1//EN" "http://www.w3.org/Graphics/SVG/1.1/DTD/svg11.dtd">
<svg version="1.1" id="图层_1" xmlns="http://www.w3.org/2000/svg" xmlns:xlink="http://www.w3.org/1999/xlink" x="0px" y="0px"
	 width="283.46px" height="283.46px" viewBox="0 0 283.46 283.46" enable-background="new 0 0 283.46 283.46" xml:space="preserve">
<g>
	<path fill="#272636" d="M141.73,2.73c-76.819,0-139,62.186-139,139.002c0,76.813,62.181,138.997,139,138.997
		c76.817,0,139-62.185,139-138.997C280.73,64.917,218.547,2.73,141.73,2.73L141.73,2.73L141.73,2.73z M142.947,15.533
		c14.63,0,29.262,2.44,42.066,7.316v82.913L86.252,28.947C103.322,20.411,122.827,15.533,142.947,15.533L142.947,15.533
		L142.947,15.533z M185.013,142.339c0,23.17-18.9,42.067-42.066,42.067c-23.167,0-42.067-18.897-42.067-42.067
		c0-23.163,18.9-42.063,42.067-42.063C166.113,100.276,185.013,119.176,185.013,142.339L185.013,142.339L185.013,142.339z
		 M75.277,35.042l67.67,53.037H28.939C38.7,66.135,55.156,47.845,75.277,35.042L75.277,35.042L75.277,35.042z M16.139,142.339
		c0-14.63,2.438-29.261,7.316-42.063h82.916l-83.524,81.695C18.577,169.167,16.139,156.362,16.139,142.339L16.139,142.339
		L16.139,142.339z M88.688,256.957c-27.434-12.805-48.772-35.356-60.966-62.796l60.966-60.963V256.957L88.688,256.957
		L88.688,256.957z M142.947,269.147c-14.631,0-29.262-2.438-42.067-7.313v-85.351c1.829,1.829,3.657,4.267,5.489,6.096
		l76.207,80.474C169.773,266.709,156.967,269.147,142.947,269.147L142.947,269.147L142.947,269.147z M194.769,258.176
		l-60.968-60.967h123.761C244.149,224.038,222.201,245.374,194.769,258.176L194.769,258.176L194.769,258.176z M269.753,142.339
		c0,14.634-2.438,29.268-7.316,42.067h-85.351c2.438-1.828,4.267-3.657,6.096-5.488l0.608-0.609c1.829-1.829,3.658-4.267,4.88-6.705
		v-0.611l73.156-73.16C266.707,111.858,269.753,127.099,269.753,142.339L269.753,142.339L269.753,142.339z M197.207,146v-3.656
		V28.338c25.607,12.193,46.942,32.921,59.136,58.526L197.207,146L197.207,146L197.207,146z M197.207,146"/>
</g>
</svg>
