<?xml version="1.0" encoding="utf-8"?>
<!-- Generator: Adobe Illustrator 16.0.0, SVG Export Plug-In . SVG Version: 6.00 Build 0)  -->
<!DOCTYPE svg PUBLIC "-//W3C//DTD SVG 1.1//EN" "http://www.w3.org/Graphics/SVG/1.1/DTD/svg11.dtd">
<svg version="1.1" id="图层_1" xmlns="http://www.w3.org/2000/svg" xmlns:xlink="http://www.w3.org/1999/xlink" x="0px" y="0px"
	 width="283.46px" height="283.46px" viewBox="0 0 283.46 283.46" enable-background="new 0 0 283.46 283.46" xml:space="preserve">
<g>
	<path fill="#272636" d="M141.73,280.73c-76.647,0-138.999-62.354-138.999-139.002C2.731,65.082,65.083,2.73,141.73,2.73
		c76.647,0,138.999,62.352,138.999,138.998C280.729,218.376,218.377,280.73,141.73,280.73L141.73,280.73L141.73,280.73z
		 M141.73,22.677c-65.647,0-119.053,53.405-119.053,119.051c0,65.638,53.406,119.055,119.053,119.055
		c65.637,0,119.054-53.417,119.054-119.055C260.784,76.082,207.367,22.677,141.73,22.677L141.73,22.677L141.73,22.677z
		 M155.709,142.156l42.932-42.464c3.901-3.851,3.932-10.137,0.079-14.038c-3.853-3.904-10.147-3.933-14.039-0.08l-42.99,42.514
		L99.356,85.622c-3.883-3.881-10.158-3.901-14.039-0.018c-3.883,3.872-3.892,10.156-0.02,14.039l42.276,42.403l-42.625,42.167
		c-3.901,3.862-3.931,10.137-0.079,14.039c1.946,1.966,4.499,2.947,7.059,2.947c2.522,0,5.045-0.962,6.981-2.869l42.683-42.215
		l43.03,43.17c1.936,1.944,4.477,2.917,7.029,2.917c2.541,0,5.073-0.973,7.009-2.897c3.882-3.872,3.892-10.147,0.021-14.039
		L155.709,142.156L155.709,142.156L155.709,142.156z M155.709,142.156"/>
</g>
</svg>
