<?xml version="1.0" encoding="utf-8"?>
<!-- Generator: Adobe Illustrator 16.0.0, SVG Export Plug-In . SVG Version: 6.00 Build 0)  -->
<!DOCTYPE svg PUBLIC "-//W3C//DTD SVG 1.1//EN" "http://www.w3.org/Graphics/SVG/1.1/DTD/svg11.dtd">
<svg version="1.1" id="图层_1" xmlns="http://www.w3.org/2000/svg" xmlns:xlink="http://www.w3.org/1999/xlink" x="0px" y="0px"
	 width="283.46px" height="283.46px" viewBox="0 0 283.46 283.46" enable-background="new 0 0 283.46 283.46" xml:space="preserve">
<g>
	<path fill="#272636" d="M141.73,2.73c-76.768,0-139,62.231-139,139c0,76.769,62.232,139,139,139c76.769,0,139-62.231,139-139
		C280.73,64.962,218.499,2.73,141.73,2.73L141.73,2.73z M141.73,276.096c-74.091,0-134.366-60.275-134.366-134.366
		C7.364,67.64,67.639,7.364,141.73,7.364S276.096,67.64,276.096,141.73C276.096,215.821,215.821,276.096,141.73,276.096
		L141.73,276.096z M141.73,276.096"/>
	<path fill="#272636" d="M125.348,169.579l-42.591-42.592l-9.83,9.83l42.592,42.591l9.828,9.829l85.183-85.182l-9.828-9.83
		L125.348,169.579z M125.348,169.579"/>
</g>
</svg>
