<?xml version="1.0" encoding="utf-8"?>
<!-- Generator: Adobe Illustrator 16.0.0, SVG Export Plug-In . SVG Version: 6.00 Build 0)  -->
<!DOCTYPE svg PUBLIC "-//W3C//DTD SVG 1.1//EN" "http://www.w3.org/Graphics/SVG/1.1/DTD/svg11.dtd">
<svg version="1.1" id="图层_1" xmlns="http://www.w3.org/2000/svg" xmlns:xlink="http://www.w3.org/1999/xlink" x="0px" y="0px"
	 width="283.46px" height="283.46px" viewBox="0 0 283.46 283.46" enable-background="new 0 0 283.46 283.46" xml:space="preserve">
<g>
	<path fill="#272636" d="M223.543,173.313c27.247,0,49.334,22.088,49.334,49.335c0,27.246-22.087,49.335-49.334,49.335
		s-49.336-22.088-49.336-49.335C174.208,195.4,196.296,173.313,223.543,173.313L223.543,173.313L223.543,173.313z M248.14,217.974
		v-18.896l-31.674,28.242l-17.522-15.678v18.896l17.522,15.678L248.14,217.974L248.14,217.974z M270.938,99.869
		c0.061-1.386-0.372-2.634-1.348-3.671c-0.326-0.948-0.839-1.836-1.693-2.456L142.848,5.086c-0.833-0.609-1.823-0.913-2.859-0.947
		L68.964,2.731c-2.257-0.044-4.273,1.375-4.978,3.513c-0.697,2.127,0.063,4.47,1.898,5.766l32.45,23.002L82.841,46.216
		c-0.559,0.147-1.109,0.393-1.617,0.743L13.027,96.119c-1.336,0.969-2.113,2.534-2.1,4.2v0.068l-0.344,0.167v86.394l2.173,4.166
		l125.043,88.657l0.207-0.102c0.226,0.17,0.422,0.349,0.676,0.494c0.749,0.373,1.553,0.565,2.364,0.565
		c1.042,0,2.066-0.314,2.951-0.958l30.684-21.756c-2.006-2.77-3.776-5.703-5.311-8.783l-23.207,16.452v-73.83l114.779-81.394v65.059
		c1.813,1.439,3.548,2.983,5.201,4.637c1.812,1.813,3.497,3.727,5.052,5.73l0.001-85.334c0-0.258-0.226-0.439-0.26-0.687l0,0
		L270.938,99.869z M85.357,13.271l52.846,1.072l110.215,78.141l-52.847-1.047L85.357,13.271L85.357,13.271z M135.627,265.72
		L20.819,184.315v-73.842l114.808,81.385V265.72L135.627,265.72z M141.048,182.671l55.784-40.231L80.603,60.009l-55.787,40.231
		L141.048,182.671L141.048,182.671z M119.434,197.41v40.005l-87.507-62.052v-40.016L119.434,197.41L119.434,197.41z M119.434,197.41
		"/>
</g>
</svg>
