<?xml version="1.0" encoding="utf-8"?>
<!-- Generator: Adobe Illustrator 16.0.0, SVG Export Plug-In . SVG Version: 6.00 Build 0)  -->
<!DOCTYPE svg PUBLIC "-//W3C//DTD SVG 1.1//EN" "http://www.w3.org/Graphics/SVG/1.1/DTD/svg11.dtd">
<svg version="1.1" id="图层_1" xmlns="http://www.w3.org/2000/svg" xmlns:xlink="http://www.w3.org/1999/xlink" x="0px" y="0px"
	 width="283.46px" height="283.46px" viewBox="0 0 283.46 283.46" enable-background="new 0 0 283.46 283.46" xml:space="preserve">
<g>
	<defs>
		<rect id="SVGID_1_" x="2.73" y="28.262" width="278" height="226.937"/>
	</defs>
	<clipPath id="SVGID_2_">
		<use xlink:href="#SVGID_1_"  overflow="visible"/>
	</clipPath>
	<path clip-path="url(#SVGID_2_)" fill="#272636" d="M178.497,134.002c13.899-10.849,22.881-27.654,22.881-46.54
		c0-32.645-26.732-59.201-59.594-59.201c-32.862,0-59.594,26.556-59.594,59.201c0,18.886,8.981,35.69,22.881,46.54
		c-36.636,14.541-62.611,50.085-62.611,91.596v19.732c0,5.455,4.442,9.868,9.932,9.868h178.783c5.49,0,9.933-4.413,9.933-9.868
		v-19.732C241.108,184.079,215.132,148.542,178.497,134.002 M102.054,87.464c0-21.769,17.817-39.467,39.729-39.467
		c21.911,0,39.729,17.699,39.729,39.467c0,21.767-17.818,39.465-39.729,39.465C119.873,126.929,102.054,109.23,102.054,87.464
		 M221.241,235.464H62.325v-9.866c0-43.525,35.646-78.936,79.468-78.936c43.812,0,79.448,35.41,79.448,78.936V235.464z
		 M67.523,143.147l1.939-0.461c4.163-1.381,7.136-5.014,7.136-9.28c0-4.117-2.771-7.644-6.709-9.125
		c-10.632-4.795-17.497-15.334-17.497-26.941c0-13.15,8.716-24.233,20.678-28.075c2.094-6.42,5.263-12.362,9.294-17.618
		c0.706-1.16,1.446-2.297,2.221-3.41c-0.805-0.04-1.572-0.24-2.396-0.24c-27.381,0-49.662,22.132-49.662,49.343
		c0,12.488,4.792,24.194,12.92,33.1C19.588,143.743,2.73,170.356,2.73,200.467v15.265c0,5.453,4.442,9.866,9.932,9.866h17.796
		c0-6.759,0.693-13.356,2.003-19.733h-9.867v-5.397C22.594,173.193,41.047,149.789,67.523,143.147 M238.014,130.439
		c8.129-8.906,12.92-20.611,12.92-33.1c0-27.211-22.279-49.345-49.663-49.345c-0.823,0-1.589,0.202-2.396,0.242
		c0.774,1.113,1.515,2.25,2.222,3.408c4.032,5.258,7.2,11.199,9.292,17.62c11.962,3.841,20.681,14.925,20.681,28.075
		c0,11.607-6.866,22.146-17.499,26.941c-3.936,1.481-6.707,5.009-6.707,9.125c0,4.266,2.972,7.898,7.134,9.28l1.938,0.461
		c26.48,6.642,44.93,30.046,44.93,57.32v5.397H251c1.311,6.377,2.003,12.975,2.003,19.732h17.795c5.491,0,9.933-4.413,9.933-9.865
		v-15.265C280.732,170.356,263.874,143.743,238.014,130.439"/>
</g>
</svg>
