<?xml version="1.0" encoding="utf-8"?>
<!-- Generator: Adobe Illustrator 16.0.0, SVG Export Plug-In . SVG Version: 6.00 Build 0)  -->
<!DOCTYPE svg PUBLIC "-//W3C//DTD SVG 1.1//EN" "http://www.w3.org/Graphics/SVG/1.1/DTD/svg11.dtd">
<svg version="1.1" id="图层_1" xmlns="http://www.w3.org/2000/svg" xmlns:xlink="http://www.w3.org/1999/xlink" x="0px" y="0px"
	 width="283.46px" height="283.46px" viewBox="0 0 283.46 283.46" enable-background="new 0 0 283.46 283.46" xml:space="preserve">
<g>
	<path fill="#272636" d="M217.558,87.29h-6.336v158.695h-20.83V87.29h-34.765v158.695H134.78V87.29h-34.745v158.695H79.17V87.29
		H65.9c-15.696,0-28.441-0.227-28.441,0v165.818c0,15.261,12.728,27.622,28.441,27.622h151.658
		c15.698,0,28.426-12.361,28.426-27.622V87.29C245.984,86.12,233.256,87.29,217.558,87.29L217.558,87.29L217.558,87.29z
		 M259.638,37.475H197.34V20.521c0-9.83-17.565-17.791-27.813-17.791h-55.611c-10.231,0-27.797,7.961-27.797,17.791v16.954H23.822
		c-7.822,0-14.16,6.234-14.16,13.899S16,65.272,23.822,65.272h235.816c7.822,0,14.16-6.215,14.16-13.897
		C273.798,43.691,267.443,37.475,259.638,37.475L259.638,37.475L259.638,37.475z M169.527,37.475h-55.593v-6.948h55.593V37.475
		L169.527,37.475L169.527,37.475z M169.527,37.475"/>
</g>
</svg>
