<?xml version="1.0" encoding="utf-8"?>
<!-- Generator: Adobe Illustrator 16.0.0, SVG Export Plug-In . SVG Version: 6.00 Build 0)  -->
<!DOCTYPE svg PUBLIC "-//W3C//DTD SVG 1.1//EN" "http://www.w3.org/Graphics/SVG/1.1/DTD/svg11.dtd">
<svg version="1.1" id="图层_1" xmlns="http://www.w3.org/2000/svg" xmlns:xlink="http://www.w3.org/1999/xlink" x="0px" y="0px"
	 width="283.46px" height="283.46px" viewBox="0 0 283.46 283.46" enable-background="new 0 0 283.46 283.46" xml:space="preserve">
<g>
	<path fill="#272636" d="M42.445,55.682v185.333c0,21.936,17.785,39.715,39.713,39.715H201.3c21.93,0,39.716-17.779,39.716-39.715
		V55.682H42.445L42.445,55.682z M95.443,238.991c0,4.819-2.973,8.716-6.64,8.716h-6.646c-3.673,0-6.645-3.896-6.645-8.716V90.784
		c0-4.647,2.787-8.355,6.268-8.625h7.388c3.481,0.27,6.268,3.978,6.268,8.625v148.207H95.443z M155.014,238.991
		c0,4.819-2.973,8.716-6.64,8.716h-13.291c-3.667,0-6.638-3.896-6.638-8.716V90.784c0-4.647,2.786-8.355,6.268-8.625h14.026
		c3.481,0.27,6.268,3.978,6.268,8.625v148.207H155.014z M207.946,90.784v148.212c0,4.819-2.971,8.718-6.646,8.718h-6.646
		c-3.667,0-6.638-3.898-6.638-8.718V90.784c0-4.647,2.785-8.355,6.269-8.625h7.386C205.161,82.429,207.946,86.137,207.946,90.784
		L207.946,90.784z M207.946,90.784"/>
	<path fill="#272636" d="M241.016,2.73H42.445c-7.308,0-13.239,5.931-13.239,13.238v6.619c0,7.314,5.931,13.238,13.239,13.238
		h198.571c7.307,0,13.238-5.924,13.238-13.238v-6.619C254.254,8.661,248.33,2.73,241.016,2.73L241.016,2.73z M241.016,2.73"/>
</g>
</svg>
