<?xml version="1.0" encoding="utf-8"?>
<!-- Generator: Adobe Illustrator 16.0.0, SVG Export Plug-In . SVG Version: 6.00 Build 0)  -->
<!DOCTYPE svg PUBLIC "-//W3C//DTD SVG 1.1//EN" "http://www.w3.org/Graphics/SVG/1.1/DTD/svg11.dtd">
<svg version="1.1" id="图层_1" xmlns="http://www.w3.org/2000/svg" xmlns:xlink="http://www.w3.org/1999/xlink" x="0px" y="0px"
	 width="283.46px" height="283.46px" viewBox="0 0 283.46 283.46" enable-background="new 0 0 283.46 283.46" xml:space="preserve">
<g>
	<path fill="#272636" d="M252.195,122.137l-25.888,51.625c-1.766,1.757-4.093,2.567-6.404,2.508v0.21h-52.127v69.501
		c0,19.19-15.557,34.749-34.749,34.749h-17.374c-19.192,0-34.75-15.559-34.75-34.749V176.48h-34.75
		c-9.596,0-17.375-7.777-17.375-17.375V72.229c0-9.594,7.779-17.372,17.375-17.372h34.75V37.481
		c0-19.194,15.557-34.751,34.75-34.751h17.374c19.192,0,34.749,15.558,34.749,34.751v17.375h51.795
		c2.422-0.156,4.886,0.602,6.736,2.446l25.888,51.622c1.824,3.307,2.597,4.227,2.477,6.606
		C254.411,117.3,254.153,118.488,252.195,122.137L252.195,122.137z M98.278,245.981c0,9.595,7.779,17.374,17.375,17.374h17.376
		c9.594,0,17.373-7.779,17.373-17.374V176.48H98.278V245.981L98.278,245.981z M150.401,37.481c0-9.596-7.778-17.375-17.374-17.375
		h-17.374c-9.596,0-17.376,7.779-17.376,17.375v17.375h52.125V37.481L150.401,37.481z M216.087,73.919
		c-1.408-0.983-3.025-1.69-4.872-1.69H54.84c-4.798,0-8.688,3.892-8.688,8.689v69.5c0,4.797,3.89,8.687,8.688,8.687h156.375
		c1.756,0,3.298-0.651,4.665-1.548l21.073-42.026L216.087,73.919L216.087,73.919z M216.087,73.919"/>
</g>
</svg>
