<?xml version="1.0" encoding="utf-8"?>
<!-- Generator: Adobe Illustrator 16.0.0, SVG Export Plug-In . SVG Version: 6.00 Build 0)  -->
<!DOCTYPE svg PUBLIC "-//W3C//DTD SVG 1.1//EN" "http://www.w3.org/Graphics/SVG/1.1/DTD/svg11.dtd">
<svg version="1.1" id="图层_1" xmlns="http://www.w3.org/2000/svg" xmlns:xlink="http://www.w3.org/1999/xlink" x="0px" y="0px"
	 width="283.46px" height="283.46px" viewBox="0 0 283.46 283.46" enable-background="new 0 0 283.46 283.46" xml:space="preserve">
<g>
	<path fill="#272636" d="M270.263,68.118l-57.209-57.159C200.968-1.127,182.737,0.218,168.7,14.218L52.724,130.124h-0.005
		l-8.226,8.226l-6.399,6.393v0.007l-19.338,19.33c-0.979,0.979-1.61,2.256-1.793,3.634L2.798,273.579
		c-0.265,1.978,0.424,3.967,1.851,5.364c1.188,1.155,2.774,1.787,4.409,1.787c0.335,0,0.67-0.024,1.005-0.082l114.862-18.522
		c2.345-0.379,4.277-2.034,5.003-4.297c0.728-2.254,0.133-4.737-1.547-6.411l-60.495-60.458c-2.471-2.464-6.469-2.464-8.939,0
		c-2.463,2.471-2.463,6.47,0,8.939L110.7,251.62l-94.256,15.199l12.748-95.317l17.814-17.809c0-0.005,0.007-0.005,0.007-0.005
		L177.626,23.164c6.873-6.848,17.928-11.832,26.501-3.266l57.211,57.16c3.854,3.853,6.354,9.741,6.695,15.75
		c0.348,6.19-1.522,11.667-5.269,15.415L141.023,229.875c-2.47,2.469-2.47,6.469,0,8.939c1.232,1.231,2.856,1.851,4.474,1.851
		s3.233-0.619,4.466-1.846l121.742-121.654c6.33-6.33,9.507-15.231,8.951-25.067C280.125,82.933,276.341,74.196,270.263,68.118
		L270.263,68.118z M270.263,68.118"/>
</g>
</svg>
