<?xml version="1.0" encoding="utf-8"?>
<!-- Generator: Adobe Illustrator 16.0.0, SVG Export Plug-In . SVG Version: 6.00 Build 0)  -->
<!DOCTYPE svg PUBLIC "-//W3C//DTD SVG 1.1//EN" "http://www.w3.org/Graphics/SVG/1.1/DTD/svg11.dtd">
<svg version="1.1" id="图层_1" xmlns="http://www.w3.org/2000/svg" xmlns:xlink="http://www.w3.org/1999/xlink" x="0px" y="0px"
	 width="283.46px" height="283.46px" viewBox="0 0 283.46 283.46" enable-background="new 0 0 283.46 283.46" xml:space="preserve">
<g>
	<path fill="#272636" d="M45.029,124.07c-1.202-1.503-3.394-1.748-4.897-0.548l-13.367,10.679
		C30.643,73.606,80.511,26.593,141.655,26.593c38.309,0,73.999,18.979,95.474,50.766c1.078,1.594,3.244,2.015,4.838,0.938
		c1.595-1.078,2.014-3.244,0.937-4.839C220.13,39.75,182.281,19.626,141.655,19.626c-31.812,0-61.929,12.166-84.807,34.257
		c-22.185,21.421-35.289,49.956-37.082,80.598L8.969,120.537c-1.178-1.522-3.366-1.803-4.888-0.623
		c-1.521,1.178-1.801,3.366-0.622,4.888l15.502,20.025c0.572,0.738,1.415,1.215,2.343,1.327c0.138,0.017,0.275,0.024,0.414,0.024
		c0.786,0,1.553-0.266,2.175-0.763l20.589-16.448C45.985,127.765,46.229,125.574,45.029,124.07z"/>
	<path fill="#272636" d="M279.656,136.043l-18.503-17.722c-0.717-0.687-1.692-1.035-2.68-0.957
		c-0.989,0.076-1.899,0.571-2.501,1.361l-14.634,19.195c-1.167,1.53-0.871,3.717,0.658,4.884c0.632,0.48,1.373,0.713,2.11,0.713
		c1.05,0,2.088-0.472,2.772-1.371l9.311-12.213c0.396,3.904,0.601,7.859,0.601,11.795c0,63.486-51.649,115.136-115.136,115.136
		c-43.73,0-83.145-24.271-102.857-63.344c-0.866-1.719-2.963-2.409-4.68-1.541c-1.718,0.866-2.407,2.963-1.541,4.681
		c10.029,19.879,25.313,36.659,44.195,48.526c19.412,12.198,41.849,18.647,64.883,18.647c16.482,0,32.473-3.229,47.529-9.599
		c14.541-6.149,27.599-14.953,38.811-26.165c11.212-11.214,20.018-24.271,26.167-38.813c6.367-15.055,9.597-31.047,9.597-47.529
		c0-3.938-0.19-7.892-0.565-11.805l11.643,11.151c1.39,1.332,3.597,1.283,4.926-0.106
		C281.093,139.58,281.045,137.375,279.656,136.043z"/>
	<path fill="#272636" d="M200.629,99.304l-63.627,75.413l-46.79-41.751c-1.437-1.282-3.64-1.156-4.92,0.278
		c-1.281,1.437-1.155,3.64,0.279,4.92l49.464,44.138c0.641,0.572,1.467,0.885,2.32,0.885c0.081,0,0.164-0.002,0.246-0.009
		c0.938-0.066,1.811-0.51,2.417-1.229l65.937-78.153c1.24-1.47,1.055-3.669-0.417-4.909
		C204.067,97.646,201.871,97.833,200.629,99.304z"/>
</g>
</svg>
