<?xml version="1.0" encoding="utf-8"?>
<!-- Generator: Adobe Illustrator 16.0.0, SVG Export Plug-In . SVG Version: 6.00 Build 0)  -->
<!DOCTYPE svg PUBLIC "-//W3C//DTD SVG 1.1//EN" "http://www.w3.org/Graphics/SVG/1.1/DTD/svg11.dtd">
<svg version="1.1" id="图层_1" xmlns="http://www.w3.org/2000/svg" xmlns:xlink="http://www.w3.org/1999/xlink" x="0px" y="0px"
	 width="283.46px" height="283.46px" viewBox="0 0 283.46 283.46" enable-background="new 0 0 283.46 283.46" xml:space="preserve">
<g>
	<path fill="#272636" d="M244.39,280.73H37.254c-19.069,0-34.524-15.463-34.524-34.541V38.914c0-19.087,15.681-36.184,34.75-36.184
		h139v17.375h-139c-9.53,0-17.487,9.261-17.487,18.809v207.275c0,9.529,7.723,17.271,17.262,17.271H244.39
		c9.531,0,18.965-7.94,18.965-17.479V106.98h17.375v139.001C280.73,265.059,263.46,280.73,244.39,280.73L244.39,280.73z
		 M132.53,205.714c-2.519,2.519-5.682,3.787-8.939,4.422l-75.582,37.382c-8.505,3.953-15.316-3.683-12.18-12.188l37.357-75.634
		c0.634-3.258,1.902-6.42,4.421-8.948L211.873,16.396c6.742-6.742,17.671-6.742,24.412,0l30.511,30.537
		c6.742,6.741,6.742,17.679,0,24.428L132.53,205.714L132.53,205.714z M52.362,224.878c-1.981,3.987,1.833,8.07,6.09,6.099
		l46.67-28.27l-24.517-24.523L52.362,224.878L52.362,224.878z M89.813,162.963l97.431-97.492l30.729,30.319L120.325,193.5
		C108.882,182.049,93.054,166.212,89.813,162.963L89.813,162.963z M248.492,53.04l-18.313-18.322c-3.371-3.37-8.836-3.37-12.206,0
		l-17.871,17.888l30.077,30.972l18.313-18.323C251.853,61.883,251.853,56.411,248.492,53.04L248.492,53.04z M248.492,53.04"/>
</g>
</svg>
