<?xml version="1.0" encoding="utf-8"?>
<!-- Generator: Adobe Illustrator 16.0.0, SVG Export Plug-In . SVG Version: 6.00 Build 0)  -->
<!DOCTYPE svg PUBLIC "-//W3C//DTD SVG 1.1//EN" "http://www.w3.org/Graphics/SVG/1.1/DTD/svg11.dtd">
<svg version="1.1" id="图层_1" xmlns="http://www.w3.org/2000/svg" xmlns:xlink="http://www.w3.org/1999/xlink" x="0px" y="0px"
	 width="283.46px" height="283.46px" viewBox="0 0 283.46 283.46" enable-background="new 0 0 283.46 283.46" xml:space="preserve">
<g>
	<path fill="#272636" d="M95.397,172.618H18.175c-8.531,0-15.445,6.914-15.445,15.445v77.222c0,8.532,6.914,15.447,15.445,15.447
		h77.222c8.53,0,15.444-6.915,15.444-15.447v-77.222C110.841,179.532,103.927,172.618,95.397,172.618L95.397,172.618z
		 M95.397,257.563c0,4.267-3.458,7.722-7.722,7.722H25.897c-4.265,0-7.722-3.455-7.722-7.722v-61.778
		c0-4.265,3.457-7.722,7.722-7.722h61.778c4.265,0,7.722,3.457,7.722,7.722V257.563L95.397,257.563z M145.591,172.618h-7.722
		c-2.132,0-3.861,1.729-3.861,3.862v69.5c0,2.134,1.729,3.861,3.861,3.861h7.722c2.132,0,3.86-1.728,3.86-3.861v-69.5
		C149.452,174.346,147.723,172.618,145.591,172.618L145.591,172.618z M137.87,110.839h7.722c2.132,0,3.86-1.729,3.86-3.861V6.591
		c0-2.132-1.729-3.862-3.86-3.862h-7.722c-2.132,0-3.861,1.73-3.861,3.862v100.388C134.008,109.11,135.737,110.839,137.87,110.839
		L137.87,110.839z M18.175,110.839h77.222c8.53,0,15.444-6.914,15.444-15.442V18.172c0-8.528-6.914-15.444-15.444-15.444H18.175
		C9.645,2.729,2.73,9.644,2.73,18.172v77.225C2.73,103.925,9.645,110.839,18.175,110.839L18.175,110.839z M18.175,25.896
		c0-4.266,3.457-7.724,7.722-7.724h61.778c4.265,0,7.722,3.458,7.722,7.724v61.778c0,4.264-3.458,7.724-7.722,7.724H25.897
		c-4.265,0-7.722-3.459-7.722-7.724V25.896L18.175,25.896z M191.924,195.787h-7.723c-2.132,0-3.86,1.729-3.86,3.86v77.222
		c0,2.133,1.729,3.863,3.86,3.863h7.723c2.132,0,3.862-1.73,3.862-3.863v-77.222C195.787,197.515,194.056,195.787,191.924,195.787
		L191.924,195.787z M276.87,134.006H6.591c-2.132,0-3.861,1.729-3.861,3.861v7.722c0,2.132,1.729,3.861,3.861,3.861H276.87
		c2.132,0,3.86-1.729,3.86-3.861v-7.722C280.73,135.735,279.001,134.006,276.87,134.006L276.87,134.006z M265.285,2.729h-77.222
		c-8.529,0-15.443,6.916-15.443,15.444v77.225c0,8.528,6.914,15.442,15.443,15.442h77.222c8.531,0,15.445-6.914,15.445-15.442
		V18.172C280.73,9.644,273.816,2.729,265.285,2.729L265.285,2.729z M265.285,87.674c0,4.264-3.456,7.724-7.722,7.724h-61.776
		c-4.266,0-7.724-3.459-7.724-7.724V25.896c0-4.266,3.458-7.724,7.724-7.724h61.776c4.266,0,7.722,3.458,7.722,7.724V87.674
		L265.285,87.674z M230.537,195.787h-7.724c-2.132,0-3.861,1.729-3.861,3.86v77.222c0,2.133,1.729,3.863,3.861,3.863h7.724
		c2.132,0,3.86-1.73,3.86-3.863v-77.222C234.397,197.515,232.668,195.787,230.537,195.787L230.537,195.787z M269.146,172.618h-7.722
		c-2.132,0-3.861,1.729-3.861,3.862v100.389c0,2.133,1.729,3.863,3.861,3.863h7.722c2.134,0,3.862-1.73,3.862-3.863V176.48
		C273.008,174.346,271.28,172.618,269.146,172.618L269.146,172.618z M269.146,172.618"/>
</g>
</svg>
