<?xml version="1.0" encoding="utf-8"?>
<!-- Generator: Adobe Illustrator 16.0.0, SVG Export Plug-In . SVG Version: 6.00 Build 0)  -->
<!DOCTYPE svg PUBLIC "-//W3C//DTD SVG 1.1//EN" "http://www.w3.org/Graphics/SVG/1.1/DTD/svg11.dtd">
<svg version="1.1" id="图层_1" xmlns="http://www.w3.org/2000/svg" xmlns:xlink="http://www.w3.org/1999/xlink" x="0px" y="0px"
	 width="283.46px" height="283.46px" viewBox="0 0 283.46 283.46" enable-background="new 0 0 283.46 283.46" xml:space="preserve">
<g>
	<path fill="#272636" d="M141.732,280.728c-76.774,0-139.002-62.223-139.002-138.99C2.73,64.956,64.958,2.732,141.732,2.732
		c76.773,0,138.998,62.224,138.998,139.005C280.73,218.505,218.505,280.728,141.732,280.728L141.732,280.728z M141.732,263.37
		c67.068,0,121.638-54.571,121.638-121.63c0-67.077-54.57-121.644-121.638-121.644c-67.068,0-121.635,54.567-121.635,121.644
		C20.097,208.798,74.664,263.37,141.732,263.37"/>
	<path fill="#272636" d="M141.732,185.179c-28.795,0-52.132-23.35-52.132-52.136c0-28.788,23.337-52.119,52.132-52.119
		s52.135,23.331,52.135,52.119C193.868,161.83,170.528,185.179,141.732,185.179L141.732,185.179z M141.732,167.801
		c19.165,0,34.742-15.593,34.742-34.758c0-19.15-15.577-34.748-34.742-34.748c-19.167,0-34.749,15.598-34.749,34.748
		C106.984,152.208,122.566,167.801,141.732,167.801"/>
	<path fill="#272636" d="M80.92,247.263H63.545c0-43.185,35.001-78.189,78.187-78.189c43.184,0,78.182,35.005,78.182,78.189h-17.367
		c0-33.528-27.285-60.814-60.815-60.814C108.201,186.449,80.92,213.735,80.92,247.263"/>
</g>
</svg>
