<?xml version="1.0" encoding="utf-8"?>
<!-- Generator: Adobe Illustrator 16.0.0, SVG Export Plug-In . SVG Version: 6.00 Build 0)  -->
<!DOCTYPE svg PUBLIC "-//W3C//DTD SVG 1.1//EN" "http://www.w3.org/Graphics/SVG/1.1/DTD/svg11.dtd">
<svg version="1.1" id="图层_1" xmlns="http://www.w3.org/2000/svg" xmlns:xlink="http://www.w3.org/1999/xlink" x="0px" y="0px"
	 width="283.46px" height="283.46px" viewBox="0 0 283.46 283.46" enable-background="new 0 0 283.46 283.46" xml:space="preserve">
<g>
	<path fill="#272636" d="M141.73,16.63c68.984,0,125.101,56.116,125.101,125.1c0,68.984-56.116,125.101-125.101,125.101
		c-68.983,0-125.1-56.116-125.1-125.101C16.63,72.747,72.747,16.63,141.73,16.63 M141.73,2.73c-76.767,0-139,62.232-139,139
		c0,76.768,62.232,139,139,139c76.768,0,139-62.232,139-139C280.73,64.963,218.498,2.73,141.73,2.73L141.73,2.73L141.73,2.73z
		 M141.73,2.73"/>
	<path fill="#272636" d="M70.067,226.341c-0.477-0.476-1.172-1.648-2.106-3.495c-4.188-6.533-7.465-11.18-9.79-13.979
		c34.016-9.79,55.7-24.227,65.032-43.349H74.951v-46.167l-6.295,4.904c-0.458-0.933-1.391-2.344-2.799-4.21
		c-1.391-2.322-4.191-6.055-8.401-11.179c22.379-14.914,39.615-32.169,51.749-51.747l20.988,2.8
		c-2.799,4.666-5.599,8.856-8.399,12.589h65.727v13.979l-19.56,19.579h39.157V165.5h-64.336c-0.476,1.866-1.389,3.971-2.8,6.295
		h18.188v23.073c-0.933,6.99,3.258,10.247,12.59,9.789h21.684c7.924,0.458,12.352-2.562,13.285-9.094
		c0-0.934,0.237-2.324,0.695-4.19c0.933-6.989,1.627-12.351,2.104-16.083c1.866,0.476,4.903,1.389,9.094,2.8
		c4.19,1.389,6.99,2.342,8.399,2.799c0,0.934-0.238,1.867-0.694,2.8c-0.933,9.79-2.105,16.778-3.494,20.969
		c-2.344,11.18-10.724,16.541-25.18,16.085h-32.903c-16.322,0.456-24.246-6.532-23.769-20.969v-27.285
		C130.193,193.934,106.881,211.885,70.067,226.341L70.067,226.341z M163.057,87.898h-53.833c-5.143,6.532-11.2,12.57-18.188,18.169
		h53.831L163.057,87.898L163.057,87.898z M93.14,121.456v28.674h35.664c0-0.458,0.238-1.151,0.694-2.106v-1.389
		c1.867-7.923,2.8-16.303,2.8-25.179H93.14L93.14,121.456z M189.625,121.456h-38.464c-0.933,10.723-2.084,19.34-3.495,25.875
		l-0.693,2.8h42.652V121.456L189.625,121.456z M189.625,121.456"/>
</g>
</svg>
