<?xml version="1.0" encoding="utf-8"?>
<!-- Generator: Adobe Illustrator 16.0.0, SVG Export Plug-In . SVG Version: 6.00 Build 0)  -->
<!DOCTYPE svg PUBLIC "-//W3C//DTD SVG 1.1//EN" "http://www.w3.org/Graphics/SVG/1.1/DTD/svg11.dtd">
<svg version="1.1" id="图层_1" xmlns="http://www.w3.org/2000/svg" xmlns:xlink="http://www.w3.org/1999/xlink" x="0px" y="0px"
	 width="283.46px" height="283.46px" viewBox="0 0 283.46 283.46" enable-background="new 0 0 283.46 283.46" xml:space="preserve">
<g>
	<path fill="#272636" d="M141.73,2.73c-76.768,0-139,62.232-139,139c0,76.769,62.232,139,139,139c76.769,0,139-62.231,139-139
		C280.73,64.962,218.499,2.73,141.73,2.73L141.73,2.73z M141.73,267.635c-69.535,0-125.905-56.368-125.905-125.905
		c0-69.536,56.37-125.905,125.905-125.905c69.537,0,125.907,56.37,125.907,125.905C267.637,211.267,211.267,267.635,141.73,267.635
		L141.73,267.635z M141.73,267.635"/>
	<path fill="#272636" d="M46.347,202.022h31.138V99.631h16.429v102.391h48.521V72.313h-87.3v-14.9h173.836v14.9h-70.107v50.049
		h63.612v14.709h-63.612v64.95h77.748v14.9H46.347V202.022L46.347,202.022z M46.347,202.022"/>
</g>
</svg>
