<?xml version="1.0" encoding="utf-8"?>
<!-- Generator: Adobe Illustrator 16.0.0, SVG Export Plug-In . SVG Version: 6.00 Build 0)  -->
<!DOCTYPE svg PUBLIC "-//W3C//DTD SVG 1.1//EN" "http://www.w3.org/Graphics/SVG/1.1/DTD/svg11.dtd">
<svg version="1.1" id="图层_1" xmlns="http://www.w3.org/2000/svg" xmlns:xlink="http://www.w3.org/1999/xlink" x="0px" y="0px"
	 width="283.46px" height="283.46px" viewBox="0 0 283.46 283.46" enable-background="new 0 0 283.46 283.46" xml:space="preserve">
<g>
	<path fill="#272636" d="M276.963,62.736h-25.282V22.459c0-2.082-1.686-3.768-3.765-3.768H42.646
		c-10.652,0-20.755,5.053-28.448,14.226C6.911,41.611,2.73,53.145,2.73,64.565c0,0.335,0.048,0.659,0.13,0.969
		c-0.083,0.31-0.13,0.633-0.13,0.969v194.499c0,2.08,1.686,3.768,3.767,3.768h270.466c2.081,0,3.767-1.688,3.767-3.768V66.502
		C280.73,64.423,279.044,62.736,276.963,62.736z M42.646,26.224h201.503v36.512H10.304C11.172,43.083,25.912,26.224,42.646,26.224z
		 M273.198,257.235H10.263V70.27h262.935V257.235z"/>
	<path fill="#272636" d="M87.753,125.473c0.978,0,1.954-0.377,2.691-1.128c11.856-12.096,27.715-18.759,44.651-18.759
		c13.973,0,27.183,4.506,38.208,13.029c1.645,1.273,4.01,0.971,5.284-0.676c1.272-1.646,0.969-4.012-0.676-5.284
		c-12.355-9.553-27.162-14.602-42.816-14.602c-18.976,0-36.745,7.462-50.031,21.016c-1.456,1.487-1.432,3.872,0.053,5.328
		C85.85,125.116,86.803,125.473,87.753,125.473z"/>
	<path fill="#272636" d="M135.095,238.167c38.63,0,70.057-31.429,70.057-70.057c0-10.531-2.279-20.655-6.774-30.093
		c-0.895-1.878-3.142-2.674-5.02-1.781c-1.878,0.895-2.677,3.144-1.781,5.022c4.01,8.417,6.043,17.452,6.043,26.852
		c0,34.475-28.048,62.522-62.524,62.522c-34.475,0-62.522-28.048-62.522-62.522c0-5.432,0.696-10.82,2.069-16.019
		c0.532-2.011-0.669-4.072-2.678-4.604c-2.013-0.531-4.073,0.668-4.605,2.68c-1.539,5.824-2.32,11.861-2.32,17.942
		C65.039,206.738,96.467,238.167,135.095,238.167z"/>
	<path fill="#272636" d="M73.659,136.738l59.361,52.967c0.692,0.618,1.585,0.956,2.507,0.956c0.089,0,0.177-0.003,0.266-0.009
		c1.016-0.072,1.958-0.552,2.614-1.328l79.127-93.789c1.341-1.591,1.14-3.967-0.449-5.309c-1.591-1.341-3.967-1.14-5.31,0.451
		l-76.631,90.829l-56.471-50.39c-1.551-1.384-3.933-1.249-5.318,0.304C71.971,132.97,72.105,135.352,73.659,136.738z"/>
</g>
</svg>
