<?xml version="1.0" encoding="utf-8"?>
<!-- Generator: Adobe Illustrator 16.0.0, SVG Export Plug-In . SVG Version: 6.00 Build 0)  -->
<!DOCTYPE svg PUBLIC "-//W3C//DTD SVG 1.1//EN" "http://www.w3.org/Graphics/SVG/1.1/DTD/svg11.dtd">
<svg version="1.1" id="图层_1" xmlns="http://www.w3.org/2000/svg" xmlns:xlink="http://www.w3.org/1999/xlink" x="0px" y="0px"
	 width="283.46px" height="283.46px" viewBox="0 0 283.46 283.46" enable-background="new 0 0 283.46 283.46" xml:space="preserve">
<g>
	<path fill="#272636" d="M279.304,121.997c-5.276-36.741-24.547-69.236-54.258-91.495C195.341,8.25,158.738-1.107,122.007,4.166
		c-30.05,4.316-57.249,17.997-78.341,39.091c-4.703,4.704-9.095,9.771-13.146,15.198C8.248,88.168-1.102,124.783,4.169,161.518
		c2.871,19.874,9.778,38.434,20.553,55.201c2.962,4.604,9.11,5.938,13.721,2.97c4.583-2.94,5.93-9.104,2.97-13.723
		c-9.232-14.341-15.142-30.248-17.59-47.271C14.48,93.672,59.776,33.169,124.827,23.848c31.481-4.528,62.85,3.482,88.315,22.561
		c25.472,19.073,41.988,46.92,46.51,78.411c9.327,65.037-35.987,125.533-100.97,134.853c-27.263,3.918-55.207-1.788-78.687-16.061
		c-4.688-2.849-10.767-1.317-13.636,3.335c-2.843,4.682-1.354,10.789,3.333,13.639c27.41,16.643,60.014,23.306,91.811,18.744
		C237.331,268.427,290.198,197.866,279.304,121.997z"/>
	<path fill="#272636" d="M127.92,219.832c0,8.22,6.671,14.891,14.889,14.891c8.22,0,14.891-6.671,14.891-14.891
		c0-8.219-6.671-14.891-14.891-14.891C134.591,204.941,127.92,211.613,127.92,219.832z"/>
	<path fill="#272636" d="M170.287,133.224c10.889-10.889,22.155-22.147,22.155-36.998c0-27.498-22.264-49.866-49.633-49.866
		c-27.366,0-49.633,22.069-49.633,49.191c0,5.479,4.447,9.926,9.928,9.926c5.479,0,9.927-4.447,9.927-9.926
		c0-16.451,13.082-29.336,29.779-29.336c16.418,0,29.779,13.46,29.779,30.01c0,6.621-8.308,14.921-16.339,22.952
		c-10.958,10.949-23.367,23.358-23.367,39.6v16.788c0,5.479,4.447,9.927,9.926,9.927s9.926-4.448,9.926-9.927v-16.788
		C152.736,150.768,161.65,141.853,170.287,133.224z"/>
</g>
</svg>
