<?xml version="1.0" encoding="utf-8"?>
<!-- Generator: Adobe Illustrator 16.0.0, SVG Export Plug-In . SVG Version: 6.00 Build 0)  -->
<!DOCTYPE svg PUBLIC "-//W3C//DTD SVG 1.1//EN" "http://www.w3.org/Graphics/SVG/1.1/DTD/svg11.dtd">
<svg version="1.1" id="图层_1" xmlns="http://www.w3.org/2000/svg" xmlns:xlink="http://www.w3.org/1999/xlink" x="0px" y="0px"
	 width="283.46px" height="283.46px" viewBox="0 0 283.46 283.46" enable-background="new 0 0 283.46 283.46" xml:space="preserve">
<g>
	<path fill="#272636" d="M141.73,2.73c-76.77,0-139,62.23-139,139c0,76.771,62.229,139,139,139c76.771,0,139-62.229,139-139
		C280.73,64.96,218.5,2.73,141.73,2.73L141.73,2.73z M141.73,265.286c-68.232,0-123.555-55.316-123.555-123.556
		c0-68.236,55.323-123.555,123.555-123.555c68.244,0,123.556,55.318,123.556,123.555
		C265.286,209.969,209.974,265.286,141.73,265.286L141.73,265.286z M141.73,265.286"/>
	<path fill="#272636" d="M136.583,59.361h10.296v164.741h-10.296V59.361L136.583,59.361z M136.583,59.361"/>
	<path fill="#272636" d="M59.36,136.583h164.742v10.296H59.36V136.583L59.36,136.583z M59.36,136.583"/>
</g>
</svg>
