<?xml version="1.0" encoding="utf-8"?>
<!-- Generator: Adobe Illustrator 16.0.0, SVG Export Plug-In . SVG Version: 6.00 Build 0)  -->
<!DOCTYPE svg PUBLIC "-//W3C//DTD SVG 1.1//EN" "http://www.w3.org/Graphics/SVG/1.1/DTD/svg11.dtd">
<svg version="1.1" id="图层_1" xmlns="http://www.w3.org/2000/svg" xmlns:xlink="http://www.w3.org/1999/xlink" x="0px" y="0px"
	 width="283.46px" height="283.46px" viewBox="0 0 283.46 283.46" enable-background="new 0 0 283.46 283.46" xml:space="preserve">
<path fill-rule="evenodd" clip-rule="evenodd" d="M260.873,161.583h-99.289v99.289c0,10.979-8.878,19.857-19.857,19.857
	c-10.955,0-19.85-8.879-19.85-19.857v-99.289H22.588c-10.963,0-19.858-8.878-19.858-19.857c0-10.955,8.895-19.85,19.858-19.85
	h99.289V22.588c0-10.971,8.895-19.858,19.85-19.858c10.979,0,19.857,8.887,19.857,19.858v99.289h99.289
	c10.979,0,19.857,8.895,19.857,19.85C280.73,152.706,271.851,161.583,260.873,161.583z"/>
</svg>
