<?xml version="1.0" encoding="utf-8"?>
<!-- Generator: Adobe Illustrator 16.0.0, SVG Export Plug-In . SVG Version: 6.00 Build 0)  -->
<!DOCTYPE svg PUBLIC "-//W3C//DTD SVG 1.1//EN" "http://www.w3.org/Graphics/SVG/1.1/DTD/svg11.dtd">
<svg version="1.1" id="图层_1" xmlns="http://www.w3.org/2000/svg" xmlns:xlink="http://www.w3.org/1999/xlink" x="0px" y="0px"
	 width="283.46px" height="283.46px" viewBox="0 0 283.46 283.46" enable-background="new 0 0 283.46 283.46" xml:space="preserve">
<g>
	<path fill="#272636" d="M131.805,12.517c0,0,23.592-18.195,64.2-4.967c0,0,13.653,4.967,29.39,19.067l48.879,51.343l-26.12,26.078
		l-74.539-75.785C173.615,28.252,161.195,12.942,131.805,12.517L131.805,12.517L131.805,12.517z M239.492,113.164l-30.659,29.791
		c0,0-4.972,7.07-9.133,0.425l-56.31-55.078c0,0-4.97-6.625-8.695-0.808L77.958,145.46c0,0-3.729,5.798,0.817,8.282l55.495,55.525
		c0,0,4.564,7.432,8.694,1.614l57.586-57.969c0,0,1.652-4.949,10.767-3.736h58.792c0,0,2.508,59.668-43.062,96.909
		c0,0-59.22,59.244-140.382,22.785c0,0-78.29-27.327-77.473-128.803c0,0,2.092-67.928,63.793-103.937
		c0,0,45.146-33.552,81.177-8.708L239.492,113.164L239.492,113.164L239.492,113.164z M239.492,113.164"/>
</g>
</svg>
