<?xml version="1.0" encoding="utf-8"?>
<!-- Generator: Adobe Illustrator 16.0.0, SVG Export Plug-In . SVG Version: 6.00 Build 0)  -->
<!DOCTYPE svg PUBLIC "-//W3C//DTD SVG 1.1//EN" "http://www.w3.org/Graphics/SVG/1.1/DTD/svg11.dtd">
<svg version="1.1" id="图层_1" xmlns="http://www.w3.org/2000/svg" xmlns:xlink="http://www.w3.org/1999/xlink" x="0px" y="0px"
	 width="283.46px" height="283.46px" viewBox="0 0 283.46 283.46" enable-background="new 0 0 283.46 283.46" xml:space="preserve">
<g>
	<path fill="#272636" d="M2.796,280.295c91.813,0,183.628-0.008,275.441,0.04c1.732,0.002,2.127-0.391,2.127-2.125
		c-0.05-91.813-0.043-183.628-0.043-275.441c0.108,0.076,0.363-0.175,0.351,0.173c-0.014,0.461-0.004,0.923-0.004,1.385
		c0,91.585-0.001,183.171,0.034,274.756c0,1.298-0.294,1.592-1.592,1.592c-91.585-0.035-183.171-0.032-274.756-0.055
		C3.849,280.621,3.181,281.02,2.796,280.295L2.796,280.295z M2.796,280.295"/>
	<path fill="#272636" d="M280.483,4.64c0-0.625,0.157-1.271-0.161-1.871c-91.959,0-183.919,0.003-275.881-0.039
		c-1.404,0-1.684,0.279-1.684,1.683C2.8,96.375,2.796,188.335,2.796,280.295c0.6,0.318,1.247,0.16,1.869,0.16
		c91.233,0.009,182.466,0.009,273.697,0.006c2.384,0,2.126,0.255,2.126-2.124C280.492,187.106,280.492,95.873,280.483,4.64
		L280.483,4.64z M257.269,259.192c-38.63-0.048-77.259-0.037-115.887-0.037c-38.513,0-77.026-0.011-115.539,0.039
		c-1.575,0.002-1.947-0.391-1.945-1.952c0.042-77.144,0.042-154.286-0.002-231.43c0-1.573,0.39-1.943,1.951-1.941
		c77.143,0.041,154.286,0.041,231.429-0.002c1.57,0,1.945,0.384,1.945,1.949c-0.043,77.143-0.043,154.287,0,231.429
		C259.222,258.822,258.832,259.194,257.269,259.192L257.269,259.192z M257.269,259.192"/>
	<path fill="#272636" d="M63.438,150.028c0-23.036,0.023-46.072-0.047-69.107c-0.006-1.742,0.493-2.035,2.088-2
		c4.962,0.111,9.931,0.111,14.893-0.002c1.543-0.035,1.734,0.504,1.731,1.855c-0.046,16.742-0.03,33.486-0.03,50.229
		c0,23.326,0.027,46.65-0.051,69.976c-0.005,1.826,0.531,2.092,2.177,2.085c17.726-0.061,35.449-0.021,53.175-0.069
		c1.346-0.004,1.713,0.321,1.689,1.682c-0.089,4.905-0.087,9.814,0,14.722c0.022,1.333-0.37,1.607-1.641,1.602
		c-12.298-0.05-24.596-0.037-36.894-0.028c-11.777,0.011-23.555,0.013-35.332,0.092c-1.4,0.011-1.807-0.272-1.804-1.752
		c0.053-23.095,0.037-46.188,0.037-69.281C63.432,150.028,63.434,150.028,63.438,150.028L63.438,150.028z M63.438,150.028"/>
	<path fill="#272636" d="M236.408,119.427c-4.07,9.51-8.024,18.759-11.985,28.001c-10.239,23.899-20.495,47.789-30.688,71.708
		c-0.614,1.44-1.323,1.961-2.892,1.874c-2.704-0.148-5.427-0.126-8.134-0.005c-1.365,0.062-1.999-0.354-2.497-1.652
		c-10.046-26.086-20.14-52.154-30.228-78.225c-2.575-6.651-5.162-13.298-7.729-19.952c-0.2-0.52-0.58-1.005-0.43-1.75
		c4.771,0,9.554,0.031,14.337-0.023c1.103-0.012,1.158,0.792,1.413,1.431c4.771,12.03,9.521,24.069,14.281,36.104
		c4.822,12.195,9.649,24.389,14.478,36.581c0.146,0.368,0.319,0.725,0.578,1.309c2.638-5.876,5.195-11.557,7.739-17.241
		c8.458-18.903,16.922-37.805,25.346-56.723c0.456-1.026,0.922-1.494,2.131-1.473C226.798,119.477,231.472,119.427,236.408,119.427
		L236.408,119.427z M236.408,119.427"/>
</g>
</svg>
