<?xml version="1.0" encoding="utf-8"?>
<!-- Generator: Adobe Illustrator 16.0.0, SVG Export Plug-In . SVG Version: 6.00 Build 0)  -->
<!DOCTYPE svg PUBLIC "-//W3C//DTD SVG 1.1//EN" "http://www.w3.org/Graphics/SVG/1.1/DTD/svg11.dtd">
<svg version="1.1" id="图层_1" xmlns="http://www.w3.org/2000/svg" xmlns:xlink="http://www.w3.org/1999/xlink" x="0px" y="0px"
	 width="283.46px" height="283.46px" viewBox="0 0 283.46 283.46" enable-background="new 0 0 283.46 283.46" xml:space="preserve">
<g>
	<path fill="#272636" d="M194.323,175.546h-65.741c-4.152,0-7.519-3.367-7.519-7.521c0-4.151,3.367-7.519,7.519-7.519h65.741
		c3.103,0,5.629-2.524,5.629-5.629V62.842c0-3.104-2.526-5.628-5.629-5.628H23.398c-3.104,0-5.628,2.524-5.628,5.628v92.036
		c0,3.104,2.524,5.629,5.628,5.629c4.152,0,7.519,3.367,7.519,7.519c0,4.153-3.367,7.521-7.519,7.521
		c-11.397,0-20.668-9.271-20.668-20.668V62.842c0-11.396,9.271-20.667,20.668-20.667h170.925c11.396,0,20.668,9.271,20.668,20.667
		v92.036C214.991,166.275,205.719,175.546,194.323,175.546L194.323,175.546z M194.323,175.546"/>
	<path fill="#272636" d="M260.064,241.286H89.138c-11.396,0-20.667-9.271-20.667-20.666v-92.038
		c0-11.396,9.271-20.667,20.667-20.667h65.741c4.153,0,7.519,3.367,7.519,7.519c0,4.153-3.365,7.519-7.519,7.519H89.138
		c-3.103,0-5.629,2.526-5.629,5.629v92.038c0,3.103,2.526,5.629,5.629,5.629h170.926c3.103,0,5.628-2.526,5.628-5.629v-92.038
		c0-3.103-2.525-5.629-5.628-5.629c-4.154,0-7.521-3.366-7.521-7.519c0-4.152,3.366-7.519,7.521-7.519
		c11.395,0,20.666,9.271,20.666,20.667v92.038C280.73,232.015,271.458,241.286,260.064,241.286L260.064,241.286z M260.064,241.286"
		/>
</g>
</svg>
