<?xml version="1.0" encoding="utf-8"?>
<!-- Generator: Adobe Illustrator 16.0.0, SVG Export Plug-In . SVG Version: 6.00 Build 0)  -->
<!DOCTYPE svg PUBLIC "-//W3C//DTD SVG 1.1//EN" "http://www.w3.org/Graphics/SVG/1.1/DTD/svg11.dtd">
<svg version="1.1" id="图层_1" xmlns="http://www.w3.org/2000/svg" xmlns:xlink="http://www.w3.org/1999/xlink" x="0px" y="0px"
	 width="283.46px" height="283.46px" viewBox="0 0 283.46 283.46" enable-background="new 0 0 283.46 283.46" xml:space="preserve">
<g>
	<path fill="#171717" d="M17.979,105.479c-3.039,3.906-4.948,5.645-5.729,5.21c-1.913-1.128-3.866-2.344-5.861-3.647
		c-2.344-1.563-4.124-2.689-5.339-3.386c1.734-1.563,4.383-4.38,7.944-8.465c3.992-4.6,7.639-10.2,10.938-16.798
		c2.257-4.513,4.362-9.422,6.316-14.716c1.951-5.295,3.231-9.463,3.843-12.501c0.085-1.825,0.193-3.278,0.323-4.365
		c0.13-1.084,0.674-1.581,1.631-1.496c1.301,0,4.036,0.867,8.203,2.604c4.168,1.738,6.206,3.081,6.121,4.037
		c0,0.607-0.632,1.433-1.89,2.476c-1.258,1.041-1.887,1.607-1.887,1.692c-0.694,1.909-1.478,4.082-2.345,6.511
		c-3.475,9.378-6.772,17.106-9.898,23.183c0,1.128-0.129,7.03-0.391,17.709c-0.259,10.678-0.39,17.931-0.39,21.748
		c0,6.513,0.131,14.631,0.39,24.355c0.262,9.721,0.563,15.494,0.912,17.318c0.087,0.605-0.261,1-1.041,1.172h-11.98
		c-0.783,0-1.132-0.436-1.044-1.303c0.261-1.91,0.563-7.924,0.914-18.035c0.344-10.113,0.521-17.908,0.521-23.378L17.979,105.479z
		 M71.501,65.76c-4.688,0.522-8.658,0.826-11.914,0.913c-3.257,0.086-5.492,0.174-6.707,0.259c-0.349-0.955-1.349-3.125-2.994-6.51
		c-1.042-2.259-1.651-3.691-1.823-4.299c1.214-0.261,2.475-0.521,3.777-0.781c9.638-0.174,18.036-0.911,25.198-2.215
		c7.163-1.302,13.086-2.688,17.775-4.166c3.125-1.128,6.251-2.259,9.376-3.387c0.26,0,0.695,0.193,1.303,0.584
		c0.605,0.391,2.127,2.236,4.557,5.537c2.868,3.907,3.823,6.165,2.868,6.772c-0.783,0.435-2.041,0.652-3.778,0.652
		c-1.217,0-2.43-0.047-3.646-0.133c-3.04,0.782-5.645,1.435-7.814,1.954c-4.773,1.128-8.509,1.954-11.199,2.475l-3.908,13.154
		c6.857,0,13.133-0.108,18.82-0.328c5.687-0.215,11.655-0.453,17.906-0.714h2.475c0.866,0,1.258,0.261,1.172,0.781v10.55
		c0.086,0.52-0.349,0.758-1.302,0.714c-0.957-0.041-1.739-0.067-2.345-0.067l-18.884-0.646c0.957,1.388,2.062,2.861,3.322,4.424
		c1.258,1.563,2.623,3.083,4.102,4.559c2.69,2.692,6.336,5.208,10.938,7.553c2.255,1.042,4.515,2.084,6.773,3.125
		c0.432,0.262,0.649,0.611,0.649,1.043c0,1.131-1.13,2.994-3.385,5.6c-1.738,1.823-2.911,3.126-3.517,3.907
		c-0.78,0.782-3.691-0.563-8.725-4.037c-5.731-3.993-10.334-8.336-13.805-13.022c-1.479-2.086-3.041-4.407-4.689-6.966
		c-1.648-2.562-2.909-4.709-3.776-6.445h-5.47h-3.906c-1.042,2.518-1.954,4.58-2.735,6.184c-0.781,1.607-1.693,3.188-2.734,4.752
		c-2.26,3.561-5.384,6.902-9.377,10.028c2.951,0,5.798,0.111,8.533,0.326c2.733,0.217,4.144,0.674,4.229,1.366
		c0.087,0.696-0.176,1.737-0.781,3.126c-0.176,0.435-0.566,1.131-1.171,2.083c0.085,4.95-0.283,10.333-1.106,16.149
		c-0.827,5.82-2.281,11.289-4.364,16.41c-2.519,6.335-6.728,11.763-12.63,16.278c-5.297,4.078-8.554,5.555-9.768,4.428
		c-2.083-1.911-4.19-3.889-6.317-5.928c-2.127-2.038-2.929-3.364-2.409-3.971c3.818-1.65,6.774-3.127,8.856-4.43
		c6.335-4.167,10.419-9.156,12.243-14.975c1.213-3.819,2.017-7.312,2.407-10.482c0.391-3.17,0.584-6.448,0.584-9.835
		c0-0.952-0.021-1.886-0.063-2.797c-0.046-0.912-0.067-1.846-0.067-2.803c0-0.605-0.045-1.082-0.13-1.432
		c-0.261-0.781-0.437-1.304-0.521-1.563c-3.3,2.344-6.531,4.211-9.701,5.6c-3.17,1.39-4.882,1.822-5.143,1.302
		c-1.216-1.648-3.04-3.688-5.47-6.12c-1.651-1.65-2.475-2.821-2.475-3.517c0-0.607,0.478-1.214,1.433-1.824
		c3.906-1.041,6.944-2.039,9.116-2.994c6.595-2.866,11.284-6.554,14.063-11.07l2.084-4.033l-19.142,0.646h-1.953
		c-0.781,0-1.172-0.257-1.172-0.778V76.44c0-0.606,0.562-0.911,1.693-0.911h1.432l22.787,0.781L71.501,65.76z M104.71,109.255
		c0.348,0.521,0.175,1.563-0.521,3.126c-0.174,0.521-0.566,1.261-1.171,2.213c-0.085,2.085-0.132,3.777-0.132,5.08
		c-0.346,9.377-0.52,15.718-0.52,19.013l0.91,27.611c0.176,1.041-0.129,1.563-0.91,1.563H90.515c-0.781,0-1.087-0.521-0.911-1.563
		c0.085-0.61,0.306-4.819,0.651-12.633c0.347-7.816,0.521-12.895,0.521-15.238c0-4.86-0.064-10.159-0.193-15.888
		c-0.13-5.731-0.305-9.181-0.521-10.353c-0.219-1.172-0.413-2.191-0.587-3.063c0-0.868,0.476-1.303,1.431-1.303
		c2.864,0,5.753,0.09,8.664,0.261C102.475,108.257,104.189,108.648,104.71,109.255"/>
	<path fill="#171717" d="M255.525,123.582l6.383-0.391c0.783,0,1.174,0.435,1.174,1.302c0.084,4.257,0.197,9.637,0.326,16.15
		c0.131,6.509,0.193,10.808,0.193,12.892l8.855-0.391h2.342c0.869,0,1.26,0.301,1.176,0.912v11.07
		c0.17,0.691-0.395,1.041-1.693,1.041h-1.824c-7.988,0-17.059-0.131-27.219-0.392c-10.158-0.259-21.572-0.521-34.248-0.78
		c-4.346,0-9.918,0.084-16.738,0.26c-6.813,0.17-14.455,0.367-22.918,0.584c-8.465,0.215-13.348,0.328-14.65,0.328h-2.211
		c-0.521-0.09-0.781-0.436-0.781-1.041v-10.939c0-0.697,0.518-1.043,1.563-1.043h1.432l9.377,0.259
		c0.17-0.952,0.26-2.882,0.26-5.792c0-2.908,0.041-5.361,0.131-7.36v-15.237c0-1.302,0.479-1.954,1.432-1.954l6.904,0.522H255.525
		L255.525,123.582z M169.054,51.957h27.48l8.203-0.521c0.781,0,1.172,0.435,1.172,1.302c0,10.94,0.066,19.948,0.193,27.022
		c0.133,7.077,0.328,15.39,0.588,24.938c0,1.216-0.607,1.823-1.82,1.823h-10.678c-0.961,0-1.436-0.607-1.436-1.823v-3.256h-19.404
		v5.861v1.953c-0.174,0.521-0.74,0.781-1.693,0.781c-1.563,0-3.063,0.021-4.492,0.066c-1.436,0.044-2.846,0.063-4.232,0.063
		c-0.781,0-1.521-0.086-2.215-0.261c-0.695-0.171-0.91-0.952-0.65-2.345c0.26-1.213,0.432-4.037,0.521-8.464
		c0.082-4.429,0.129-11.089,0.129-19.99V53.389c0-1.304,0.477-1.953,1.434-1.953L169.054,51.957z M192.757,63.287h-19.533v7.424
		h19.533V63.287z M192.757,82.04h-19.404v8.071h19.404V82.04z M195.492,135.302h-16.539l0.131,18.364l16.408,0.391V135.302z
		 M223.49,49.743h37.896l5.73-0.651c0.438-0.086,0.736,0.175,0.912,0.782c0.174,0.605,0.26,1.821,0.26,3.646
		c0,3.126-0.063,7.356-0.193,12.697c-0.131,5.338-0.26,11.939-0.391,19.795c-0.131,7.857-0.197,15.56-0.197,23.114
		c0,2.778-0.607,5.209-1.822,7.293c-1.219,2.084-2.82,3.409-4.818,3.973c-1.996,0.566-3.908,0.976-5.73,1.236
		c-1.822,0.26-3.471,0.392-4.949,0.392c-2.342,0-3.602-0.303-3.777-0.911c-0.434-2.085-1.146-3.972-2.145-5.664
		c-1.002-1.694-2.021-3.452-3.063-5.276c0-0.521,0.648-0.781,1.951-0.781c0.781,0.088,1.824,0.174,3.127,0.261
		c1.301,0.089,2.17,0.13,2.605,0.13c2.516,0,4.014-0.279,4.492-0.846c0.477-0.564,0.803-1.67,0.979-3.323
		c0.172-1.647,0.26-3.688,0.26-6.119h-27.352c-0.605,2.518-1.479,4.818-2.604,6.901c-2.346,4.604-5.775,8.685-10.289,12.242
		c-3.992,3.125-6.508,4.342-7.551,3.646c-5.039-3.125-7.902-4.904-8.594-5.339c-0.699-0.953-1.395-1.954-2.084-2.996
		c3.123-1.474,5.553-2.777,7.291-3.906c5.291-3.472,8.768-6.988,10.416-10.549c1.043-2.345,1.889-5.424,2.543-9.247
		c0.648-3.818,0.975-8.767,0.975-14.844v-3.646c0-1.479-0.152-4.581-0.453-9.313c-0.309-4.73-0.459-8.009-0.459-9.831
		c0-2.344,0.215-3.517,0.652-3.517L223.49,49.743z M223.357,135.302h-15.623v19.013h3.387l12.236-0.128V135.302z M254.486,88.289
		V87.25v-7.163h-24.615l-0.65,8.202H254.486z M254.486,60.943h-24.484v7.944h24.484V60.943z M250.578,153.792v-18.491h-14.977
		v18.754L250.578,153.792z"/>
	<path fill="#171717" d="M32.963,237.568c-1.333,0.395-2.935,0.588-4.81,0.588c-2.16,0-4.228-0.594-6.198-1.779
		c-1.97-1.192-4.505-3.571-7.601-7.146c-4.338-0.137-7.813-1.705-10.428-4.71C1.31,221.515,0,217.8,0,213.369
		c0-5.015,1.439-9.057,4.312-12.127c2.874-3.072,6.716-4.607,11.527-4.607c4.403,0,7.997,1.476,10.785,4.427
		c2.784,2.944,4.177,6.832,4.177,11.657c0,3.793-0.85,7.054-2.548,9.783c-1.699,2.734-4.118,4.637-7.257,5.707
		c1.331,1.441,2.639,2.506,3.916,3.191c1.275,0.686,2.898,1.027,4.869,1.027c1.196,0,2.257-0.184,3.181-0.551L32.963,237.568
		L32.963,237.568z M7.074,213.001c0,3.181,0.755,5.717,2.263,7.613c1.509,1.895,3.526,2.846,6.055,2.846
		c2.583,0,4.622-0.92,6.115-2.75c1.496-1.836,2.242-4.364,2.242-7.588c0-3.354-0.724-5.971-2.171-7.846
		c-1.447-1.878-3.448-2.813-6.003-2.813c-2.596,0-4.66,0.966-6.196,2.895C7.842,207.291,7.074,209.837,7.074,213.001"/>
	<path fill="#171717" d="M34.898,198.917c0-1.006,0.358-1.821,1.07-2.453c0.713-0.633,1.628-0.948,2.741-0.948
		c1.142,0,2.065,0.319,2.773,0.966c0.707,0.646,1.059,1.458,1.059,2.436c0,0.994-0.357,1.818-1.079,2.479
		c-0.722,0.661-1.638,0.988-2.753,0.988c-1.099,0-2.011-0.334-2.73-0.997C35.26,200.72,34.898,199.897,34.898,198.917
		 M35.39,206.196h6.563v22.542H35.39V206.196z"/>
	<path fill="#171717" d="M48.394,207.558c1.019-0.568,2.382-1.027,4.087-1.387c1.705-0.352,3.163-0.526,4.372-0.526
		c6.306,0,9.458,3.159,9.458,9.479v13.612h-6.257v-3.28h-0.082c-1.537,2.558-3.786,3.832-6.747,3.832
		c-2.133,0-3.843-0.607-5.126-1.824c-1.285-1.217-1.928-2.871-1.928-4.963c0-4.322,2.576-6.836,7.726-7.541l6.197-0.838
		c0-2.621-1.365-3.933-4.097-3.933c-2.69,0-5.225,0.813-7.604,2.446L48.394,207.558L48.394,207.558z M55.833,218.525
		c-2.378,0.313-3.567,1.387-3.567,3.223c0,0.842,0.291,1.521,0.866,2.039c0.578,0.516,1.356,0.772,2.334,0.772
		c1.348,0,2.453-0.476,3.324-1.425c0.869-0.951,1.304-2.135,1.304-3.549v-1.608L55.833,218.525z"/>
	<path fill="#171717" d="M70.612,217.569c0-3.712,1.11-6.624,3.333-8.745c2.222-2.117,5.209-3.179,8.96-3.179
		c3.627,0,6.508,1.043,8.643,3.127c2.133,2.086,3.198,4.89,3.198,8.412c0,3.696-1.093,6.636-3.28,8.823
		c-2.189,2.188-5.151,3.281-8.887,3.281c-3.671,0-6.583-1.049-8.737-3.149C71.688,224.041,70.612,221.184,70.612,217.569
		 M77.277,217.488c0,4.498,1.835,6.749,5.503,6.749c3.521,0,5.281-2.313,5.281-6.931c0-4.406-1.773-6.605-5.321-6.605
		c-1.726,0-3.067,0.59-4.025,1.773C77.756,213.656,77.277,215.328,77.277,217.488"/>
	<path fill="#171717" d="M113.011,200.446c-0.897-0.353-1.747-0.53-2.548-0.53c-2.255,0-3.385,1.252-3.385,3.75v2.53h5.138v4.91
		h-5.138v17.632h-6.583v-17.632h-3.771v-4.91h3.771v-2.897c0-2.565,0.838-4.616,2.507-6.151c1.672-1.538,3.868-2.308,6.585-2.308
		c1.385,0,2.526,0.146,3.424,0.43V200.446z"/>
	<path fill="#171717" d="M129.991,212.167c-0.8-0.463-1.773-0.691-2.915-0.691c-1.495,0-2.68,0.568-3.557,1.711
		c-0.875,1.143-1.314,2.71-1.314,4.71v10.843h-6.585v-22.543h6.585v4.239h0.082c1.087-3.085,3.063-4.63,5.931-4.63
		c0.775,0,1.367,0.093,1.773,0.27V212.167z"/>
	<path fill="#171717" d="M153.128,219.321h-14.841c0.232,3.494,2.337,5.241,6.322,5.241c2.482,0,4.682-0.613,6.582-1.834v4.83
		c-2.053,1.156-4.742,1.73-8.072,1.73c-3.588,0-6.376-1.014-8.368-3.037c-1.99-2.023-2.985-4.844-2.985-8.459
		c0-3.603,1.06-6.525,3.179-8.776c2.121-2.248,4.783-3.371,7.99-3.371c3.195,0,5.689,0.966,7.49,2.905
		c1.805,1.936,2.703,4.595,2.703,7.978V219.321L153.128,219.321z M146.992,215.205c0-3.371-1.365-5.056-4.096-5.056
		c-1.131,0-2.129,0.462-2.997,1.386c-0.871,0.926-1.417,2.146-1.633,3.67H146.992z"/>
	<path fill="#171717" d="M177.427,219.321h-14.842c0.232,3.494,2.336,5.241,6.322,5.241c2.482,0,4.68-0.613,6.582-1.834v4.83
		c-2.055,1.156-4.742,1.73-8.072,1.73c-3.59,0-6.377-1.014-8.367-3.037s-2.986-4.844-2.986-8.459c0-3.603,1.061-6.525,3.18-8.776
		c2.119-2.248,4.781-3.371,7.99-3.371c3.195,0,5.689,0.966,7.49,2.905c1.803,1.936,2.703,4.595,2.703,7.978V219.321z
		 M171.289,215.205c0-3.371-1.365-5.056-4.096-5.056c-1.129,0-2.127,0.462-2.996,1.386c-0.869,0.926-1.416,2.146-1.633,3.67H171.289
		z"/>
	<path fill="#171717" d="M180.748,225.785c0-1.021,0.389-1.857,1.162-2.508c0.775-0.652,1.699-0.979,2.773-0.979
		c1.084,0,2.006,0.334,2.752,0.996c0.748,0.668,1.119,1.5,1.119,2.488c0,1.047-0.371,1.895-1.119,2.537
		c-0.746,0.646-1.693,0.969-2.836,0.969c-1.059,0-1.965-0.334-2.719-0.998S180.748,226.789,180.748,225.785"/>
	<path fill="#171717" d="M210.527,227.904c-1.576,0.924-3.818,1.387-6.725,1.387c-3.439,0-6.217-1.047-8.338-3.14
		c-2.119-2.093-3.182-4.806-3.182-8.136c0-3.83,1.143-6.85,3.426-9.059c2.283-2.207,5.326-3.313,9.131-3.313
		c2.568,0,4.473,0.352,5.711,1.059v5.648c-1.512-1.102-3.156-1.65-4.936-1.65c-2.01,0-3.625,0.609-4.842,1.832
		c-1.213,1.223-1.824,2.9-1.824,5.035c0,2.064,0.578,3.693,1.732,4.883s2.725,1.785,4.709,1.785c1.754,0,3.467-0.561,5.137-1.675
		V227.904L210.527,227.904z"/>
	<path fill="#171717" d="M213.853,217.569c0-3.712,1.109-6.624,3.332-8.745c2.225-2.117,5.211-3.179,8.961-3.179
		c3.627,0,6.508,1.043,8.643,3.127c2.133,2.086,3.197,4.89,3.197,8.412c0,3.696-1.09,6.636-3.279,8.823s-5.15,3.281-8.885,3.281
		c-3.674,0-6.586-1.049-8.738-3.149C214.929,224.041,213.853,221.184,213.853,217.569 M220.517,217.488
		c0,4.498,1.838,6.749,5.504,6.749c3.52,0,5.281-2.313,5.281-6.931c0-4.406-1.773-6.605-5.32-6.605c-1.727,0-3.068,0.59-4.027,1.773
		C220.998,213.656,220.517,215.328,220.517,217.488"/>
	<path fill="#171717" d="M278.001,228.738h-6.563v-12.861c0-3.449-1.258-5.176-3.771-5.176c-1.17,0-2.141,0.521-2.916,1.567
		c-0.773,1.05-1.16,2.325-1.16,3.834v12.636h-6.566v-13.023c0-3.344-1.242-5.014-3.729-5.014c-1.236,0-2.229,0.5-2.967,1.496
		c-0.742,1-1.107,2.322-1.107,3.969v12.572h-6.59v-22.541h6.59v3.521h0.08c0.785-1.289,1.834-2.291,3.139-3.004
		c1.303-0.713,2.678-1.069,4.117-1.069c3.166,0,5.332,1.422,6.502,4.261c1.738-2.839,4.268-4.261,7.582-4.261
		c4.908,0,7.359,3.03,7.359,9.089V228.738L278.001,228.738z"/>
</g>
</svg>
