<?xml version="1.0" encoding="utf-8"?>
<!-- Generator: Adobe Illustrator 16.0.0, SVG Export Plug-In . SVG Version: 6.00 Build 0)  -->
<!DOCTYPE svg PUBLIC "-//W3C//DTD SVG 1.1//EN" "http://www.w3.org/Graphics/SVG/1.1/DTD/svg11.dtd">
<svg version="1.1" id="图层_1" xmlns="http://www.w3.org/2000/svg" xmlns:xlink="http://www.w3.org/1999/xlink" x="0px" y="0px"
	 width="283.46px" height="283.46px" viewBox="0 0 283.46 283.46" enable-background="new 0 0 283.46 283.46" xml:space="preserve">
<g>
	<defs>
		<rect id="SVGID_1_" x="2.73" y="2.73" width="278" height="278"/>
	</defs>
	<clipPath id="SVGID_2_">
		<use xlink:href="#SVGID_1_"  overflow="visible"/>
	</clipPath>
	<path clip-path="url(#SVGID_2_)" fill="#272636" d="M176.724,141.731c0,4.558,1.876,9.087,5.099,12.31
		c3.222,3.224,7.753,5.1,12.311,5.1s9.087-1.876,12.311-5.1c3.223-3.223,5.099-7.752,5.099-12.31c0-4.559-1.876-9.088-5.099-12.311
		c-3.224-3.223-7.753-5.099-12.311-5.099s-9.089,1.876-12.311,5.099C178.6,132.643,176.724,137.172,176.724,141.731"/>
	<path clip-path="url(#SVGID_2_)" fill="#272636" d="M124.511,141.731c0,4.558,1.877,9.087,5.1,12.31
		c3.222,3.224,7.752,5.1,12.311,5.1c4.558,0,9.087-1.876,12.312-5.1c3.222-3.223,5.098-7.752,5.098-12.31
		c0-4.559-1.876-9.088-5.098-12.311c-3.225-3.223-7.754-5.099-12.312-5.099c-4.559,0-9.088,1.876-12.311,5.099
		C126.388,132.643,124.511,137.172,124.511,141.731"/>
	<path clip-path="url(#SVGID_2_)" fill="#272636" d="M72.333,141.731c0,4.558,1.877,9.087,5.1,12.31
		c3.223,3.224,7.754,5.1,12.311,5.1c4.558,0,9.087-1.876,12.312-5.1c3.222-3.223,5.098-7.752,5.098-12.31
		c0-4.559-1.875-9.088-5.098-12.311c-3.224-3.223-7.754-5.099-12.312-5.099c-4.557,0-9.088,1.876-12.311,5.099
		C74.211,132.643,72.333,137.172,72.333,141.731"/>
	<path clip-path="url(#SVGID_2_)" fill="#272636" d="M141.73,280.73c-76.659,0-139-62.376-139-139.018
		c0-76.64,62.342-138.982,139-138.982c76.623,0,139,62.342,139,138.982C280.73,218.354,218.353,280.73,141.73,280.73 M141.73,13.086
		c-70.942,0-128.645,57.685-128.645,128.626c0,70.925,57.702,128.645,128.645,128.645c70.907,0,128.626-57.72,128.626-128.645
		C270.357,70.771,212.637,13.086,141.73,13.086"/>
</g>
</svg>
