<?xml version="1.0" encoding="utf-8"?>
<!-- Generator: Adobe Illustrator 16.0.0, SVG Export Plug-In . SVG Version: 6.00 Build 0)  -->
<!DOCTYPE svg PUBLIC "-//W3C//DTD SVG 1.1//EN" "http://www.w3.org/Graphics/SVG/1.1/DTD/svg11.dtd">
<svg version="1.1" id="图层_1" xmlns="http://www.w3.org/2000/svg" xmlns:xlink="http://www.w3.org/1999/xlink" x="0px" y="0px"
	 width="283.46px" height="283.46px" viewBox="0 0 283.46 283.46" enable-background="new 0 0 283.46 283.46" xml:space="preserve">
<g>
	<defs>
		<rect id="SVGID_1_" x="2.73" y="2.73" width="278" height="278"/>
	</defs>
	<clipPath id="SVGID_2_">
		<use xlink:href="#SVGID_1_"  overflow="visible"/>
	</clipPath>
	<path clip-path="url(#SVGID_2_)" fill="#272636" d="M103.255,69.525c3.907,0,6.5-2.611,6.5-6.509c0-3.926-2.593-6.5-6.5-6.5
		c-3.908,0-7.843,2.583-7.843,6.5C95.412,66.914,99.347,69.525,103.255,69.525"/>
	<rect x="157.062" y="209.427" clip-path="url(#SVGID_2_)" fill="#272636" width="25.605" height="7.07"/>
	<rect x="114.944" y="217.609" clip-path="url(#SVGID_2_)" fill="#272636" width="20.958" height="8.585"/>
	<path clip-path="url(#SVGID_2_)" fill="#272636" d="M139.691,69.525c3.935,0,6.518-2.611,6.518-6.509c0-3.917-2.583-6.5-6.518-6.5
		c-3.898,0-7.806,2.574-7.806,6.5C131.885,66.914,135.802,69.525,139.691,69.525"/>
	<path clip-path="url(#SVGID_2_)" fill="#272636" d="M79.845,196.044l-0.152,0.479c0.051,6.902,1.019,12.946,2.904,18.131
		c1.481-4.175,2.583-10.379,3.308-18.61H79.845z"/>
	<path clip-path="url(#SVGID_2_)" fill="#272636" d="M156.618,94.285c-2.584,0-5.204,2.611-5.204,5.203
		c0,2.63,2.62,5.204,5.204,5.204c3.953,0,6.519-2.574,6.519-5.204C163.136,96.896,160.571,94.285,156.618,94.285"/>
	<path clip-path="url(#SVGID_2_)" fill="#272636" d="M141.73,2.73c-76.768,0-139,62.232-139,139c0,76.767,62.232,139,139,139
		s139-62.232,139-139C280.73,64.963,218.498,2.73,141.73,2.73 M215.211,111.211c0,11.741-7.797,22.139-18.251,29.991l3.918,13.019
		l-14.278-7.833c-5.204,1.305-10.437,2.602-15.622,2.602c-24.769,0-44.278-16.908-44.278-37.778
		c0-20.807,19.501-37.779,44.278-37.779C194.377,73.432,215.211,90.396,215.211,111.211 M120.172,34.376
		c25.606,0,48.03,15.584,52.536,36.564c-1.674-0.184-3.338-0.312-5.029-0.312c-24.723,0-44.251,18.461-44.261,41.208
		c0,3.797,0.598,7.438,1.609,10.923c-1.6,0.119-3.218,0.193-4.855,0.193c-6.5,0-11.723-1.324-18.232-2.602l-18.205,9.121
		l5.204-15.658c-13.037-9.121-20.834-20.861-20.834-35.159C68.105,53.876,91.55,34.376,120.172,34.376 M55.402,187.509h3.232v8.939
		h4.141v-12.827h3.333v12.827h4.141v-8.989h3.232v14.039H70.25v-1.616H55.402V187.509z M72.472,207.913h-16.06v-3.535h16.06V207.913
		z M51.21,183.167l3.131,1.768c-2.963,5.69-6.784,10.808-11.464,15.353c-0.37-1.313-0.774-2.626-1.212-3.939
		C45.908,192.039,49.089,187.645,51.21,183.167 M50.554,232.355H47.12v-21.211c-1.414,2.004-2.878,3.839-4.394,5.505
		c-0.404-1.346-0.842-2.692-1.313-4.039c3.804-4.444,7.036-9.68,9.696-15.707l3.333,1.566c-1.246,2.626-2.542,5.083-3.889,7.373
		V232.355z M68.28,227.962l-2.575-3.232c0.909-0.909,1.363-2.121,1.363-3.637v-5.101h-6.666v2.323c0,6.061-1.701,10.37-5.101,12.929
		c-0.572-0.943-1.33-2.021-2.272-3.232c2.66-1.751,3.99-5.117,3.99-10.101v-5.353h13.434v8.787c1.549-1.347,3.316-2.93,5.303-4.747
		c0.303,1.481,0.589,2.777,0.858,3.889c-1.852,1.481-3.956,3.3-6.313,5.454C69.559,226.649,68.886,227.322,68.28,227.962
		 M89.945,232.457c-2.979-2.879-5.446-6.145-7.398-9.797c-2.02,3.518-4.621,6.901-7.803,10.15c-0.673-0.977-1.499-2.037-2.474-3.182
		c3.669-3.468,6.498-7.087,8.484-10.858c-1.885-4.679-3.03-9.923-3.434-15.73c-0.539,1.296-1.111,2.55-1.717,3.762
		c-0.673-0.875-1.482-1.75-2.424-2.626c2.963-5.757,5.016-12.844,6.161-21.261l3.435,0.605c-0.54,3.114-1.17,6.077-1.894,8.889
		h10.883v3.636h-2.424c-0.707,9.646-2.332,17.28-4.874,22.903c1.936,3.754,4.47,6.96,7.601,9.62
		C91.326,229.881,90.619,231.177,89.945,232.457 M103.43,232.659h-3.737v-28.812c-1.549,2.71-3.182,5.193-4.899,7.449
		c-0.539-1.414-1.094-2.794-1.667-4.142c4.949-7.339,8.669-15.453,11.161-24.342l3.939,1.111c-1.465,4.528-3.064,8.703-4.797,12.524
		V232.659z M139.791,232.659h-3.889v-3.03h-20.958v3.03h-3.889v-18.483h28.736V232.659z M140.296,209.427H110.5v-3.434h29.796
		V209.427z M140.296,201.296H110.5v-3.434h29.796V201.296z M143.275,193.166h-35.553v-3.534h16.489
		c-1.01-1.734-2.062-3.451-3.156-5.151l3.383-1.768c1.212,1.817,2.407,3.736,3.586,5.757l-2.197,1.162h17.448V193.166z
		 M146.458,193.823l2.373-2.374c2.525,2.29,4.849,4.461,6.97,6.515c2.794-2.457,5.185-5.285,7.171-8.483h-15.353v-3.435h19.999
		v3.484c-4.546,7.744-11.582,14.259-21.11,19.544c-0.64-1.145-1.347-2.322-2.121-3.534c3.536-1.818,6.397-3.569,8.586-5.253
		C150.851,198.099,148.679,195.944,146.458,193.823 M157.062,219.831v1.818h-3.838v-15.555h33.281v15.555h-3.838v-1.818H157.062z
		 M178.273,201.701h-17.12v-3.333h17.12V201.701z M194.788,230.992h-49.391v-3.434h16.918c-1.212-1.179-2.979-2.812-5.303-4.898
		l2.424-2.425c2.054,1.684,4.124,3.484,6.212,5.403l-2.07,1.92h12.12l-1.717-1.718c2.154-1.952,4.073-3.871,5.757-5.757l3.081,2.525
		c-1.583,1.582-3.351,3.231-5.303,4.949h17.271V230.992z M192.869,207.71c-10.706-3.703-18.197-11.346-22.474-22.928l3.535-1.414
		c0.774,2.088,1.633,4.007,2.575,5.757c3.703-2.02,6.936-3.973,9.696-5.857l2.476,3.181c-3.166,1.886-6.583,3.806-10.252,5.758
		c0.908,1.347,1.901,2.575,2.979,3.687c3.535-1.953,6.817-3.939,9.848-5.959l2.525,3.231c-2.795,1.718-5.942,3.519-9.444,5.404
		c3.232,2.525,7.003,4.208,11.313,5.05C194.669,204.967,193.744,206.331,192.869,207.71 M196.606,223.821
		c6.599-2.054,13.753-4.495,21.463-7.323c0.27,1.481,0.521,2.761,0.758,3.839c-6.7,2.323-13.585,4.764-20.655,7.322L196.606,223.821
		z M201.302,210.792l2.323-2.93c3.232,1.953,6.515,4.074,9.848,6.363l-2.475,3.333C207.935,215.236,204.703,212.98,201.302,210.792
		 M223.978,214.73v10.959c0,4.074-2.088,6.111-6.263,6.111c-1.986,0-4.343-0.034-7.07-0.102c-0.201-1.246-0.438-2.693-0.707-4.343
		c2.425,0.27,4.596,0.421,6.515,0.454c2.391,0,3.586-1.077,3.586-3.231v-18.08h-22.726v-3.384h37.674v-5.403h-31.311v-3.232h31.311
		v-5.354h-32.271v-3.384h36.059v17.373h7.828v3.384h-22.625v1.161c1.38,3.03,3.164,5.69,5.353,7.979
		c3.906-2.524,7.441-5,10.606-7.424l2.929,3.333c-2.862,1.886-6.414,4.108-10.656,6.666c3.939,3.064,8.854,5.27,14.746,6.616
		c-1.044,1.447-1.969,2.828-2.777,4.142C235.021,226.177,228.287,221.43,223.978,214.73"/>
	<path clip-path="url(#SVGID_2_)" fill="#272636" d="M185.257,104.692c3.917,0,6.519-2.574,6.519-5.204
		c0-2.592-2.602-5.203-6.519-5.203c-2.574,0-5.176,2.611-5.176,5.203C180.082,102.118,182.692,104.692,185.257,104.692"/>
</g>
</svg>
