<?xml version="1.0" encoding="utf-8"?>
<!-- Generator: Adobe Illustrator 16.0.0, SVG Export Plug-In . SVG Version: 6.00 Build 0)  -->
<!DOCTYPE svg PUBLIC "-//W3C//DTD SVG 1.1//EN" "http://www.w3.org/Graphics/SVG/1.1/DTD/svg11.dtd">
<svg version="1.1" id="图层_1" xmlns="http://www.w3.org/2000/svg" xmlns:xlink="http://www.w3.org/1999/xlink" x="0px" y="0px"
	 width="283.46px" height="283.46px" viewBox="0 0 283.46 283.46" enable-background="new 0 0 283.46 283.46" xml:space="preserve">
<g>
	<path fill="#272636" d="M141.73,280.73c-86.839,0-123.263-31.062-123.263-94.896c0-52.882,41.304-108.07,91.374-125.479h63.779
		c50.072,17.41,91.373,72.598,91.373,125.479C264.993,249.668,228.569,280.73,141.73,280.73L141.73,280.73z M175.89,175.835v-0.021
		c5.763-0.029,10.424-4.712,10.424-10.479c0-5.772-4.659-10.449-10.424-10.486v-0.025h-21.142c0.04-0.235-0.028-0.444-0.008-0.681
		l24.778-25.33c4.042-4.553,1.986-8.318-2.099-12.447c-4.111-4.149-10.829-5.02-14.15-1.403l-21.307,22.712l-23.014-23.015
		c-2.912-2.91-8.578-1.96-12.656,2.116c-4.081,4.083-5.024,9.753-2.114,12.663l23.537,23.533c-0.44,0.563-0.727,1.188-0.897,1.853
		H107.69v0.021h-0.054c-5.794,0-10.491,4.692-10.491,10.49c0,5.788,4.697,10.49,10.491,10.49c0.019,0,0.037-0.01,0.054-0.01v0.021
		h20.969v10.448H107.69v0.031h-0.054c-5.794,0-10.491,4.692-10.491,10.49c0,5.788,4.697,10.491,10.491,10.491
		c0.019,0,0.037-0.012,0.054-0.012v0.012h20.969v10.563h0.217c-0.164,0.817-0.258,1.674-0.258,2.55
		c0,7.242,5.87,13.112,13.113,13.112c7.242,0,13.112-5.87,13.112-13.112c0-0.876-0.094-1.732-0.258-2.55h0.123v-10.563l21.184-0.012
		c5.764-0.035,10.425-4.712,10.425-10.48c0-5.771-4.661-10.448-10.425-10.485v-0.035h-21.184v-10.45h21.183V175.835z M191.56,18.467
		l-2.205,2.756c-0.049,0.051-0.083,0.113-0.131,0.164l-18.646,23.307h-62.942L89.027,21.428c-0.138-0.132-0.229-0.296-0.356-0.44
		l-2.016-2.521l0.355-0.712c-0.17-0.646-0.399-1.275-0.399-1.972c0-3.34,2.1-6.162,5.041-7.31L91.9,7.977
		c0,0,25.784-5.158,47.208-5.245c22.42-0.092,47.206,5.245,47.206,5.245l0.256,0.502c2.921,1.158,5.004,3.975,5.004,7.304
		c0,0.686-0.226,1.295-0.389,1.925L191.56,18.467L191.56,18.467z M191.56,18.467"/>
</g>
</svg>
