<?xml version="1.0" encoding="utf-8"?>
<!-- Generator: Adobe Illustrator 16.0.0, SVG Export Plug-In . SVG Version: 6.00 Build 0)  -->
<!DOCTYPE svg PUBLIC "-//W3C//DTD SVG 1.1//EN" "http://www.w3.org/Graphics/SVG/1.1/DTD/svg11.dtd">
<svg version="1.1" id="图层_1" xmlns="http://www.w3.org/2000/svg" xmlns:xlink="http://www.w3.org/1999/xlink" x="0px" y="0px"
	 width="283.46px" height="283.46px" viewBox="0 0 283.46 283.46" enable-background="new 0 0 283.46 283.46" xml:space="preserve">
<path fill="#272636" d="M56.814,134.832c0.626-0.19,1.295-0.293,1.984-0.293h-0.189C57.863,134.539,57.276,134.647,56.814,134.832z"
	/>
<path fill="#272636" d="M264.583,216.605c0.021-0.381,0.068-0.755,0.149-1.115C264.646,215.656,264.599,216.007,264.583,216.605z"/>
<path fill="#272636" d="M264.576,64.771v0.204c0,0.016,0,0.031,0.006,0.047C264.576,64.939,264.576,64.855,264.576,64.771z"/>
<path fill="#272636" d="M278.326,64.999c0.004-0.015,0.004-0.035,0.004-0.049v-0.179C278.33,64.848,278.33,64.925,278.326,64.999z"
	/>
<path fill="#272636" d="M275.561,271.176c-1.935-14.402-6.164-28.309-12.57-41.332c-1.254-2.547-2.582-5.051-3.987-7.504
	c-0.003-0.008-0.006-0.016-0.017-0.022c-6.1-10.329-13.582-19.92-22.305-28.481l-0.003-0.004c-1.897-1.86-3.851-3.676-5.86-5.438
	c-14.342-12.566-30.896-21.887-48.551-27.553c3.195-1.771,6.285-3.754,9.254-5.95c3.383-2.493,6.603-5.261,9.629-8.286
	c15.916-15.919,24.686-37.085,24.686-59.596c0-22.513-8.77-43.679-24.686-59.597C185.52,11.787,164.832,3.053,142.78,2.738
	c-0.349-0.004-0.699-0.008-1.049-0.008c-0.352,0-0.7,0.004-1.049,0.008c-22.051,0.315-42.742,9.049-58.37,24.678
	C66.395,43.332,57.626,64.498,57.626,87.01c0,22.511,8.769,43.679,24.686,59.596c3.026,3.025,6.245,5.795,9.625,8.286
	c2.968,2.196,6.063,4.181,9.258,5.95c-17.654,5.666-34.212,14.986-48.552,27.553c-2.012,1.762-3.967,3.577-5.86,5.438
	c-8.729,8.568-16.222,18.168-22.323,28.51c-1.406,2.453-2.734,4.955-3.989,7.502c-6.406,13.023-10.635,26.933-12.571,41.334
	c-0.618,4.613,2.618,8.855,7.232,9.475c0.378,0.051,0.76,0.077,1.134,0.077c0.341,0,0.675-0.021,1.01-0.063
	c3.335-0.726,6.028-3.444,6.549-7.016c3.886-26.658,16.591-50.883,34.854-69.33c21.675-21.9,51.174-35.664,83.054-35.719h0.182
	c31.811,0.109,61.242,13.859,82.873,35.719c18.263,18.447,30.971,42.672,34.854,69.33c0.523,3.563,3.204,6.278,6.529,7.014
	c0.008,0,0.013,0.002,0.02,0.002c0.334,0.045,0.672,0.063,1.012,0.063c0.375,0,0.754-0.026,1.136-0.077
	C272.944,280.032,276.18,275.792,275.561,271.176z M141.55,154.436c-0.171,0-0.34,0-0.508-0.004
	c-31.457-0.23-59.502-22.085-67.168-51.401c-0.085-0.319-0.168-0.643-0.246-0.965c-1.2-4.847-1.839-9.883-1.839-15.056
	c0-5.174,0.639-10.267,1.839-15.198c0.077-0.331,0.161-0.656,0.246-0.984c7.707-30.051,36.014-53.935,67.676-53.935h0.36
	c31.662,0,59.969,23.885,67.676,53.935c0.085,0.328,0.169,0.653,0.246,0.984c1.199,4.932,1.839,10.024,1.839,15.198
	c0,5.173-0.64,10.209-1.839,15.056c-0.077,0.322-0.161,0.646-0.246,0.965c-7.665,29.316-35.711,51.171-67.169,51.401
	C142.131,154.436,141.84,154.436,141.55,154.436z"/>
</svg>
