<?xml version="1.0" encoding="utf-8"?>
<!-- Generator: Adobe Illustrator 16.0.0, SVG Export Plug-In . SVG Version: 6.00 Build 0)  -->
<!DOCTYPE svg PUBLIC "-//W3C//DTD SVG 1.1//EN" "http://www.w3.org/Graphics/SVG/1.1/DTD/svg11.dtd">
<svg version="1.1" id="图层_1" xmlns="http://www.w3.org/2000/svg" xmlns:xlink="http://www.w3.org/1999/xlink" x="0px" y="0px"
	 width="283.46px" height="283.46px" viewBox="0 0 283.46 283.46" enable-background="new 0 0 283.46 283.46" xml:space="preserve">
<g>
	<path fill="#272636" d="M78.547,89.083c-27.91,0-50.548,23.578-50.548,52.647c0,29.07,22.638,52.626,50.548,52.626
		c27.911,0,50.548-23.556,50.548-52.626C129.096,112.661,106.458,89.083,78.547,89.083z"/>
	<path fill="#272636" d="M204.924,62.77H78.547c-41.871,0-75.817,35.355-75.817,78.96s33.946,78.96,75.817,78.96h126.377
		c41.85,0,75.806-35.355,75.806-78.96S246.773,62.77,204.924,62.77z M204.924,207.535H78.547c-34.896,0-63.183-29.467-63.183-65.804
		c0-36.337,28.287-65.804,63.183-65.804h126.377c34.874,0,63.172,29.466,63.172,65.804
		C268.096,178.068,239.798,207.535,204.924,207.535z"/>
</g>
</svg>
