<?xml version="1.0" encoding="utf-8"?>
<!-- Generator: Adobe Illustrator 16.0.0, SVG Export Plug-In . SVG Version: 6.00 Build 0)  -->
<!DOCTYPE svg PUBLIC "-//W3C//DTD SVG 1.1//EN" "http://www.w3.org/Graphics/SVG/1.1/DTD/svg11.dtd">
<svg version="1.1" id="图层_1" xmlns="http://www.w3.org/2000/svg" xmlns:xlink="http://www.w3.org/1999/xlink" x="0px" y="0px"
	 width="283.46px" height="283.46px" viewBox="0 0 283.46 283.46" enable-background="new 0 0 283.46 283.46" xml:space="preserve">
<g>
	<path fill="#272636" d="M276.918,121.071h-5.293V69.06c0-2.104-1.708-3.813-3.812-3.813h-24.25V26.514
		c0-2.106-1.706-3.813-3.81-3.813H41.46c-10.341,0-20.147,4.903-27.612,13.805C6.783,44.934,2.73,56.118,2.73,67.189
		c0,0.323,0.045,0.635,0.121,0.936c-0.076,0.3-0.121,0.611-0.121,0.936v187.887c0,2.105,1.706,3.812,3.813,3.812h261.271
		c2.104,0,3.812-1.706,3.812-3.812v-52.009h5.293c2.104,0,3.812-1.708,3.812-3.813v-76.243
		C280.73,122.777,279.022,121.071,276.918,121.071z M41.462,30.325h194.479v34.923H10.403C11.32,46.431,25.438,30.325,41.462,30.325
		z M264.001,253.136H10.353V72.873h253.648v48.198H184.88c-21.357,0-38.731,18.811-38.731,41.933
		c0,23.123,17.374,41.935,38.731,41.935h79.121V253.136z M273.106,197.314H184.88c-17.152,0-31.107-15.391-31.107-34.311
		c0-18.919,13.955-34.311,31.107-34.311h88.226V197.314z"/>
	<path fill="#272636" d="M177.398,163.003c0,10.64,9.119,19.295,20.327,19.295s20.326-8.655,20.326-19.295
		c0-10.639-9.118-19.293-20.326-19.293S177.398,152.365,177.398,163.003z M197.725,151.333c7.005,0,12.703,5.235,12.703,11.671
		c0,6.435-5.698,11.671-12.703,11.671s-12.702-5.236-12.702-11.671C185.023,156.568,190.72,151.333,197.725,151.333z"/>
</g>
</svg>
