<?xml version="1.0" encoding="utf-8"?>
<!-- Generator: Adobe Illustrator 16.0.0, SVG Export Plug-In . SVG Version: 6.00 Build 0)  -->
<!DOCTYPE svg PUBLIC "-//W3C//DTD SVG 1.1//EN" "http://www.w3.org/Graphics/SVG/1.1/DTD/svg11.dtd">
<svg version="1.1" id="图层_1" xmlns="http://www.w3.org/2000/svg" xmlns:xlink="http://www.w3.org/1999/xlink" x="0px" y="0px"
	 width="283.46px" height="283.46px" viewBox="0 0 283.46 283.46" enable-background="new 0 0 283.46 283.46" xml:space="preserve">
<g>
	<path fill="#272636" d="M8.162,259.652c-0.817,0-3.266,0-5.713-2.448C1.224,256.388,0,254.347,0,251.083V31.97
		c0-0.817,0-3.673,2.04-5.713c1.224-1.224,2.856-2.448,6.122-2.448h219.521c0.408,0,3.265,0,5.713,2.04
		c1.225,1.224,2.448,2.856,2.448,6.122v218.706c0,1.224,0,4.08-1.633,6.12c-1.224,1.224-2.854,2.856-6.12,2.856H8.162L8.162,259.652
		L8.162,259.652z M8.162,31.97v219.114v0.407h219.521v-0.407V31.97H8.162L8.162,31.97z M8.162,31.97"/>
</g>
</svg>
