<?xml version="1.0" encoding="utf-8"?>
<!-- Generator: Adobe Illustrator 16.0.0, SVG Export Plug-In . SVG Version: 6.00 Build 0)  -->
<!DOCTYPE svg PUBLIC "-//W3C//DTD SVG 1.1//EN" "http://www.w3.org/Graphics/SVG/1.1/DTD/svg11.dtd">
<svg version="1.1" id="图层_1" xmlns="http://www.w3.org/2000/svg" xmlns:xlink="http://www.w3.org/1999/xlink" x="0px" y="0px"
	 width="283.46px" height="283.46px" viewBox="0 0 283.46 283.46" enable-background="new 0 0 283.46 283.46" xml:space="preserve">
<g>
	<path fill="#272636" d="M236.21,108.842L278,67.052l-27.254-27.255L236.21,54.333V32.075c0-3.18-1.363-4.997-2.273-5.905
		c-2.27-2.272-5.449-2.272-5.449-2.272H8.176c-3.18-0.453-4.996,0.909-5.905,2.272C0,27.985,0,30.711,0,31.62v219.401
		c0,3.181,1.362,4.998,2.271,6.36c2.272,2.271,4.997,2.271,5.452,2.271l0,0h220.31c3.18,0,5.451-1.362,6.359-2.725
		c1.818-2.271,1.818-4.997,1.818-6.358V108.842L236.21,108.842z M228.033,251.476H8.176v-0.455V31.62h219.857v30.434
		L113.107,176.978l-71.771-72.224l-29.98,29.527l99.48,99.479l117.196-116.74V251.476L228.033,251.476L228.033,251.476z
		 M228.033,251.476"/>
</g>
</svg>
