<?xml version="1.0" encoding="utf-8"?>
<!-- Generator: Adobe Illustrator 16.0.0, SVG Export Plug-In . SVG Version: 6.00 Build 0)  -->
<!DOCTYPE svg PUBLIC "-//W3C//DTD SVG 1.1//EN" "http://www.w3.org/Graphics/SVG/1.1/DTD/svg11.dtd">
<svg version="1.1" id="图层_1" xmlns="http://www.w3.org/2000/svg" xmlns:xlink="http://www.w3.org/1999/xlink" x="0px" y="0px"
	 width="283.46px" height="283.46px" viewBox="0 0 283.46 283.46" enable-background="new 0 0 283.46 283.46" xml:space="preserve">
<g>
	<path fill="#272636" d="M141.732,2.733C64.962,2.733,2.73,64.964,2.73,141.728c0,76.769,62.232,138.999,139.002,138.999
		c76.764,0,138.998-62.232,138.998-138.999C280.73,64.964,218.497,2.733,141.732,2.733L141.732,2.733z M231.664,92.665l0.016,0.015
		L119.203,203.879h-0.965l-66.463-64.867c0,0-0.152-0.18-0.215-0.26c-1.229-1.571-1.902-3.558-1.902-5.705
		c0-5.111,4.153-9.255,9.276-9.255c2.254,0,4.319,0.801,5.926,2.135c0,0,0.752,0.69,0.964,0.924l52.737,52.737l99.745-99.745
		c1.699-1.896,4.167-3.089,6.915-3.089c5.122,0,9.275,4.144,9.275,9.255C234.497,88.623,233.409,90.982,231.664,92.665
		L231.664,92.665z M231.664,92.665"/>
</g>
</svg>
