<?xml version="1.0" encoding="utf-8"?>
<!-- Generator: Adobe Illustrator 16.0.0, SVG Export Plug-In . SVG Version: 6.00 Build 0)  -->
<!DOCTYPE svg PUBLIC "-//W3C//DTD SVG 1.1//EN" "http://www.w3.org/Graphics/SVG/1.1/DTD/svg11.dtd">
<svg version="1.1" id="图层_1" xmlns="http://www.w3.org/2000/svg" xmlns:xlink="http://www.w3.org/1999/xlink" x="0px" y="0px"
	 width="283.46px" height="283.46px" viewBox="0 0 283.46 283.46" enable-background="new 0 0 283.46 283.46" xml:space="preserve">
<g>
	<path fill="#272636" d="M42.396,181.537h198.196v19.786H42.396V181.537L42.396,181.537z M42.396,181.537"/>
	<path fill="#272636" d="M42.502,121.897h99.098v19.787H42.502V121.897L42.502,121.897z M42.502,121.897"/>
	<path fill="#272636" d="M246.628,260.809H36.832c-18.805,0-34.102-15.086-34.102-33.628V56.277
		c0-18.541,15.297-33.625,34.102-33.625h209.797c18.803,0,34.102,15.084,34.102,33.625v170.905
		C280.73,245.723,265.431,260.809,246.628,260.809L246.628,260.809z M36.832,42.439c-7.894,0-14.314,6.208-14.314,13.838v170.905
		c0,7.632,6.421,13.839,14.314,13.839h209.797c7.894,0,14.314-6.207,14.314-13.839V56.277c0-7.631-6.421-13.838-14.314-13.838
		H36.832L36.832,42.439z M36.832,42.439"/>
	<path fill="#272636" d="M181.378,82.173h39.744v39.742h-39.744V82.173L181.378,82.173z M181.378,82.173"/>
</g>
</svg>
