<?xml version="1.0" encoding="utf-8"?>
<!-- Generator: Adobe Illustrator 16.0.0, SVG Export Plug-In . SVG Version: 6.00 Build 0)  -->
<!DOCTYPE svg PUBLIC "-//W3C//DTD SVG 1.1//EN" "http://www.w3.org/Graphics/SVG/1.1/DTD/svg11.dtd">
<svg version="1.1" id="图层_1" xmlns="http://www.w3.org/2000/svg" xmlns:xlink="http://www.w3.org/1999/xlink" x="0px" y="0px"
	 width="283.46px" height="283.46px" viewBox="0 0 283.46 283.46" enable-background="new 0 0 283.46 283.46" xml:space="preserve">
<g>
	<path fill="#272636" d="M206.18,248.87H35.191c-17.9,0-32.461-14.562-32.461-32.46V113.451c0-17.899,14.562-32.461,32.461-32.461
		H139.32c4.138,0,7.491,3.354,7.491,7.491c0,4.137-3.353,7.491-7.491,7.491H35.191c-9.638,0-17.479,7.841-17.479,17.479V216.41
		c0,9.638,7.841,17.479,17.479,17.479H206.18c9.638,0,17.479-7.841,17.479-17.479v-42.055c0-4.137,3.354-7.491,7.491-7.491
		s7.49,3.354,7.49,7.491v42.053C238.64,234.308,224.079,248.87,206.18,248.87L206.18,248.87z M206.18,248.87"/>
	<path fill="#272636" d="M137.872,128.672H10.221v28.89h143.55L137.872,128.672z M137.872,128.672"/>
	<path fill="#272636" d="M204.398,187.253c-20.388,0-39.556-7.94-53.973-22.356c-14.418-14.418-22.357-33.585-22.357-53.975
		c0-20.389,7.939-39.557,22.357-53.975C164.842,42.53,184.01,34.59,204.398,34.59c20.39,0,39.558,7.939,53.976,22.357
		c14.417,14.417,22.356,33.585,22.356,53.975c0,20.388-7.939,39.557-22.356,53.975C243.956,179.313,224.788,187.253,204.398,187.253
		L204.398,187.253z M204.398,49.572c-33.828,0-61.348,27.522-61.348,61.35s27.52,61.349,61.348,61.349s61.35-27.521,61.35-61.349
		S238.228,49.572,204.398,49.572L204.398,49.572z M204.398,49.572"/>
	<path fill="#272636" d="M204.398,111.812L204.398,111.812c-1.632,0-3.189-0.686-4.295-1.891l-21.569-23.53
		c-2.174-2.372-2.013-6.058,0.357-8.232c2.374-2.174,6.059-2.013,8.234,0.357L204.4,97.362l17.274-18.846
		c2.175-2.371,5.86-2.53,8.232-0.357c2.372,2.174,2.531,5.86,0.357,8.232l-21.569,23.53
		C207.59,111.126,206.033,111.812,204.398,111.812L204.398,111.812z M204.398,111.812"/>
	<path fill="#272636" d="M227.93,111.812h-47.063c-3.218,0-5.826-2.609-5.826-5.826c0-3.218,2.608-5.826,5.826-5.826h47.063
		c3.218,0,5.826,2.608,5.826,5.826C233.756,109.203,231.148,111.812,227.93,111.812L227.93,111.812z M227.93,111.812"/>
	<path fill="#272636" d="M229.891,133.052h-50.984c-3.218,0-5.826-2.609-5.826-5.826c0-3.218,2.608-5.827,5.826-5.827h50.984
		c3.218,0,5.826,2.609,5.826,5.827C235.717,130.443,233.109,133.052,229.891,133.052L229.891,133.052z M229.891,133.052"/>
	<path fill="#272636" d="M204.398,151.682c-3.218,0-5.826-2.606-5.826-5.826v-39.87c0-3.218,2.608-5.826,5.826-5.826
		c3.22,0,5.826,2.608,5.826,5.826v39.87C210.226,149.074,207.618,151.682,204.398,151.682L204.398,151.682z M204.398,151.682"/>
</g>
</svg>
