<?xml version="1.0" encoding="utf-8"?>
<!-- Generator: Adobe Illustrator 16.0.0, SVG Export Plug-In . SVG Version: 6.00 Build 0)  -->
<!DOCTYPE svg PUBLIC "-//W3C//DTD SVG 1.1//EN" "http://www.w3.org/Graphics/SVG/1.1/DTD/svg11.dtd">
<svg version="1.1" id="图层_1" xmlns="http://www.w3.org/2000/svg" xmlns:xlink="http://www.w3.org/1999/xlink" x="0px" y="0px"
	 width="283.46px" height="283.46px" viewBox="0 0 283.46 283.46" enable-background="new 0 0 283.46 283.46" xml:space="preserve">
<g>
	<path fill="#272636" d="M176.889,141.969c2.532,0,4.592-2.062,4.592-4.591c0-2.532-2.06-4.593-4.592-4.593h-34.253v-9.993
		l31.009-31.006c1.789-1.791,1.789-4.704,0-6.495c-0.881-0.88-2.003-1.345-3.247-1.345c-1.245,0-2.368,0.465-3.248,1.345
		l-26.816,26.819c0,0-2.188-0.084-2.237-0.084h-2.086l-26.734-26.735c-0.881-0.88-2.002-1.345-3.247-1.345s-2.368,0.465-3.248,1.345
		c-1.789,1.791-1.789,4.704,0,6.495l30.672,30.671v10.328H101.8c-2.532,0-4.593,2.061-4.593,4.593c0,2.53,2.062,4.591,4.593,4.591
		h31.654v20.055H101.8c-2.532,0-4.593,2.061-4.593,4.592s2.062,4.591,4.593,4.591h31.654v35.585c0,2.531,2.06,4.591,4.591,4.591
		c2.532,0,4.591-2.06,4.591-4.591v-35.585h34.253c2.532,0,4.592-2.06,4.592-4.591s-2.06-4.592-4.592-4.592h-34.253v-20.055H176.889z
		"/>
	<path fill="#272636" d="M280.564,67.003c-0.328-1.202-1.071-2.162-2.149-2.781c-0.695-0.396-1.482-0.608-2.274-0.608
		c-1.646,0-3.176,0.886-3.991,2.313l-14.383,25.125l-3.987-8.054c-6.386-12.902-14.816-24.636-25.057-34.876
		c-12.156-12.157-26.313-21.7-42.079-28.37c-16.323-6.902-33.66-10.404-51.529-10.404c-17.869,0-35.208,3.501-51.531,10.404
		c-15.765,6.67-29.922,16.215-42.079,28.37C29.347,60.28,19.804,74.437,13.136,90.2C6.232,106.523,2.73,123.86,2.73,141.731
		c0,17.869,3.501,35.206,10.406,51.529c6.668,15.766,16.213,29.923,28.368,42.079c12.157,12.157,26.314,21.702,42.079,28.37
		c16.324,6.904,33.663,10.403,51.531,10.403c17.869,0,35.206-3.499,51.529-10.403c15.766-6.67,29.923-16.215,42.079-28.37
		c5.464-5.466,10.482-11.445,14.916-17.774l0.405-0.579l0.557-0.438c1.188-0.934,1.869-2.326,1.869-3.82
		c0-2.678-2.18-4.857-4.858-4.857c-1.379,0-2.654,0.565-3.589,1.591l-0.186,0.203l-0.036,0.052l-0.078,0.104
		c-0.097,0.132-0.192,0.274-0.281,0.424l-0.067,0.11l-0.072,0.106c-23.003,34.107-61.205,54.47-102.188,54.47
		c-67.933,0-123.199-55.269-123.199-123.199c0-67.932,55.266-123.199,123.199-123.199c46.837,0,90.349,27.272,110.853,69.48
		l6.782,13.965l-36.449-20.867c-0.693-0.396-1.48-0.608-2.271-0.608c-1.646,0-3.178,0.886-3.993,2.313
		c-1.257,2.197-0.493,5.008,1.703,6.266l38.114,21.818c0.694,0.398,1.48,0.607,2.271,0.607c0.591,0,1.172-0.115,1.728-0.341
		l0.539-0.22l0.574-0.084c1.395-0.203,2.643-1.047,3.336-2.261l21.817-38.115C280.735,69.407,280.889,68.204,280.564,67.003z"/>
</g>
</svg>
