<?xml version="1.0" encoding="utf-8"?>
<!-- Generator: Adobe Illustrator 16.0.0, SVG Export Plug-In . SVG Version: 6.00 Build 0)  -->
<!DOCTYPE svg PUBLIC "-//W3C//DTD SVG 1.1//EN" "http://www.w3.org/Graphics/SVG/1.1/DTD/svg11.dtd">
<svg version="1.1" id="图层_1" xmlns="http://www.w3.org/2000/svg" xmlns:xlink="http://www.w3.org/1999/xlink" x="0px" y="0px"
	 width="283.46px" height="283.46px" viewBox="0 0 283.46 283.46" enable-background="new 0 0 283.46 283.46" xml:space="preserve">
<g>
	<path fill="#272636" d="M259.815,211.438c-3.568-4.85-7.533-10.672-11.935-17.41c-4.264-6.468-8.338-13.762-12.164-21.772
		c-3.706-7.611-7.016-16.007-9.817-24.98c-2.543-8.248-3.826-16.803-3.826-25.398c0-10.455-1.479-20.114-4.421-28.689
		c-2.863-8.516-6.787-16.267-11.697-23.112c-4.947-6.787-10.881-12.581-17.628-17.211c-6.13-4.243-12.857-7.553-20.928-10.276
		c1.66-3.566,2.644-7.512,2.644-11.715c0-15.521-12.62-28.142-28.141-28.142c-15.522,0-28.142,12.621-28.142,28.142
		c0,4.164,0.964,8.109,2.603,11.656c-0.725,0.179-1.58,0.318-2.226,0.497c-6.887,2.385-13.643,5.892-20.251,10.514
		c-6.568,4.749-12.283,10.414-17.023,16.762c-4.989,6.668-8.993,14.339-11.894,22.776c-3.081,8.735-4.611,18.533-4.611,29.106
		c0,8.893-1.282,17.528-3.806,25.578c-2.762,8.654-6.031,16.923-9.719,24.613c-3.527,7.394-7.453,14.577-11.975,21.893
		c-4.491,7.214-8.356,13.722-11.417,19.147c-5.545,8.615-3.368,15.82-1.561,19.03c3.062,5.325,8.179,8.873,14.459,8.873h209.761
		c2.881,0,5.725-1.4,8.197-2.862c2.564-1.401,4.751-3.785,6.291-6.17c1.759-2.645,2.763-5.833,2.941-9.232
		C263.78,219.03,262.497,215.005,259.815,211.438L259.815,211.438L259.815,211.438z M141.921,22.436
		c4.631,0,8.417,3.766,8.417,8.417c0,4.65-3.786,8.417-8.417,8.417s-8.417-3.786-8.417-8.417
		C133.504,26.222,137.271,22.436,141.921,22.436L141.921,22.436L141.921,22.436z M42.162,221.574c2.783,0,5.914-10.632,9.451-16.327
		c4.928-7.949,9.172-16.028,12.998-24.076c4.063-8.457,7.67-17.729,10.741-27.307c3.141-10.037,4.731-20.729,4.731-31.61
		c0-8.347,1.183-15.969,3.527-22.678c2.246-6.568,5.287-12.421,9.054-17.468c3.546-4.771,7.85-9.033,12.64-12.501
		c5.028-3.528,10.036-6.131,14.787-7.79c2.165-0.626,8.874-1.381,20.649-1.381c11.04,0,19.734,0.626,20.352,0.665
		c5.724,1.899,11.079,4.551,16.018,7.989c4.909,3.389,9.251,7.632,12.838,12.561c3.728,5.188,6.768,11.178,8.993,17.847
		c2.227,6.568,3.369,14.101,3.369,22.379c0,10.573,1.58,21.076,4.71,31.231c3.101,9.956,6.788,19.307,10.902,27.724
		c4.203,8.735,8.714,17.449,13.425,24.614c3.786,5.773,7.234,16.128,10.553,16.128H42.162L42.162,221.574L42.162,221.574z
		 M92.623,261.014h98.606v19.716H92.623V261.014L92.623,261.014L92.623,261.014z M92.623,261.014"/>
</g>
</svg>
