<?xml version="1.0" encoding="utf-8"?>
<!-- Generator: Adobe Illustrator 16.0.0, SVG Export Plug-In . SVG Version: 6.00 Build 0)  -->
<!DOCTYPE svg PUBLIC "-//W3C//DTD SVG 1.1//EN" "http://www.w3.org/Graphics/SVG/1.1/DTD/svg11.dtd">
<svg version="1.1" id="图层_1" xmlns="http://www.w3.org/2000/svg" xmlns:xlink="http://www.w3.org/1999/xlink" x="0px" y="0px"
	 width="283.46px" height="283.46px" viewBox="0 0 283.46 283.46" enable-background="new 0 0 283.46 283.46" xml:space="preserve">
<g>
	<path fill="#272636" d="M280.725,266.166l-80.172-80.182c16.114-19.379,25.815-44.271,25.815-71.437
		c0-61.759-50.058-111.816-111.817-111.816C52.805,2.73,2.735,52.788,2.735,114.547c0,61.747,50.069,111.818,111.816,111.818
		c27.173,0,52.058-9.702,71.438-25.817l80.174,80.183L280.725,266.166L280.725,266.166z M14.505,114.547
		C14.505,59.38,59.379,14.5,114.552,14.5c55.161,0,100.046,44.879,100.046,100.046c0,55.168-44.886,100.046-100.046,100.046
		C59.379,214.593,14.505,169.715,14.505,114.547L14.505,114.547z M14.505,114.547"/>
</g>
</svg>
