<?xml version="1.0" encoding="utf-8"?>
<!-- Generator: Adobe Illustrator 16.0.0, SVG Export Plug-In . SVG Version: 6.00 Build 0)  -->
<!DOCTYPE svg PUBLIC "-//W3C//DTD SVG 1.1//EN" "http://www.w3.org/Graphics/SVG/1.1/DTD/svg11.dtd">
<svg version="1.1" id="图层_1" xmlns="http://www.w3.org/2000/svg" xmlns:xlink="http://www.w3.org/1999/xlink" x="0px" y="0px"
	 width="283.46px" height="283.46px" viewBox="0 0 283.46 283.46" enable-background="new 0 0 283.46 283.46" xml:space="preserve">
<g>
	<path fill="#272636" d="M141.729,92.995c-26.824,0-48.648,21.863-48.648,48.735c0,26.871,21.823,48.734,48.648,48.734
		s48.648-21.863,48.648-48.734C190.377,114.858,168.554,92.995,141.729,92.995L141.729,92.995L141.729,92.995z M141.729,176.81
		c-19.31,0-35.02-15.736-35.02-35.08c0-19.346,15.71-35.084,35.02-35.084s35.02,15.738,35.02,35.084
		C176.749,161.074,161.039,176.81,141.729,176.81L141.729,176.81L141.729,176.81z M247.925,105.889h-5.854l-0.684-1.818l-0.03-0.069
		c-0.064-0.134-0.127-0.271-0.183-0.414l-0.011-0.027c-0.837-2.183-1.615-4.067-2.381-5.765l-0.809-1.791l4.144-4.157
		c6.15-6.16,9.536-14.349,9.536-23.061c0-8.713-3.386-16.904-9.537-23.067l-4.549-4.558c-6.15-6.159-14.326-9.552-23.023-9.552
		c-8.696,0-16.872,3.393-23.021,9.551l-4.146,4.156l-1.791-0.811c-1.831-0.829-3.874-1.667-6.243-2.563l-1.839-0.693v-5.902
		c0-17.985-14.605-32.617-32.558-32.617h-6.435c-17.954,0-32.56,14.633-32.56,32.617v5.902l-1.838,0.693
		c-2.362,0.892-4.404,1.731-6.243,2.563l-1.788,0.811l-4.149-4.156c-6.147-6.158-14.322-9.551-23.02-9.551
		c-8.696,0-16.873,3.393-23.021,9.551l-4.552,4.559c-6.148,6.163-9.536,14.354-9.536,23.067c0,8.712,3.388,16.902,9.538,23.062
		l4.144,4.156l-0.81,1.793c-0.771,1.706-1.528,3.538-2.388,5.78c-0.06,0.152-0.123,0.293-0.189,0.432l-0.032,0.066l-0.684,1.813
		h-5.85c-17.953,0-32.56,14.633-32.56,32.616v6.45c0,17.982,14.606,32.614,32.56,32.614h5.856l0.68,1.822l0.03,0.063
		c0.066,0.138,0.13,0.278,0.195,0.444c0.836,2.186,1.614,4.071,2.381,5.764l0.81,1.791l-4.146,4.159
		c-6.148,6.158-9.536,14.349-9.536,23.061c0,8.713,3.388,16.903,9.536,23.065l4.552,4.56c6.148,6.159,14.325,9.551,23.021,9.551
		c8.697,0,16.873-3.392,23.021-9.551l4.148-4.156l1.79,0.812c1.84,0.832,3.882,1.67,6.24,2.56l1.839,0.694v5.905
		c0,17.984,14.605,32.616,32.56,32.616h6.435c17.952,0,32.56-14.632,32.56-32.616v-5.905l1.839-0.694
		c2.366-0.893,4.408-1.729,6.241-2.56l1.791-0.812l4.146,4.156c6.148,6.159,14.324,9.551,23.021,9.551
		c8.697,0,16.873-3.392,23.023-9.551l4.55-4.559c6.15-6.163,9.536-14.354,9.536-23.066c0-8.712-3.386-16.902-9.538-23.063
		l-4.142-4.154l0.809-1.791c0.771-1.707,1.548-3.592,2.388-5.783c0.058-0.148,0.122-0.289,0.187-0.427l0.029-0.062l0.678-1.824
		h5.861c17.953,0,32.559-14.632,32.559-32.614v-6.45C280.483,120.521,265.877,105.889,247.925,105.889L247.925,105.889
		L247.925,105.889z M266.855,144.953c0,1.229-0.124,2.478-0.368,3.689c-0.093,0.477-0.227,0.881-0.334,1.205
		c-0.033,0.1-0.066,0.199-0.097,0.3l-0.084,0.301c-0.134,0.495-0.286,1.054-0.528,1.652c-0.251,0.611-0.547,1.146-0.808,1.617
		l-0.16,0.289c-0.046,0.083-0.089,0.171-0.133,0.257c-0.132,0.259-0.293,0.578-0.516,0.915c-0.518,0.803-1.102,1.51-1.605,2.097
		l-0.021,0.021c-0.02,0.025-0.039,0.052-0.06,0.077c-0.093,0.12-0.219,0.285-0.387,0.465c-0.653,0.7-1.39,1.366-2.268,2.045
		c-0.075,0.063-0.15,0.126-0.231,0.186c-2.777,2.095-6.112,3.371-9.631,3.689c-0.131,0.012-0.262,0.03-0.392,0.048
		c-0.357,0.049-0.801,0.11-1.309,0.11h-16c-2.188,8.852-5.853,17.53-10.917,25.857l11.475,11.49
		c2.89,2.896,4.724,6.621,5.303,10.786c0.013,0.092,0.021,0.182,0.029,0.282c0.138,1.111,0.188,2.111,0.152,3.031
		c-0.008,0.25-0.034,0.467-0.053,0.623c-0.006,0.045-0.013,0.089-0.015,0.127c-0.06,0.785-0.141,1.702-0.345,2.617
		c-0.08,0.367-0.185,0.693-0.269,0.956c-0.033,0.101-0.065,0.204-0.095,0.308c0,0-0.077,0.263-0.11,0.378
		c-0.146,0.504-0.311,1.073-0.563,1.669c-0.237,0.571-0.52,1.071-0.769,1.512c-0.056,0.099-0.111,0.198-0.18,0.32
		c-0.06,0.104-0.113,0.214-0.168,0.321c-0.144,0.283-0.322,0.638-0.568,1.006c-0.706,1.056-1.496,2.025-2.351,2.885l-4.556,4.563
		c-0.854,0.85-1.817,1.64-2.868,2.347l-0.028,0.02c-0.358,0.234-0.703,0.41-0.98,0.552c-0.111,0.056-0.224,0.112-0.328,0.171
		l-0.26,0.147c-0.458,0.261-0.978,0.558-1.552,0.797c-0.583,0.249-1.136,0.409-1.624,0.551c-0.13,0.037-0.259,0.076-0.389,0.114
		l-0.06,0.018c-0.101,0.029-0.2,0.061-0.3,0.093c-0.258,0.083-0.577,0.186-0.943,0.263c-0.935,0.208-1.846,0.294-2.614,0.353
		l-0.03,0.001c-0.046,0.004-0.089,0.01-0.135,0.015c-0.143,0.016-0.336,0.037-0.562,0.045c-0.214,0.01-0.427,0.015-0.641,0.015
		c-0.738,0-1.532-0.055-2.428-0.164l-0.017-0.003c-0.087-0.007-0.171-0.016-0.258-0.027c-4.14-0.581-7.857-2.416-10.752-5.309
		l-11.457-11.478c-8.316,5.086-16.985,8.763-25.825,10.955v15.99c0,0.504-0.062,0.946-0.109,1.302
		c-0.017,0.13-0.035,0.26-0.048,0.39c-0.319,3.532-1.589,6.865-3.674,9.643c-0.043,0.061-0.088,0.117-0.138,0.179l-0.042,0.055
		c-0.688,0.887-1.36,1.632-2.055,2.28c-0.188,0.176-0.357,0.308-0.481,0.404c-0.028,0.021-0.056,0.042-0.084,0.066
		c-0.627,0.542-1.317,1.114-2.101,1.617c-0.319,0.207-0.625,0.364-0.868,0.489c-0.093,0.048-0.188,0.096-0.284,0.148l-0.208,0.116
		c-0.492,0.273-1.05,0.584-1.68,0.852l-0.041,0.016c-0.574,0.233-1.13,0.388-1.62,0.521l-0.323,0.09
		c-0.116,0.033-0.231,0.071-0.345,0.108c-0.307,0.103-0.688,0.229-1.13,0.315c-1.234,0.247-2.479,0.372-3.7,0.372h-6.436
		c-1.22,0-2.464-0.125-3.7-0.372c-0.439-0.087-0.817-0.212-1.121-0.312c-0.117-0.038-0.232-0.078-0.356-0.112l-0.322-0.09
		c-0.489-0.134-1.044-0.288-1.617-0.52l-0.04-0.018c-0.631-0.268-1.19-0.578-1.683-0.853l-0.209-0.117
		c-0.093-0.05-0.187-0.098-0.279-0.146c-0.245-0.126-0.551-0.282-0.858-0.482c-0.825-0.529-1.522-1.115-2.105-1.619
		c-0.028-0.023-0.057-0.045-0.086-0.067c-0.128-0.1-0.302-0.233-0.492-0.413c-0.694-0.65-1.364-1.396-2.048-2.276l-0.015-0.019
		c-0.04-0.05-0.105-0.126-0.177-0.229c-2.082-2.777-3.348-6.105-3.663-9.619c-0.012-0.131-0.03-0.261-0.048-0.389
		c-0.049-0.359-0.108-0.805-0.108-1.313v-15.99c-8.846-2.194-17.514-5.87-25.826-10.955l-11.46,11.479
		c-2.894,2.893-6.611,4.728-10.745,5.308c-0.086,0.012-0.17,0.02-0.264,0.027l-0.016,0.001c-0.894,0.111-1.687,0.166-2.428,0.166
		c-0.214,0-0.429-0.005-0.642-0.015c-0.225-0.008-0.419-0.029-0.563-0.045c-0.044-0.005-0.089-0.011-0.132-0.015l-0.031-0.001
		c-0.768-0.059-1.678-0.145-2.614-0.353c-0.364-0.077-0.682-0.18-0.938-0.262c-0.101-0.031-0.201-0.064-0.302-0.093l-0.069-0.02
		c-0.131-0.04-0.263-0.078-0.395-0.117c-0.484-0.141-1.034-0.301-1.593-0.539c-0.59-0.245-1.104-0.538-1.558-0.797l-0.27-0.154
		c-0.109-0.061-0.221-0.117-0.332-0.173c-0.278-0.143-0.623-0.317-1.005-0.569c-1.053-0.706-2.019-1.497-2.875-2.354l-4.553-4.562
		c-0.859-0.863-1.651-1.833-2.348-2.881c-0.248-0.371-0.427-0.724-0.57-1.008c-0.056-0.107-0.108-0.216-0.176-0.335l-0.16-0.285
		c-0.254-0.448-0.541-0.956-0.782-1.536c-0.252-0.593-0.415-1.159-0.56-1.66c-0.033-0.117-0.115-0.394-0.115-0.394
		c-0.029-0.106-0.064-0.21-0.097-0.313c-0.082-0.257-0.185-0.576-0.261-0.925c-0.201-0.907-0.286-1.802-0.349-2.631
		c-0.002-0.046-0.009-0.091-0.015-0.137c-0.019-0.152-0.042-0.359-0.05-0.601c-0.037-0.928,0.012-1.919,0.149-3.021
		c0.007-0.109,0.018-0.221,0.034-0.335c0.581-4.146,2.413-7.866,5.3-10.757l11.473-11.491c-5.064-8.325-8.727-17.004-10.916-25.857
		H35.533c-0.507,0-0.951-0.06-1.307-0.108c-0.13-0.019-0.26-0.037-0.382-0.048c-3.53-0.319-6.865-1.595-9.641-3.69
		c-0.073-0.055-0.145-0.112-0.221-0.177c-0.865-0.667-1.61-1.338-2.277-2.051c-0.17-0.182-0.301-0.353-0.389-0.467
		c-0.016-0.021-0.032-0.043-0.049-0.063l-0.034-0.04c-0.506-0.589-1.09-1.298-1.604-2.095c-0.216-0.33-0.375-0.643-0.504-0.895
		c-0.045-0.09-0.09-0.179-0.144-0.277l-0.156-0.282c-0.261-0.474-0.558-1.009-0.813-1.632c-0.24-0.589-0.394-1.153-0.529-1.65
		l-0.082-0.297c-0.029-0.103-0.064-0.203-0.097-0.306c-0.107-0.323-0.24-0.725-0.326-1.176c-0.248-1.234-0.374-2.481-0.374-3.709
		v-6.447c0-1.227,0.126-2.474,0.37-3.688c0.091-0.475,0.224-0.879,0.331-1.202c0.034-0.104,0.069-0.205,0.1-0.309
		c0.029-0.107,0.06-0.215,0.089-0.322c0.133-0.488,0.283-1.04,0.522-1.624c0.25-0.612,0.546-1.147,0.807-1.619l0.161-0.292
		c0.048-0.087,0.093-0.176,0.138-0.265c0.129-0.255,0.289-0.57,0.506-0.901c0.506-0.785,1.065-1.46,1.596-2.086l0.039-0.045
		c0.021-0.022,0.037-0.048,0.056-0.071c0.09-0.114,0.221-0.284,0.396-0.467c0.664-0.714,1.409-1.387,2.276-2.055
		c0.069-0.061,0.141-0.118,0.215-0.173c2.774-2.094,6.106-3.367,9.638-3.688c0.133-0.012,0.263-0.03,0.395-0.049
		c0.353-0.048,0.792-0.107,1.296-0.107h16.001c2.19-8.856,5.854-17.534,10.916-25.856L50.977,82.193
		c-2.888-2.895-4.72-6.614-5.3-10.759c-0.016-0.11-0.026-0.218-0.034-0.332c-0.138-1.107-0.187-2.097-0.149-3.023
		c0.008-0.241,0.031-0.449,0.05-0.602c0.006-0.045,0.013-0.091,0.015-0.135c0.063-0.829,0.147-1.725,0.345-2.616
		c0.08-0.367,0.185-0.693,0.269-0.955c0.033-0.104,0.065-0.205,0.095-0.31c0,0,0.08-0.267,0.113-0.384
		c0.146-0.505,0.31-1.075,0.558-1.658c0.245-0.587,0.538-1.104,0.797-1.56l0.155-0.276c0.06-0.105,0.114-0.214,0.168-0.322
		c0.144-0.284,0.321-0.637,0.567-1.005c0.7-1.051,1.491-2.02,2.353-2.887l4.554-4.561c0.848-0.848,1.813-1.639,2.868-2.349
		l0.027-0.019c0.358-0.234,0.703-0.41,0.979-0.551c0.111-0.057,0.224-0.114,0.34-0.178l0.285-0.161
		c0.446-0.255,0.951-0.543,1.518-0.78c0.587-0.25,1.146-0.41,1.639-0.554c0.126-0.036,0.252-0.073,0.378-0.11l0.057-0.017
		c0.101-0.028,0.2-0.062,0.3-0.093c0.259-0.082,0.578-0.186,0.946-0.263c0.947-0.21,1.873-0.295,2.586-0.345
		c0.038-0.004,0.076-0.01,0.114-0.014c0.166-0.021,0.393-0.049,0.643-0.057c0.194-0.008,0.391-0.011,0.586-0.011
		c0.761,0,1.545,0.052,2.396,0.157c0.085,0.006,0.217,0.016,0.373,0.039c4.132,0.58,7.842,2.413,10.734,5.304l11.457,11.478
		c8.313-5.084,16.98-8.761,25.826-10.955V35.343c0-0.508,0.061-0.953,0.108-1.311c0.018-0.13,0.036-0.258,0.048-0.379
		c0.317-3.529,1.586-6.862,3.67-9.641c0.053-0.072,0.107-0.143,0.167-0.215l0.018-0.021c0.688-0.89,1.361-1.635,2.054-2.279
		c0.188-0.179,0.36-0.313,0.487-0.412c0.029-0.023,0.06-0.045,0.076-0.06c0.632-0.546,1.326-1.123,2.103-1.618
		c0.319-0.207,0.625-0.363,0.87-0.489c0.093-0.048,0.188-0.096,0.276-0.145l0.175-0.099c0.511-0.285,1.089-0.606,1.739-0.876
		c0.589-0.244,1.153-0.399,1.65-0.537l0.306-0.085c0.117-0.034,0.233-0.072,0.347-0.109c0.308-0.103,0.691-0.228,1.137-0.316
		c1.232-0.245,2.477-0.369,3.7-0.369h6.435c1.223,0,2.468,0.124,3.699,0.369c0.448,0.089,0.834,0.217,1.144,0.318
		c0.113,0.037,0.228,0.076,0.335,0.106l0.312,0.087c0.498,0.137,1.062,0.293,1.644,0.535c0.646,0.265,1.21,0.58,1.709,0.858
		l0.209,0.115c0.092,0.052,0.187,0.1,0.279,0.147c0.245,0.125,0.549,0.281,0.852,0.478c0.803,0.513,1.493,1.088,2.108,1.62
		c0.027,0.023,0.059,0.046,0.089,0.07c0.124,0.098,0.295,0.229,0.481,0.405c0.693,0.645,1.366,1.391,2.059,2.283l0.026,0.033
		c0.053,0.066,0.106,0.132,0.158,0.202c2.082,2.778,3.352,6.11,3.671,9.639c0.012,0.132,0.03,0.263,0.048,0.393
		c0.047,0.354,0.107,0.796,0.107,1.301v15.989c8.845,2.194,17.513,5.871,25.827,10.955l11.458-11.479
		c2.891-2.89,6.603-4.724,10.736-5.304c0.153-0.022,0.282-0.032,0.361-0.036c0.855-0.107,1.642-0.159,2.404-0.159
		c0.194,0,0.391,0.003,0.571,0.01c0.263,0.008,0.489,0.037,0.654,0.057c0.039,0.005,0.079,0.011,0.117,0.015
		c0.712,0.05,1.642,0.135,2.589,0.345c0.369,0.078,0.689,0.182,0.948,0.264c0.098,0.031,0.197,0.065,0.298,0.093
		c0,0,0.296,0.088,0.418,0.123c0.496,0.142,1.058,0.306,1.636,0.55c0.585,0.246,1.094,0.536,1.543,0.792l0.277,0.158
		c0.111,0.061,0.225,0.118,0.337,0.175c0.275,0.141,0.619,0.315,0.976,0.549l0.033,0.022c1.053,0.711,2.017,1.5,2.869,2.349
		l4.556,4.563c0.851,0.855,1.64,1.824,2.345,2.879c0.247,0.368,0.423,0.72,0.564,1.001c0.057,0.107,0.109,0.216,0.169,0.322
		l0.176,0.313c0.254,0.449,0.541,0.959,0.772,1.513c0.256,0.602,0.421,1.175,0.567,1.681c0.033,0.116,0.111,0.381,0.111,0.381
		c0.029,0.104,0.062,0.207,0.097,0.309c0.082,0.263,0.187,0.589,0.261,0.934c0.21,0.938,0.291,1.853,0.349,2.633
		c0.004,0.044,0.011,0.089,0.017,0.133c0.019,0.156,0.045,0.371,0.051,0.594c0.039,0.938-0.012,1.939-0.15,3.063
		c-0.007,0.089-0.017,0.179-0.03,0.292c-0.578,4.152-2.411,7.878-5.302,10.775l-11.475,11.49
		c5.063,8.322,8.726,16.999,10.917,25.856h16c0.504,0,0.943,0.06,1.298,0.107c0.131,0.019,0.263,0.037,0.393,0.049
		c3.527,0.318,6.859,1.593,9.638,3.688c0.076,0.056,0.148,0.115,0.226,0.182c0.87,0.671,1.612,1.343,2.27,2.05
		c0.173,0.182,0.304,0.351,0.393,0.467c0.02,0.024,0.04,0.05,0.046,0.061l0.048,0.053c0.529,0.624,1.086,1.297,1.593,2.081
		c0.224,0.34,0.387,0.664,0.52,0.925c0.044,0.086,0.086,0.172,0.125,0.244l0.146,0.261c0.268,0.482,0.57,1.027,0.831,1.664
		c0.232,0.572,0.382,1.12,0.514,1.604c0.03,0.109,0.06,0.218,0.09,0.326c0.03,0.103,0.064,0.203,0.098,0.304
		c0.109,0.326,0.244,0.732,0.332,1.189c0.248,1.234,0.373,2.481,0.373,3.71V144.953L266.855,144.953L266.855,144.953z
		 M266.855,144.953"/>
</g>
</svg>
