<?xml version="1.0" encoding="utf-8"?>
<!-- Generator: Adobe Illustrator 16.0.0, SVG Export Plug-In . SVG Version: 6.00 Build 0)  -->
<!DOCTYPE svg PUBLIC "-//W3C//DTD SVG 1.1//EN" "http://www.w3.org/Graphics/SVG/1.1/DTD/svg11.dtd">
<svg version="1.1" id="图层_1" xmlns="http://www.w3.org/2000/svg" xmlns:xlink="http://www.w3.org/1999/xlink" x="0px" y="0px"
	 width="283.46px" height="283.46px" viewBox="0 0 283.46 283.46" enable-background="new 0 0 283.46 283.46" xml:space="preserve">
<g>
	<path fill="#272636" d="M280.73,218.106c0,54.827-56.545,62.624-139,62.624c-82.456,0-139-7.796-139-62.624
		c0-39.489,23.585-74.591,72.067-100.341c-13.115-17.183-17.065-37.22-16.94-49.14C58.181,37.647,91.577,2.73,142.317,2.73
		c50.741,0,76.629,33.362,76.629,67.104c0,17.171-3.995,34.526-15.442,47.931C255.13,140.406,280.73,177.926,280.73,218.106
		L280.73,218.106L280.73,218.106z M179.642,122.774c16.064-14.705,18.713-36.909,18.713-52.94c0-31.519-28.848-48.148-57.212-48.148
		c-29.758,0-61.197,20.649-61.197,48.148c0,11.378-2.084,31.07,17.551,52.94c-53.562,30.875-75.811,57.891-75.811,94.778
		c0,40.652,55.484,44.222,120.044,44.222c63.615,0,120.044-4.916,120.044-44.222C261.774,180.01,226.5,143.917,179.642,122.774
		L179.642,122.774L179.642,122.774z M141.73,172.147c-25.659,0-51.83,28.588-51.83-10.375c0-41.833,26.17-14.702,51.83-14.702
		s51.83-26.847,51.83,14.702C193.56,199.544,167.389,172.147,141.73,172.147L141.73,172.147L141.73,172.147z M141.73,172.147"/>
</g>
</svg>
