<?xml version="1.0" encoding="utf-8"?>
<!-- Generator: Adobe Illustrator 16.0.0, SVG Export Plug-In . SVG Version: 6.00 Build 0)  -->
<!DOCTYPE svg PUBLIC "-//W3C//DTD SVG 1.1//EN" "http://www.w3.org/Graphics/SVG/1.1/DTD/svg11.dtd">
<svg version="1.1" id="图层_1" xmlns="http://www.w3.org/2000/svg" xmlns:xlink="http://www.w3.org/1999/xlink" x="0px" y="0px"
	 width="283.46px" height="283.46px" viewBox="0 0 283.46 283.46" enable-background="new 0 0 283.46 283.46" xml:space="preserve">
<g>
	<path fill="#272636" d="M239.534,7.795c-22.752,0-41.195,18.452-41.195,41.196c0,3.953,0.582,7.767,1.624,11.38L79.597,110.854
		c-7.124-12.336-20.416-20.658-35.67-20.658c-22.744,0-41.196,18.453-41.196,41.223c0,22.821,18.453,41.265,41.196,41.265
		c11.92,0,22.63-5.091,30.155-13.196l77.579,55.774c-3.022,5.741-4.743,12.267-4.743,19.208c0,22.752,18.374,41.196,41.117,41.196
		c22.745,0,41.196-18.444,41.196-41.196c0-22.744-18.451-41.188-41.196-41.188c-12.109,0-22.96,5.247-30.466,13.561L80.11,151.165
		c3.188-5.864,5.004-12.588,5.004-19.746c0-3.85-0.557-7.549-1.538-11.06l120.46-50.518c7.15,12.162,20.355,20.362,35.497,20.362
		c22.753,0,41.196-18.443,41.196-41.204C280.73,26.247,262.278,7.795,239.534,7.795L239.534,7.795z M188.034,203.584
		c17.037,0,30.901,13.866,30.901,30.894c0,17.044-13.864,30.91-30.901,30.91c-17.044,0-30.874-13.866-30.874-30.91
		C157.167,217.451,170.999,203.584,188.034,203.584L188.034,203.584z M43.926,162.388c-17.036,0-30.902-13.856-30.902-30.97
		c0-17.063,13.857-30.928,30.902-30.928c17.044,0,30.901,13.857,30.901,30.928C74.827,148.524,60.963,162.388,43.926,162.388
		L43.926,162.388z M239.534,79.901c-17.044,0-30.901-13.865-30.901-30.901c0-17.037,13.857-30.901,30.901-30.901
		c17.037,0,30.901,13.856,30.901,30.901C270.435,66.044,256.571,79.901,239.534,79.901L239.534,79.901z M239.534,79.901"/>
</g>
</svg>
