<?xml version="1.0" encoding="utf-8"?>
<!-- Generator: Adobe Illustrator 16.0.0, SVG Export Plug-In . SVG Version: 6.00 Build 0)  -->
<!DOCTYPE svg PUBLIC "-//W3C//DTD SVG 1.1//EN" "http://www.w3.org/Graphics/SVG/1.1/DTD/svg11.dtd">
<svg version="1.1" id="图层_1" xmlns="http://www.w3.org/2000/svg" xmlns:xlink="http://www.w3.org/1999/xlink" x="0px" y="0px"
	 width="283.46px" height="283.46px" viewBox="0 0 283.46 283.46" enable-background="new 0 0 283.46 283.46" xml:space="preserve">
<g>
	<path fill="#272636" d="M271.026,143.355c-5.2,0-9.406,4.197-9.406,9.376v88.624c0,11.377-9.293,20.629-20.706,20.629H42.339
		c-11.416,0-20.705-9.254-20.705-20.629V55.256c0-11.375,9.289-20.628,20.705-20.628h64.723c5.198,0,9.411-4.198,9.411-9.375
		c0-5.174-4.213-9.372-9.411-9.372H42.339c-21.792,0-39.524,17.664-39.524,39.375v186.099c0,21.714,17.731,39.375,39.524,39.375
		h198.574c21.795,0,39.523-17.661,39.523-39.375v-88.624C280.437,147.552,276.225,143.355,271.026,143.355L271.026,143.355
		L271.026,143.355L271.026,143.355z M73.552,198.292c-0.935,5.09,2.451,9.973,7.563,10.907c0.572,0.106,1.141,0.155,1.704,0.155
		c4.455,0,8.419-3.166,9.245-7.687c0.074-0.397,7.537-39.822,33.526-79.018c15.119-22.813,33.443-40.95,54.46-53.916
		c20.063-12.374,42.734-20.076,67.635-23.017l-30.635,31.49c-3.616,3.717-3.523,9.651,0.208,13.254
		c1.827,1.768,4.187,2.646,6.548,2.646c2.452,0,4.912-0.958,6.754-2.852l47.43-48.751c0.038-0.033,0.068-0.073,0.104-0.107
		c0.05-0.049,0.094-0.104,0.143-0.157c0.055-0.054,0.104-0.112,0.159-0.173c0.001-0.009,0.008-0.019,0.019-0.024
		c0.05-0.058,0.094-0.112,0.136-0.171c0.051-0.06,0.105-0.123,0.149-0.187c0.048-0.06,0.089-0.117,0.14-0.176
		c0.048-0.073,0.097-0.143,0.153-0.217c0.031-0.048,0.062-0.097,0.097-0.147c0.033-0.049,0.063-0.097,0.094-0.146
		c0.014-0.016,0.024-0.036,0.038-0.055c0.006-0.011,0.017-0.024,0.02-0.041c0.031-0.049,0.06-0.097,0.09-0.141
		c0.049-0.088,0.099-0.167,0.147-0.251c0.025-0.048,0.05-0.099,0.074-0.142c0.011-0.02,0.02-0.04,0.03-0.054
		c0.033-0.068,0.068-0.138,0.104-0.206c0.027-0.055,0.053-0.112,0.077-0.171c0.041-0.079,0.079-0.153,0.109-0.237
		c0.03-0.064,0.055-0.127,0.079-0.191c0.033-0.079,0.063-0.147,0.088-0.222c0.03-0.073,0.059-0.146,0.085-0.22
		c0.024-0.069,0.044-0.138,0.062-0.202c0.031-0.082,0.055-0.162,0.079-0.244c0.021-0.065,0.037-0.129,0.051-0.193
		c0.03-0.082,0.048-0.172,0.068-0.255c0.01-0.053,0.023-0.103,0.04-0.157c0-0.015,0-0.03,0.008-0.045
		c0.017-0.078,0.03-0.161,0.051-0.245c0.004-0.044,0.015-0.092,0.023-0.143c0.005-0.035,0.011-0.073,0.017-0.107
		c0.008-0.064,0.019-0.127,0.031-0.192c0.007-0.045,0.014-0.087,0.018-0.127c0.01-0.065,0.014-0.123,0.02-0.182
		c0.007-0.04,0.011-0.073,0.011-0.108c0.003-0.03,0.008-0.059,0.008-0.094c0-0.019,0.006-0.04,0.012-0.055
		c0-0.083,0.008-0.161,0.008-0.244c0-0.015,0-0.024,0.006-0.039c0-0.049,0.005-0.099,0.005-0.147v-0.005
		c0.006-0.103,0.006-0.201,0.006-0.298v-0.006v-0.005c0-0.158-0.006-0.309-0.011-0.461c-0.006-0.015-0.006-0.024-0.006-0.04v-0.083
		v-0.004c-0.008-0.112-0.02-0.215-0.027-0.323c-0.006-0.03-0.011-0.063-0.011-0.094l0,0c0-0.02,0-0.035-0.006-0.048
		c-0.014-0.099-0.024-0.191-0.038-0.292c-0.006-0.042-0.011-0.082-0.017-0.126c-0.003-0.015-0.008-0.035-0.008-0.049
		c-0.017-0.083-0.03-0.162-0.044-0.246c-0.017-0.054-0.023-0.109-0.034-0.158c0-0.008,0-0.019-0.007-0.025
		c-0.006-0.018-0.006-0.033-0.007-0.048c-0.017-0.058-0.026-0.123-0.047-0.181c-0.021-0.099-0.049-0.196-0.075-0.295
		c-0.007-0.039-0.018-0.074-0.031-0.114c-0.03-0.112-0.067-0.226-0.104-0.338c-0.005-0.024-0.014-0.043-0.019-0.068
		c-0.026-0.079-0.057-0.158-0.085-0.242c0-0.002-0.013-0.013-0.013-0.024c-0.007-0.033-0.027-0.068-0.037-0.102
		c-0.005-0.015-0.011-0.024-0.019-0.04c-0.03-0.085-0.061-0.167-0.099-0.25c-0.02-0.044-0.043-0.094-0.061-0.138
		c0-0.005-0.006-0.009-0.006-0.009c-0.038-0.084-0.073-0.171-0.112-0.256c0,0-0.005,0-0.005-0.005
		c-0.088-0.181-0.181-0.358-0.285-0.539l0,0c-0.074-0.129-0.147-0.25-0.222-0.379c-0.011-0.009-0.021-0.024-0.03-0.033
		c-0.041-0.074-0.09-0.143-0.14-0.211l-0.008-0.015c-0.02-0.035-0.041-0.068-0.068-0.104c-0.024-0.035-0.049-0.074-0.079-0.112
		c-0.022-0.024-0.041-0.054-0.061-0.079c-0.018-0.03-0.038-0.055-0.059-0.079c-0.021-0.029-0.04-0.054-0.058-0.084
		c-0.051-0.063-0.099-0.129-0.153-0.192c-0.024-0.029-0.055-0.063-0.079-0.093c-0.014-0.018-0.03-0.04-0.044-0.058
		c-0.063-0.074-0.129-0.146-0.197-0.221c-0.017-0.02-0.03-0.039-0.049-0.059c-0.091-0.099-0.189-0.191-0.276-0.29
		c-0.012-0.009-0.02-0.014-0.03-0.024c-0.099-0.097-0.203-0.202-0.307-0.295c-0.009-0.004-0.009-0.004-0.014-0.01
		c-0.109-0.097-0.211-0.189-0.33-0.279c0-0.005-0.01-0.016-0.014-0.019c-0.105-0.084-0.215-0.172-0.326-0.25
		c-0.014-0.01-0.024-0.026-0.045-0.035c-0.099-0.073-0.195-0.143-0.3-0.211c-0.03-0.024-0.06-0.045-0.087-0.064
		c-0.053-0.035-0.102-0.07-0.153-0.099c-0.041-0.03-0.08-0.048-0.121-0.079c-0.049-0.025-0.099-0.055-0.137-0.083
		c-0.044-0.024-0.085-0.049-0.127-0.073c-0.044-0.024-0.089-0.046-0.136-0.075c-0.052-0.029-0.105-0.058-0.16-0.083
		c-0.079-0.044-0.16-0.083-0.235-0.123c-0.061-0.035-0.123-0.059-0.19-0.088c-0.067-0.035-0.146-0.068-0.22-0.099
		c-0.069-0.035-0.143-0.059-0.211-0.088c-0.065-0.029-0.14-0.059-0.208-0.083c-0.079-0.029-0.153-0.053-0.238-0.083
		c-0.058-0.024-0.123-0.044-0.185-0.063c-0.04-0.015-0.081-0.026-0.125-0.04L204.939,3.211c-4.935-1.634-10.264,1.032-11.894,5.945
		c-1.639,4.914,1.038,10.22,5.965,11.85l27.788,9.174c-20.425,4.399-39.372,11.953-56.654,22.61
		c-23.354,14.408-43.626,34.431-60.265,59.521C81.801,154.669,73.875,196.528,73.552,198.292L73.552,198.292L73.552,198.292
		L73.552,198.292z M73.552,198.292"/>
</g>
</svg>
