<?xml version="1.0" encoding="utf-8"?>
<!-- Generator: Adobe Illustrator 16.0.0, SVG Export Plug-In . SVG Version: 6.00 Build 0)  -->
<!DOCTYPE svg PUBLIC "-//W3C//DTD SVG 1.1//EN" "http://www.w3.org/Graphics/SVG/1.1/DTD/svg11.dtd">
<svg version="1.1" id="图层_1" xmlns="http://www.w3.org/2000/svg" xmlns:xlink="http://www.w3.org/1999/xlink" x="0px" y="0px"
	 width="283.46px" height="283.46px" viewBox="0 0 283.46 283.46" enable-background="new 0 0 283.46 283.46" xml:space="preserve">
<g>
	<defs>
		<rect id="SVGID_1_" x="2.73" y="21.82" width="278" height="239.82"/>
	</defs>
	<clipPath id="SVGID_2_">
		<use xlink:href="#SVGID_1_"  overflow="visible"/>
	</clipPath>
	<path clip-path="url(#SVGID_2_)" fill="#272636" d="M39.117,21.82C-5.424,80.099,0.515,114.402,7.733,129.116
		c7.201,14.75,23.609,19.288,34.4,19.288v0.015h1.087c24.466-1.007,41.96-14.597,45.923-19.75V70.793
		c0-4.479,1.748-8.099,6.218-8.099c4.455,0,7.132,3.619,7.132,8.099v58.17c3.088,4.755,20.418,19.614,42.313,19.614
		c19.392,0,39.752-13.938,44.166-19.957V70.793h0.087c0-4.478,2.366-8.099,6.836-8.099c4.463,0,6.723,3.621,6.723,8.099
		c0,0.151-0.08,0.267-0.088,0.422l-0.288,57.156c4.715,4.38,25.945,20.313,46.304,20.313c9.006,0,17.99-2.172,24.487-9.775
		c22.251-25.811-9.148-90.487-25.982-117.09H39.117z"/>
	<path clip-path="url(#SVGID_2_)" fill="#272636" d="M248.592,162.39c-21.119,0.481-42.574-10.757-52.898-19.175
		c-7.392,8.847-27.53,19.275-51.193,19.275c-22.697,0-41.146-9.392-48.847-18.147c-8.53,8.756-27.434,17.516-51.78,18.484h-1.74
		c-4.465,0-8.875-0.467-13.13-1.402v22.051v6.96v54.236c0,9.021,7.313,16.968,16.311,16.968h110.579h0.017h83.152
		c8.996,0,16.31-7.947,16.31-16.968V183.52v-0.019v-0.033v-0.016c0.002-0.345,0.01-0.683,0.022-1.017v-20.415
		C253.183,162.222,250.917,162.336,248.592,162.39"/>
</g>
</svg>
