<?xml version="1.0" encoding="utf-8"?>
<!-- Generator: Adobe Illustrator 16.0.0, SVG Export Plug-In . SVG Version: 6.00 Build 0)  -->
<!DOCTYPE svg PUBLIC "-//W3C//DTD SVG 1.1//EN" "http://www.w3.org/Graphics/SVG/1.1/DTD/svg11.dtd">
<svg version="1.1" id="图层_1" xmlns="http://www.w3.org/2000/svg" xmlns:xlink="http://www.w3.org/1999/xlink" x="0px" y="0px"
	 width="283.46px" height="283.46px" viewBox="0 0 283.46 283.46" enable-background="new 0 0 283.46 283.46" xml:space="preserve">
<g>
	<path fill="#272636" d="M88.868,189.456h146.666c6.983,0,13.968-4.657,16.296-11.642l27.938-121.056
		c2.326-4.657,0-9.313-2.329-13.968c-2.328-4.657-9.313-6.985-13.968-6.985H63.259L56.276,5.541H12.042
		c-4.657,0-9.313,2.329-9.313,6.983c0,4.658,4.655,9.313,9.313,9.313h30.264l13.97,60.529l0,0v4.655l20.951,86.137
		c-9.313,4.655-18.625,16.297-18.625,30.265c0,9.312,4.657,16.296,9.312,20.953c-4.655,4.656-9.312,13.967-9.312,20.951
		c0,16.296,13.97,30.266,30.265,30.266c16.296,0,30.264-11.641,30.264-27.938c0-4.656-2.329-9.313-2.329-13.967h100.105
		c-2.326,4.654-2.326,9.311-2.326,13.967c0,16.297,13.967,30.264,30.264,30.264c16.296,0,30.264-13.967,30.264-30.264
		c0-16.296-11.64-27.937-27.936-30.264h-2.328H88.868l0,0c-6.985,0-13.969-6.985-13.969-13.969
		C77.227,196.439,81.882,189.456,88.868,189.456L88.868,189.456z M242.517,233.689c6.984,0,13.968,6.983,13.968,13.967
		c0,6.984-4.655,11.64-13.968,11.64c-6.983,0-13.968-6.984-13.968-13.968C228.549,238.343,235.534,233.689,242.517,233.689
		L242.517,233.689z M88.868,259.295c-6.985,0-13.969-6.984-13.969-13.968c0-6.984,6.984-13.968,13.969-13.968l0,0l0,0
		c6.984,0,13.968,6.983,13.968,13.968C102.835,254.64,95.852,259.295,88.868,259.295L88.868,259.295z M235.534,173.159H95.852
		l-18.625-81.48h176.932L235.534,173.159L235.534,173.159z M263.47,52.101l-4.656,23.282H72.572L67.915,54.43L263.47,52.101
		L263.47,52.101z M263.47,52.101"/>
</g>
</svg>
