<?xml version="1.0" encoding="utf-8"?>
<!-- Generator: Adobe Illustrator 16.0.0, SVG Export Plug-In . SVG Version: 6.00 Build 0)  -->
<!DOCTYPE svg PUBLIC "-//W3C//DTD SVG 1.1//EN" "http://www.w3.org/Graphics/SVG/1.1/DTD/svg11.dtd">
<svg version="1.1" id="图层_1" xmlns="http://www.w3.org/2000/svg" xmlns:xlink="http://www.w3.org/1999/xlink" x="0px" y="0px"
	 width="283.46px" height="283.46px" viewBox="0 0 283.46 283.46" enable-background="new 0 0 283.46 283.46" xml:space="preserve">
<path fill="#272636" d="M217.3,78.979h-27.647V50.652c0-26.426-21.496-47.922-47.923-47.922c-26.426,0-47.922,21.496-47.922,47.922
	v28.327H66.165c-12.786,0-23.189,10.403-23.189,23.19v155.371c0,12.787,10.403,23.189,23.189,23.189H217.3
	c12.782,0,23.186-10.402,23.186-23.189V102.169C240.486,89.382,230.083,78.979,217.3,78.979z M104.928,50.652
	c0-20.291,16.511-36.802,36.802-36.802s36.804,16.511,36.804,36.802v28.327h-73.605V50.652z M229.366,257.541
	c0,6.656-5.414,12.069-12.065,12.069H66.165c-6.656,0-12.069-5.413-12.069-12.069V102.169c0-6.656,5.413-12.07,12.069-12.07h27.644
	v15.621c0,3.073,2.487,5.561,5.56,5.561c3.073,0,5.561-2.488,5.561-5.561V90.1h73.605v15.621c0,3.073,2.485,5.561,5.56,5.561
	c3.072,0,5.56-2.488,5.56-5.561V90.1H217.3c6.651,0,12.065,5.414,12.065,12.07V257.541z"/>
</svg>
