<?xml version="1.0" encoding="utf-8"?>
<!-- Generator: Adobe Illustrator 16.0.0, SVG Export Plug-In . SVG Version: 6.00 Build 0)  -->
<!DOCTYPE svg PUBLIC "-//W3C//DTD SVG 1.1//EN" "http://www.w3.org/Graphics/SVG/1.1/DTD/svg11.dtd">
<svg version="1.1" id="图层_1" xmlns="http://www.w3.org/2000/svg" xmlns:xlink="http://www.w3.org/1999/xlink" x="0px" y="0px"
	 width="283.46px" height="283.46px" viewBox="0 0 283.46 283.46" enable-background="new 0 0 283.46 283.46" xml:space="preserve">
<g>
	<path fill="#272636" d="M2.73,118.165c0,14.619,11.098,26.798,26.063,30.316v103.217H11.417c-4.786,0-8.688,3.517-8.688,7.857
		c0,4.342,3.901,7.854,8.688,7.854h260.625c4.819,0,8.688-3.518,8.688-7.854s-3.868-7.854-8.688-7.854h-17.374V148.481
		c14.965-3.518,26.062-15.697,26.062-30.316v-7.853h-278V118.165L2.73,118.165z M176.48,149.583
		c19.21,0,34.751-14.067,34.751-31.418c0,14.619,11.097,26.798,26.062,30.316v103.217H106.98V149.583
		c19.21,0,34.75-14.067,34.75-31.418C141.73,135.516,157.303,149.583,176.48,149.583L176.48,149.583z M98.293,148.481v103.217
		H46.167V148.481c14.966-3.518,26.063-15.697,26.063-30.316C72.231,132.784,83.328,144.963,98.293,148.481L98.293,148.481z
		 M245.98,39.615H37.481L2.73,102.454h278L245.98,39.615L245.98,39.615z M76.132,57.075L58.756,88.493
		c-0.778,1.38-2.307,2.178-3.901,2.178c-0.644,0-1.307-0.121-1.931-0.413c-2.138-0.962-3.022-3.331-1.934-5.263l17.376-31.418
		c1.084-1.933,3.678-2.715,5.819-1.766C76.334,52.779,77.183,55.142,76.132,57.075L76.132,57.075z M110.881,57.075L93.506,88.493
		c-0.777,1.38-2.307,2.178-3.901,2.178c-0.644,0-1.306-0.121-1.933-0.413c-2.135-0.962-3.021-3.331-1.931-5.263l17.374-31.418
		c1.085-1.933,3.698-2.715,5.82-1.766C111.085,52.779,111.933,55.142,110.881,57.075L110.881,57.075z M146.077,86.746
		c0,2.178-1.938,3.93-4.347,3.93c-2.396,0-4.346-1.748-4.346-3.93V55.327c0-2.177,1.95-3.929,4.346-3.929
		c2.409,0,4.347,1.746,4.347,3.929V86.746L146.077,86.746z M195.958,90.184c-0.677,0.338-1.39,0.492-2.104,0.492
		c-1.529,0-3.021-0.737-3.799-2.04L171.05,57.219c-1.154-1.905-0.371-4.296,1.728-5.324c2.071-1.043,4.749-0.372,5.908,1.548
		l19.006,31.419C198.808,86.76,198.063,89.155,195.958,90.184L195.958,90.184z M230.542,90.258
		c-0.617,0.292-1.257,0.413-1.938,0.413c-1.595,0-3.123-0.797-3.868-2.178l-17.376-31.418c-1.083-1.933-0.204-4.296,1.933-5.264
		c2.108-0.963,4.749-0.185,5.839,1.766l17.374,31.418C233.558,86.927,232.714,89.295,230.542,90.258L230.542,90.258z
		 M76.576,205.763v-18.098c-2.548-1.386-4.345-3.776-4.345-6.658c0-4.343,3.901-7.854,8.688-7.854c4.818,0,8.687,3.517,8.687,7.854
		c0,2.882-1.783,5.277-4.346,6.662v18.098c2.563,1.385,4.346,3.776,4.346,6.663c0,4.341-3.868,7.853-8.687,7.853
		c-4.786,0-8.688-3.516-8.688-7.853C72.231,209.543,74.028,207.148,76.576,205.763L76.576,205.763z M37.481,23.904
		c0-4.341,3.901-7.853,8.687-7.853h191.125c4.819,0,8.688,3.512,8.688,7.853c0,4.342-3.868,7.854-8.688,7.854H46.167
		C41.382,31.762,37.481,28.246,37.481,23.904L37.481,23.904z M154.995,191.635l-6.139-5.555l24.571-22.217l6.14,5.555
		L154.995,191.635L154.995,191.635z M154.995,213.852l-6.139-5.555l49.137-44.434l6.14,5.555L154.995,213.852L154.995,213.852z
		 M197.998,186.081l6.139,5.555l-24.569,22.217l-6.14-5.555L197.998,186.081L197.998,186.081z M197.998,186.081"/>
</g>
</svg>
