<?xml version="1.0" encoding="utf-8"?>
<!-- Generator: Adobe Illustrator 16.0.0, SVG Export Plug-In . SVG Version: 6.00 Build 0)  -->
<!DOCTYPE svg PUBLIC "-//W3C//DTD SVG 1.1//EN" "http://www.w3.org/Graphics/SVG/1.1/DTD/svg11.dtd">
<svg version="1.1" id="图层_1" xmlns="http://www.w3.org/2000/svg" xmlns:xlink="http://www.w3.org/1999/xlink" x="0px" y="0px"
	 width="283.46px" height="283.46px" viewBox="0 0 283.46 283.46" enable-background="new 0 0 283.46 283.46" xml:space="preserve">
<g>
	<path fill="#272636" d="M271.336,54.994c-7.743-24.896-18.587-46.26-18.587-46.26H30.452c0,0-10.587,21.364-18.329,46.26
		C1.348,89.647-0.165,115.647,7.625,132.272c4.744,10.12,13.076,16.922,24.098,19.674c3.772,0.943,7.495,1.413,11.161,1.413
		c8.445,0,16.58-2.498,24.29-7.472c8.271-5.334,15.952-13.532,22.828-24.365c4.261-6.709,7.678-13.583,10.297-19.579
		c2.379,4.374,5.125,9.249,8.058,14.153c5.424,9.062,10.381,16.341,14.737,21.633c7.028,8.538,12.776,12.347,18.637,12.347
		s11.608-3.809,18.636-12.347c4.355-5.292,9.314-12.571,14.737-21.633c2.935-4.904,5.677-9.78,8.059-14.153
		c2.617,5.997,6.036,12.87,10.295,19.579c6.877,10.833,14.558,19.031,22.828,24.365c7.713,4.976,15.847,7.472,24.291,7.472
		c3.664,0,7.388-0.47,11.16-1.413c11.022-2.752,19.355-9.555,24.099-19.674C283.625,115.647,282.112,89.647,271.336,54.994
		L271.336,54.994z M261.111,125.373c-2.706,5.777-6.938,9.208-13.313,10.801c-14.696,3.669-28.308-4.104-40.45-23.107
		c-10.051-15.729-15.067-33.204-15.115-33.373l-5.793-20.571l-9.343,19.221c-0.065,0.133-6.571,13.487-14.704,27.313
		c-12.313,20.931-15.329,27.511-20.662,27.511c-5.334,0-8.334-6.566-20.614-27.43c-8.138-13.829-14.687-27.261-14.752-27.395
		l-9.343-19.221l-5.792,20.571c-0.048,0.172-4.956,17.367-14.953,33.115C64.094,132,50.43,139.861,35.663,136.174
		c-6.375-1.591-10.604-5.023-13.313-10.797c-3.154-6.726-4.105-16.401-2.828-28.754c1.09-10.551,3.804-22.868,8.067-36.61
		c4.398-14.178,9.562-26.963,13.033-35.02h202.216c3.454,8.01,8.579,20.702,12.973,34.831c4.283,13.776,7.014,26.123,8.116,36.701
		C265.219,108.923,264.271,118.627,261.111,125.373L261.111,125.373z M252.29,166.767h16.258v65.036
		c0,23.667-19.256,42.923-42.924,42.923H57.834c-23.668,0-42.923-19.256-42.923-42.923v-65.036H31.17v65.036
		c0,14.702,11.962,26.665,26.664,26.665h167.789c14.703,0,26.664-11.963,26.664-26.665v-65.036H252.29z M252.29,166.767"/>
</g>
</svg>
