<?xml version="1.0" encoding="utf-8"?>
<!-- Generator: Adobe Illustrator 16.0.0, SVG Export Plug-In . SVG Version: 6.00 Build 0)  -->
<!DOCTYPE svg PUBLIC "-//W3C//DTD SVG 1.1//EN" "http://www.w3.org/Graphics/SVG/1.1/DTD/svg11.dtd">
<svg version="1.1" id="图层_1" xmlns="http://www.w3.org/2000/svg" xmlns:xlink="http://www.w3.org/1999/xlink" x="0px" y="0px"
	 width="283.46px" height="283.46px" viewBox="0 0 283.46 283.46" enable-background="new 0 0 283.46 283.46" xml:space="preserve">
<g>
	<path fill="#272636" d="M141.73,2.73c-76.767,0-139,62.233-139,139.001c0,76.765,62.234,138.999,139,138.999
		c76.766,0,139-62.233,139-138.999C280.73,64.964,218.497,2.73,141.73,2.73L141.73,2.73z M141.73,269.975
		c-70.828,0-128.246-57.418-128.246-128.244c0-70.828,57.417-128.243,128.246-128.243c70.826,0,128.245,57.415,128.245,128.243
		C269.975,212.557,212.556,269.975,141.73,269.975L141.73,269.975z M149.988,114.873c-19.95,19.978-35.741,43.742-35.741,43.742
		l-35.742-27.836l-7.943,11.931l43.685,63.628c0,0,17.622-34.132,39.713-63.628c25.343-33.833,55.6-63.629,55.6-63.629h-15.883
		C193.676,79.08,169.75,95.085,149.988,114.873L149.988,114.873z M149.988,114.873"/>
</g>
</svg>
