<?xml version="1.0" encoding="utf-8"?>
<!-- Generator: Adobe Illustrator 16.0.0, SVG Export Plug-In . SVG Version: 6.00 Build 0)  -->
<!DOCTYPE svg PUBLIC "-//W3C//DTD SVG 1.1//EN" "http://www.w3.org/Graphics/SVG/1.1/DTD/svg11.dtd">
<svg version="1.1" id="图层_1" xmlns="http://www.w3.org/2000/svg" xmlns:xlink="http://www.w3.org/1999/xlink" x="0px" y="0px"
	 width="283.46px" height="283.46px" viewBox="0 0 283.46 283.46" enable-background="new 0 0 283.46 283.46" xml:space="preserve">
<g>
	<path fill="#272636" d="M12.369,64.864c-0.099,0.476-0.191,0.913-0.191,0.913L3.94,102.153l-1.21,9.159
		c0.011,2.322,0.483,4.356,1.452,6.054c3.125,5.447,12.43,6.262,17.697,6.262c7.035,0,13.504-1.494,17.743-4.097
		c7.499-4.431,9.479-11.461,11.22-17.667l0.862-3.287c0.285-1.153,6.603-26.627,8.591-33.65C53.42,65,50.2,64.942,48.577,64.823
		c-0.471,2.139-1.477,6.769-2.593,11.908c-3.084,14.186-4.212,19.377-4.903,21.271l0.247,0.057
		c-1.502,6.571-2.692,11.759-6.815,15.088c-2.401,1.952-5.218,2.938-8.372,2.938c-5.359,0-8.603-2.807-9.138-7.912l-0.089-1.556
		c0.971-6.298,1.3-8.443,1.504-9.268l-0.047-0.011c0.282-1.122,6.362-25.53,8.363-32.415C18.172,64.985,14.279,64.985,12.369,64.864
		L12.369,64.864L12.369,64.864z M141.614,94.649c0.2-0.481,0.411-0.957,0.624-1.425c0.883-1.962,1.718-3.825,1.793-6.43
		c-4.449-1.92-8.9-2.891-13.24-2.891c-16.608,0-29.016,14.498-29.016,27.467c0,4.608,1.636,8.521,4.734,11.308
		c5.219,4.693,14.294,6.054,26.236,3.873c1.817-1.995,2.546-5.276,3.314-8.737c0.026-0.104,0.047-0.208,0.07-0.313
		c-0.13,0.027-0.264,0.046-0.396,0.073c-2.862,0.542-6.425,1.216-9.673,1.216c-4.42,0-7.291-1.237-8.768-3.79
		c-2.049-5.114-1.592-10.098,1.194-14.206C122.997,94.152,132.813,91.448,141.614,94.649L141.614,94.649L141.614,94.649z
		 M183.714,126.201c1.06-6.366,2.156-12.822,4.833-24.738c1.221-5.521,2.504-11.043,3.811-16.533
		c-6.005,1.144-8.317,1.493-14.271,2.385l-0.588,0.089l-0.793,6.085l-1.963-3.736c-1.18-2.239-2.896-3.774-5.253-4.682
		c-0.526-0.203-1.249-0.308-2.09-0.308c-3.327,0-9.112,1.727-14.459,6.611c-3.81,3.524-6.337,8.445-7.947,15.469
		c-2.356,10.099-0.4,16.22,5.985,18.725c2.472,1.028,4.815,1.503,7.403,1.503l0.769-0.015c2.67-0.153,5.436-1.572,8.422-4.327
		l3.333-3.074l-1.739,6.742C174.945,126.164,177.235,126.164,183.714,126.201L183.714,126.201L183.714,126.201z M169.942,116.452
		c-1.492,2.119-4.884,3.46-7.149,3.46c-2.349,0-4.895-1.53-4.998-5.825c-0.032-2.369,0.45-4.779,1.035-7.463
		c1.69-7.238,3.843-14.284,9.893-14.284c1.719,0,3.172,0.683,4.203,1.974c1.831,2.291,2.18,6.241,1.007,11.423l-0.113,0.459
		C172.939,109.777,171.696,114.177,169.942,116.452L169.942,116.452L169.942,116.452z M233.021,162.76l2.297-7.589h-1.524
		c-1.726,0-2.861-0.348-3.563-1.102c-0.343-0.366-0.741-1.012-0.68-1.989l-0.13-4.8H215.29l0.275,10.213
		c-0.062,1.398,0.315,2.483,1.125,3.338c1.461,1.528,4.232,2.198,8.093,1.934L233.021,162.76L233.021,162.76L233.021,162.76z
		 M213.709,147.314c-13.434,0.304-22.691,0.81-24.775,1.354c-3.717,0.962-7.778,3.862-7.819,3.89l-3.424,2.456l2.327-7.807h-12.936
		l-3.011,10.1l-16.929,56.142h-3.23l-2.317,7.493h31.751l-1.074,3.513h12.592l1.045-3.513h4.396l2.534-8.318h-4.396l17.272-57.164
		h5.462L213.709,147.314L213.709,147.314L213.709,147.314z M176.006,212.763h-15.704l4.562-15.053h15.684L176.006,212.763
		L176.006,212.763L176.006,212.763z M183.127,189.077l-0.928,0.112c-0.037,0.007-3.935,0.494-6.405,1.063
		c-2.352,0.697-7.031,3.092-7.08,3.114l-3.006,1.54l5.617-18.679h15.727L183.127,189.077L183.127,189.077L183.127,189.077z
		 M189.422,168.375l-0.997,0.063c-0.036,0.006-3.804,0.253-6.265,0.888c-2.428,0.67-7.023,2.721-7.071,2.743l-2.883,1.288
		l5.455-17.898h15.645L189.422,168.375L189.422,168.375L189.422,168.375z M209.726,168.583l-2.299,7.621h18.343l-3.577,11.359
		h-18.492l-1.912,6.442h17.031l-13.837,19.565c-0.996,1.461-1.935,2.08-3.129,2.586c-1.021,0.495-2.302,1.052-3.855,1.052h-3.432
		l-2.209,7.323h9.836c4.821,0,8.295-1.805,11.266-5.851l10.448-14.345l2.351,15.148c0.325,1.905,1.892,2.76,2.202,2.912
		c0.337,0.163,0.684,0.364,1.041,0.573c0.837,0.482,1.63,0.943,2.585,1.017c1.753,0.095,3.035,0.152,3.933,0.152h4.701l2.58-8.527
		h-0.303c-1.501,0-4.155-0.146-5.03-1.106c-0.565-0.81-0.684-1.545-0.821-2.399l-1.768-11.271h-9.361l5.716-6.828h18.116
		l1.938-6.442h-17.143l3.592-11.359h17.054l2.32-7.621L209.726,168.583L209.726,168.583L209.726,168.583z M48.375,171.404
		l-2.226,7.353h9.702l-3.432,11.602h-9.811l-2.36,7.863h9.746l-6.244,20.663c-0.434,1.426-0.067,1.957,0.535,2.826l0.381,0.579
		c0.618,0.916,1.08,1.366,2.277,1.658c1.68,0.372,2.724,0.585,4.154,0.585h18.711l2.555-8.527l-6.551,0.922
		c-2.736-0.017-6.025-0.298-7.11-1.781c-0.411-0.563-0.517-1.243-0.303-1.912l4.559-15.17h17.53l2.343-7.706H65.277l3.553-11.602
		h17.163l2.274-7.352L48.375,171.404L48.375,171.404L48.375,171.404z M62.883,163.512l3.137-2.67H89.5l2.365-7.835H73.799
		l3.091-5.845H62.602l-3.997,7.262c-1.106,2.04-2.102,3.276-3.129,3.889c-0.819,0.573-2.204,0.826-4.703,0.826h-1.262l-2.24,7.409
		h5.752c3.575,0,6.363-1.417,7.279-1.883c0.719-0.389,1.271-0.535,1.675-0.642C62.422,163.906,62.529,163.877,62.883,163.512
		L62.883,163.512L62.883,163.512z M133.392,186.699c1.442-0.142,3.123-0.715,5.11-1.749c1.975-1.102,2.872-2.22,3.539-3.265
		c0.536-0.748,2.267-3.396,3.84-8.802l7.709-25.648l-22.299,0.112c0.073,0.005-7.173,1.113-10.292,2.266
		c-3.029,1.242-7.588,4.861-7.633,4.896l-1.627,1.298h26.813l-2.641,8.757l-1.08-0.012c-0.002,0-1.741-0.017-3.981-0.017
		c-7.489,0-8.997,0.197-9.281,0.253c-7.776,1.333-12.304,5.392-12.349,5.431l-2.194,2.001h26.423l-2.315,7.145l-0.719,0.596
		l-0.662,0.039c-0.103,0-0.235-0.011-0.416-0.033c-0.354-0.039-1.076-0.124-2.506,0.062l-23.402,0.012l7.027-23.208l-0.619,0.49
		l2.898-10.039h-12.024l-20.685,68.634c-0.598,2.165-1.177,4.357-1.3,5.544c-0.013,0.354,1.225,1.409,1.752,1.859l0.439,0.372
		c0.55,0.421,1.683,0.472,2.883,0.534c0.388,0.018,0.782,0.034,1.168,0.067c1.811,0.162,4.447,0.242,8.073,0.242h10.474l2.605-8.882
		l-8.179,0.782h-0.016c-1.816,0-3.027-0.955-3.555-1.771c-0.778-1.019-0.43-2.265,0.201-4.535l0.11-0.399l6.918-22.833h24.458
		C129.68,186.873,131.945,186.811,133.392,186.699L133.392,186.699L133.392,186.699z M141.59,191.718h-8.609l-1.112,3.608
		c-0.292,0.943-0.764,1.675-1.441,2.226c-1.075,0.691-2.269,0.776-3.421,0.776h-5.015l0.215-5.976h-11.664l-0.559,27.756
		c-0.051,2.024,0.201,2.501,1.026,3.014c1.473,1.162,8.269,1.162,11.916,1.162h8.077l2.344-7.896l-8.813,0.473l-0.268-0.097
		c-0.477-0.163-1.042-0.415-1.635-1.018c-0.948-0.522-1.29-1.444-1.2-3.332l0.067-8.768l9.695-0.378
		c4.199,0,5.785-1.337,7.184-2.522c1.222-1.057,1.653-2.317,2.215-4.256L141.59,191.718L141.59,191.718L141.59,191.718z
		 M259.846,156.677l4.854-11.174l13.83-43.567c1.22-4.361,1.941-7.666,2.13-9.785c0.32-3.75-0.45-6.712-2.35-9.045
		c-1.805-2.231-6.683-3.597-10.359-3.748c-2.793-0.142-5.482,0.302-8.014,1.264c-2.577,0.978-5.48,2.681-8.623,5.058l-3.415,2.586
		l8.136-28.901l-10.504-0.439l-20.076,71.667l10.509,0.438l5.678-20.302c1.894-6.791,3.305-11.017,4.315-12.911
		c1.783-3.401,4.234-6.272,7.275-8.534c2.319-1.707,4.732-2.574,7.172-2.574l0.433,0.007c2.188,0.089,3.914,0.871,5.126,2.326
		c1.186,1.439,1.691,3.278,1.512,5.464c-0.099,1.09-0.608,3.305-1.612,6.981l-15.172,46.372l-3.166,5.138
		c-0.577,0.792-1.189,1.484-2.159,1.781c-0.583,0.292-1.499,0.45-2.86,0.45h-0.97l-2.21,7.272l8.553,0.136
		C253.186,162.62,257.882,160.281,259.846,156.677L259.846,156.677L259.846,156.677z M222.014,96.693
		c1.768,0.49,3.584,0.998,5.772,1.279l2.131-8.518c-4.128-1.602-8.271-2.412-12.331-2.412c-10.589,0-17.64,5.427-19.706,10.469
		c-1.486,3.627-0.663,7.244,2.326,10.192c2.772,2.218,5.305,2.787,7.746,3.34c1.313,0.297,2.552,0.575,3.798,1.102l0.454,0.318
		c1.844,1.962,1.767,3.443,1.379,4.336c-1.083,2.517-5.824,3.07-13.323,1.728c0.072-0.026,0.203,0.036-8.121-1.419l-2.13,9.597
		c4.83,1.154,9.733,1.759,14.253,1.759c8.738,0,15.266-2.234,18.382-6.283c2.274-2.96,2.768-6.926,1.471-11.789
		c-1.102-1.957-5.443-4.358-7.833-5.433l-0.293-0.074c-1.163-0.292-3.888-0.98-4.973-3.027c-0.381-0.72-0.716-1.914-0.133-3.522
		c0.378-1.05,1.534-2.803,5.017-2.803c1.285,0,2.35,0.246,2.396,0.256C219.475,95.995,220.709,96.334,222.014,96.693L222.014,96.693
		L222.014,96.693z M108.806,69.493c-3.412-4.764-10.567-4.805-18.854-4.857l-4.229,0.052c-9.125,0.099-13.766,0.089-16.285-0.063
		c-0.126,0.596-0.242,1.119-0.242,1.119c0-0.006-3.872,18.071-3.937,18.389c-0.009,0.042-7.645,31.511-9.542,39.319
		c3.463-0.038,6.114-0.058,8.142-0.058c1.964,0,3.36,0.02,4.354,0.063c0.279-1.326,0.713-3.418,1.138-5.469
		c0.709-3.417,1.083-5.218,1.396-6.163l-0.097-0.021c1.93-8.1,2.034-8.371,2.07-8.47l0.167-0.308c0.13-0.177,0.809-1.075,1.643-1.55
		l0.309-0.173h1.237c8.121,0,17.326,0,24.356-5.155c4.718-3.539,7.996-8.768,9.466-15.125c0.416-1.743,0.642-3.611,0.642-5.255
		C110.54,73.095,109.977,71.039,108.806,69.493L108.806,69.493L108.806,69.493z M96.812,82.733c-0.992,4.451-3.85,8.22-7.649,10.088
		c-3.058,1.523-6.659,1.649-10.387,1.649h-3.915l0.489-2.495c3.136-13.636,3.955-17.201,4.195-18.192l0.39-2.99l2.96,0.318
		c0,0,8.298,0.73,8.812,0.756l0.425,0.089C96.155,73.485,97.947,77.613,96.812,82.733L96.812,82.733L96.812,82.733z M96.812,82.733"
		/>
</g>
</svg>
