<?xml version="1.0" encoding="utf-8"?>
<!-- Generator: Adobe Illustrator 16.0.0, SVG Export Plug-In . SVG Version: 6.00 Build 0)  -->
<!DOCTYPE svg PUBLIC "-//W3C//DTD SVG 1.1//EN" "http://www.w3.org/Graphics/SVG/1.1/DTD/svg11.dtd">
<svg version="1.1" id="图层_1" xmlns="http://www.w3.org/2000/svg" xmlns:xlink="http://www.w3.org/1999/xlink" x="0px" y="0px"
	 width="283.46px" height="283.46px" viewBox="0 0 283.46 283.46" enable-background="new 0 0 283.46 283.46" xml:space="preserve">
<g>
	<path fill="#272636" d="M141.729,280.73c-76.765,0-138.999-62.236-138.999-139C2.73,64.965,64.964,2.73,141.729,2.73
		S280.73,64.965,280.73,141.729C280.73,218.494,218.494,280.73,141.729,280.73L141.729,280.73z M257.977,185.624h-34.669
		c-10.958,35.001-35.752,63.722-67.935,79.583C202.568,260.034,241.758,228.531,257.977,185.624L257.977,185.624z M214.888,145.388
		c0-11.112-1.501-22.174-4.171-32.921h-61.671v58.526h63.172C213.915,162.719,214.888,154.174,214.888,145.388L214.888,145.388z
		 M134.415,185.624H76.649c10.703,28.239,31.539,54.708,57.919,68.814L134.415,185.624L134.415,185.624z M134.415,170.994v-58.526
		H71.9c-2.165,9.591-3.328,19.417-3.328,29.262c0,10.089,1.215,19.884,3.482,29.264H134.415L134.415,170.994z M134.415,97.835
		V27.078C107.588,42.28,86.672,67.161,76.129,97.835H134.415L134.415,97.835z M206.27,97.835
		c-10.856-29.746-31.297-55.555-57.224-70.429v70.429H206.27L206.27,97.835z M149.046,185.624v70.679
		c27.675-14.989,49.095-40.185,59.286-70.679H149.046L149.046,185.624z M134.415,265.812v-2.698V265.812
		c-33.902-14.338-60.568-45.313-72.924-80.188H25.482C42.417,230.448,84.411,262.894,134.415,265.812L134.415,265.812z
		 M21.092,112.014c-2.428,9.708-3.73,19.263-3.73,29.716c0,10.103,1.339,19.863,3.606,29.264h36.338
		c-2.143-9.416-3.366-19.189-3.366-29.264c0-9.883,1.185-19.671,3.25-29.262H24.677C23.404,112.467,22.131,112.591,21.092,112.014
		L21.092,112.014z M25.482,97.835h35.569c10.915-33.374,37.135-63.2,66.435-79.903C82.099,24.414,41.233,56.157,25.482,97.835
		L25.482,97.835z M154.621,18.182c30.689,15.86,54.737,45.38,66.653,79.653h36.703C241.678,54.702,202.151,23.104,154.621,18.182
		L154.621,18.182z M225.599,112.467c2.544,10.739,3.919,21.793,3.919,32.921c0,8.771-0.928,17.309-2.522,25.605h35.496
		c2.275-9.401,3.606-19.161,3.606-29.264s-1.339-19.861-3.606-29.262H225.599L225.599,112.467z M225.599,112.467"/>
</g>
</svg>
