<?xml version="1.0" encoding="utf-8"?>
<!-- Generator: Adobe Illustrator 16.0.0, SVG Export Plug-In . SVG Version: 6.00 Build 0)  -->
<!DOCTYPE svg PUBLIC "-//W3C//DTD SVG 1.1//EN" "http://www.w3.org/Graphics/SVG/1.1/DTD/svg11.dtd">
<svg version="1.1" id="图层_1" xmlns="http://www.w3.org/2000/svg" xmlns:xlink="http://www.w3.org/1999/xlink" x="0px" y="0px"
	 width="283.46px" height="283.46px" viewBox="0 0 283.46 283.46" enable-background="new 0 0 283.46 283.46" xml:space="preserve">
<g>
	<path fill="#272636" d="M76.574,154.762c-4.344-1.391-8.514-2.955-12.685-4.865l-12.856,13.039L37.48,176.48v-22.239v-22.935
		c-6.776-7.124-11.641-15.464-14.595-24.326c-1.738-5.559-2.78-11.293-2.78-17.375c0-38.399,38.919-69.5,86.875-69.5
		c40.483,0,74.538,22.066,84.095,52.125h2.78c5.213,0,10.417,0.347,15.472,0.869C200.101,33.136,157.888,2.73,106.98,2.73
		C49.469,2.73,2.73,41.65,2.73,89.605c0,17.723,6.428,34.228,17.375,48.128v73.496l42.742-42.925
		c9.036,3.492,18.592,5.924,28.497,7.314c-1.217-5.386-1.738-10.946-1.738-16.515v-1.39
		C85.088,157.019,80.743,155.977,76.574,154.762L76.574,154.762z M72.23,80.918c0,4.865,3.814,8.688,8.688,8.688
		c4.864,0,8.687-3.823,8.687-8.688s-3.823-8.688-8.687-8.688C76.045,72.23,72.23,76.053,72.23,80.918L72.23,80.918z M124.354,80.918
		c0,4.865,3.814,8.688,8.688,8.688c4.866,0,8.688-3.823,8.688-8.688s-3.823-8.688-8.688-8.688
		C128.169,72.23,124.354,76.053,124.354,80.918L124.354,80.918z M159.106,150.418c0,4.864,3.813,8.687,8.687,8.687
		c4.856,0,8.688-3.822,8.688-8.687c0-4.866-3.831-8.688-8.688-8.688C162.918,141.73,159.106,145.552,159.106,150.418
		L159.106,150.418z M211.23,150.418c0,4.864,3.813,8.687,8.688,8.687c4.856,0,8.688-3.822,8.688-8.687
		c0-4.866-3.831-8.688-8.688-8.688C215.043,141.73,211.23,145.552,211.23,150.418L211.23,150.418z M259.35,176.48
		c-2.954,6.429-7.636,12.162-13.369,17.037v22.057v30.407L224.6,224.6l-14.761-14.761c-5.038,0.878-10.415,1.391-15.984,1.391
		c-38.398,0-69.5-23.282-69.5-52.125c0-28.842,31.102-52.125,69.5-52.125s69.5,23.283,69.5,52.125
		C263.355,165.177,261.965,171.084,259.35,176.48L259.35,176.48z M263.355,201.848c10.947-11.286,17.375-25.533,17.375-41.18
		c0-37.356-37.704-67.762-84.434-67.762c-46.574,0-84.277,30.406-84.277,67.762c0,37.53,37.703,67.936,84.277,67.936
		c4.855,0,9.366-0.338,14.064-0.867l52.994,52.993V201.848L263.355,201.848z M263.355,201.848"/>
</g>
</svg>
