<?xml version="1.0" encoding="utf-8"?>
<!-- Generator: Adobe Illustrator 16.0.0, SVG Export Plug-In . SVG Version: 6.00 Build 0)  -->
<!DOCTYPE svg PUBLIC "-//W3C//DTD SVG 1.1//EN" "http://www.w3.org/Graphics/SVG/1.1/DTD/svg11.dtd">
<svg version="1.1" id="图层_1" xmlns="http://www.w3.org/2000/svg" xmlns:xlink="http://www.w3.org/1999/xlink" x="0px" y="0px"
	 width="283.46px" height="283.46px" viewBox="0 0 283.46 283.46" enable-background="new 0 0 283.46 283.46" xml:space="preserve">
<g>
	<path fill="#272636" d="M61.285,234.625c0,1.453-1.19,2.644-2.646,2.644H36.191c-1.455,0-2.644-1.19-2.644-2.644V71.439
		c0-1.453-1.19-2.644-2.646-2.644H5.374c-1.454,0-2.644-1.19-2.644-2.646V48.838c0-1.455,1.19-2.646,2.644-2.646h53.265
		c1.455,0,2.646,1.191,2.646,2.646V234.625L61.285,234.625z M61.285,234.625"/>
	<path fill="#272636" d="M279.8,231.23c0,1.453-1.19,2.644-2.644,2.644h-56.962c-1.456,0-2.646-1.19-2.646-2.644v-89.482
		c0-1.453-1.19-2.644-2.644-2.644h-36.78c-1.453,0-3.143,1.081-3.75,2.402l-41.456,89.965c-0.61,1.321-2.282,2.207-3.716,1.967
		l-17.08-2.848c-1.434-0.24-2.112-1.517-1.506-2.839l39.602-86.243c0.608-1.323-0.086-2.404-1.541-2.404h-37.447
		c-1.456,0-2.646-1.19-2.646-2.644V121.31c0-1.455,1.19-2.646,2.646-2.646h166.853c1.455,0,2.646,1.19,2.646,2.646v15.151
		c0,1.453-1.19,2.644-2.646,2.644H242.49c-1.453,0-2.644,1.19-2.644,2.644v69.039c0,1.456,1.19,2.644,2.644,2.644h34.667
		c1.453,0,2.644,1.19,2.644,2.646V231.23L279.8,231.23z M116.016,48.836c0-1.453,1.19-2.644,2.644-2.644h151.993
		c1.455,0,2.646,1.191,2.646,2.644v15.152c0,1.453-1.19,2.644-2.646,2.644H118.659c-1.453,0-2.644-1.191-2.644-2.644V48.836
		L116.016,48.836z M116.016,48.836"/>
</g>
</svg>
