<?xml version="1.0" encoding="utf-8"?>
<!-- Generator: Adobe Illustrator 16.0.0, SVG Export Plug-In . SVG Version: 6.00 Build 0)  -->
<!DOCTYPE svg PUBLIC "-//W3C//DTD SVG 1.1//EN" "http://www.w3.org/Graphics/SVG/1.1/DTD/svg11.dtd">
<svg version="1.1" id="图层_1" xmlns="http://www.w3.org/2000/svg" xmlns:xlink="http://www.w3.org/1999/xlink" x="0px" y="0px"
	 width="283.46px" height="283.46px" viewBox="0 0 283.46 283.46" enable-background="new 0 0 283.46 283.46" xml:space="preserve">
<g>
	<path fill="#272636" d="M130.224,197.943l37.708-95.209l39.298,95.209H130.224L130.224,197.943L130.224,197.943z M51.287,197.943
		l37.709-95.209l39.313,95.209H51.287L51.287,197.943L51.287,197.943z M247.171,176.224h29.427l-1.613,5.435h-25.268
		L247.171,176.224L247.171,176.224L247.171,176.224z M241.436,162.803h37.709l-0.978,5.777h-34.179L241.436,162.803L241.436,162.803
		L241.436,162.803z M235.662,149.384h45.059l-0.637,5.774h-41.852L235.662,149.384L235.662,149.384L235.662,149.384z
		 M230.229,135.965h50.491v5.733h-48.241L230.229,135.965L230.229,135.965L230.229,135.965z M224.496,122.549h54.952l0.636,5.753
		h-53.379L224.496,122.549L224.496,122.549L224.496,122.549z M218.719,109.125h58.176l1.272,5.755h-56.882L218.719,109.125
		L218.719,109.125L218.719,109.125z M141.728,2.73h5.734l6.114,0.626l5.734,0.319l5.415,0.953l5.755,0.957l5.434,1.286l5.438,1.591
		l5.436,1.593l2.547,0.957l2.57,0.977l5.116,2.219l5.094,2.25l4.803,2.55l4.775,2.557l4.817,2.874l4.483,3.199l4.459,3.197
		l4.142,3.193l4.16,3.514l4.161,3.833l3.825,3.833l3.838,3.856l3.525,4.16l1.594,2.217l1.573,2.223l3.523,4.5l2.887,4.456
		l2.888,4.503l2.846,4.776l2.25,5.12l2.57,4.795l1.909,5.1l1.916,5.431l1.928,5.119h-59.454l-36.731-85.972l-38.346,96.841
		L100.18,16.457L29.249,199.58l32.283,40.259h164.237l30.023-43.806l-2.846-6.709h19.475l-1.936,5.116l-2.23,4.8l-2.226,4.775
		l-2.255,4.48l-2.845,4.799l-2.571,4.458l-3.182,4.186l-2.907,4.117l-3.167,4.186l-3.524,4.158l-3.505,3.525l-3.841,3.824
		l-3.843,3.522l-3.844,3.483l-4.141,3.229l-4.159,3.162l-4.163,2.868l-4.459,2.887l-4.457,2.546l-4.803,2.593l-4.797,2.204
		l-4.797,1.956l-5.098,1.91l-4.797,1.909l-5.118,1.592l-5.436,1.3l-5.114,1.272l-5.44,0.933l-2.548,0.344l-2.887,0.314l-5.438,0.616
		l-5.436,0.34h-5.732h-7.028l-7.028-0.656l-7.047-0.958l-7.029-1.272l-6.701-1.613l-6.382-1.569l-6.399-2.252l-6.402-2.551
		l-6.071-2.867l-6.054-2.907l-2.887-1.91l-2.863-1.573l-5.769-3.522l-5.442-3.847l-5.415-4.141l-2.551-2.25l-2.234-2.226
		l-2.552-2.23l-2.226-2.252l-4.812-4.797l-4.491-5.097l-1.89-2.567l-1.929-2.888l-4.144-5.415l-1.602-2.547l-1.922-2.889
		l-1.59-2.889l-1.604-3.183l-3.196-5.733l-2.878-6.413l-2.228-6.053l-2.239-6.729l-1.913-6.372l-0.974-3.521l-0.626-3.187
		l-0.637-3.522l-0.64-3.527l-0.964-6.71l-0.319-7.344l-0.307-3.525V141.7l0.307-7.006l0.319-7.05l0.964-7.029l1.277-7.027
		l1.601-6.713l1.913-6.39l2.239-6.369l2.228-6.39l2.878-6.073l3.196-6.094l1.604-2.866l1.59-2.866l3.524-5.756l4.144-5.434
		l3.819-5.416l2.261-2.569l2.23-2.241l2.241-2.544l2.571-2.25l4.777-4.79l4.786-4.479l2.887-1.922l2.528-1.913l5.442-4.152
		l2.892-1.59l2.877-1.923l2.863-1.613l2.887-1.59l6.054-3.187l6.071-2.877l6.402-2.569l6.399-1.91l6.381-1.924l3.503-0.953
		l3.199-0.64l3.524-0.624l3.504-0.647l7.045-0.956l7.029-0.33l3.503-0.296h3.525V2.73L141.728,2.73z M141.728,2.73"/>
</g>
</svg>
