<?xml version="1.0" encoding="utf-8"?>
<!-- Generator: Adobe Illustrator 16.0.0, SVG Export Plug-In . SVG Version: 6.00 Build 0)  -->
<!DOCTYPE svg PUBLIC "-//W3C//DTD SVG 1.1//EN" "http://www.w3.org/Graphics/SVG/1.1/DTD/svg11.dtd">
<svg version="1.1" id="图层_1" xmlns="http://www.w3.org/2000/svg" xmlns:xlink="http://www.w3.org/1999/xlink" x="0px" y="0px"
	 width="283.46px" height="283.46px" viewBox="0 0 283.46 283.46" enable-background="new 0 0 283.46 283.46" xml:space="preserve">
<g>
	<path fill="#272636" d="M141.73,2.73c-76.768,0-139,62.232-139,139c0,76.767,62.232,139,139,139c76.767,0,139-62.232,139-139
		C280.73,64.963,218.518,2.73,141.73,2.73L141.73,2.73z M141.73,268.101c-69.798,0-126.371-56.572-126.371-126.371
		C15.36,71.933,71.953,15.36,141.73,15.36S268.101,71.933,268.101,141.73C268.101,211.529,211.529,268.101,141.73,268.101
		L141.73,268.101z M148.064,72.23h-12.647v63.185H72.23v12.649h63.185v63.166h12.649v-63.186h63.166v-12.629h-63.186V72.23H148.064
		L148.064,72.23z M148.064,72.23"/>
</g>
</svg>
