<?xml version="1.0" encoding="utf-8"?>
<!-- Generator: Adobe Illustrator 16.0.0, SVG Export Plug-In . SVG Version: 6.00 Build 0)  -->
<!DOCTYPE svg PUBLIC "-//W3C//DTD SVG 1.1//EN" "http://www.w3.org/Graphics/SVG/1.1/DTD/svg11.dtd">
<svg version="1.1" id="图层_1" xmlns="http://www.w3.org/2000/svg" xmlns:xlink="http://www.w3.org/1999/xlink" x="0px" y="0px"
	 width="283.46px" height="283.46px" viewBox="0 0 283.46 283.46" enable-background="new 0 0 283.46 283.46" xml:space="preserve">
<g>
	<path fill="#272636" d="M280.73,90.238L142.001,20.875L3.272,90.238l138.729,69.365L280.73,90.238L280.73,90.238L280.73,90.238z
		 M142.001,39.394L243.677,90.24l-101.676,50.838L40.325,90.238L142.001,39.394L142.001,39.394L142.001,39.394z M142.001,39.394"/>
	<path fill="#272636" d="M262.016,132.228L262.016,132.228l-120.557,59.925l-120.263-60.07l0,0l-0.742,0.371L2.73,141.315
		l138.729,69.365l138.729-69.365L262.016,132.228z M262.016,132.228"/>
	<path fill="#272636" d="M262.016,184.134L262.016,184.134L141.459,244.06L21.196,183.988l0,0l-0.742,0.37L2.73,193.221
		l138.729,69.365l138.729-69.365L262.016,184.134z M262.016,184.134"/>
</g>
</svg>
