<?xml version="1.0" encoding="utf-8"?>
<!-- Generator: Adobe Illustrator 16.0.0, SVG Export Plug-In . SVG Version: 6.00 Build 0)  -->
<!DOCTYPE svg PUBLIC "-//W3C//DTD SVG 1.1//EN" "http://www.w3.org/Graphics/SVG/1.1/DTD/svg11.dtd">
<svg version="1.1" id="图层_1" xmlns="http://www.w3.org/2000/svg" xmlns:xlink="http://www.w3.org/1999/xlink" x="0px" y="0px"
	 width="283.46px" height="283.46px" viewBox="0 0 283.46 283.46" enable-background="new 0 0 283.46 283.46" xml:space="preserve">
<g>
	<path fill="#272636" d="M141.737,2.737C64.959,2.737,2.73,64.966,2.73,141.729c0,76.765,62.229,138.994,139.007,138.994
		c76.763,0,138.993-62.229,138.993-138.994C280.73,64.966,218.5,2.737,141.737,2.737L141.737,2.737z M141.737,264.665
		c-67.894,0-122.92-55.028-122.92-122.936c0-67.892,55.026-122.92,122.92-122.92c67.893,0,122.92,55.028,122.92,122.92
		C264.658,209.636,209.63,264.665,141.737,264.665L141.737,264.665z M141.737,264.665"/>
	<path fill="#272636" d="M180.125,73.512l-28.643,41.157c-3.064-1.101-6.313-1.809-9.746-1.809
		c-15.946,0-28.869,12.923-28.869,28.869c0,15.946,12.923,28.871,28.869,28.871s28.869-12.925,28.869-28.871
		c0-8.035-3.306-15.295-8.601-20.535l28.275-40.621L180.125,73.512L180.125,73.512z M180.125,73.512"/>
</g>
</svg>
