<?xml version="1.0" encoding="utf-8"?>
<!-- Generator: Adobe Illustrator 16.0.0, SVG Export Plug-In . SVG Version: 6.00 Build 0)  -->
<!DOCTYPE svg PUBLIC "-//W3C//DTD SVG 1.1//EN" "http://www.w3.org/Graphics/SVG/1.1/DTD/svg11.dtd">
<svg version="1.1" id="图层_1" xmlns="http://www.w3.org/2000/svg" xmlns:xlink="http://www.w3.org/1999/xlink" x="0px" y="0px"
	 width="283.46px" height="283.46px" viewBox="0 0 283.46 283.46" enable-background="new 0 0 283.46 283.46" xml:space="preserve">
<g>
	<defs>
		<rect id="SVGID_1_" x="2.73" y="2.73" width="278" height="278"/>
	</defs>
	<clipPath id="SVGID_2_">
		<use xlink:href="#SVGID_1_"  overflow="visible"/>
	</clipPath>
	<path clip-path="url(#SVGID_2_)" fill="#272636" d="M141.73,280.73c-76.659,0-139-62.376-139-139.018
		c0-76.64,62.342-138.982,139-138.982c76.623,0,139,62.342,139,138.982C280.73,218.354,218.353,280.73,141.73,280.73 M141.73,13.086
		c-70.942,0-128.645,57.685-128.645,128.626c0,70.925,57.702,128.645,128.645,128.645c70.907,0,128.626-57.72,128.626-128.645
		C270.357,70.771,212.637,13.086,141.73,13.086"/>
	<path clip-path="url(#SVGID_2_)" fill="#272636" d="M210.26,133.265H83.682l46.084-49.419c3.024-3.027,3.024-7.931,0-10.958
		c-3.03-3.027-7.934-3.027-10.958,0l-63.215,68.292l62.242,68.773c1.517,1.513,3.5,2.276,5.479,2.276
		c1.983,0,3.965-0.764,5.479-2.276c3.029-3.022,3.029-7.925,0-10.96l-45.609-50.229H210.26c4.28,0,7.751-3.466,7.751-7.751
		C218.009,136.739,214.541,133.265,210.26,133.265"/>
</g>
</svg>
