<?xml version="1.0" encoding="utf-8"?>
<!-- Generator: Adobe Illustrator 16.0.0, SVG Export Plug-In . SVG Version: 6.00 Build 0)  -->
<!DOCTYPE svg PUBLIC "-//W3C//DTD SVG 1.1//EN" "http://www.w3.org/Graphics/SVG/1.1/DTD/svg11.dtd">
<svg version="1.1" id="图层_1" xmlns="http://www.w3.org/2000/svg" xmlns:xlink="http://www.w3.org/1999/xlink" x="0px" y="0px"
	 width="283.46px" height="283.46px" viewBox="0 0 283.46 283.46" enable-background="new 0 0 283.46 283.46" xml:space="preserve">
<g>
	<path fill="#272636" d="M152.079,99.635v15.579h-32.98v8.962h32.98v14.764h-32.98v27.342h-17.521V138.94H68.364v-14.764h33.214
		v-8.962H68.364V99.635h26.242L62.12,39.804h19.52l23.658,44.25c1.942,3.709,3.517,6.912,4.733,9.735
		c1.332-2.769,3.013-6.293,5.186-10.463l22.354-43.521h20.628l-32.372,59.832H152.079L152.079,99.635z M152.079,99.635"/>
	<path fill="#272636" d="M252.929,211.227H30.53c-15.355,0-27.8-12.449-27.8-27.804V38.874c0-15.354,12.445-27.799,27.8-27.799
		h222.401c15.35,0,27.799,12.445,27.799,27.799v144.549C280.73,198.778,268.28,211.227,252.929,211.227L252.929,211.227z
		 M269.609,38.874c0-9.213-7.469-16.679-16.678-16.679H30.53c-9.215,0-16.681,7.466-16.681,16.679v144.549
		c0,9.218,7.466,16.685,16.681,16.685h222.401c9.209,0,16.678-7.467,16.678-16.685V38.874L269.609,38.874z M233.736,154.918
		l-9.084,6.417l-14.883-21.06l-13.829,9.794l-10.077-50.734l47.955,26.757l-14.438,8.513L233.736,154.918L233.736,154.918z
		 M91.69,244.584h11.121v-22.238h77.84v22.238h11.119c15.35,0,27.801,12.445,27.801,27.801H63.89
		C63.89,257.03,76.335,244.584,91.69,244.584L91.69,244.584z M91.69,244.584"/>
</g>
</svg>
