<?xml version="1.0" encoding="utf-8"?>
<!-- Generator: Adobe Illustrator 16.0.0, SVG Export Plug-In . SVG Version: 6.00 Build 0)  -->
<!DOCTYPE svg PUBLIC "-//W3C//DTD SVG 1.1//EN" "http://www.w3.org/Graphics/SVG/1.1/DTD/svg11.dtd">
<svg version="1.1" id="图层_1" xmlns="http://www.w3.org/2000/svg" xmlns:xlink="http://www.w3.org/1999/xlink" x="0px" y="0px"
	 width="283.46px" height="283.46px" viewBox="0 0 283.46 283.46" enable-background="new 0 0 283.46 283.46" xml:space="preserve">
<g>
	<path fill="#272636" d="M48.96,206.597c-20.439,0-37.068,16.628-37.068,37.067c0,20.438,16.629,37.065,37.068,37.065
		c17.239,0,31.768-11.832,35.894-27.799h186.714v-18.534H84.854C80.728,218.43,66.199,206.597,48.96,206.597L48.96,206.597z
		 M48.96,262.197c-10.222,0-18.534-8.313-18.534-18.532c0-10.223,8.312-18.534,18.534-18.534c10.221,0,18.532,8.312,18.532,18.534
		C67.492,253.884,59.181,262.197,48.96,262.197L48.96,262.197z M48.96,262.197"/>
	<path fill="#272636" d="M48.96,104.665c-20.439,0-37.068,16.628-37.068,37.066c0,20.439,16.629,37.067,37.068,37.067
		c17.239,0,31.768-11.833,35.894-27.801h186.714v-18.533H84.854C80.728,116.496,66.199,104.665,48.96,104.665L48.96,104.665z
		 M48.96,160.264c-10.222,0-18.534-8.313-18.534-18.534c0-10.221,8.312-18.532,18.534-18.532c10.221,0,18.532,8.312,18.532,18.532
		C67.492,151.952,59.181,160.264,48.96,160.264L48.96,160.264z M48.96,160.264"/>
	<path fill="#272636" d="M84.854,30.531C80.728,14.562,66.199,2.73,48.96,2.73c-20.439,0-37.068,16.628-37.068,37.068
		c0,20.438,16.629,37.065,37.068,37.065c17.239,0,31.768-11.832,35.894-27.8h186.714V30.531H84.854L84.854,30.531z M48.96,58.33
		c-10.222,0-18.534-8.312-18.534-18.532c0-10.222,8.312-18.534,18.534-18.534c10.221,0,18.532,8.312,18.532,18.534
		C67.492,50.018,59.181,58.33,48.96,58.33L48.96,58.33z M48.96,58.33"/>
</g>
</svg>
