<?xml version="1.0" encoding="utf-8"?>
<!-- Generator: Adobe Illustrator 16.0.0, SVG Export Plug-In . SVG Version: 6.00 Build 0)  -->
<!DOCTYPE svg PUBLIC "-//W3C//DTD SVG 1.1//EN" "http://www.w3.org/Graphics/SVG/1.1/DTD/svg11.dtd">
<svg version="1.1" id="图层_1" xmlns="http://www.w3.org/2000/svg" xmlns:xlink="http://www.w3.org/1999/xlink" x="0px" y="0px"
	 width="283.46px" height="283.46px" viewBox="0 0 283.46 283.46" enable-background="new 0 0 283.46 283.46" xml:space="preserve">
<g>
	<path fill="#272636" d="M156.093,150.708c17.603-11.496,36.546-37.894,36.546-68.67c0-43.73-32.732-79.308-72.96-79.308
		c-40.224,0-72.951,35.578-72.951,79.308c0,30.692,15.856,58.063,41.337,71.403c0,0,2.505,1.339,2.844,1.486
		c3.498,1.938,9.36,6.097,9.36,12.162c0,5.678-2.677,7.647-7.009,9.04c-1.358,0.34-2.686,0.717-4.143,1.131
		c-2.077,0.521-4.042,1.007-5.785,1.77l-0.713,0.335c-45.638,15.88-75.059,53.682-75.059,96.599v4.767H150.44v-9.536H17.233
		c2.124-37.132,28.955-69.453,69.575-83.187l3.008-1.084c0.512-0.136,1.052-0.266,1.602-0.405l0.484-0.126
		c1.224-0.354,2.44-0.704,3.972-1.094c3.445-1.104,13.932-4.457,13.932-18.207c0-10.952-8.941-17.548-14.561-20.658
		c-0.55-0.255-2.674-1.396-2.72-1.421c-22.025-11.533-36.261-36.25-36.261-62.975c0-38.468,28.449-69.771,63.415-69.771
		c34.97,0,63.423,31.302,63.423,69.771c0,27.232-16.704,50.548-32.225,60.689c-9.95,6.496-16.992,11.836-16.992,21.397
		c0,14.682,15.647,20.288,23.917,21.197l1.058-9.478c-0.153-0.02-15.438-1.9-15.438-11.72
		C143.422,160.497,145.182,157.833,156.093,150.708L156.093,150.708z M169.169,234.132h106.729v9.536H169.169V234.132
		L169.169,234.132z M169.169,197.07h106.729v9.538H169.169V197.07L169.169,197.07z M169.169,271.194h106.729v9.536H169.169V271.194
		L169.169,271.194z M169.169,271.194"/>
</g>
</svg>
