<?xml version="1.0" encoding="utf-8"?>
<!-- Generator: Adobe Illustrator 16.0.0, SVG Export Plug-In . SVG Version: 6.00 Build 0)  -->
<!DOCTYPE svg PUBLIC "-//W3C//DTD SVG 1.1//EN" "http://www.w3.org/Graphics/SVG/1.1/DTD/svg11.dtd">
<svg version="1.1" id="图层_1" xmlns="http://www.w3.org/2000/svg" xmlns:xlink="http://www.w3.org/1999/xlink" x="0px" y="0px"
	 width="283.46px" height="283.46px" viewBox="0 0 283.46 283.46" enable-background="new 0 0 283.46 283.46" xml:space="preserve">
<g>
	<path fill="#272636" d="M251.503,163.828H149.113c-3.522,0-6.391,2.851-6.391,6.449v103.393c0,3.598,2.868,6.483,6.391,6.483
		h102.425c3.53,0,6.416-2.886,6.416-6.483V170.276C257.954,166.678,255.068,163.828,251.503,163.828L251.503,163.828
		L251.503,163.828z M245.123,267.253h-89.611v-90.527h89.611V267.253L245.123,267.253L245.123,267.253z M111.528,163.828H9.146
		c-3.53,0-6.416,2.851-6.416,6.449v103.393c0,3.598,2.885,6.483,6.416,6.483h102.382c3.539,0,6.408-2.886,6.408-6.483V170.276
		C117.935,166.678,115.067,163.828,111.528,163.828L111.528,163.828L111.528,163.828z M105.13,267.253H15.519v-90.527h89.612
		V267.253L105.13,267.253L105.13,267.253z M111.528,21.73H9.146c-3.53,0-6.416,2.903-6.416,6.466v103.418
		c0,3.565,2.885,6.466,6.416,6.466h102.382c3.539,0,6.408-2.901,6.408-6.466V28.197C117.935,24.633,115.067,21.73,111.528,21.73
		L111.528,21.73L111.528,21.73z M105.13,125.157H15.519V34.663h89.612V125.157L105.13,125.157L105.13,125.157z M278.863,72.942
		L211.79,5.2c-1.204-1.197-2.851-1.893-4.514-1.893c-1.714,0-3.344,0.695-4.565,1.893l-67.064,67.742
		c-2.486,2.52-2.486,6.627,0,9.149l67.064,67.727c1.272,1.247,2.918,1.875,4.565,1.875c1.629,0,3.259-0.628,4.514-1.875
		l67.073-67.727c1.171-1.205,1.867-2.852,1.867-4.574C280.73,75.812,280.034,74.165,278.863,72.942L278.863,72.942L278.863,72.942z
		 M207.276,136.121l-58.035-58.603l58.035-58.604l58.01,58.604L207.276,136.121L207.276,136.121L207.276,136.121z M207.276,136.121"
		/>
</g>
</svg>
