<?xml version="1.0" encoding="utf-8"?>
<!-- Generator: Adobe Illustrator 16.0.0, SVG Export Plug-In . SVG Version: 6.00 Build 0)  -->
<!DOCTYPE svg PUBLIC "-//W3C//DTD SVG 1.1//EN" "http://www.w3.org/Graphics/SVG/1.1/DTD/svg11.dtd">
<svg version="1.1" id="图层_1" xmlns="http://www.w3.org/2000/svg" xmlns:xlink="http://www.w3.org/1999/xlink" x="0px" y="0px"
	 width="283.46px" height="283.46px" viewBox="0 0 283.46 283.46" enable-background="new 0 0 283.46 283.46" xml:space="preserve">
<g>
	<path fill="#272636" d="M42.244,68.967c0,7.097-5.754,12.85-12.85,12.85H15.58c-7.097,0-12.85-5.753-12.85-12.85V55.154
		c0-7.096,5.753-12.85,12.85-12.85h13.813c7.096,0,12.85,5.754,12.85,12.85V68.967L42.244,68.967z M42.244,68.967"/>
	<path fill="#272636" d="M42.244,148.843c0,7.097-5.754,12.85-12.85,12.85H15.58c-7.097,0-12.85-5.753-12.85-12.85V135.03
		c0-7.096,5.753-12.85,12.85-12.85h13.813c7.096,0,12.85,5.754,12.85,12.85V148.843L42.244,148.843z M42.244,148.843"/>
	<path fill="#272636" d="M42.244,228.307c0,7.097-5.754,12.85-12.85,12.85H15.58c-7.097,0-12.85-5.753-12.85-12.85v-13.814
		c0-7.097,5.753-12.85,12.85-12.85h13.813c7.096,0,12.85,5.753,12.85,12.85V228.307L42.244,228.307z M42.244,228.307"/>
	<path fill="#272636" d="M280.73,60.626c0,5.457-4.423,9.878-9.879,9.878H72.177c-5.456,0-9.879-4.421-9.879-9.878l0,0
		c0-5.456,4.423-9.877,9.879-9.877h198.674C276.307,50.749,280.73,55.17,280.73,60.626L280.73,60.626L280.73,60.626z M280.73,60.626
		"/>
	<path fill="#272636" d="M280.73,141.459c0,5.455-4.423,9.878-9.879,9.878H72.177c-5.456,0-9.879-4.424-9.879-9.878l0,0
		c0-5.456,4.423-9.879,9.879-9.879h198.674C276.307,131.58,280.73,136.003,280.73,141.459L280.73,141.459L280.73,141.459z
		 M280.73,141.459"/>
	<path fill="#272636" d="M280.73,221.241c0,5.455-4.423,9.878-9.879,9.878H72.177c-5.456,0-9.879-4.423-9.879-9.878l0,0
		c0-5.455,4.423-9.878,9.879-9.878h198.674C276.307,211.363,280.73,215.786,280.73,221.241L280.73,221.241L280.73,221.241z
		 M280.73,221.241"/>
</g>
</svg>
