<?xml version="1.0" encoding="utf-8"?>
<!-- Generator: Adobe Illustrator 16.0.0, SVG Export Plug-In . SVG Version: 6.00 Build 0)  -->
<!DOCTYPE svg PUBLIC "-//W3C//DTD SVG 1.1//EN" "http://www.w3.org/Graphics/SVG/1.1/DTD/svg11.dtd">
<svg version="1.1" id="图层_1" xmlns="http://www.w3.org/2000/svg" xmlns:xlink="http://www.w3.org/1999/xlink" x="0px" y="0px"
	 width="283.46px" height="283.46px" viewBox="0 0 283.46 283.46" enable-background="new 0 0 283.46 283.46" xml:space="preserve">
<g>
	<defs>
		<rect id="SVGID_1_" x="2.73" y="10.287" width="278" height="262.886"/>
	</defs>
	<clipPath id="SVGID_2_">
		<use xlink:href="#SVGID_1_"  overflow="visible"/>
	</clipPath>
	<path clip-path="url(#SVGID_2_)" fill="#272636" d="M280.118,109.778c-1.614-4.881-6.074-8.306-11.951-9.15l-78.73-11.325
		l-35.208-70.589c-2.625-5.275-7.295-8.427-12.493-8.427s-9.871,3.152-12.494,8.419L94.029,89.303l-78.73,11.325
		c-5.884,0.845-10.351,4.27-11.955,9.158c-1.606,4.888-0.018,10.26,4.229,14.356l56.977,54.956l-13.45,77.598
		c-0.804,4.632,0.222,8.903,2.885,12.025c2.411,2.838,5.994,4.452,9.834,4.452c2.49,0,5.009-0.648,7.495-1.946l70.42-36.636
		l70.417,36.636c6.313,3.288,13.353,2.157,17.329-2.506c2.669-3.122,3.681-7.394,2.882-12.025l-13.443-77.598l56.972-54.956
		C280.146,120.032,281.716,114.667,280.118,109.778"/>
</g>
</svg>
