<?xml version="1.0" encoding="utf-8"?>
<!-- Generator: Adobe Illustrator 16.0.0, SVG Export Plug-In . SVG Version: 6.00 Build 0)  -->
<!DOCTYPE svg PUBLIC "-//W3C//DTD SVG 1.1//EN" "http://www.w3.org/Graphics/SVG/1.1/DTD/svg11.dtd">
<svg version="1.1" id="图层_1" xmlns="http://www.w3.org/2000/svg" xmlns:xlink="http://www.w3.org/1999/xlink" x="0px" y="0px"
	 width="283.46px" height="283.46px" viewBox="0 0 283.46 283.46" enable-background="new 0 0 283.46 283.46" xml:space="preserve">
<g>
	<defs>
		<rect id="SVGID_1_" x="8.065" y="2.73" width="267.33" height="278"/>
	</defs>
	<clipPath id="SVGID_2_">
		<use xlink:href="#SVGID_1_"  overflow="visible"/>
	</clipPath>
	<path clip-path="url(#SVGID_2_)" fill="#272636" d="M242.127,57.018h-28.144c-4.106-11.708-10.188-23.325-19.172-32.815
		C181.323,9.956,163.605,2.73,142.153,2.73c-21.446,0-39.188,7.221-52.73,21.463c-9.026,9.492-15.158,21.113-19.316,32.825H42.063
		c-21.351,0-33.998,17.438-33.998,38.789v97.449c0,5.347,1.547,7.441,6.894,7.441c5.346,0,7.452-2.095,7.452-7.441V95.806
		c0-10.675,8.978-24.758,19.652-24.758h22.761c-2.252,11.26-3.023,26.811-3.252,33.862c-3.962,2.94-6.531,7.653-6.531,12.965
		c0,8.912,7.224,16.135,16.133,16.135c8.912,0,16.135-7.223,16.135-16.135c0-5.234-2.494-9.883-6.356-12.831
		c0.188-5.119,0.699-12.11,1.978-19.926c0.447-2.73,1.008-10.824,1.71-13.877h114.754c2.478,11.098,3.289,26.67,3.525,33.66
		c-3.97,2.938-6.544,7.654-6.544,12.973c0,8.91,7.224,16.134,16.135,16.134s16.135-7.224,16.135-16.134
		c0-5.217-2.479-9.854-6.321-12.803c-0.194-7.066-1.643-21.713-3.863-33.054h22.942c10.675,0,19.655,13.111,19.655,23.788v146.528
		c0,10.659-8.254,23.768-18.929,23.768H42.063c-10.674,0-19.36-13.271-19.36-23.887c0-5.347-2.14-6.454-7.486-6.454
		s-7.152,1.155-7.152,6.502c0,21.292,12.646,38.467,33.998,38.467h200.064c21.353,0,33.268-17.062,33.268-38.396V95.806
		C275.395,74.455,263.48,57.018,242.127,57.018 M90.93,57.018c3.093-7.047,4.65-15.363,10.012-21.002
		c9.882-10.391,25.052-18.923,41.211-18.923c16.127,0,31.601,7.167,41.421,17.516c5.346,5.633,6.555,15.263,9.655,22.409H90.93z"/>
</g>
</svg>
