<?xml version="1.0" encoding="utf-8"?>
<!-- Generator: Adobe Illustrator 16.0.0, SVG Export Plug-In . SVG Version: 6.00 Build 0)  -->
<!DOCTYPE svg PUBLIC "-//W3C//DTD SVG 1.1//EN" "http://www.w3.org/Graphics/SVG/1.1/DTD/svg11.dtd">
<svg version="1.1" id="图层_1" xmlns="http://www.w3.org/2000/svg" xmlns:xlink="http://www.w3.org/1999/xlink" x="0px" y="0px"
	 width="283.46px" height="283.46px" viewBox="0 0 283.46 283.46" enable-background="new 0 0 283.46 283.46" xml:space="preserve">
<g>
	<path fill="#272636" d="M252.93,95.397h-64.866v18.533h50.506c13.049,0,23.627,10.496,23.627,23.443v101.382
		c0,12.947-12.896,23.442-25.944,23.442H44.892c-13.05,0-23.629-10.495-23.629-23.442V137.374c0-12.947,10.579-23.443,23.629-23.443
		h50.505V95.397H30.531c-15.353,0-27.801,12.348-27.801,27.58v130.174c0,15.231,12.448,27.579,27.801,27.579H252.93
		c15.352,0,27.8-12.347,27.8-27.579V122.977C280.73,107.746,268.282,95.397,252.93,95.397z"/>
	<path fill="#272636" d="M85.945,62.965h10.262l36.257-36.118v165.851c0,5.118,4.149,9.267,9.267,9.267s9.268-4.148,9.268-9.267
		V26.847l36.256,36.118h10.285c10.234,0,12.656-5.856,5.402-13.079L155.589,2.73h-27.719L80.542,49.883
		C73.289,57.109,75.71,62.965,85.945,62.965z"/>
</g>
</svg>
