<?xml version="1.0" encoding="utf-8"?>
<!-- Generator: Adobe Illustrator 16.0.0, SVG Export Plug-In . SVG Version: 6.00 Build 0)  -->
<!DOCTYPE svg PUBLIC "-//W3C//DTD SVG 1.1//EN" "http://www.w3.org/Graphics/SVG/1.1/DTD/svg11.dtd">
<svg version="1.1" id="图层_1" xmlns="http://www.w3.org/2000/svg" xmlns:xlink="http://www.w3.org/1999/xlink" x="0px" y="0px"
	 width="283.46px" height="283.46px" viewBox="0 0 283.46 283.46" enable-background="new 0 0 283.46 283.46" xml:space="preserve">
<g>
	
		<rect x="131.426" y="60.037" transform="matrix(0.7071 0.7071 -0.7071 0.7071 89.1892 -77.9962)" fill="#040000" width="14.631" height="17.244"/>
	
		<rect x="145.964" y="45.622" transform="matrix(-0.7071 0.7071 -0.7071 -0.7071 301.7748 -19.1199)" fill="#040000" width="17.767" height="14.632"/>
	<path fill="#040000" d="M74.32,137.55l-8.883-8.883l-7.838,7.838c4.703,4.703,7.316,7.838,8.361,8.883L74.32,137.55z"/>
	<path fill="#040000" d="M145.387,2.73L2.73,145.388V280.73l7.316-7.315L280.73,2.73H145.387z M108.809,70.663l3.135,3.135
		L90.52,95.223l-2.613-3.658L108.809,70.663z M83.204,94.178c1.567,7.838,2.09,16.199,1.045,24.56
		c-1.567-0.522-3.135-1.045-4.703-1.567c1.045-7.838,0.522-15.154-1.045-21.948L83.204,94.178z M47.147,126.576l7.316,7.316
		l7.838-7.838l-7.316-7.316l3.135-3.135l7.316,7.316l6.271-6.271l3.136,3.136l-6.271,6.271l8.883,8.883l7.838-7.838l3.136,3.135
		l-7.838,7.838l12.542,12.542l-3.136,3.136l-13.064-13.064l-8.361,8.361c4.703,6.271,6.793,13.063,5.226,19.335
		c-1.567,0-3.135,0-5.226,0c1.045-5.227,0-10.975-3.658-16.2l-6.793,6.794l-3.135-3.136l6.793-6.793
		c-2.09-2.09-4.703-5.226-8.361-8.884l-5.225,5.226l-2.09-3.135l5.226-5.226l-7.316-6.793L47.147,126.576z M31.471,143.821
		c4.181,0.522,8.884,1.045,13.064,2.09c-0.522,2.091-0.522,3.658-1.045,5.227c-4.181-1.046-8.361-2.091-13.064-2.613L31.471,143.821
		z M91.042,161.065l-9.928,9.406c-4.703,4.18-9.406,6.271-14.109,4.703c0,2.09,0,5.748,0.522,10.451l-5.226-1.567
		c0-4.703,0-8.361,0-10.452L48.715,160.02l-4.703,4.703l-3.135-3.136l7.838-7.838l17.244,17.244
		c4.181,1.045,8.361-0.522,12.019-4.181l9.928-9.406l14.109-14.631c0.522,1.045,1.045,2.612,2.09,4.181L91.042,161.065z
		 M114.558,139.64l-17.245-17.245c0,3.658,0,6.793,0,10.452c-1.568-0.523-3.135-1.568-4.703-2.09c0.523-7.838,0-16.2-3.135-26.128
		l4.703-1.045c1.045,3.658,1.567,7.838,2.09,11.496l21.425,21.425L114.558,139.64z M134.937,117.693
		c-2.09,2.09-4.703,4.703-6.793,6.793c-1.045-1.045-2.613-2.09-4.181-3.135c2.09-2.09,4.703-4.18,6.793-6.271
		c2.091-2.09,2.091-3.658,0-5.748L116.125,94.7l-15.154,14.632l-3.136-3.135l25.605-25.605l3.135,3.135l-7.838,7.838l16.199,16.199
		C138.072,110.899,138.072,114.557,134.937,117.693z M168.38,85.816l-15.154-15.153l-12.541,12.541l2.09,2.09l-3.135,3.135
		l-18.812-18.812l15.676-15.677l-8.883-8.884l3.658-3.657l8.883,8.883l15.677-15.677l18.812,18.812l-3.135,3.658l-2.09-2.09
		l-12.542,12.541l15.154,15.154L168.38,85.816z"/>
</g>
</svg>
