<?xml version="1.0" encoding="utf-8"?>
<!-- Generator: Adobe Illustrator 16.0.0, SVG Export Plug-In . SVG Version: 6.00 Build 0)  -->
<!DOCTYPE svg PUBLIC "-//W3C//DTD SVG 1.1//EN" "http://www.w3.org/Graphics/SVG/1.1/DTD/svg11.dtd">
<svg version="1.1" id="图层_1" xmlns="http://www.w3.org/2000/svg" xmlns:xlink="http://www.w3.org/1999/xlink" x="0px" y="0px"
	 width="283.46px" height="283.46px" viewBox="0 0 283.46 283.46" enable-background="new 0 0 283.46 283.46" xml:space="preserve">
<g>
	<path fill="#272636" d="M275.827,261.275c-5.042-35.712-24.085-67.084-52.84-87.81c7.987-13.466,12.588-29.166,12.602-45.917
		c0-49.849-40.552-90.4-90.4-90.4c-49.85,0-90.401,40.551-90.401,90.4c0,17.353,4.893,34.076,14.187,48.593
		c-26.797,20.556-43.975,50.446-48.8,85.524c-0.82,6.094-1.25,17.931-1.25,18.438l5.743,0.248v0.104h2.404l6.347,0.274h2.266
		c0.003-0.086,0.004-0.179,0.004-0.274h230.021v-0.508h11.446C277.155,273.697,276.725,267.408,275.827,261.275z M145.188,50.47
		c40.315,0,77.078,36.723,77.078,77.079c0,40.355-36.723,77.079-77.078,77.079c-22.738,0-46.764-13.438-60.75-31.41
		c-0.071-0.093-0.132-0.175-0.188-0.251l-0.454-0.681c-0.129-0.21-0.265-0.438-0.53-0.826c-0.171-0.24-0.339-0.485-0.508-0.729
		l-1.742-2.606c-7.634-11.904-12.908-26.597-12.908-40.576C68.108,87.192,104.832,50.47,145.188,50.47z M34.315,264.126
		c4.014-29.512,19.536-59.132,42.18-77.864c17.219,20.157,42.019,31.647,68.693,31.647c28.071,0,53.2-12.88,69.797-33.039
		c24.802,18.43,42.88,48.532,47.168,78.865c0.175,1.26,0.266,2.522,0.305,3.789H34.261
		C34.186,266.236,34.187,265.066,34.315,264.126z"/>
	<path fill="#272636" d="M37.011,140.519c-7.735,0-14.064-6.329-14.064-14.064c0-5.85,3.6-10.894,8.717-13.005
		c-0.001,0.129-0.005,0.257-0.005,0.387h13.282c0-51.998,47.115-98.175,100.207-98.175c53.093,0,100.206,46.177,100.206,98.175
		h8.005c4.394,2.349,7.388,6.981,7.388,12.306c0,7.696-6.251,13.947-13.947,13.947v16.838c19.104,0,30.747-11.642,30.786-30.785
		c0-15.314-7.482-25.82-20.255-29.413C248.902,43.563,201.83,2.73,145.188,2.73C88.94,2.73,42.156,42.947,33.209,95.522
		C16.14,96.991,5.875,108.495,5.875,126.494c0,19.338,11.837,31.136,31.136,31.136V140.519z"/>
</g>
</svg>
