<?xml version="1.0" encoding="utf-8"?>
<!-- Generator: Adobe Illustrator 16.0.0, SVG Export Plug-In . SVG Version: 6.00 Build 0)  -->
<!DOCTYPE svg PUBLIC "-//W3C//DTD SVG 1.1//EN" "http://www.w3.org/Graphics/SVG/1.1/DTD/svg11.dtd">
<svg version="1.1" id="图层_1" xmlns="http://www.w3.org/2000/svg" xmlns:xlink="http://www.w3.org/1999/xlink" x="0px" y="0px"
	 width="283.46px" height="283.46px" viewBox="0 0 283.46 283.46" enable-background="new 0 0 283.46 283.46" xml:space="preserve">
<g>
	<path fill="#272636" d="M211.23,254.667h-26.063V72.231h-26.063v182.437h-34.75V72.231H98.292v182.437H72.229V72.231h139V254.667
		L211.23,254.667z M115.667,28.793h52.125v17.375h-52.125V28.793L115.667,28.793z M241.636,46.168h-47.782V20.105
		c0-9.556-7.818-17.375-17.374-17.375h-69.501c-9.556,0-17.375,7.819-17.375,17.375v26.063H41.823
		c-7.21,0-13.031,5.821-13.031,13.031c0,7.211,5.821,13.032,13.031,13.032h4.344v191.124c0,9.557,7.818,17.375,17.375,17.375
		h156.376c9.556,0,17.374-7.818,17.374-17.375V72.231h4.345c7.211,0,13.031-5.821,13.031-13.032
		C254.667,51.989,248.847,46.168,241.636,46.168L241.636,46.168z M241.636,46.168"/>
</g>
</svg>
