<?xml version="1.0" encoding="utf-8"?>
<!-- Generator: Adobe Illustrator 16.0.0, SVG Export Plug-In . SVG Version: 6.00 Build 0)  -->
<!DOCTYPE svg PUBLIC "-//W3C//DTD SVG 1.1//EN" "http://www.w3.org/Graphics/SVG/1.1/DTD/svg11.dtd">
<svg version="1.1" id="图层_1" xmlns="http://www.w3.org/2000/svg" xmlns:xlink="http://www.w3.org/1999/xlink" x="0px" y="0px"
	 width="283.46px" height="283.46px" viewBox="0 0 283.46 283.46" enable-background="new 0 0 283.46 283.46" xml:space="preserve">
<g>
	<path fill="#272636" d="M251.622,73.847c-3.565,0-6.464,2.892-6.464,6.465v174.557c0,7.135-5.792,12.931-12.932,12.931H51.197
		c-7.141,0-12.932-5.796-12.932-12.931V80.312c0-3.572-2.898-6.465-6.465-6.465c-3.005,0-5.537,2.055-6.258,4.84
		c-0.069-0.039-0.139-0.072-0.207-0.111v176.293c0,14.282,11.573,25.861,25.862,25.861h181.029
		c14.282,0,25.862-11.579,25.862-25.861V80.312C258.088,76.738,255.191,73.847,251.622,73.847L251.622,73.847z M96.454,229.008
		V86.777c0-3.574-2.897-6.465-6.465-6.465s-6.465,2.892-6.465,6.465v142.231c0,3.568,2.898,6.465,6.465,6.465
		C93.556,235.475,96.454,232.577,96.454,229.008L96.454,229.008z M199.9,229.008V86.777c0-3.574-2.898-6.465-6.466-6.465
		s-6.465,2.892-6.465,6.465v142.231c0,3.568,2.897,6.465,6.465,6.465C197.001,235.475,199.9,232.577,199.9,229.008L199.9,229.008z
		 M271.056,28.59h-74.46L172.744,4.739c-1.366-1.366-3.166-2.031-4.957-2.003c-0.071-0.001-0.142-0.005-0.215-0.005H115.85
		c-0.063,0-0.126,0.003-0.188,0.005c-1.787-0.025-3.582,0.641-4.945,2.003L86.864,28.59h-74.46c-3.567,0-6.465,2.893-6.465,6.465
		c0,3.567,2.898,6.465,6.465,6.465h77.585c0.108,0,0.216-0.002,0.323-0.006c1.813,0.045,3.642-0.618,5.024-2.001l23.854-23.853
		h45.08l23.854,23.853c1.383,1.384,3.211,2.046,5.024,2.001c0.107,0.005,0.215,0.006,0.323,0.006h77.585
		c3.567,0,6.465-2.898,6.465-6.465C277.521,31.482,274.624,28.59,271.056,28.59L271.056,28.59z M148.177,229.008V86.777
		c0-3.574-2.899-6.465-6.466-6.465c-3.566,0-6.465,2.892-6.465,6.465v142.231c0,3.568,2.899,6.465,6.465,6.465
		C145.278,235.475,148.177,232.577,148.177,229.008L148.177,229.008z M148.177,229.008"/>
</g>
</svg>
