<?xml version="1.0" encoding="utf-8"?>
<!-- Generator: Adobe Illustrator 16.0.0, SVG Export Plug-In . SVG Version: 6.00 Build 0)  -->
<!DOCTYPE svg PUBLIC "-//W3C//DTD SVG 1.1//EN" "http://www.w3.org/Graphics/SVG/1.1/DTD/svg11.dtd">
<svg version="1.1" id="图层_1" xmlns="http://www.w3.org/2000/svg" xmlns:xlink="http://www.w3.org/1999/xlink" x="0px" y="0px"
	 width="283.46px" height="283.46px" viewBox="0 0 283.46 283.46" enable-background="new 0 0 283.46 283.46" xml:space="preserve">
<g>
	<defs>
		<rect id="SVGID_1_" x="2.73" y="2.73" width="278" height="278"/>
	</defs>
	<clipPath id="SVGID_2_">
		<use xlink:href="#SVGID_1_"  overflow="visible"/>
	</clipPath>
	<path clip-path="url(#SVGID_2_)" fill="#272636" d="M243.664,280.73c-20.219,0-37.067-16.849-37.067-37.065
		c0-13.479,7.583-26.115,18.534-32.013c-10.951-33.697-39.594-57.285-74.134-60.655v56.443
		c16.849,4.212,28.643,18.533,28.643,36.225c0,20.217-16.849,37.065-37.066,37.065c-20.219,0-37.067-16.849-37.067-37.065
		c0-17.691,12.637-32.854,29.485-36.225v-56.443c-34.54,3.37-64.024,26.958-74.976,60.655c10.109,5.897,17.691,18.533,17.691,32.013
		c0,20.217-16.849,37.065-37.067,37.065S2.73,263.881,2.73,243.665c0-20.219,16.849-37.067,37.067-37.067h2.528
		c12.636-40.437,48.86-69.079,90.981-72.449v-25.272c-25.272-4.211-44.649-26.115-44.649-52.23
		c0-30.327,23.588-53.915,53.073-53.915c29.484,0,53.072,23.588,53.072,53.073c0,26.115-18.533,48.861-44.647,52.23v25.272
		c42.121,3.37,77.503,32.012,90.981,72.449h2.527c20.218,0,37.066,16.849,37.066,37.066
		C280.73,263.881,263.881,280.73,243.664,280.73 M243.664,222.604c-10.951,0-20.219,9.266-20.219,20.218
		c0,10.951,9.268,20.218,20.219,20.218c10.952,0,20.218-9.267,20.218-20.218C263.881,231.87,254.616,222.604,243.664,222.604
		 M141.73,222.604c-10.952,0-20.218,9.266-20.218,20.218c0,10.951,9.266,20.218,20.218,20.218c10.951,0,20.218-9.267,20.218-20.218
		C161.949,231.87,152.681,222.604,141.73,222.604 M39.797,222.604c-10.951,0-20.218,9.266-20.218,20.218
		c0,10.951,9.267,21.06,20.218,21.06c10.952,0,20.218-9.266,20.218-20.217C60.015,232.712,51.591,222.604,39.797,222.604
		 M141.73,19.579c-20.218,0-36.225,16.007-36.225,36.225s16.007,36.224,36.225,36.224c20.218,0,36.224-16.005,36.224-36.224
		S161.949,19.579,141.73,19.579"/>
</g>
</svg>
