<?xml version="1.0" encoding="utf-8"?>
<!-- Generator: Adobe Illustrator 16.0.0, SVG Export Plug-In . SVG Version: 6.00 Build 0)  -->
<!DOCTYPE svg PUBLIC "-//W3C//DTD SVG 1.1//EN" "http://www.w3.org/Graphics/SVG/1.1/DTD/svg11.dtd">
<svg version="1.1" id="图层_1" xmlns="http://www.w3.org/2000/svg" xmlns:xlink="http://www.w3.org/1999/xlink" x="0px" y="0px"
	 width="283.46px" height="283.46px" viewBox="0 0 283.46 283.46" enable-background="new 0 0 283.46 283.46" xml:space="preserve">
<g>
	<path fill="#272636" d="M250.741,280.73H32.72c-15.707,0-28.439-12.73-28.439-28.438V61.436C4.281,45.731,17.014,33,32.72,33
		h42.655v18.959H37.459c-7.854,0-14.218,6.368-14.218,14.216v181.379c0,7.853,6.363,14.218,14.218,14.218h208.542
		c7.857,0,14.221-6.365,14.221-14.218V66.175c0-7.849-6.363-14.216-14.221-14.216h-37.916V32.998h42.655
		c15.707,0,28.438,12.734,28.438,28.438v190.857C279.178,268,266.448,280.73,250.741,280.73L250.741,280.73L250.741,280.73
		L250.741,280.73z M91.753,157.919c1.308-1.323,2.874-1.878,3.5-1.238l37.236,38.1L132.5,6.276c0.006-1.961,1.604-3.55,3.563-3.545
		l11.85,0.031c1.961,0.006,3.55,1.604,3.545,3.564l-0.012,188.504l37.438-37.9c0.623-0.637,2.187-0.075,3.487,1.257l9.427,9.645
		c1.299,1.336,1.847,2.929,1.221,3.563l-51.65,52.291v0.046c-1.707,2.033-3.054,3.545-3.563,3.543l-11.848-0.031
		c-0.855-0.001-2.029-1.915-3.547-3.563v-0.046l-51.37-52.563c-0.623-0.638-0.068-2.228,1.239-3.558L91.753,157.919L91.753,157.919
		L91.753,157.919L91.753,157.919z M91.753,157.919"/>
</g>
</svg>
