<?xml version="1.0" encoding="utf-8"?>
<!-- Generator: Adobe Illustrator 16.0.0, SVG Export Plug-In . SVG Version: 6.00 Build 0)  -->
<!DOCTYPE svg PUBLIC "-//W3C//DTD SVG 1.1//EN" "http://www.w3.org/Graphics/SVG/1.1/DTD/svg11.dtd">
<svg version="1.1" id="图层_1" xmlns="http://www.w3.org/2000/svg" xmlns:xlink="http://www.w3.org/1999/xlink" x="0px" y="0px"
	 width="283.46px" height="283.46px" viewBox="0 0 283.46 283.46" enable-background="new 0 0 283.46 283.46" xml:space="preserve">
<g>
	<path fill="#272636" d="M270.124,258.404H13.337c-5.858,0-10.607-4.75-10.607-10.606V35.664c0-5.857,4.749-10.607,10.607-10.607
		h178.634c5.858,0,10.606,4.75,10.606,10.607c0,5.858-4.748,10.607-10.606,10.607H23.944v190.92h235.572V102.657
		c0-5.858,4.749-10.607,10.607-10.607c5.856,0,10.605,4.749,10.605,10.607v145.14C280.729,253.654,275.98,258.404,270.124,258.404
		L270.124,258.404z M270.124,258.404"/>
	<path fill="#272636" d="M141.736,152.338c-3.054,0-6.086-1.313-8.182-3.853c-3.73-4.517-3.095-11.202,1.422-14.932L263.368,27.486
		c4.515-3.73,11.201-3.094,14.932,1.422c3.732,4.516,3.095,11.202-1.42,14.933L148.485,149.908
		C146.508,151.542,144.115,152.338,141.736,152.338L141.736,152.338z M141.736,152.338"/>
</g>
</svg>
