<?xml version="1.0" encoding="utf-8"?>
<!-- Generator: Adobe Illustrator 16.0.0, SVG Export Plug-In . SVG Version: 6.00 Build 0)  -->
<!DOCTYPE svg PUBLIC "-//W3C//DTD SVG 1.1//EN" "http://www.w3.org/Graphics/SVG/1.1/DTD/svg11.dtd">
<svg version="1.1" id="图层_1" xmlns="http://www.w3.org/2000/svg" xmlns:xlink="http://www.w3.org/1999/xlink" x="0px" y="0px"
	 width="283.46px" height="283.46px" viewBox="0 0 283.46 283.46" enable-background="new 0 0 283.46 283.46" xml:space="preserve">
<g>
	<path fill="#272636" d="M141.735,2.73C65.094,2.73,2.731,65.084,2.731,141.727c0,29.099,9.012,57.054,26.067,80.836l1.336,1.866
		l11.667-11.675l-0.937-1.344c-14.246-20.575-21.772-44.678-21.772-69.684c0-67.617,55.027-122.634,122.643-122.634
		c67.615,0,122.639,55.017,122.639,122.634c0,67.615-55.024,122.644-122.639,122.644c-23.116,0-45.729-6.578-65.405-19.016
		l-1.316-0.843l-11.859,11.845l1.987,1.324c22.794,15.078,49.278,23.049,76.583,23.049c76.642,0,139.004-62.352,139.004-139.005
		C280.729,65.076,218.376,2.73,141.735,2.73L141.735,2.73L141.735,2.73z M68.407,164.162l0.634,1.907
		c10.478,31.326,39.694,52.369,72.694,52.369c32.996,0,62.216-21.054,72.704-52.389l0.634-1.901l-1.92-0.579
		c-2.779-0.85-6.988-2.04-12.155-3.323l-1.726-0.433l-0.583,1.689c-8.42,24.267-31.31,40.571-56.964,40.571
		c-25.61,0-48.507-16.279-56.952-40.504l-0.588-1.689l-1.721,0.433c-5.161,1.276-9.37,2.443-12.146,3.272L68.407,164.162
		L68.407,164.162L68.407,164.162z M183.387,116.805c0-3.772,1.557-7.523,4.223-10.193c2.67-2.667,6.419-4.217,10.193-4.217
		c3.775,0,7.524,1.55,10.194,4.217c2.666,2.669,4.22,6.42,4.22,10.193c0,3.775-1.554,7.523-4.22,10.193
		c-2.668,2.669-6.419,4.224-10.194,4.224c-3.774,0-7.523-1.555-10.193-4.224C184.944,124.328,183.387,120.581,183.387,116.805
		L183.387,116.805L183.387,116.805z M71.254,116.805c0-3.772,1.553-7.523,4.22-10.193c2.669-2.667,6.42-4.217,10.195-4.217
		c3.772,0,7.523,1.55,10.188,4.217c2.67,2.669,4.227,6.42,4.227,10.193c0,3.775-1.557,7.523-4.227,10.193
		c-2.665,2.669-6.416,4.224-10.188,4.224c-3.775,0-7.526-1.555-10.195-4.224C72.807,124.328,71.254,120.581,71.254,116.805
		L71.254,116.805L71.254,116.805z M71.254,116.805"/>
</g>
</svg>
