<?xml version="1.0" encoding="utf-8"?>
<!-- Generator: Adobe Illustrator 16.0.0, SVG Export Plug-In . SVG Version: 6.00 Build 0)  -->
<!DOCTYPE svg PUBLIC "-//W3C//DTD SVG 1.1//EN" "http://www.w3.org/Graphics/SVG/1.1/DTD/svg11.dtd">
<svg version="1.1" id="图层_1" xmlns="http://www.w3.org/2000/svg" xmlns:xlink="http://www.w3.org/1999/xlink" x="0px" y="0px"
	 width="283.46px" height="283.46px" viewBox="0 0 283.46 283.46" enable-background="new 0 0 283.46 283.46" xml:space="preserve">
<g>
	<path fill="#272636" d="M118.844,196.918l-93.347-61.517v39.666l93.347,61.505V196.918z M118.844,196.918"/>
	<path fill="#272636" d="M280.455,100.235c0.064-1.374-0.396-2.611-1.438-3.637c-0.347-0.939-0.894-1.821-1.806-2.434L143.819,6.286
		c-0.888-0.604-1.944-0.905-3.049-0.938L65.006,3.954c-2.408-0.044-4.558,1.361-5.309,3.483c-0.746,2.109,0.066,4.431,2.024,5.713
		l34.615,22.801L79.81,47.055c-0.595,0.145-1.184,0.39-1.724,0.737L5.337,96.519c-1.425,0.961-2.253,2.511-2.241,4.163v0.067
		l-0.367,0.167v85.633l2.318,4.131l133.385,87.877l0.223-0.099c0.24,0.166,0.449,0.344,0.719,0.489
		c0.799,0.37,1.659,0.56,2.521,0.56c1.112,0,2.204-0.312,3.148-0.95l28.081-18.5c-1.676-3.066-3.099-6.289-4.242-9.643
		l-21.528,14.181v-73.18l122.438-80.679v73.203l-0.875,0.576c2.608,2.356,5.015,4.931,7.19,7.695l2.307-1.52
		c1.452-0.947,2.313-2.5,2.313-4.15v-85.625C280.73,100.66,280.491,100.482,280.455,100.235L280.455,100.235z M136.116,264.63
		L13.648,183.939v-73.192l122.467,80.668V264.63L136.116,264.63z M141.899,182.31L17.912,100.603l59.509-39.875l123.984,81.706
		L141.899,182.31L141.899,182.31z M200.06,91.875L82.493,14.399l56.373,1.061l117.567,77.453L200.06,91.875L200.06,91.875z
		 M200.06,91.875"/>
	<path fill="#272636" d="M223.871,175.995c-27.975,0-50.653,22.679-50.653,50.654c0,27.974,22.679,50.652,50.653,50.652
		c27.974,0,50.652-22.679,50.652-50.652C274.523,198.673,251.844,175.995,223.871,175.995L223.871,175.995z M260.397,234.91h-28.298
		h-16.458v-16.459v-28.299h15.015v29.742h29.741V234.91L260.397,234.91z M260.397,234.91"/>
</g>
</svg>
