<?xml version="1.0" encoding="utf-8"?>
<!-- Generator: Adobe Illustrator 16.0.0, SVG Export Plug-In . SVG Version: 6.00 Build 0)  -->
<!DOCTYPE svg PUBLIC "-//W3C//DTD SVG 1.1//EN" "http://www.w3.org/Graphics/SVG/1.1/DTD/svg11.dtd">
<svg version="1.1" id="图层_1" xmlns="http://www.w3.org/2000/svg" xmlns:xlink="http://www.w3.org/1999/xlink" x="0px" y="0px"
	 width="283.46px" height="283.46px" viewBox="0 0 283.46 283.46" enable-background="new 0 0 283.46 283.46" xml:space="preserve">
<g>
	<path fill="#71A3A7" d="M41.311,103.678C20.511,103.473,2.935,119.995,2.73,141.79c0.264,21.18,16.961,38.053,38.258,37.994
		c21.268-0.029,37.907-16.785,38.083-37.672C79.246,120.083,61.552,103.854,41.311,103.678z M60.293,152.306
		c-2.754,7.06-7.294,12.479-14.384,15.584c-2.373,1.025-4.599,1.143-7.001,0.088c-7.792-3.368-12.421-9.462-15.057-17.313
		c-1.67-5.01-2.314-10.165-2.314-15.438c0-2.753,0-5.537,0-8.29c0-2.49,1.289-3.75,3.75-3.75c1.64,0,3.281-0.029,4.921-0.176
		c3.632-0.352,6.503-2.051,9.022-4.541c2.402-2.314,3.662-2.432,6.064-0.117c3.808,3.662,8.319,5.097,13.534,4.863
		c3.31-0.146,4.335,0.967,4.335,4.277c0,1.699,0,3.398,0,5.8C63.398,139.358,62.783,145.978,60.293,152.306z"/>
	<path fill="#71A3A7" d="M58.77,126.557c-5.888,0.146-11.22-1.377-15.526-5.654c-0.674-0.674-1.143-0.674-1.875,0.029
		c-2.49,2.344-5.244,4.335-8.7,5.009c-2.139,0.439-4.335,0.645-6.503,0.586c-1.201-0.029-1.464,0.381-1.435,1.494
		c0.088,2.812-0.029,5.625,0.059,8.437c0.176,5.097,0.879,10.135,2.812,14.911c2.461,6.063,6.328,10.839,12.479,13.504
		c1.406,0.615,2.753,0.674,4.189,0.088c5.976-2.49,9.931-6.972,12.479-12.771c2.754-6.27,3.311-12.889,3.223-19.627
		c0-1.611-0.059-3.193,0.029-4.804C60.059,126.791,59.707,126.557,58.77,126.557z M54.141,137.513
		c-4.394,4.511-8.789,9.051-13.211,13.534c-1.143,1.172-2.08,1.143-3.252-0.029c-2.431-2.461-4.804-4.921-7.206-7.411
		c-0.967-1.025-0.967-2.168-0.059-2.959c0.996-0.879,1.962-0.703,2.841,0.205c1.67,1.699,3.369,3.368,4.951,5.126
		c0.82,0.938,1.318,0.879,2.168,0c3.427-3.632,6.942-7.176,10.429-10.75c0.41-0.41,0.82-0.85,1.289-1.142
		c1.289-0.791,2.871,0.117,2.93,1.64C55.049,136.487,54.61,137.015,54.141,137.513z"/>
	<rect x="132.297" y="149.787" fill="#71A3A7" width="10.692" height="2.549"/>
	<rect x="132.297" y="136.106" fill="#71A3A7" width="10.692" height="2.49"/>
	<path fill="#71A3A7" d="M165.81,139.3h7.821v-11.776h-7.821V139.3z M170.233,128.666l0.264,0.585
		c0.879,1.963,1.846,4.336,2.842,7.089l0.234,0.645l-4.365,1.611l-0.205-0.703c-0.762-2.49-1.67-4.833-2.695-6.943l-0.321-0.674
		L170.233,128.666z"/>
	<path fill="#71A3A7" d="M127.376,131.478v-2.051c-0.469,0.732-0.967,1.406-1.436,2.051H127.376z"/>
	<rect x="132.297" y="142.991" fill="#71A3A7" width="10.692" height="2.49"/>
	<path fill="#71A3A7" d="M110.62,160.303c1.669,0.176,2.958,0.264,3.779,0.264c1.025,0,2.226-0.322,2.343-2.725
		c0.293-4.481,0.498-10.37,0.674-17.459h-3.837C113.52,148.761,112.524,155.44,110.62,160.303z"/>
	<path fill="#71A3A7" d="M277.214,107.545c-69.134,0-138.296,0-207.43,0c-0.41,0-0.879-0.176-1.23,0.205
		c0.146,0.498,0.586,0.762,0.938,1.084c3.427,3.339,6.416,7.001,8.964,11.044c3.896,6.151,6.562,12.743,7.119,20.066
		c0.673,8.993-2.021,17.02-7.119,24.344c-2.842,4.071-6.269,7.616-10.253,11.278c0.996,0,1.553,0,2.139,0
		c68.724,0,137.418,0,206.142,0c0.38,0,0.791,0,1.171,0c2.11-0.059,3.076-1.055,3.076-3.164c0-20.477,0-40.953,0-61.43
		C280.701,108.57,279.675,107.545,277.214,107.545z M180.867,119.907h23.377v30.612h-4.805v-25.632h-13.768v26.306h-4.805V119.907z
		 M150.225,167.275l-0.527-0.438c-3.397-2.784-6.708-5.244-9.813-7.354l-0.645-0.439l1.875-2.139h-7.089l2.138,2.227l-0.615,0.469
		c-3.926,3.047-7.558,5.508-10.78,7.353l-0.586,0.322l-0.352-0.556c-0.615-0.997-1.377-1.993-2.256-2.93l-0.644-0.674l0.849-0.41
		c2.959-1.406,6.035-3.369,9.169-5.771h-8.729v-4.599h5.185v-16.229h-4.804v-4.599h2.227c-0.674-0.879-1.348-1.641-2.021-2.314v0.82
		h-9.022c-0.029,2.021-0.059,3.926-0.088,5.771h8.642l-0.029,0.703c-0.205,8.378-0.439,15.731-0.732,21.912
		c-0.322,5.801-3.222,7.03-5.624,7.06c-1.553,0.029-3.223,0.029-4.921-0.059l-0.557-0.028l-0.088-0.558
		c-0.146-0.82-0.322-1.728-0.527-2.753c-0.762,1.582-1.641,2.93-2.637,4.043l-0.557,0.645l-0.498-0.674
		c-0.644-0.85-1.435-1.816-2.402-2.871l-0.41-0.439l0.381-0.469c2.988-3.721,4.628-10.106,4.892-19.041
		c0.088-2.432,0.176-6.914,0.293-13.271h-4.599v-4.716h8.173c-0.879-2.05-1.787-3.955-2.724-5.683l-0.322-0.615l4.189-2.051
		l0.322,0.557c1.172,1.962,2.402,4.248,3.632,6.796l0.293,0.644l-0.85,0.41h5.771v2.197c2.08-2.666,3.837-6.005,5.273-9.96
		l0.205-0.586l4.892,1.289l-0.322,0.732c-0.469,1.084-0.938,2.109-1.406,3.105h21.854v4.687h-24.255
		c-0.176,0.293-0.352,0.586-0.498,0.879h3.75v3.867h10.692v-3.925h4.893v3.925h4.687v4.599h-4.687v16.229h5.624v4.569h-8.964
		c2.87,1.904,5.683,3.867,8.437,5.889l0.586,0.438L150.225,167.275z M207.964,154.181c-0.323,3.838-0.646,6.298-0.938,7.528
		c-0.44,1.875-1.876,4.102-6.299,4.102h-2.871c-2.606,0-5.712-1.144-5.712-6.504v-5.771c-2.285,5.272-6.356,9.784-12.157,13.445
		l-0.615,0.381l-0.352-0.614c-0.469-0.791-0.996-1.553-1.582-2.285c-0.586,0.82-1.406,1.377-2.519,1.641
		c-1.348,0.321-3.486,0.351-6.474,0.116l-0.558-0.059l-0.059-0.557c-0.116-1.054-0.321-2.167-0.586-3.31l-0.205-0.967l0.967,0.117
		c1.787,0.234,3.223,0.322,4.277,0.322c0.996,0,1.377-0.381,1.377-1.377v-4.862l-4.16,1.552l-0.205-0.702
		c-0.849-2.871-1.845-5.713-2.959-8.496l-0.263-0.645l4.218-1.611l0.264,0.616c1.025,2.46,2.051,5.36,3.105,8.612l0.029,0.088
		v-10.956h-7.821v3.75c0.029,7.821-1.348,14.09-4.102,18.688l-0.498,0.85l-0.615-0.762c-0.762-0.938-1.611-1.816-2.606-2.636
		l-0.47-0.381l0.322-0.498c2.139-3.34,3.223-8.642,3.252-15.761v-3.222h-2.93v-4.688h2.93v-16.463h5.185
		c0.382-1.611,0.732-3.311,1.055-5.068l0.118-0.674l5.038,0.908l-0.264,0.761c-0.469,1.348-0.908,2.695-1.377,4.072h7.47v38.17
		c0,0.234,0,0.439-0.029,0.645c4.336-2.871,7.354-6.034,8.994-9.462c1.845-3.633,2.753-8.847,2.753-15.555v-9.843h4.774v8.847
		c0,3.925-0.233,7.412-0.702,10.37h2.666v12.802c0,1.904,0.937,2.139,1.845,2.139h1.904c1.201,0,1.816-0.586,2.021-1.934
		c0.117-1.055,0.264-3.222,0.439-6.503l0.059-0.996l0.908,0.41c1.23,0.557,2.402,1.055,3.544,1.494l0.469,0.176L207.964,154.181z
		 M261.835,127.934h-0.029h-19.568v6.093h18.338v4.892h-18.338v5.566h14.53v22.352h-5.273v-3.164h-20.828v3.164h-5.272v-22.352
		h11.482v-16.551h-14.764v15.702c-0.322,10.282-2.607,18.133-6.738,23.347l-0.556,0.703l-0.527-0.732
		c-0.732-0.995-1.641-2.08-2.754-3.28l-0.381-0.411l0.352-0.468c3.398-4.512,5.156-11.278,5.186-20.067v-19.802h19.948
		c-0.615-1.113-1.317-2.227-2.021-3.34l-0.439-0.644l4.716-2.314l0.322,0.498c1.26,1.845,2.432,3.808,3.545,5.8h19.07V127.934z"/>
	<rect x="230.637" y="149.406" fill="#71A3A7" width="20.828" height="9.491"/>
</g>
</svg>
