<?xml version="1.0" encoding="utf-8"?>
<!-- Generator: Adobe Illustrator 16.0.0, SVG Export Plug-In . SVG Version: 6.00 Build 0)  -->
<!DOCTYPE svg PUBLIC "-//W3C//DTD SVG 1.1//EN" "http://www.w3.org/Graphics/SVG/1.1/DTD/svg11.dtd">
<svg version="1.1" id="图层_1" xmlns="http://www.w3.org/2000/svg" xmlns:xlink="http://www.w3.org/1999/xlink" x="0px" y="0px"
	 width="283.46px" height="283.46px" viewBox="0 0 283.46 283.46" enable-background="new 0 0 283.46 283.46" xml:space="preserve">
<g>
	<path fill="#71A3A7" d="M41.315,103.664c-20.797-0.207-38.378,16.293-38.585,38.125c0.276,21.188,16.983,38.033,38.24,38.011
		c21.28-0.046,37.918-16.799,38.08-37.666C79.257,120.072,61.584,103.847,41.315,103.664z M60.32,152.292
		c-2.758,7.078-7.285,12.479-14.363,15.604c-2.367,1.034-4.596,1.126-6.986,0.092c-7.791-3.378-12.433-9.468-15.053-17.305
		c-1.677-5.01-2.321-10.18-2.321-15.443c0-2.758,0-5.539,0-8.296c0-2.505,1.287-3.746,3.746-3.769c1.655,0,3.286-0.023,4.941-0.184
		c3.608-0.345,6.504-2.068,9.032-4.527c2.39-2.321,3.654-2.436,6.067-0.115c3.815,3.654,8.319,5.102,13.513,4.872
		c3.31-0.161,4.343,0.965,4.343,4.297c0,1.701,0,3.401,0,5.792C63.4,139.33,62.779,145.949,60.32,152.292z"/>
	<path fill="#71A3A7" d="M58.781,126.553c-5.906,0.138-11.215-1.356-15.512-5.654c-0.667-0.666-1.149-0.666-1.884,0.023
		c-2.482,2.344-5.24,4.343-8.687,5.01c-2.137,0.437-4.32,0.643-6.503,0.597c-1.195-0.023-1.448,0.391-1.425,1.494
		c0.069,2.804-0.046,5.63,0.069,8.434c0.184,5.102,0.873,10.135,2.827,14.914c2.459,6.067,6.343,10.824,12.479,13.513
		c1.425,0.621,2.758,0.689,4.206,0.093c5.975-2.482,9.928-6.964,12.479-12.778c2.735-6.25,3.31-12.892,3.217-19.625
		c0-1.609-0.046-3.195,0.023-4.803C60.067,126.805,59.723,126.529,58.781,126.553z M54.162,137.491
		c-4.39,4.527-8.802,9.032-13.214,13.536c-1.149,1.172-2.091,1.149-3.263-0.022c-2.413-2.459-4.826-4.918-7.193-7.423
		c-0.965-1.012-0.965-2.161-0.069-2.965c0.988-0.873,1.953-0.689,2.827,0.207c1.654,1.7,3.378,3.355,4.941,5.125
		c0.827,0.941,1.333,0.896,2.16,0c3.447-3.632,6.94-7.17,10.433-10.755c0.414-0.414,0.805-0.851,1.31-1.149
		c1.31-0.782,2.873,0.115,2.918,1.631C55.058,136.48,54.621,137.009,54.162,137.491z"/>
	<rect x="226.61" y="148.131" fill="#71A3A7" width="20.821" height="9.469"/>
	<path fill="#71A3A7" d="M277.237,106.881c-69.149,0-138.276,0-207.425,0c-0.414,0-0.873-0.184-1.218,0.207
		c0.161,0.506,0.598,0.759,0.942,1.081c3.424,3.332,6.435,7.009,8.986,11.031c3.884,6.159,6.572,12.754,7.124,20.062
		c0.689,8.986-2.022,17.006-7.124,24.336c-2.85,4.091-6.274,7.63-10.272,11.284c0.988,0,1.563,0,2.114,0
		c68.712,0,137.403,0,206.116,0c0.391,0,0.781,0,1.172,0c2.114-0.068,3.079-1.058,3.079-3.172c0-20.476,0-40.952,0-61.427
		C280.708,107.892,279.673,106.881,277.237,106.881z M155.714,129.977h20.338v-3.815h-17.396v-4.895h17.396v-4.94h5.239v4.94h18.04
		v4.895h-18.04v3.815h20.086v4.642l-4.159,7.354l-0.575-0.276c-1.08-0.505-2.229-0.988-3.4-1.402l-0.782-0.275l2.941-5.171h-30.68
		c4.114,1.195,8.136,2.459,11.95,3.792l0.667,0.23l-1.655,4.435l-0.644-0.229c-3.906-1.448-8.112-2.85-12.524-4.137l-0.735-0.207
		l1.609-3.861h-7.676V129.977z M149.624,138.158h-32.081l-1.838,4.643h28.174v4.826l-12.432,10.64
		c1.884,0.896,3.815,1.839,5.791,2.804l0.689,0.345l-3.148,4.895l-0.551-0.299c-8.135-4.274-16.202-8.25-23.969-11.812l-0.712-0.322
		l2.781-4.435l0.552,0.252c4.182,1.861,8.755,3.976,13.582,6.251l9.307-8.065h-26.198l0.046-4.551l2-5.125h-11.33v-5.102h13.352
		l2.091-5.332h-12.456v-5.125h14.478l2.574-6.503h5.929l-2.597,6.503h22.82v5.102h-24.82l-2.091,5.332h30.059V138.158z
		 M200.32,166.034l-0.574-0.276c-6.066-2.964-12.915-5.997-20.338-9.054c-4.344,3.998-11.95,7.055-22.613,9.054l-0.552,0.093
		l-0.207-0.506c-0.482-1.104-1.126-2.298-1.953-3.563l-0.574-0.873l1.011-0.184c10.503-1.885,17.512-4.436,20.936-7.584h-20.568
		v-4.895h15.903c-3.976-1.356-7.722-2.551-11.169-3.539l-0.712-0.207l1.677-4.32l0.598,0.184c4.436,1.31,8.756,2.712,12.847,4.159
		l0.667,0.23l-1.379,3.493h5.285c1.149-3.034,1.815-7.147,1.931-12.226l0.023-0.667h5.193l-0.023,0.712
		c-0.161,4.803-0.712,8.894-1.654,12.203h18.638v4.896h-19.626c5.975,2.206,12.479,4.826,19.351,7.768l0.712,0.299L200.32,166.034z
		 M257.795,126.667h-0.046h-19.557v6.09h18.338v4.895h-18.338v5.561h14.523v22.338h-5.285v-3.148H226.61v3.171h-5.285v-22.337h11.49
		v-16.569h-14.754v15.695c-0.321,10.296-2.597,18.155-6.756,23.349l-0.552,0.689l-0.528-0.712c-0.735-0.988-1.654-2.092-2.734-3.264
		l-0.392-0.413l0.345-0.46c3.401-4.527,5.148-11.261,5.194-20.062v-19.81h19.947c-0.621-1.103-1.311-2.229-2.022-3.333l-0.437-0.644
		l4.711-2.321l0.345,0.505c1.241,1.862,2.436,3.815,3.539,5.814h19.074V126.667z"/>
</g>
</svg>
