<?xml version="1.0" encoding="utf-8"?>
<!-- Generator: Adobe Illustrator 16.0.0, SVG Export Plug-In . SVG Version: 6.00 Build 0)  -->
<!DOCTYPE svg PUBLIC "-//W3C//DTD SVG 1.1//EN" "http://www.w3.org/Graphics/SVG/1.1/DTD/svg11.dtd">
<svg version="1.1" id="图层_1" xmlns="http://www.w3.org/2000/svg" xmlns:xlink="http://www.w3.org/1999/xlink" x="0px" y="0px"
	 width="283.46px" height="283.46px" viewBox="0 0 283.46 283.46" enable-background="new 0 0 283.46 283.46" xml:space="preserve">
<g>
	<path fill="#272636" d="M242.46,280.73H41.011c-2.019,0-3.943-0.844-5.311-2.335c-1.363-1.484-2.047-3.472-1.867-5.49
		l16.716-194.54c0.317-3.727,3.43-6.585,7.168-6.585H228.72c3.782,0,6.924,2.924,7.184,6.7l13.732,194.542
		c0.145,1.987-0.548,3.956-1.916,5.418C246.351,279.901,244.456,280.73,242.46,280.73L242.46,280.73z M48.856,266.319h185.865
		L222.004,86.188H64.333L48.856,266.319L48.856,266.319z M48.856,266.319"/>
	<path fill="#272636" d="M201.584,58.608h-14.409c0-34.016-31.979-41.466-44.299-41.466c-12.319,0-44.298,7.45-44.298,41.466H84.17
		c0-40.998,35.109-55.877,58.706-55.877C166.475,2.73,201.584,17.61,201.584,58.608L201.584,58.608z M201.584,58.608"/>
	<path fill="#272636" d="M76.113,106.796c0-8.639,7.004-15.643,15.643-15.643c8.64,0,15.643,7.003,15.643,15.643
		s-7.003,15.643-15.643,15.643C83.117,122.439,76.113,115.435,76.113,106.796"/>
	<path fill="#272636" d="M176.835,106.796c0-8.639,7.011-15.643,15.641-15.643c8.64,0,15.643,7.003,15.643,15.643
		s-7.003,15.643-15.643,15.643C183.839,122.439,176.835,115.435,176.835,106.796"/>
</g>
</svg>
