<?xml version="1.0" encoding="utf-8"?>
<!-- Generator: Adobe Illustrator 16.0.0, SVG Export Plug-In . SVG Version: 6.00 Build 0)  -->
<!DOCTYPE svg PUBLIC "-//W3C//DTD SVG 1.1//EN" "http://www.w3.org/Graphics/SVG/1.1/DTD/svg11.dtd">
<svg version="1.1" id="图层_1" xmlns="http://www.w3.org/2000/svg" xmlns:xlink="http://www.w3.org/1999/xlink" x="0px" y="0px"
	 width="283.46px" height="283.46px" viewBox="0 0 283.46 283.46" enable-background="new 0 0 283.46 283.46" xml:space="preserve">
<g>
	<path fill="#272636" d="M240.984,228.206c0,10.471-2.436,18.992-7.729,24.287c-7.36,7.359-14.121,10.932-21.086,10.932H77.696
		c-7.845,0-17.766-4.41-24.289-10.932c-6.521-6.522-10.931-16.443-10.931-24.287V122.549H29.669v105.656
		c0,11.365,5.838,24.497,14.683,33.343c8.847,8.847,21.978,14.683,33.344,14.683h134.472c10.873,0,20.597-5.138,30.142-14.683
		c8.152-8.152,11.48-19.802,11.48-33.343V122.549h-12.807V228.206L240.984,228.206z M106.512,263.424l6.403,6.403v-80.043
		c0-17.595,14.422-32.017,32.016-32.017c17.596,0,32.019,14.422,32.019,32.017v80.043l6.403-6.403H106.512L106.512,263.424z
		 M189.756,276.231v-6.403v-80.043c0-24.668-20.157-44.824-44.825-44.824c-24.667,0-44.823,20.156-44.823,44.824v80.043v6.403h6.404
		h76.841H189.756L189.756,276.231z M132.195,23.912c2.273-2.273,5.849-3.875,8.907-3.875c3.558,0,6.745,1.318,8.528,3.459
		L271.698,144.96l9.032-9.08L159.066,14.856c-3.964-4.801-10.797-7.627-17.964-7.627c-6.596,0-13.375,3.04-17.974,7.639
		L2.73,135.904l9.081,9.032L132.195,23.912L132.195,23.912z M132.195,23.912"/>
</g>
</svg>
