<?xml version="1.0" encoding="utf-8"?>
<!-- Generator: Adobe Illustrator 16.0.0, SVG Export Plug-In . SVG Version: 6.00 Build 0)  -->
<!DOCTYPE svg PUBLIC "-//W3C//DTD SVG 1.1//EN" "http://www.w3.org/Graphics/SVG/1.1/DTD/svg11.dtd">
<svg version="1.1" id="图层_1" xmlns="http://www.w3.org/2000/svg" xmlns:xlink="http://www.w3.org/1999/xlink" x="0px" y="0px"
	 width="283.46px" height="283.46px" viewBox="0 0 283.46 283.46" enable-background="new 0 0 283.46 283.46" xml:space="preserve">
<g>
	<defs>
		<rect id="SVGID_1_" x="2.73" y="47.409" width="278" height="188.643"/>
	</defs>
	<clipPath id="SVGID_2_">
		<use xlink:href="#SVGID_1_"  overflow="visible"/>
	</clipPath>
	<path clip-path="url(#SVGID_2_)" fill="#272636" d="M136.766,186.41H37.48c-2.744,0-4.964,2.219-4.964,4.963
		s2.22,4.965,4.964,4.965h99.285c2.745,0,4.964-2.221,4.964-4.965S139.509,186.41,136.766,186.41 M136.766,156.623H37.48
		c-2.744,0-4.964,2.22-4.964,4.964c0,2.745,2.22,4.965,4.964,4.965h99.285c2.745,0,4.964-2.22,4.964-4.965
		C141.729,158.842,139.509,156.623,136.766,156.623 M37.48,97.051h69.499c2.745,0,4.965-2.221,4.965-4.965
		c0-2.743-2.22-4.965-4.965-4.965H37.48c-2.744,0-4.964,2.222-4.964,4.965C32.516,94.831,34.736,97.051,37.48,97.051
		 M136.766,126.836H37.48c-2.744,0-4.964,2.222-4.964,4.965c0,2.745,2.22,4.964,4.964,4.964h99.285c2.745,0,4.964-2.22,4.964-4.964
		C141.729,129.058,139.509,126.836,136.766,126.836 M260.872,47.409H22.587C11.621,47.409,2.73,56.3,2.73,67.266v148.928
		c0,10.967,8.891,19.857,19.857,19.857h238.285c10.968,0,19.858-8.891,19.858-19.856V67.266
		C280.73,56.3,271.839,47.409,260.872,47.409 M270.801,216.195c0,5.483-4.44,9.928-9.93,9.928H22.587
		c-5.488,0-9.928-4.444-9.928-9.928V67.266c0-5.483,4.44-9.928,9.928-9.928h238.285c5.489,0,9.93,4.445,9.93,9.928V216.195z
		 M228.884,130.971c7.357-5.424,12.131-14.15,12.131-23.991c0-16.448-13.331-29.785-29.785-29.785
		c-16.455,0-29.786,13.337-29.786,29.785c0,9.841,4.773,18.567,12.131,23.991c-13.073,6.5-22.06,19.991-22.06,35.58v29.786h79.429
		v-29.786C250.944,150.962,241.958,137.472,228.884,130.971 M191.373,106.98c0-10.965,8.89-19.856,19.857-19.856
		c10.965,0,19.856,8.891,19.856,19.856c0,10.966-8.892,19.856-19.856,19.856C200.262,126.836,191.373,117.947,191.373,106.98
		 M241.015,186.41h-59.571v-19.858c0-16.448,13.331-29.786,29.786-29.786c16.454,0,29.785,13.337,29.785,29.786V186.41z"/>
</g>
</svg>
