<?xml version="1.0" encoding="utf-8"?>
<!-- Generator: Adobe Illustrator 16.0.0, SVG Export Plug-In . SVG Version: 6.00 Build 0)  -->
<!DOCTYPE svg PUBLIC "-//W3C//DTD SVG 1.1//EN" "http://www.w3.org/Graphics/SVG/1.1/DTD/svg11.dtd">
<svg version="1.1" id="图层_1" xmlns="http://www.w3.org/2000/svg" xmlns:xlink="http://www.w3.org/1999/xlink" x="0px" y="0px"
	 width="283.46px" height="283.46px" viewBox="0 0 283.46 283.46" enable-background="new 0 0 283.46 283.46" xml:space="preserve">
<g>
	<path fill="#272636" d="M20.268,251.46c-9.67,0-17.538-7.862-17.538-17.525V49.526C2.73,39.863,10.597,32,20.268,32h164.636
		c9.67,0,17.537,7.863,17.537,17.526V93.41v2.31c-0.018,4.203-3.442,7.616-7.651,7.616c-4.207,0-7.632-3.414-7.649-7.616
		c0.001-0.03,0.001-2.31,0.001-2.31h-0.014V62.701c0-5.466-0.534-9.641-3.144-12.251c-2.608-2.612-6.78-3.146-12.242-3.146h-138.3
		c-5.467,0-9.642,0.534-12.252,3.145c-2.61,2.611-3.146,6.785-3.146,12.252v158.061c0,5.464,0.536,9.641,3.146,12.251
		c2.611,2.61,6.786,3.146,12.252,3.146h138.299c5.463,0,9.635-0.535,12.243-3.147c2.609-2.61,3.144-6.785,3.144-12.249v-12.844
		l0.002-0.321c0.016-4.206,3.45-7.628,7.655-7.628c4.204,0,7.639,3.422,7.655,7.628l0.001,0.379v25.959
		c0,9.663-7.867,17.525-17.537,17.525H20.268L20.268,251.46z M193.925,179.085c-1.993,0-3.856-0.746-5.283-2.104l-0.152-0.17
		l-46.022-46.034c-1.447-1.441-2.242-3.357-2.242-5.398c0.001-2.04,0.795-3.955,2.239-5.395c1.442-1.442,3.357-2.236,5.396-2.236
		c2.04,0,3.959,0.795,5.404,2.236l40.637,40.636l73.764-73.763c1.445-1.445,3.369-2.242,5.414-2.242
		c2.047,0,3.969,0.797,5.414,2.242c2.983,2.984,2.983,7.841,0,10.827l-79.138,79.127c-0.056,0.06-0.107,0.118-0.151,0.176
		c-1.428,1.354-3.291,2.099-5.269,2.099H193.925L193.925,179.085z M49.896,172.441c-4.216,0-7.646-3.435-7.646-7.656
		s3.43-7.656,7.646-7.656h59.282c4.215,0,7.646,3.435,7.646,7.656s-3.43,7.656-7.646,7.656H49.896L49.896,172.441z M49.896,126.335
		c-4.216,0-7.646-3.436-7.646-7.657c0-4.223,3.43-7.658,7.646-7.658h59.282c4.215,0,7.646,3.436,7.646,7.658
		c0,4.221-3.43,7.657-7.646,7.657H49.896L49.896,126.335z M49.896,126.335"/>
</g>
</svg>
