<?xml version="1.0" encoding="utf-8"?>
<!-- Generator: Adobe Illustrator 16.0.0, SVG Export Plug-In . SVG Version: 6.00 Build 0)  -->
<!DOCTYPE svg PUBLIC "-//W3C//DTD SVG 1.1//EN" "http://www.w3.org/Graphics/SVG/1.1/DTD/svg11.dtd">
<svg version="1.1" id="图层_1" xmlns="http://www.w3.org/2000/svg" xmlns:xlink="http://www.w3.org/1999/xlink" x="0px" y="0px"
	 width="283.46px" height="283.46px" viewBox="0 0 283.46 283.46" enable-background="new 0 0 283.46 283.46" xml:space="preserve">
<g>
	<defs>
		<rect id="SVGID_1_" x="2.786" y="2.73" width="277.888" height="278"/>
	</defs>
	<clipPath id="SVGID_2_">
		<use xlink:href="#SVGID_1_"  overflow="visible"/>
	</clipPath>
	<path clip-path="url(#SVGID_2_)" fill="#272636" d="M208.52,170.58c3.766,2.997,9.795,1.497,12.809-2.997
		c1.507-2.249,1.507-4.495,1.507-6.746c-0.753-2.246-2.262-4.494-3.766-5.994c-5.276-2.996-10.55-6.743-16.581-8.992
		c7.535-7.492,13.564-15.735,17.332-25.479c4.522-10.488,6.784-21.727,6.784-33.718c0-46.458-37.681-83.923-84.406-83.923
		c-46.722,0-83.647,38.217-83.647,84.675c0,22.479,9.045,43.459,24.867,59.195c-48.983,22.48-80.633,71.188-80.633,125.137
		c0,5.245,3.766,8.993,9.042,8.993c5.276,0,9.043-3.748,9.043-8.993c0-50.203,31.651-95.162,78.375-112.398
		c26.375,15.735,60.288,14.986,85.908,0C193.446,162.335,201.734,166.082,208.52,170.58 M207.765,87.405
		c0,8.992-1.507,17.983-5.276,26.227c-3.015,7.493-8.288,14.238-14.317,20.229c-12.058,11.988-28.637,18.734-45.973,18.734
		c-36.17,0-65.56-29.224-65.56-65.191c0-35.966,29.39-65.193,65.56-65.193C178.373,22.212,207.765,51.439,207.765,87.405
		 M278.601,229.027l-34.664-34.47c-3.768-3.748-10.552-3.748-14.319,0c-1.507,1.5-3.013,4.494-3.013,6.743
		c0,2.997,0.753,5.246,3.013,6.745l18.089,17.984h-62.55c-5.275,0-9.797,4.494-9.797,9.743c0,5.242,4.521,9.736,9.797,9.736h62.55
		l-18.089,17.986c-1.507,1.498-3.013,4.496-3.013,6.743c0,2.995,0.753,5.246,3.013,6.743c1.508,2.249,4.522,2.999,6.784,2.999
		c2.259,0,5.275-0.75,6.782-2.999l34.665-34.467c0.752-0.751,1.507-2.249,2.26-2.999c0.753-2.247,0.753-5.246,0-7.491
		C280.109,231.274,279.356,229.774,278.601,229.027"/>
</g>
</svg>
