<?xml version="1.0" encoding="utf-8"?>
<!-- Generator: Adobe Illustrator 16.0.0, SVG Export Plug-In . SVG Version: 6.00 Build 0)  -->
<!DOCTYPE svg PUBLIC "-//W3C//DTD SVG 1.1//EN" "http://www.w3.org/Graphics/SVG/1.1/DTD/svg11.dtd">
<svg version="1.1" id="图层_1" xmlns="http://www.w3.org/2000/svg" xmlns:xlink="http://www.w3.org/1999/xlink" x="0px" y="0px"
	 width="283.46px" height="283.46px" viewBox="0 0 283.46 283.46" enable-background="new 0 0 283.46 283.46" xml:space="preserve">
<g>
	
		<rect x="149.717" y="40.293" transform="matrix(-0.7071 0.7071 -0.7071 -0.7071 295.0455 -26.9936)" fill="#040000" width="6.793" height="14.631"/>
	<path fill="#040000" d="M145.387,2.73L2.73,145.388V280.73l7.316-7.315L280.73,2.73H145.387z M155.316,19.975
		c2.613,1.568,4.703,3.135,7.316,4.181l11.496-16.199l3.136,2.09l-10.974,15.677c2.612,1.045,5.226,1.568,7.838,1.568
		c1.046-3.658,1.567-7.316,1.567-10.974h4.181c0,3.658-0.522,7.838-1.567,11.496c2.09,0,4.18-0.522,5.748-1.045
		c1.046-0.522,2.09-1.045,2.613-1.568c0.521-0.522,0.521-1.568,0-3.135c-1.046-1.568-2.091-3.658-3.658-5.226
		c1.567-0.522,3.135-1.568,4.18-2.09c1.568,2.09,2.613,4.18,3.659,5.748c1.566,3.135,1.566,5.748-1.046,7.838
		c-0.522,1.567-2.613,2.612-5.226,3.135c-2.091,0.523-4.703,0.523-6.793,0.523c-1.567,5.225-4.181,10.974-6.794,16.199
		c-1.045-0.522-2.612-0.522-4.181-1.045c3.136-5.225,5.227-10.451,6.794-15.154c-3.135-0.523-6.271-1.045-9.406-2.613l-6.271,8.884
		l-3.658-2.612l5.748-7.839c-2.09-1.045-4.703-2.613-7.315-4.181L155.316,19.975z M129.189,49.761l15.677,15.676l-3.135,3.136
		l-1.045-1.045l-18.812,18.812l-14.631-14.632L129.189,49.761z M42.444,210.185l-3.135-3.135l6.793-6.794l-22.47-22.992l3.658-3.658
		l22.47,22.47l10.451-10.45l-28.218-28.219l-19.334,19.335l-3.135-3.658l38.147-38.146l3.135,3.135L35.651,153.75l10.974,10.974
		l14.109-14.109l3.135,3.136L49.76,167.858l14.109,14.109l17.245-17.244l3.135,3.135L42.444,210.185z M94.7,162.633l-17.767-17.768
		c0.522,3.136,0.522,6.793,0.522,10.451c-1.567-0.522-3.135-0.522-5.225-1.045c0-10.451-2.09-20.38-5.226-29.263l-10.974,10.973
		l-3.135-3.135l12.542-12.542c-1.045-2.613-2.09-4.703-3.135-6.793l4.18-2.613c1.045,2.09,2.09,3.658,2.613,5.748L93.132,92.61
		l3.136,3.136l-25.605,25.605c2.09,5.226,3.658,10.974,4.703,16.199l21.947,21.948L94.7,162.633z M96.268,154.794l-3.135-2.613
		l13.063-13.063l-12.541-12.541L82.682,137.55l-3.136-3.135l10.974-10.974l-7.838-8.361l3.658-3.658l8.361,8.361l10.974-10.974
		l3.135,3.136l-10.974,10.974l12.542,12.541l13.586-13.586l3.135,3.136L96.268,154.794z M134.415,122.396
		c-0.522,0.523-1.567,1.568-3.135,3.136c-1.045-1.045-2.613-2.09-3.658-2.613c1.568-1.045,2.613-2.09,3.658-3.135
		c1.045-1.045,1.045-2.613-0.523-4.181l-12.019-12.019c-1.045,2.09-2.09,4.18-3.135,6.793l-4.181-2.613
		c1.568-2.613,2.613-5.226,3.658-7.316l-8.884-8.883l-5.225,5.226l-3.136-3.135l5.226-5.226l-7.316-7.316l3.135-3.135l7.316,7.316
		l4.703-4.703l3.135,2.613l-4.703,4.703l7.838,7.838c1.045-2.09,2.09-4.703,3.136-6.271c1.045,1.045,2.09,1.568,3.658,2.613
		c-1.045,2.09-2.09,4.18-3.135,6.793l13.586,13.586C137.55,116.125,137.55,119.261,134.415,122.396z M164.2,92.61
		c-1.567,1.568-3.657,3.658-5.748,5.749c0,0-1.045-1.045-3.657-3.136c2.09-1.567,4.18-3.658,5.748-5.225
		c1.567-1.568,1.567-3.658,0-5.226c-3.136-3.658-6.793-7.838-12.02-13.064l-9.928,9.929l3.136-1.045c0,1.045,0.523,2.09,0.523,3.135
		c4.18-0.522,7.838-1.567,10.973-1.567l0.523,4.18c-3.658,0.522-7.316,0.522-10.975,1.045c0.523,3.658,0.523,6.793,0.523,9.929
		c-1.568,0-3.136,0-4.181,0c0.522-4.703,0-9.406-1.045-14.631l-7.838,7.838c0,2.09,0.522,3.658,0.522,5.748l2.613-2.613l7.838,7.838
		l14.632-14.632l2.612,2.613l-17.767,17.767l-9.929-9.929c0,1.568,0,3.135,0,4.703c-1.045-0.522-2.612-0.522-4.703-1.045
		c0.522-5.748,0.522-11.496-1.045-17.244l4.181-1.567c0.522,1.567,0.522,2.613,0.522,3.657l19.335-19.334
		c6.27,6.271,10.973,11.497,14.632,15.677C167.335,85.816,167.335,89.475,164.2,92.61z M175.174,74.321l-3.136,3.135L139.64,45.057
		l10.974-10.973l29.263,29.263l-7.838,7.838L175.174,74.321z M206.528,49.761c-3.136,3.135-5.749,3.135-8.884,0l-8.884-8.884
		l-5.226,5.226c2.612,3.136,4.702,5.748,5.748,8.361c1.568,4.18,1.045,9.929-1.567,16.722c-1.568,0-3.136-0.522-5.227-0.522
		c2.614-6.271,3.658-11.497,2.614-15.154c-0.523-1.568-2.091-4.181-4.704-6.793l-6.271,6.271l-3.136-3.136l26.128-26.128
		l3.136,3.136l-8.36,8.36l8.883,8.884c1.045,1.045,2.613,1.045,4.181,0l1.568-1.568c1.044-1.045,1.567-2.612,0.521-3.658
		c-1.045-1.568-2.612-3.658-5.226-6.271c1.045-0.522,2.613-1.045,4.181-2.09c2.091,2.613,3.657,4.703,4.703,6.271
		c2.09,2.613,1.568,5.226-1.046,7.838L206.528,49.761z"/>
	
		<rect x="162.882" y="53.484" transform="matrix(-0.707 0.7072 -0.7072 -0.707 327.0238 -13.3556)" fill="#040000" width="6.793" height="15.154"/>
	
		<rect x="111.451" y="62.914" transform="matrix(-0.7071 0.7071 -0.7071 -0.7071 255.1418 24.8476)" fill="#040000" width="21.947" height="4.703"/>
	
		<rect x="125.964" y="60.18" transform="matrix(-0.7071 -0.7071 0.7071 -0.7071 168.7348 212.1999)" fill="#040000" width="4.703" height="21.947"/>
</g>
</svg>
