<?xml version="1.0" encoding="utf-8"?>
<!-- Generator: Adobe Illustrator 16.0.0, SVG Export Plug-In . SVG Version: 6.00 Build 0)  -->
<!DOCTYPE svg PUBLIC "-//W3C//DTD SVG 1.1//EN" "http://www.w3.org/Graphics/SVG/1.1/DTD/svg11.dtd">
<svg version="1.1" id="图层_1" xmlns="http://www.w3.org/2000/svg" xmlns:xlink="http://www.w3.org/1999/xlink" x="0px" y="0px"
	 width="283.46px" height="283.46px" viewBox="0 0 283.46 283.46" enable-background="new 0 0 283.46 283.46" xml:space="preserve">
<g>
	<path fill="#272636" d="M220.348,93.388c-8.066,0-15.651-3.144-21.354-8.851c-11.779-11.779-11.779-30.953-0.006-42.732
		c5.696-5.708,13.284-8.854,21.359-8.854c8.068,0,15.656,3.143,21.358,8.854c11.78,11.773,11.78,30.945,0.006,42.732
		C236,90.245,228.417,93.388,220.348,93.388 M220.408,47.697c-4.12,0-7.985,1.603-10.89,4.516
		c-6.008,6.008-6.002,15.785,0.005,21.797c5.809,5.815,15.96,5.818,21.778-0.003c6.008-6.009,6.008-15.786,0-21.794
		C228.393,49.299,224.52,47.697,220.408,47.697"/>
	<path fill="#272636" d="M125.2,280.725c-4.668,0-9.061-1.817-12.353-5.124L7.848,170.617c-3.299-3.301-5.117-7.688-5.117-12.354
		c0-4.669,1.818-9.055,5.124-12.354L145.211,8.555c5.82-5.819,14.72-5.819,20.611-5.819l3.852,0.013l89.903-0.013
		c11.662,0,21.152,9.489,21.152,21.15l-0.019,89.902l0.011,1.951c0.032,8.178,0.073,16.633-5.816,22.508l-137.353,137.36
		C134.252,278.908,129.862,280.725,125.2,280.725 M165.823,14.821c-4.953,0-9.965,0.18-12.065,2.279L16.393,154.458
		c-1.016,1.018-1.575,2.365-1.575,3.803c0,1.44,0.559,2.792,1.575,3.806l105,104.996c2.03,2.036,5.578,2.03,7.613,0l137.359-137.359
		c2.319-2.319,2.295-7.95,2.271-13.914l-0.006-2l0.013-89.902c0-4.998-4.066-9.065-9.065-9.065l-89.903,0.014L165.823,14.821
		L165.823,14.821z M165.823,14.821"/>
</g>
</svg>
