<?xml version="1.0" encoding="utf-8"?>
<!-- Generator: Adobe Illustrator 16.0.0, SVG Export Plug-In . SVG Version: 6.00 Build 0)  -->
<!DOCTYPE svg PUBLIC "-//W3C//DTD SVG 1.1//EN" "http://www.w3.org/Graphics/SVG/1.1/DTD/svg11.dtd">
<svg version="1.1" id="图层_1" xmlns="http://www.w3.org/2000/svg" xmlns:xlink="http://www.w3.org/1999/xlink" x="0px" y="0px"
	 width="283.46px" height="283.46px" viewBox="0 0 283.46 283.46" enable-background="new 0 0 283.46 283.46" xml:space="preserve">
<g>
	<path fill="#272636" d="M218.458,102.163c-1.61-2.419-4.325-3.87-7.227-3.87h-8.688c-4.803,0-8.687,3.885-8.687,8.688v52.123
		c0,4.803,3.885,8.688,8.687,8.688h34.749c4.802,0,8.688-3.885,8.688-8.688v-13.03c0-1.714-0.509-3.394-1.459-4.819L218.458,102.163
		L218.458,102.163L218.458,102.163z M237.293,159.104h-34.75V106.98h8.688l26.063,39.094V159.104L237.293,159.104L237.293,159.104z
		 M276.353,135.96l-34.751-52.124c-4.852-7.27-12.962-11.605-21.684-11.605h-34.749V54.856c0-14.372-11.692-26.062-26.063-26.062
		H28.792c-14.372,0-26.063,11.69-26.063,26.062v95.56c0,14.372,11.69,26.063,26.063,26.063h0.004v26.062
		c0,14.372,11.69,26.062,26.062,26.062h9.917c3.876,14.95,17.365,26.063,33.519,26.063c16.137,0,29.625-11.112,33.512-26.063h45.896
		c3.886,14.95,17.375,26.063,33.527,26.063c16.138,0,29.626-11.112,33.511-26.063h9.928c14.372,0,26.062-11.689,26.062-26.062
		v-52.125C280.73,145.258,279.219,140.253,276.353,135.96L276.353,135.96L276.353,135.96z M28.793,159.104
		c-4.794,0-8.688-3.885-8.688-8.688v-95.56c0-4.802,3.895-8.687,8.688-8.687h130.314c4.803,0,8.685,3.885,8.685,8.687v17.375v17.375
		v60.81c0,4.803-3.884,8.688-8.685,8.688H28.793L28.793,159.104L28.793,159.104z M98.295,237.292
		c-9.603,0-17.373-7.78-17.373-17.375c0-9.596,7.77-17.375,17.373-17.375c9.588,0,17.376,7.779,17.376,17.375
		C115.671,229.511,107.883,237.292,98.295,237.292L98.295,237.292L98.295,237.292z M211.231,237.292
		c-9.604,0-17.374-7.78-17.374-17.375c0-9.596,7.771-17.375,17.374-17.375c9.587,0,17.375,7.779,17.375,17.375
		C228.606,229.511,220.818,237.292,211.231,237.292L211.231,237.292L211.231,237.292z M263.355,202.542
		c0,4.801-3.887,8.688-8.687,8.688h-9.928c-3.885-14.949-17.375-26.064-33.51-26.064c-16.153,0-29.644,11.115-33.528,26.064h-45.896
		c-3.887-14.949-17.375-26.064-33.512-26.064c-16.152,0-29.642,11.115-33.519,26.064h-9.917c-4.802,0-8.687-3.888-8.687-8.688
		V176.48h112.936c14.371,0,26.062-11.69,26.062-26.063v-60.81h34.749c2.901,0,5.617,1.45,7.228,3.868l34.75,52.124
		c0.95,1.426,1.459,3.106,1.459,4.819V202.542L263.355,202.542L263.355,202.542z M263.355,202.542"/>
</g>
</svg>
