<?xml version="1.0" encoding="utf-8"?>
<!-- Generator: Adobe Illustrator 16.0.0, SVG Export Plug-In . SVG Version: 6.00 Build 0)  -->
<!DOCTYPE svg PUBLIC "-//W3C//DTD SVG 1.1//EN" "http://www.w3.org/Graphics/SVG/1.1/DTD/svg11.dtd">
<svg version="1.1" id="图层_1" xmlns="http://www.w3.org/2000/svg" xmlns:xlink="http://www.w3.org/1999/xlink" x="0px" y="0px"
	 width="283.46px" height="283.46px" viewBox="0 0 283.46 283.46" enable-background="new 0 0 283.46 283.46" xml:space="preserve">
<g>
	<path fill="#272636" d="M213.195,280.73H70.283c-10.634,0-19.273-8.676-19.273-19.33V22.08c0-10.674,8.639-19.35,19.273-19.35
		h142.912c10.62,0,19.256,8.676,19.256,19.35V261.4C232.451,272.054,223.815,280.73,213.195,280.73L213.195,280.73L213.195,280.73z
		 M70.283,12.201c-5.401,0-9.803,4.43-9.803,9.879V261.4c0,5.438,4.402,9.859,9.803,9.859h142.912c5.403,0,9.785-4.422,9.785-9.859
		V22.08c0-5.45-4.382-9.879-9.785-9.879H70.283L70.283,12.201L70.283,12.201z M141.74,260.013c-6.954,0-12.598-5.67-12.598-12.633
		c0-6.965,5.644-12.635,12.598-12.635c6.955,0,12.597,5.67,12.597,12.635C154.336,254.343,148.695,260.013,141.74,260.013
		L141.74,260.013L141.74,260.013z M141.74,244.216c-1.72,0-3.125,1.415-3.125,3.164c0,3.495,6.251,3.495,6.251,0
		C144.866,245.631,143.46,244.216,141.74,244.216L141.74,244.216L141.74,244.216z M209.57,225.608H73.058
		c-2.607,0-4.735-2.118-4.735-4.736V29.274c0-2.617,2.127-4.735,4.735-4.735H209.57c2.608,0,4.736,2.119,4.736,4.735v191.598
		C214.306,223.49,212.178,225.608,209.57,225.608L209.57,225.608L209.57,225.608z M77.793,216.137h127.042V34.009H77.793V216.137
		L77.793,216.137L77.793,216.137z M77.793,216.137"/>
</g>
</svg>
