<?xml version="1.0" encoding="utf-8"?>
<!-- Generator: Adobe Illustrator 16.0.0, SVG Export Plug-In . SVG Version: 6.00 Build 0)  -->
<!DOCTYPE svg PUBLIC "-//W3C//DTD SVG 1.1//EN" "http://www.w3.org/Graphics/SVG/1.1/DTD/svg11.dtd">
<svg version="1.1" id="图层_1" xmlns="http://www.w3.org/2000/svg" xmlns:xlink="http://www.w3.org/1999/xlink" x="0px" y="0px"
	 width="283.46px" height="283.46px" viewBox="0 0 283.46 283.46" enable-background="new 0 0 283.46 283.46" xml:space="preserve">
<g>
	<path fill="#272636" d="M270.921,227.412h-45.322c-5.414,0-9.81-4.4-9.81-9.816l-0.092-115.569
		c-0.664-40.396-33.479-71.26-73.967-71.459c-40.503,0.2-73.305,31.064-73.968,71.459l-0.08,100.251
		c0,0,12.664,43.712,42.824,38.619c2.297-7.649,10.381-10.531,15.611-10.531h31.78c10.845,0,19.635,8.787,19.635,19.622v6.133
		c0,10.846-8.79,19.627-19.635,19.627h-29.231c-8.309,0-15.373-5.198-18.241-12.514c-0.476-0.266-4.406,0.082-8.229-0.767
		c-29.736-10.62-42.785-35.219-42.785-35.219c-0.52,0.092-1.02,0.164-1.552,0.164H12.54c-5.416,0-9.81-4.401-9.81-9.816V117.039
		c0-5.403,4.394-9.81,9.81-9.81h32.391c-0.012-8.309-0.04-5.204-0.04-5.204c1.182-93.961,95.221-94.297,95.221-94.297
		c0.743-0.02,2.496-0.02,3.226,0c0,0,94.051,0.336,95.22,94.297c0,0-0.013-3.106-0.026,5.204h32.391c5.416,0,9.809,4.406,9.809,9.81
		v100.556C280.73,223.011,276.337,227.412,270.921,227.412L270.921,227.412L270.921,227.412z M46.96,135.982
		c0-3.333-1.792-6.04-3.993-6.04H26.239c-2.205,0-3.982,2.707-3.982,6.04v61.94c0,3.347,1.777,6.055,3.982,6.055h16.729
		c2.201,0,3.993-2.707,3.993-6.055V135.982L46.96,135.982L46.96,135.982z M261.205,135.982c0-3.333-1.793-6.04-3.996-6.04h-16.711
		c-2.208,0-4.014,2.707-4.014,6.04v61.94c0,3.347,1.806,6.055,4.014,6.055h16.711c2.203,0,3.996-2.707,3.996-6.055V135.982
		L261.205,135.982L261.205,135.982z M261.205,135.982"/>
</g>
</svg>
