<?xml version="1.0" encoding="utf-8"?>
<!-- Generator: Adobe Illustrator 16.0.0, SVG Export Plug-In . SVG Version: 6.00 Build 0)  -->
<!DOCTYPE svg PUBLIC "-//W3C//DTD SVG 1.1//EN" "http://www.w3.org/Graphics/SVG/1.1/DTD/svg11.dtd">
<svg version="1.1" id="图层_1" xmlns="http://www.w3.org/2000/svg" xmlns:xlink="http://www.w3.org/1999/xlink" x="0px" y="0px"
	 width="283.46px" height="283.46px" viewBox="0 0 283.46 283.46" enable-background="new 0 0 283.46 283.46" xml:space="preserve">
<g>
	<path fill="#272636" d="M261.737,126.228L149.585,8.812c-7.723-8.108-20.385-8.108-28.129,0l-6.625,6.932
		c-0.184,0.183-0.407,0.243-0.569,0.426l-60.14,61.868c-1.221,1.261-2.053,2.684-2.683,4.086c-1.524,3.455-1.383,7.052,0.874,9.208
		c1.81,1.768,4.593,2.031,7.398,1.219c2.013-0.589,4.065-1.647,5.793-3.435l57.965-59.633c7.724-5.671,18.557-5.345,25.528,1.646
		l79.552,79.712c7.682,7.704,5.06,14.024-5.834,14.024h-48.026H84.12c-2.378,0-4.452,0.651-6.28,1.524
		c-2.968,1.444-5.021,3.761-5.021,6.525c0,1.301,0.529,2.5,1.301,3.597c1.87,2.623,5.59,4.471,10,4.471h90.567h80.728
		C266.635,140.962,269.46,134.336,261.737,126.228L261.737,126.228z M261.737,126.228"/>
	<path fill="#272636" d="M21.438,169.316l104.875,105.912c7.194,7.337,19.065,7.337,26.301,0l6.22-6.239
		c0.203-0.163,0.365-0.266,0.528-0.387l56.259-55.853c1.139-1.158,1.91-2.378,2.5-3.699c1.401-3.109,1.301-6.341-0.814-8.271
		c-1.686-1.586-4.287-1.851-6.95-1.118c-1.85,0.549-3.8,1.484-5.427,3.088l-54.206,53.78c-7.175,5.121-17.336,4.816-23.862-1.444
		l-74.367-71.887c-7.195-6.91-4.735-12.643,5.468-12.643h44.897h84.672c2.216,0,4.167-0.589,5.834-1.401
		c2.845-1.302,4.735-3.334,4.735-5.835c0-1.238-0.467-2.275-1.198-3.292c-1.77-2.316-5.245-4.004-9.392-4.004h-84.631H27.374
		C16.885,156.004,14.203,161.999,21.438,169.316L21.438,169.316z M21.438,169.316"/>
</g>
</svg>
