<?xml version="1.0" encoding="utf-8"?>
<!-- Generator: Adobe Illustrator 16.0.0, SVG Export Plug-In . SVG Version: 6.00 Build 0)  -->
<!DOCTYPE svg PUBLIC "-//W3C//DTD SVG 1.1//EN" "http://www.w3.org/Graphics/SVG/1.1/DTD/svg11.dtd">
<svg version="1.1" id="图层_1" xmlns="http://www.w3.org/2000/svg" xmlns:xlink="http://www.w3.org/1999/xlink" x="0px" y="0px"
	 width="283.46px" height="283.46px" viewBox="0 0 283.46 283.46" enable-background="new 0 0 283.46 283.46" xml:space="preserve">
<g>
	<path fill="#272636" d="M214.544,101.982H75.537V75.536c0-33.292,28.131-59.374,64.117-59.582
		c35.169,0.191,61.651,25.715,61.651,59.582v13.241c0,3.648,2.954,6.621,6.621,6.621c3.665,0,6.619-2.955,6.619-6.621V75.536
		c0-41.25-31.955-72.407-74.456-72.806h-0.852C96.04,3.129,62.295,34.963,62.295,75.536v27.142
		c-22.398,3.267-39.722,22.397-39.722,45.663v86.047c0,25.578,20.781,46.342,46.342,46.342h145.629
		c25.578,0,46.342-20.764,46.342-46.342v-86.047C260.886,122.782,240.087,101.982,214.544,101.982L214.544,101.982L214.544,101.982z
		 M247.647,234.371c0,18.263-14.84,33.102-33.103,33.102H68.916c-18.263,0-33.084-14.839-33.084-33.102v-86.047
		c0-18.261,14.839-33.083,33.084-33.083h145.629c18.279,0,33.103,14.839,33.103,33.083V234.371L247.647,234.371L247.647,234.371z
		 M141.721,141.704c-21.894,0-39.722,17.811-39.722,39.722c0,19.671,14.422,35.935,33.241,39.044
		c-0.017,0.244-0.139,0.418-0.139,0.66v19.862c0,3.666,2.954,6.638,6.62,6.638c3.667,0,6.621-2.972,6.621-6.638v-19.862
		c0-0.242-0.122-0.416-0.14-0.66c18.818-3.109,33.24-19.373,33.24-39.044C181.443,159.514,163.632,141.704,141.721,141.704
		L141.721,141.704L141.721,141.704z M141.721,207.908c-14.596,0-26.48-11.903-26.48-26.464c0-14.614,11.902-26.465,26.48-26.465
		c14.579,0,26.446,11.887,26.446,26.465C168.202,196.021,156.317,207.908,141.721,207.908L141.721,207.908L141.721,207.908z
		 M141.721,207.908"/>
</g>
</svg>
