<?xml version="1.0" encoding="utf-8"?>
<!-- Generator: Adobe Illustrator 16.0.0, SVG Export Plug-In . SVG Version: 6.00 Build 0)  -->
<!DOCTYPE svg PUBLIC "-//W3C//DTD SVG 1.1//EN" "http://www.w3.org/Graphics/SVG/1.1/DTD/svg11.dtd">
<svg version="1.1" id="图层_1" xmlns="http://www.w3.org/2000/svg" xmlns:xlink="http://www.w3.org/1999/xlink" x="0px" y="0px"
	 width="283.46px" height="283.46px" viewBox="0 0 283.46 283.46" enable-background="new 0 0 283.46 283.46" xml:space="preserve">
<g>
	<path fill="#272636" d="M73.771,95.396h18.534v24.718H73.771V95.396L73.771,95.396z M73.771,95.396"/>
	<path fill="#272636" d="M73.771,151.003h18.534v24.712H73.771V151.003L73.771,151.003z M73.771,151.003"/>
	<path fill="#272636" d="M73.771,206.606h18.534v24.711H73.771V206.606L73.771,206.606z M73.771,206.606"/>
	<path fill="#272636" d="M203.511,2.73H79.949c-23.849,0-43.247,19.403-43.247,43.247v191.519c0,23.844,19.397,43.234,43.247,43.234
		h123.562c23.849,0,43.246-19.391,43.246-43.234V45.977C246.757,22.133,227.36,2.73,203.511,2.73L203.511,2.73z M234.401,237.496
		c0,17.026-13.857,30.891-30.89,30.891H79.949c-17.032,0-30.891-13.864-30.891-30.891V45.977c0-17.039,13.86-30.891,30.891-30.891
		h123.562c17.03,0,30.89,13.852,30.89,30.891V237.496L234.401,237.496z M234.401,237.496"/>
	<path fill="#272636" d="M86.128,33.615h111.205v12.362H86.128V33.615L86.128,33.615z M86.128,33.615"/>
	<path fill="#272636" d="M110.839,101.573h98.851v12.362h-98.851V101.573L110.839,101.573z M110.839,101.573"/>
	<path fill="#272636" d="M110.839,157.182h98.851v12.35h-98.851V157.182L110.839,157.182z M110.839,157.182"/>
	<path fill="#272636" d="M110.839,212.785h98.851v12.355h-98.851V212.785L110.839,212.785z M110.839,212.785"/>
</g>
</svg>
