<?xml version="1.0" encoding="utf-8"?>
<!-- Generator: Adobe Illustrator 16.0.0, SVG Export Plug-In . SVG Version: 6.00 Build 0)  -->
<!DOCTYPE svg PUBLIC "-//W3C//DTD SVG 1.1//EN" "http://www.w3.org/Graphics/SVG/1.1/DTD/svg11.dtd">
<svg version="1.1" id="图层_1" xmlns="http://www.w3.org/2000/svg" xmlns:xlink="http://www.w3.org/1999/xlink" x="0px" y="0px"
	 width="283.46px" height="283.46px" viewBox="0 0 283.46 283.46" enable-background="new 0 0 283.46 283.46" xml:space="preserve">
<g>
	<path fill="#272636" d="M141.731,2.733C64.963,2.733,2.73,64.965,2.73,141.729c0,76.767,62.233,138.999,139.001,138.999
		c76.766,0,138.999-62.231,138.999-138.999C280.732,64.965,218.498,2.733,141.731,2.733L141.731,2.733z M141.727,262.193
		c-66.532,0-120.466-53.935-120.466-120.466c0-66.532,53.934-120.466,120.466-120.466s120.466,53.934,120.466,120.466
		C262.193,208.258,208.258,262.193,141.727,262.193L141.727,262.193z M141.727,262.193"/>
	<path fill="#272636" d="M141.731,2.733C64.963,2.733,2.73,64.965,2.73,141.729c0,76.767,62.233,138.999,139.001,138.999
		c76.766,0,138.999-62.231,138.999-138.999C280.732,64.965,218.498,2.733,141.731,2.733L141.731,2.733z M141.727,262.193
		c-66.532,0-120.466-53.935-120.466-120.466c0-66.532,53.934-120.466,120.466-120.466s120.466,53.934,120.466,120.466
		C262.193,208.258,208.258,262.193,141.727,262.193L141.727,262.193z M141.727,262.193"/>
</g>
</svg>
