<?xml version="1.0" encoding="utf-8"?>
<!-- Generator: Adobe Illustrator 16.0.0, SVG Export Plug-In . SVG Version: 6.00 Build 0)  -->
<!DOCTYPE svg PUBLIC "-//W3C//DTD SVG 1.1//EN" "http://www.w3.org/Graphics/SVG/1.1/DTD/svg11.dtd">
<svg version="1.1" id="图层_1" xmlns="http://www.w3.org/2000/svg" xmlns:xlink="http://www.w3.org/1999/xlink" x="0px" y="0px"
	 width="283.46px" height="283.46px" viewBox="0 0 283.46 283.46" enable-background="new 0 0 283.46 283.46" xml:space="preserve">
<g>
	<path fill="#272636" d="M280.73,141.762c0-1.671-0.282-3.066-0.363-3.233c-0.061-0.826-0.343-2.335-0.604-3.126
		c-0.07-0.197-0.16-0.403-0.243-0.6c-0.141-0.456-0.291-0.898-0.463-1.252C253.42,77.484,198.23,39.798,141.737,39.798
		c-56.483,0-111.669,37.649-137.188,93.417c-0.308,0.604-0.526,1.184-0.661,1.688c-0.062,0.165-0.131,0.321-0.187,0.469
		c-0.505,1.478-0.514,2.506-0.473,2.238c-0.239,1.085-0.456,3.242-0.456,3.242c-0.06,0.648-0.06,1.169,0.011,1.816
		c0,0,0.216,1.885,0.324,2.267c0.029,0.535,0.161,1.312,0.317,2.018H3.416c0.135,0.604,0.322,1.191,0.579,1.766
		c0.132,0.442,0.289,0.855,0.425,1.168c25.668,56.079,80.846,93.775,137.318,93.775c56.501,0,111.694-37.665,137.037-93.15
		c0.393-0.726,0.645-1.41,0.817-2.007c0.079-0.18,0.151-0.343,0.201-0.503c0.443-1.29,0.535-2.41,0.494-2.41l-0.011,0.011
		C280.458,144.707,280.73,143.365,280.73,141.762L280.73,141.762L280.73,141.762z M262.014,142.447
		c-0.011,0.04-0.031,0.09-0.051,0.131c-0.03,0.122-0.08,0.262-0.11,0.404c-22.811,49.16-70.976,82.146-120.116,82.146
		c-49.021,0-97.098-32.895-120.135-82.228c-0.057-0.174-0.096-0.334-0.156-0.494c-0.012-0.161-0.04-0.292-0.051-0.384
		c-0.02-0.101-0.039-0.241-0.054-0.362v-0.127c0.054-0.208,0.093-0.413,0.116-0.641c0.041-0.12,0.069-0.235,0.116-0.368
		c22.82-49.186,71.023-82.187,120.165-82.187c49.162,0,97.356,33.029,120.104,82.142c0.021,0.097,0.041,0.178,0.072,0.244
		c0.02,0.079,0.039,0.16,0.079,0.246c0.052,0.368,0.092,0.731,0.142,0.912C262.075,142.075,262.042,142.254,262.014,142.447
		L262.014,142.447L262.014,142.447z M141.737,95.397c-25.544,0-46.339,20.785-46.339,46.333c0,25.544,20.795,46.339,46.339,46.339
		c25.543,0,46.337-20.795,46.337-46.339C188.075,116.182,167.281,95.397,141.737,95.397L141.737,95.397L141.737,95.397z
		 M141.737,169.534c-15.318,0-27.802-12.474-27.802-27.804c0-15.323,12.484-27.796,27.802-27.796
		c15.328,0,27.801,12.474,27.801,27.796C169.539,157.06,157.065,169.534,141.737,169.534L141.737,169.534L141.737,169.534z
		 M141.737,169.534"/>
</g>
</svg>
