<?xml version="1.0" encoding="utf-8"?>
<!-- Generator: Adobe Illustrator 16.0.0, SVG Export Plug-In . SVG Version: 6.00 Build 0)  -->
<!DOCTYPE svg PUBLIC "-//W3C//DTD SVG 1.1//EN" "http://www.w3.org/Graphics/SVG/1.1/DTD/svg11.dtd">
<svg version="1.1" id="图层_1" xmlns="http://www.w3.org/2000/svg" xmlns:xlink="http://www.w3.org/1999/xlink" x="0px" y="0px"
	 width="322.89px" height="283.46px" viewBox="-21.77 0 322.89 283.46" enable-background="new -21.77 0 322.89 283.46"
	 xml:space="preserve">
<g>
	<path fill="#272636" d="M177.386,72.264l-25.16,38.847c-6.711,10.527-10.813,17.525-12.313,20.993h-0.428
		c-4.427-8.432-16.916-28.379-37.472-59.84H78.352l44.003,63.339H86.274V149.6h42.29v19.289h-42.29v14.176h42.29v28.081h20.984
		v-28.081h40.793v-14.176h-40.793V149.6h40.793v-13.997h-35.01l44.43-63.339H177.386L177.386,72.264z M177.386,72.264"/>
	<path fill="#272636" d="M-19.715,181.291H5.849c17.048,57.48,70.193,99.439,133.205,99.439
		c66.551,0,122.178-46.769,135.807-109.234c0.693-3.185-16.963-3.632-17.623-0.917c-12.953,53.246-60.951,92.776-118.184,92.776
		c-53.301,0-98.482-34.342-114.914-82.064h25.471l-34.664-59.417L-19.715,181.291L-19.715,181.291z M-19.715,181.291"/>
	<path fill="#272636" d="M264.404,157.555L229.74,97.518h22.527c-17.703-45.285-61.658-77.414-113.213-77.414
		c-57.126,0-105.054,39.387-118.11,92.485c-1.161,4.724-18.575,3.25-17.468-1.643C17.483,48.992,72.867,2.73,139.054,2.73
		c61.293,0,113.211,39.722,131.698,94.788h28.313L264.404,157.555L264.404,157.555z M264.404,157.555"/>
</g>
</svg>
