<?xml version="1.0" encoding="utf-8"?>
<!-- Generator: Adobe Illustrator 16.0.0, SVG Export Plug-In . SVG Version: 6.00 Build 0)  -->
<!DOCTYPE svg PUBLIC "-//W3C//DTD SVG 1.1//EN" "http://www.w3.org/Graphics/SVG/1.1/DTD/svg11.dtd">
<svg version="1.1" id="图层_1" xmlns="http://www.w3.org/2000/svg" xmlns:xlink="http://www.w3.org/1999/xlink" x="0px" y="0px"
	 width="283.46px" height="283.46px" viewBox="0 0 283.46 283.46" enable-background="new 0 0 283.46 283.46" xml:space="preserve">
<g>
	<defs>
		<rect id="SVGID_1_" x="2.73" y="2.73" width="278" height="278"/>
	</defs>
	<clipPath id="SVGID_2_">
		<use xlink:href="#SVGID_1_"  overflow="visible"/>
	</clipPath>
	<path clip-path="url(#SVGID_2_)" fill="#272636" d="M75.223,217.824c2.382-2.735,3.573-6.562,3.573-11.477
		c0-5.051-1.166-8.947-3.497-11.691c-2.332-2.744-5.526-4.116-9.583-4.116c-3.989,0-7.222,1.448-9.696,4.344
		s-3.712,6.691-3.712,11.388c0,4.73,1.208,8.522,3.624,11.376s5.568,4.279,9.457,4.279C69.562,221.926,72.84,220.559,75.223,217.824
		"/>
	<rect x="141.646" y="209.427" clip-path="url(#SVGID_2_)" fill="#272636" width="25.604" height="7.07"/>
	<path clip-path="url(#SVGID_2_)" fill="#272636" d="M117.367,217.824c2.382-2.735,3.573-6.562,3.573-11.477
		c0-5.051-1.166-8.947-3.497-11.691c-2.332-2.744-5.526-4.116-9.583-4.116c-3.99,0-7.222,1.448-9.696,4.344
		s-3.712,6.691-3.712,11.388c0,4.73,1.208,8.522,3.624,11.376s5.568,4.279,9.457,4.279
		C111.706,221.926,114.984,220.559,117.367,217.824"/>
	<path clip-path="url(#SVGID_2_)" fill="#272636" d="M141.73,2.73c-76.768,0-139,62.232-139,139c0,76.767,62.232,139,139,139
		s139-62.233,139-139C280.73,64.962,218.498,2.73,141.73,2.73 M85.26,235.916c-1.229,0.388-2.702,0.581-4.419,0.581
		c-2.424,0-4.718-0.589-6.881-1.768s-5.155-3.948-8.977-8.308c-5.236,0.034-9.541-1.826-12.916-5.58
		c-3.375-3.754-5.063-8.476-5.063-14.166c0-6.347,1.708-11.38,5.126-15.101c3.417-3.72,8.089-5.58,14.015-5.58
		c5.336,0,9.667,1.827,12.991,5.479c3.325,3.653,4.987,8.408,4.987,14.267c0,5.202-1.17,9.57-3.51,13.105
		c-2.34,3.535-5.665,5.816-9.974,6.843c2.172,2.357,4.023,3.969,5.555,4.836c1.532,0.866,3.24,1.301,5.126,1.301
		c1.549,0,2.861-0.228,3.939-0.683V235.916z M86.906,117.654c-1.271,3.511-3.698,6.042-6.344,8.386
		c-3.591,2.413-5.453,0.777-6.136-3.625c-2.277-16.336,4.921-27.95,16.903-37.151c-0.134-4.121,0.017-8.101,2.105-11.002
		c0.377-3.087,0.818-6.116,3.23-6.958c2.59-24.804,17.757-43.097,44.454-42.639c31.831,0.745,46.402,18.089,46.274,43.554
		c4.626,3.463,5.835,8.898,3.637,16.326c8.471,11.352,13.457,23.356,12.252,36.51c-0.318,6.813-3.3,8.078-7.495,6.813
		c-1.6-1.032-3.413-3.416-5.896-8.169c-1.932,7.652-5.257,12.916-9.529,16.565c4.545,1.22,8.323,3.025,10.443,6.113
		c5.865,7.141-6.189,13.624-12.713,13.624c-26.895,1.798-23.123-4.399-35.685-4.657l0,0c-2.141-0.606-4.287,0.941-8.593,2.769
		c-13.327,5.517-38.259,3.952-44.203-4.566c0.094-2.655,1.427-3.757,1.792-4.147c-0.797,0.236-1.618,0.166-2.426-0.113
		c1.409-4.573,4.493-7.844,11.321-8.334C94.703,132.972,90.087,126.854,86.906,117.654 M127.404,235.916
		c-1.229,0.388-2.702,0.581-4.419,0.581c-2.424,0-4.718-0.589-6.881-1.768s-5.155-3.948-8.977-8.308
		c-5.236,0.034-9.541-1.826-12.916-5.58c-3.375-3.754-5.063-8.476-5.063-14.166c0-6.347,1.708-11.38,5.126-15.101
		c3.417-3.72,8.088-5.58,14.014-5.58c5.336,0,9.667,1.827,12.992,5.479c3.325,3.653,4.987,8.408,4.987,14.267
		c0,5.202-1.17,9.57-3.51,13.105c-2.34,3.535-5.665,5.816-9.975,6.843c2.172,2.357,4.023,3.969,5.556,4.836
		c1.532,0.866,3.24,1.301,5.125,1.301c1.549,0,2.862-0.228,3.939-0.683V235.916z M131.04,193.823l2.374-2.374
		c2.525,2.29,4.848,4.461,6.969,6.515c2.794-2.457,5.185-5.285,7.171-8.483h-15.353v-3.435h20v3.484
		c-4.546,7.744-11.583,14.259-21.11,19.544c-0.64-1.145-1.347-2.322-2.121-3.534c3.535-1.818,6.397-3.569,8.585-5.253
		C135.434,198.099,133.262,195.944,131.04,193.823 M141.646,219.831v1.818h-3.838v-15.555h33.28v15.555h-3.838v-1.818H141.646z
		 M162.856,201.701h-17.12v-3.333h17.12V201.701z M179.371,230.992h-49.391v-3.434h16.918c-1.213-1.179-2.979-2.812-5.303-4.898
		l2.424-2.425c2.054,1.684,4.124,3.484,6.212,5.403l-2.071,1.92h12.121l-1.717-1.718c2.154-1.952,4.073-3.871,5.757-5.757
		l3.081,2.525c-1.583,1.582-3.351,3.231-5.304,4.949h17.272V230.992z M177.452,207.71c-10.707-3.703-18.198-11.346-22.474-22.928
		l3.535-1.414c0.774,2.088,1.633,4.007,2.575,5.757c3.703-2.02,6.936-3.973,9.696-5.857l2.475,3.181
		c-3.165,1.886-6.582,3.806-10.252,5.758c0.909,1.347,1.902,2.575,2.98,3.687c3.534-1.953,6.817-3.939,9.848-5.959l2.524,3.231
		c-2.794,1.718-5.942,3.519-9.443,5.404c3.231,2.525,7.003,4.208,11.313,5.05C179.252,204.967,178.327,206.331,177.452,207.71
		 M181.189,223.821c6.599-2.054,13.753-4.495,21.463-7.323c0.27,1.481,0.521,2.761,0.758,3.839
		c-6.7,2.323-13.585,4.764-20.655,7.322L181.189,223.821z M185.885,210.792l2.323-2.93c3.231,1.953,6.515,4.074,9.848,6.363
		l-2.475,3.333C192.517,215.236,189.286,212.98,185.885,210.792 M228.761,228.972c-9.157-2.795-15.892-7.542-20.201-14.242v10.959
		c0,4.074-2.087,6.111-6.262,6.111c-1.986,0-4.343-0.034-7.07-0.102c-0.202-1.246-0.438-2.693-0.707-4.343
		c2.424,0.27,4.596,0.421,6.515,0.454c2.391,0,3.586-1.077,3.586-3.231v-18.08h-22.726v-3.384h37.674v-5.403h-31.312v-3.232h31.312
		v-5.354h-32.271v-3.384h36.059v17.373h7.827v3.384H208.56v1.161c1.381,3.03,3.165,5.69,5.354,7.979
		c3.905-2.524,7.44-5,10.605-7.424l2.929,3.333c-2.861,1.886-6.413,4.108-10.655,6.666c3.939,3.064,8.854,5.27,14.746,6.616
		C230.495,226.279,229.569,227.659,228.761,228.972"/>
</g>
</svg>
