<?xml version="1.0" encoding="utf-8"?>
<!-- Generator: Adobe Illustrator 16.0.0, SVG Export Plug-In . SVG Version: 6.00 Build 0)  -->
<!DOCTYPE svg PUBLIC "-//W3C//DTD SVG 1.1//EN" "http://www.w3.org/Graphics/SVG/1.1/DTD/svg11.dtd">
<svg version="1.1" id="图层_1" xmlns="http://www.w3.org/2000/svg" xmlns:xlink="http://www.w3.org/1999/xlink" x="0px" y="0px"
	 width="283.46px" height="283.46px" viewBox="0 0 283.46 283.46" enable-background="new 0 0 283.46 283.46" xml:space="preserve">
<g>
	<path fill="#272636" d="M136.551,180.58c1.509,1.237,3.345,1.853,5.181,1.853c1.834,0,3.67-0.615,5.178-1.853
		c2.793-2.281,68.437-48.505,68.437-104.236c0-40.591-33.025-73.613-73.617-73.613c-40.589,0-73.613,33.023-73.613,73.613
		C68.116,132.074,133.758,178.298,136.551,180.58L136.551,180.58z M141.731,19.076C173.31,19.076,199,44.764,199,76.344
		c0,39.681-42.298,73.448-57.278,87.056c-14.979-13.594-57.262-47.304-57.262-87.056C84.46,44.764,110.151,19.076,141.731,19.076
		L141.731,19.076z M276.343,77.392c-2.649-1.419-5.882-1.263-8.389,0.405l-32.689,24.519c-3.758,2.505-4.772,7.574-2.266,11.33
		c2.498,3.753,7.557,4.758,11.333,2.269l19.983-16.05v126.782l-65.244,36.704L96.567,208.155c-2.417-1.294-5.371-1.284-7.781,0.025
		l-69.64,42.44V138.004l29.049-22.092c3.76-2.507,4.774-7.575,2.268-11.332c-2.505-3.757-7.573-4.777-11.333-2.266L6.441,126.832
		c-2.275,1.515-3.64,4.068-3.64,6.798v130.756c0,2.881,1.524,5.557,3.999,7.033c2.489,1.466,5.563,1.515,8.084,0.144l77.838-46.912
		l102.345,55.108c1.204,0.646,2.537,0.971,3.87,0.971c1.253,0,2.505-0.284,3.655-0.86l73.551-40.86
		c2.769-1.389,4.517-4.214,4.517-7.31V84.597C280.66,81.582,279.001,78.814,276.343,77.392L276.343,77.392z M276.343,77.392"/>
</g>
</svg>
