<?xml version="1.0" encoding="utf-8"?>
<!-- Generator: Adobe Illustrator 16.0.0, SVG Export Plug-In . SVG Version: 6.00 Build 0)  -->
<!DOCTYPE svg PUBLIC "-//W3C//DTD SVG 1.1//EN" "http://www.w3.org/Graphics/SVG/1.1/DTD/svg11.dtd">
<svg version="1.1" id="图层_1" xmlns="http://www.w3.org/2000/svg" xmlns:xlink="http://www.w3.org/1999/xlink" x="0px" y="0px"
	 width="283.46px" height="283.46px" viewBox="0 0 283.46 283.46" enable-background="new 0 0 283.46 283.46" xml:space="preserve">
<g>
	
		<rect x="232.685" y="152.773" transform="matrix(0.7073 0.7069 -0.7069 0.7073 181.5739 -124.213)" width="16.208" height="8.785"/>
	<path d="M158.267,0H4.46l268.267,265.921l10.733,10.636V166.646v-42.551L158.267,0z M197.317,99.773
		c5.94-1.165,11.429-2.657,16.298-4.435l0.369-0.135l1.857,3.763l-0.521,0.146c-6.88,1.951-13.391,3.467-19.366,4.518
		c0.251,0.233,0.557,0.519,0.926,0.859c2.205,2.066,3.791,3.565,4.765,4.5c2.504-0.56,5.286-1.256,8.284-2.063l0.369-0.101
		l1.662,3.868l-0.528,0.115c-9.217,1.965-17.042,3.363-23.289,4.16c3.298,2.647,6.352,5.12,9.078,7.366l0.459,0.376l-0.487,0.333
		c-0.528,0.362-1.196,0.894-2.023,1.642l-0.285,0.254l-0.293-0.24c-6.037-4.977-10.246-8.26-12.492-9.752l-0.3-0.202l1.412-3.614
		l0.355,0.066c1.252,0.215,3.067,0.191,5.418-0.08c2.143-0.247,4.987-0.682,8.473-1.297c-2.887-2.772-5.196-4.838-6.887-6.146
		l-0.292-0.226l1.704-3.332l0.307,0.031C193.547,100.281,195.238,100.152,197.317,99.773z M159.853,44.887l-0.307,0.313
		l-22.541,22.534l-2.713-2.716l20.273-20.266l-14.162-14.159l-20.517,20.521l-2.692-2.696l23.094-23.094L159.853,44.887z
		 M145.801,79.18l3.68,0.522l0.007,0.382c0.028,3.652-0.048,7.165-0.215,10.438l-0.021,0.477l-4.014-0.47l0.035-0.431
		c0.258-2.803,0.424-6.306,0.521-10.417L145.801,79.18z M95.083,41.263l2.139-3.388l0.39,0.327c0.438,0.362,1.565,1.225,3.363,2.563
		c1.325,1.012,2.389,1.819,3.189,2.424l10.396-10.396l-5.158-5.161l2.448-2.445l5.158,5.158l10.09-10.09l-5.62-5.613l2.458-2.462
		l13.854,13.853l-2.463,2.462l-5.52-5.52l-10.09,10.09l5.005,5.005l-2.448,2.445l-5.001-5.012l-9.992,9.996
		c2.671,1.917,4.744,3.405,6.222,4.469l0.417,0.299l-0.357,0.369c-0.626,0.654-1.26,1.363-1.886,2.118l-0.271,0.323l-0.338-0.254
		c-6.215-4.622-11.474-8.431-15.634-11.317L95.083,41.263z M122.565,76.06l-2.264-2.264c-1.521-1.44-2.303-2.956-2.303-4.494
		c-0.003-1.627,0.862-3.287,2.577-4.928l7.353-7.356c-2.17,1.21-4.188,2.018-6.038,2.421c-4.591,1.304-11.324,0.817-19.862-1.475
		l-0.345-0.094l0.011-0.354c0.052-1.335,0.066-2.421,0.038-3.221l-0.024-0.661l0.623,0.226c4.497,1.662,8.789,2.511,12.761,2.511
		l0,0c7.213,0,13.668-2.796,19.185-8.309c0.375-0.375,0.807-0.832,1.286-1.356c2.48-2.282,4.988-4.688,7.481-7.179l0.313-0.316
		l2.674,2.675l-0.313,0.316c-2.964,2.932-5.224,5.105-6.723,6.452c-2.984,2.748-5.788,4.991-8.396,6.719l2.14,2.139l-9.439,9.446
		c-0.988,0.967-1.479,1.784-1.454,2.445c-0.021,0.671,0.48,1.516,1.454,2.462l1.934,1.937c1.68,1.771,3.301,2.024,5.019,0.776
		c1.325-0.974,3.036-2.379,5.085-4.177l0.452-0.4l0.247,0.549c0.479,1.079,0.9,1.955,1.287,2.688l0.163,0.306l-0.261,0.229
		c-1.746,1.562-3.37,2.891-4.835,3.948c-1.248,1.001-2.57,1.513-3.912,1.513C126.554,79.235,124.562,78.168,122.565,76.06z
		 M166.961,119.844l-0.313-0.313L131.754,84.64l2.594-2.598l16.204,16.197l10.045-10.051l-13.731-13.731l2.504-2.504l13.731,13.734
		l5.6-5.6l-11.005-11l2.449-2.452c-2.233-0.668-4.501-1.447-6.796-2.327l-0.355-0.136l0.084-0.379
		c0.174-0.762,0.313-1.805,0.403-3.106l0.049-0.602l0.563,0.226c12.055,4.761,22.461,6.594,30.898,5.415l0.278-0.038l2.406,3.655
		l-0.758,0.056c-0.188,0.014-0.445,0.038-0.793,0.073c-0.209,0.035-0.403,0.063-0.57,0.08c-0.327,9.099,1.76,18.228,6.197,27.132
		l0.258,0.511l-0.563,0.122c-1.363,0.296-2.365,0.567-2.971,0.8l-0.39,0.149l-0.174-0.375c-4.5-9.767-6.482-19.24-5.898-28.165
		c-6.74,0.292-13.953-0.744-21.612-3.015l0.153,0.153l23.866,23.87l-2.539,2.539l-10.455-10.451l-5.593,5.6l13.696,13.696
		l-2.504,2.504l-13.696-13.696l-10.052,10.048l16.284,16.277L166.961,119.844z M166.843,105.79c-2.073,0-4.125-0.031-6.107-0.098
		l-0.396-0.014l-0.299-3.881l0.508,0.024c3.381,0.185,6.983,0.216,10.754,0.094l0.396-0.011l0.577,3.815l-0.508,0.011
		C170.091,105.772,168.45,105.79,166.843,105.79z M172.075,121.399l2.038-3.387l0.389,0.292c4.668,3.443,10.052,7.217,15.999,11.227
		l0.48,0.323l-0.438,0.383c-0.251,0.219-0.599,0.563-1.051,1.008c-0.431,0.435-0.751,0.758-0.945,0.984l-0.265,0.313l-0.334-0.236
		c-5.683-4.087-10.9-7.676-15.519-10.67L172.075,121.399z M208.168,159.405l-0.313-0.313l-24.499-24.5l2.595-2.594l11.269,11.271
		l26.078-26.076l-9.301-9.304l2.595-2.595l0.32,0.313l21.111,21.115l-2.595,2.598l-9.384-9.383l-26.071,26.08l10.789,10.795
		L208.168,159.405z M272.491,163.244c-5.454,5.295-11.673,11.145-18.482,17.369c-4.473,4.453-9.008,4.445-13.195-0.063
		c-0.744-0.723-1.468-1.418-2.143-2.065l-2.824-2.824l0.244-0.306c0.549-0.703,1.147-1.572,1.822-2.657l0.319-0.508l0.39,0.444
		c1.287,1.434,2.915,3.138,4.835,5.058c2.504,2.769,5.001,2.796,7.707,0.194c5.099-4.479,10.552-9.585,16.222-15.191l-20.625-20.631
		c-2.435,0.709-5.105,1.322-8.006,1.823l16.138,16.131l-0.313,0.32l-10.921,10.906l-0.313-0.313l-13.898-13.898l-7.172,7.179
		c-1.099,0.974-1.648,1.962-1.662,2.956c-0.007,1.134,0.688,2.357,2.087,3.639l18.162,18.161c2.553,2.644,4.737,3.255,6.727,1.829
		c1.787-1.161,3.902-2.747,6.295-4.736l0.452-0.376l0.243,0.528c0.438,0.967,0.911,1.906,1.405,2.775l0.194,0.334l-0.306,0.236
		c-2.671,2.06-4.869,3.639-6.553,4.703c-1.259,0.869-2.58,1.314-3.93,1.314c-2.205,0-4.508-1.211-6.824-3.596l-18.892-18.886
		c-2.053-1.997-3.089-4-3.089-5.976c0.007-1.864,0.953-3.721,2.811-5.502l17.424-17.425c-2.518,0.376-5.188,0.675-8.006,0.904
		l-0.599,0.042l0.126-0.584c0.278-1.287,0.452-2.373,0.508-3.124l0.034-0.39l0.39-0.021c8.688-0.417,16.993-2.365,24.693-5.792
		l0.369-0.16l2.107,3.629l-0.486,0.188c-1.815,0.702-3.583,1.342-5.266,1.913l22.126,22.127L272.491,163.244z"/>
</g>
</svg>
