<?xml version="1.0" encoding="utf-8"?>
<!-- Generator: Adobe Illustrator 16.0.0, SVG Export Plug-In . SVG Version: 6.00 Build 0)  -->
<!DOCTYPE svg PUBLIC "-//W3C//DTD SVG 1.1//EN" "http://www.w3.org/Graphics/SVG/1.1/DTD/svg11.dtd">
<svg version="1.1" id="图层_1" xmlns="http://www.w3.org/2000/svg" xmlns:xlink="http://www.w3.org/1999/xlink" x="0px" y="0px"
	 width="283.46px" height="283.46px" viewBox="0 0 283.46 283.46" enable-background="new 0 0 283.46 283.46" xml:space="preserve">
<g>
	<path fill="#272636" d="M150.111,266.135c-2.427-2.426-2.427-6.359,0-8.786l109.41-109.405H8.943c-3.431,0-6.213-2.783-6.213-6.213
		c0-3.432,2.783-6.212,6.213-6.212h250.573L150.104,26.112c-2.425-2.427-2.425-6.359,0-8.786c2.427-2.426,6.36-2.426,8.787,0
		l120.02,120.014c1.166,1.166,1.819,2.746,1.819,4.394s-0.653,3.228-1.819,4.393L158.897,266.135
		c-1.213,1.213-2.804,1.819-4.395,1.819C152.914,267.955,151.324,267.348,150.111,266.135L150.111,266.135z M150.111,266.135"/>
</g>
</svg>
