<?xml version="1.0" encoding="utf-8"?>
<!-- Generator: Adobe Illustrator 16.0.0, SVG Export Plug-In . SVG Version: 6.00 Build 0)  -->
<!DOCTYPE svg PUBLIC "-//W3C//DTD SVG 1.1//EN" "http://www.w3.org/Graphics/SVG/1.1/DTD/svg11.dtd">
<svg version="1.1" id="图层_1" xmlns="http://www.w3.org/2000/svg" xmlns:xlink="http://www.w3.org/1999/xlink" x="0px" y="0px"
	 width="283.46px" height="283.46px" viewBox="0 0 283.46 283.46" enable-background="new 0 0 283.46 283.46" xml:space="preserve">
<g>
	<path fill="#272636" d="M35.977,209.453c1.593,1.19,3.482,1.82,5.463,1.82c2.91,0,5.578-1.335,7.32-3.663l54.693-73.068
		l52.211,35.161c1.513,1.019,3.277,1.555,5.102,1.555c2.064,0,4.084-0.704,5.689-1.988L266.61,89.483
		c1.908-1.522,3.11-3.695,3.385-6.117c0.271-2.426-0.413-4.812-1.934-6.717c-1.744-2.189-4.349-3.443-7.148-3.443
		c-2.084,0-4.049,0.688-5.682,1.991l-94.918,75.612l-53.866-36.273c-1.51-1.02-3.271-1.556-5.093-1.556
		c-2.91,0-5.575,1.335-7.32,3.662l-59.899,80.025C31.118,200.699,31.944,206.432,35.977,209.453z"/>
	<path fill="#272636" d="M271.6,242.339H20.995V31.992c0-5.039-4.096-9.135-9.134-9.135c-5.036,0-9.131,4.096-9.131,9.135v219.48
		c0,5.036,4.095,9.131,9.131,9.131H271.6c5.036,0,9.13-4.095,9.13-9.131S276.636,242.339,271.6,242.339z"/>
</g>
</svg>
