<?xml version="1.0" encoding="utf-8"?>
<!-- Generator: Adobe Illustrator 16.0.0, SVG Export Plug-In . SVG Version: 6.00 Build 0)  -->
<!DOCTYPE svg PUBLIC "-//W3C//DTD SVG 1.1//EN" "http://www.w3.org/Graphics/SVG/1.1/DTD/svg11.dtd">
<svg version="1.1" id="图层_1" xmlns="http://www.w3.org/2000/svg" xmlns:xlink="http://www.w3.org/1999/xlink" x="0px" y="0px"
	 width="283.46px" height="283.46px" viewBox="0 0 283.46 283.46" enable-background="new 0 0 283.46 283.46" xml:space="preserve">
<g>
	<path fill="#272636" d="M206.596,234.396c0-15.353,12.448-27.8,27.8-27.8c15.353,0,27.799,12.447,27.799,27.8
		c0,15.349-12.446,27.802-27.799,27.802C219.044,262.198,206.596,249.747,206.596,234.396L206.596,234.396z M160.263,49.063
		c0-15.353,12.446-27.8,27.799-27.8s27.8,12.448,27.8,27.8c0,15.352-12.447,27.8-27.8,27.8S160.263,64.416,160.263,49.063
		L160.263,49.063z M21.264,192.696c0-25.592,20.746-46.333,46.333-46.333c25.588,0,46.333,20.741,46.333,46.333
		s-20.744,46.333-46.333,46.333C42.01,239.029,21.264,218.288,21.264,192.696L21.264,192.696z M2.73,192.696
		c0,35.826,29.044,64.869,64.866,64.869c25.384,0,47.352-14.58,58.012-35.82l62.476,11.004l-0.022,1.647
		c0,25.593,20.746,46.334,46.334,46.334s46.333-20.741,46.333-46.334s-20.745-46.333-46.333-46.333
		c-18.557,0-34.555,10.892-41.958,26.641l-60.948-10.729c0.643-3.659,0.973-7.433,0.973-11.279c0-16.936-6.494-32.352-17.117-43.897
		l56.359-56.366c5.086,1.919,10.598,2.963,16.356,2.963c25.589,0,46.334-20.741,46.334-46.333c0-25.592-20.745-46.333-46.334-46.333
		c-25.587,0-46.333,20.741-46.333,46.333c0,12.996,5.354,24.736,13.968,33.153l-54.812,54.812c-9.733-5.836-21.113-9.2-33.289-9.2
		C31.774,127.83,2.73,156.87,2.73,192.696L2.73,192.696z M2.73,192.696"/>
</g>
</svg>
