<?xml version="1.0" encoding="utf-8"?>
<!-- Generator: Adobe Illustrator 16.0.0, SVG Export Plug-In . SVG Version: 6.00 Build 0)  -->
<!DOCTYPE svg PUBLIC "-//W3C//DTD SVG 1.1//EN" "http://www.w3.org/Graphics/SVG/1.1/DTD/svg11.dtd">
<svg version="1.1" id="图层_1" xmlns="http://www.w3.org/2000/svg" xmlns:xlink="http://www.w3.org/1999/xlink" x="0px" y="0px"
	 width="283.46px" height="283.46px" viewBox="0 0 283.46 283.46" enable-background="new 0 0 283.46 283.46" xml:space="preserve">
<g>
	<path fill="#272636" d="M6.432,144.064h158.412c2.043,0,3.701-1.655,3.701-3.701V26.366c0-2.045-1.658-3.701-3.701-3.701H6.432
		c-2.045,0-3.702,1.656-3.702,3.701v113.997C2.73,142.409,4.387,144.064,6.432,144.064z M10.132,30.066h151.01v106.597H10.132
		V30.066z"/>
	<path fill="#272636" d="M275.445,107.025c-0.206-1.874-1.792-3.303-3.679-3.303h-88.302c-2.044,0-3.815,1.68-3.815,3.723v54.756
		H6.545c-2.043,0-3.815,1.682-3.815,3.725v42.564c0,2.044,1.771,3.679,3.815,3.679h38.089c1.09,0,2.126-0.473,2.829-1.307
		c7.068-8.386,19.139-17.336,31.822-17.336c12.68,0,24.751,8.954,31.819,17.338c0.703,0.833,1.74,1.305,2.831,1.305h86.847
		c1.092,0,2.127-0.473,2.83-1.309c7.067-8.384,19.139-17.334,31.821-17.334c12.682,0,24.751,8.952,31.819,17.338
		c0.704,0.833,1.739,1.303,2.831,1.303h7.021c2.044,0,3.587-1.633,3.587-3.679v-52.935c0-0.136,0.05-0.279,0.036-0.415
		L275.445,107.025z M273.291,204.765h-1.524c-5.136-5.553-18.713-18.658-36.333-18.658s-31.198,13.105-36.336,18.658h-83.479
		c-5.136-5.553-18.714-18.658-36.334-18.658c-17.622,0-31.198,13.105-36.335,18.658H10.132v-35.161h173.333
		c2.043,0,3.587-1.635,3.587-3.679v-54.802h81.402l4.837,44.635V204.765z"/>
	<path fill="#272636" d="M79.285,205.58c-15.224,0-27.607,12.386-27.607,27.607c0,15.224,12.383,27.609,27.607,27.609
		c15.224,0,27.607-12.386,27.607-27.609C106.892,217.965,94.508,205.58,79.285,205.58z M79.285,253.393
		c-11.142,0-20.206-9.064-20.206-20.206c0-11.141,9.064-20.206,20.206-20.206c11.141,0,20.206,9.065,20.206,20.206
		C99.491,244.329,90.425,253.393,79.285,253.393z"/>
	<path fill="#272636" d="M236.217,205.58c-15.224,0-27.607,12.386-27.607,27.607c0,15.224,12.384,27.609,27.607,27.609
		s27.607-12.386,27.607-27.609C263.825,217.965,251.441,205.58,236.217,205.58z M236.217,253.393
		c-11.143,0-20.206-9.064-20.206-20.206c0-11.141,9.063-20.206,20.206-20.206c11.14,0,20.205,9.065,20.205,20.206
		C256.422,244.329,247.357,253.393,236.217,253.393z"/>
</g>
</svg>
