<?xml version="1.0" encoding="utf-8"?>
<!-- Generator: Adobe Illustrator 16.0.0, SVG Export Plug-In . SVG Version: 6.00 Build 0)  -->
<!DOCTYPE svg PUBLIC "-//W3C//DTD SVG 1.1//EN" "http://www.w3.org/Graphics/SVG/1.1/DTD/svg11.dtd">
<svg version="1.1" id="图层_1" xmlns="http://www.w3.org/2000/svg" xmlns:xlink="http://www.w3.org/1999/xlink" x="0px" y="0px"
	 width="283.46px" height="283.46px" viewBox="0 0 283.46 283.46" enable-background="new 0 0 283.46 283.46" xml:space="preserve">
<g>
	<defs>
		<rect id="SVGID_1_" x="2.73" y="20.838" width="278" height="241.785"/>
	</defs>
	<clipPath id="SVGID_2_">
		<use xlink:href="#SVGID_1_"  overflow="visible"/>
	</clipPath>
	<path clip-path="url(#SVGID_2_)" fill="#272636" d="M245.237,24.107l-2.17-3.27H43.636l-2.192,2.805
		C-6.292,84.585,0.313,119.688,8.491,136.395c8.205,16.735,24.818,24.543,42.341,24.543h1.58
		c22.107-0.879,39.273-8.834,47.019-16.784c6.993,7.95,23.745,16.479,44.354,16.479c21.488,0,39.775-9.47,46.487-17.503
		c9.374,7.645,28.855,17.849,48.032,17.411c12.577-0.288,23.339-2.452,32.113-12.557C303.182,110.252,247.611,27.68,245.237,24.107
		 M260.499,139.22c-5.899,6.904-14.057,8.876-22.234,8.876c-18.487,0-37.765-14.468-42.047-18.446l0.262-51.9
		c0.008-0.141,0.08-0.246,0.08-0.383c0-4.066-2.052-7.354-6.104-7.354c-4.059,0-6.207,3.288-6.207,7.354h-0.079v52.51
		C180.161,135.343,161.672,148,144.063,148c-19.88,0-35.617-13.494-38.421-17.812v-52.82c0-4.068-2.432-7.354-6.477-7.354
		c-4.059,0-5.646,3.287-5.646,7.354v52.553c-3.6,4.68-19.483,17.02-41.7,17.935h-0.988v-0.015c-9.798,0-24.698-4.12-31.236-17.514
		c-6.555-13.361-11.947-44.509,28.498-97.429h188.813C252.192,57.054,280.704,115.783,260.499,139.22 M249.299,172.291
		c-4.076,0-4.822,3.302-4.837,7.376v0.014v0.031v0.017v55.528c0,8.192-6.642,15.408-14.81,15.408h-75.506h-0.016H53.72
		c-8.17,0-14.811-7.216-14.811-15.408v-55.568c-0.008-4.087-1.604-7.397-5.688-7.397c-4.081,0-6.246,3.311-6.262,7.397v54.765
		c0,15.566,12.589,28.17,28.129,28.17h173.478c15.54,0,28.129-12.604,28.129-28.17v-54.786
		C256.674,175.592,253.372,172.291,249.299,172.291"/>
</g>
</svg>
