<?xml version="1.0" encoding="utf-8"?>
<!-- Generator: Adobe Illustrator 16.0.0, SVG Export Plug-In . SVG Version: 6.00 Build 0)  -->
<!DOCTYPE svg PUBLIC "-//W3C//DTD SVG 1.1//EN" "http://www.w3.org/Graphics/SVG/1.1/DTD/svg11.dtd">
<svg version="1.1" id="图层_1" xmlns="http://www.w3.org/2000/svg" xmlns:xlink="http://www.w3.org/1999/xlink" x="0px" y="0px"
	 width="283.46px" height="283.46px" viewBox="0 0 283.46 283.46" enable-background="new 0 0 283.46 283.46" xml:space="preserve">
<g>
	<defs>
		<rect id="SVGID_1_" x="2.73" y="10.292" width="278" height="262.876"/>
	</defs>
	<clipPath id="SVGID_2_">
		<use xlink:href="#SVGID_1_"  overflow="visible"/>
	</clipPath>
	<path clip-path="url(#SVGID_2_)" fill="#272636" d="M280.125,109.758c-1.618-4.896-6.059-8.3-11.951-9.17L189.458,89.3
		l-35.231-70.584c-2.613-5.27-7.302-8.423-12.489-8.423c-5.187,0-9.876,3.153-12.491,8.423L94.016,89.3l-78.718,11.329
		c-5.893,0.829-10.333,4.274-11.951,9.17s0,10.25,4.232,14.357l56.974,54.941l-13.445,77.597c-0.789,4.648,0.208,8.922,2.904,12.034
		c2.406,2.821,5.976,4.44,9.835,4.44c2.489,0,5.021-0.663,7.511-1.951l70.378-36.642l70.419,36.642
		c6.306,3.279,13.361,2.159,17.345-2.489c2.655-3.112,3.692-7.386,2.862-12.034l-13.444-77.597l56.975-54.941
		C280.166,120.049,281.702,114.654,280.125,109.758 M258.858,126.388l-49.739,47.965l11.736,67.745
		c0.725,4.058-0.181,7.788-2.5,10.505c-3.478,4.059-9.636,5.036-15.142,2.174l-61.478-31.988l-61.441,31.988
		c-2.174,1.124-4.384,1.702-6.558,1.702c-3.369,0-6.485-1.412-8.586-3.876c-2.354-2.717-3.224-6.447-2.535-10.505l11.738-67.745
		l-49.74-47.965c-3.695-3.586-5.108-8.26-3.695-12.534c1.413-4.275,5.289-7.282,10.433-8.006l68.724-9.891l30.756-61.622
		c2.282-4.6,6.376-7.354,10.905-7.354s8.623,2.754,10.904,7.354l30.757,61.622l68.722,9.854c5.145,0.761,9.021,3.732,10.434,8.006
		C263.929,118.092,262.588,122.802,258.858,126.388"/>
</g>
</svg>
