<?xml version="1.0" encoding="utf-8"?>
<!-- Generator: Adobe Illustrator 16.0.0, SVG Export Plug-In . SVG Version: 6.00 Build 0)  -->
<!DOCTYPE svg PUBLIC "-//W3C//DTD SVG 1.1//EN" "http://www.w3.org/Graphics/SVG/1.1/DTD/svg11.dtd">
<svg version="1.1" id="图层_1" xmlns="http://www.w3.org/2000/svg" xmlns:xlink="http://www.w3.org/1999/xlink" x="0px" y="0px"
	 width="283.46px" height="283.46px" viewBox="0 0 283.46 283.46" enable-background="new 0 0 283.46 283.46" xml:space="preserve">
<g>
	<defs>
		<rect id="SVGID_1_" x="2.73" y="10.292" width="278" height="262.876"/>
	</defs>
	<clipPath id="SVGID_2_">
		<use xlink:href="#SVGID_1_"  overflow="visible"/>
	</clipPath>
	<path clip-path="url(#SVGID_2_)" fill="#272636" d="M280.125,109.758c-1.618-4.896-6.059-8.299-11.951-9.171L189.458,89.3
		l-35.231-70.584c-2.613-5.27-7.302-8.423-12.489-8.423c-5.187,0-9.876,3.154-12.491,8.423L94.016,89.3l-78.718,11.329
		c-5.893,0.83-10.333,4.274-11.951,9.171c-1.618,4.896,0,10.25,4.232,14.357l56.974,54.94l-13.445,77.598
		c-0.789,4.648,0.208,8.921,2.904,12.034c2.406,2.821,5.976,4.439,9.835,4.439c2.489,0,5.021-0.663,7.511-1.95l70.378-36.642
		l70.419,36.642c6.306,3.279,13.361,2.159,17.345-2.489c2.655-3.113,3.692-7.386,2.862-12.034l-13.444-77.598l56.975-54.94
		C280.166,120.049,281.702,114.654,280.125,109.758"/>
</g>
</svg>
