<?xml version="1.0" encoding="utf-8"?>
<!-- Generator: Adobe Illustrator 16.0.0, SVG Export Plug-In . SVG Version: 6.00 Build 0)  -->
<!DOCTYPE svg PUBLIC "-//W3C//DTD SVG 1.1//EN" "http://www.w3.org/Graphics/SVG/1.1/DTD/svg11.dtd">
<svg version="1.1" id="图层_1" xmlns="http://www.w3.org/2000/svg" xmlns:xlink="http://www.w3.org/1999/xlink" x="0px" y="0px"
	 width="283.46px" height="283.46px" viewBox="0 0 283.46 283.46" enable-background="new 0 0 283.46 283.46" xml:space="preserve">
<g>
	<path fill="#272636" d="M141.729,280.73c-76.646,0-138.999-62.353-138.999-139C2.73,65.083,65.083,2.73,141.729,2.73
		c76.65,0,139.001,62.352,139.001,138.999C280.73,218.379,218.377,280.73,141.729,280.73L141.729,280.73L141.729,280.73z
		 M141.729,22.677c-65.647,0-119.053,53.405-119.053,119.053c0,65.638,53.406,119.054,119.053,119.054
		c65.639,0,119.055-53.416,119.055-119.054C260.784,76.082,207.368,22.677,141.729,22.677L141.729,22.677L141.729,22.677z
		 M141.729,22.677"/>
	<path fill="#272636" d="M195.739,206.035c3.997-2.226,7.736-4.487,10.791-6.748c0.343-0.264,1.854-1.318,2.229-1.624
		c1.694-1.4,2.794-3.514,2.794-5.888c0-2.26-0.984-4.307-2.566-5.658l-31.145-25.671c-1.283-1.05-2.939-1.691-4.752-1.691
		c-2.037,0-3.887,0.785-5.247,2.067c-0.529,0.529-5.206,5.321-5.206,5.321c-3.244,3.251-8.492,3.251-11.735,0l-31.78-31.813
		c-3.246-3.243-3.246-8.529,0-11.773l5.17-5.172c1.359-1.356,2.151-3.244,2.151-5.276c0-2.044-0.792-3.855-2.075-5.214
		l-26.68-32.232c-1.396-1.664-3.509-2.753-5.851-2.753c-2.488,0-4.677,1.205-6.075,3.055l-0.457,0.601
		c-5.811,7.853-13.396,20.312-13.396,32.009c0,32.235,71.86,103.979,103.789,103.979c0.603,0,1.201-0.043,1.771-0.043
		C185.752,210.844,192.047,208.094,195.739,206.035L195.739,206.035L195.739,206.035z M195.739,206.035"/>
</g>
</svg>
