<?xml version="1.0" encoding="utf-8"?>
<!-- Generator: Adobe Illustrator 16.0.0, SVG Export Plug-In . SVG Version: 6.00 Build 0)  -->
<!DOCTYPE svg PUBLIC "-//W3C//DTD SVG 1.1//EN" "http://www.w3.org/Graphics/SVG/1.1/DTD/svg11.dtd">
<svg version="1.1" id="图层_1" xmlns="http://www.w3.org/2000/svg" xmlns:xlink="http://www.w3.org/1999/xlink" x="0px" y="0px"
	 width="283.46px" height="283.46px" viewBox="0 0 283.46 283.46" enable-background="new 0 0 283.46 283.46" xml:space="preserve">
<g>
	<path fill="#272636" d="M160.452,60.765l-0.612,12.493l36.519,38.33c0,0,1.552,8.714-35.515,47.519
		c-20.417,21.374-39.963,30.116-39.963,30.116l-41.424-22.569l-9.977,1.294L2.73,225.809l0.91,13.769l59.656,39.633l5.101,1.52
		c105.986-0.497,297.03-174.704,170.538-278L227.2,2.898L160.452,60.765L160.452,60.765z M179.25,67.896l53.88-46.71
		c86.396,81.672-53.812,238.87-162.067,242.001l-47.795-31.744l53.612-46.497l40.465,19.688l10.345-1.629
		c0,0,18.843-8.851,43-32.315c24.157-23.466,44.484-52.659,44.484-52.659l0.242-12.153L179.25,67.896L179.25,67.896z M179.25,67.896
		"/>
</g>
</svg>
