<?xml version="1.0" encoding="utf-8"?>
<!-- Generator: Adobe Illustrator 16.0.0, SVG Export Plug-In . SVG Version: 6.00 Build 0)  -->
<!DOCTYPE svg PUBLIC "-//W3C//DTD SVG 1.1//EN" "http://www.w3.org/Graphics/SVG/1.1/DTD/svg11.dtd">
<svg version="1.1" id="图层_1" xmlns="http://www.w3.org/2000/svg" xmlns:xlink="http://www.w3.org/1999/xlink" x="0px" y="0px"
	 width="283.46px" height="283.46px" viewBox="0 0 283.46 283.46" enable-background="new 0 0 283.46 283.46" xml:space="preserve">
<path fill="#272636" d="M141.73,2.73c-76.771,0-139,62.229-139,139c0,76.771,62.229,139,139,139c76.771,0,139-62.229,139-139
	C280.73,64.959,218.501,2.73,141.73,2.73z M141.73,259.344c-64.945,0-117.616-52.648-117.616-117.614
	c0-64.966,52.67-117.616,117.616-117.616c61.34,0,111.722,46.971,117.125,106.923H152.421V66.885h-21.384v64.153v21.384h21.384
	h106.435C253.452,212.374,203.071,259.344,141.73,259.344z"/>
</svg>
