<?xml version="1.0" encoding="utf-8"?>
<!-- Generator: Adobe Illustrator 16.0.0, SVG Export Plug-In . SVG Version: 6.00 Build 0)  -->
<!DOCTYPE svg PUBLIC "-//W3C//DTD SVG 1.1//EN" "http://www.w3.org/Graphics/SVG/1.1/DTD/svg11.dtd">
<svg version="1.1" id="图层_1" xmlns="http://www.w3.org/2000/svg" xmlns:xlink="http://www.w3.org/1999/xlink" x="0px" y="0px"
	 width="283.46px" height="283.46px" viewBox="0 0 283.46 283.46" enable-background="new 0 0 283.46 283.46" xml:space="preserve">
<g>
	<defs>
		<rect id="SVGID_1_" x="2.731" y="2.73" width="277.998" height="278"/>
	</defs>
	<clipPath id="SVGID_2_">
		<use xlink:href="#SVGID_1_"  overflow="visible"/>
	</clipPath>
	<path clip-path="url(#SVGID_2_)" fill="#272636" d="M249.84,2.73h-7.713h-0.009h-54.056h-0.01h-0.964
		c0.006,0.022,0.012,0.046,0.017,0.066c-3.813,0.472-5.943,1.798-5.943,5.737c0,3.941,2.131,5.652,5.943,6.124
		c-0.006,0.023-0.011,0.044-0.017,0.066h62.751c8.515,0,18.897,10.383,18.897,18.896v216.223c0,8.515-10.383,18.896-18.897,18.896
		H33.62c-8.515,0-18.897-10.382-18.897-18.896V33.619c0-8.512,10.382-18.896,18.897-18.896h55.029
		c-0.006-0.021-0.011-0.043-0.016-0.067c3.812-0.47,6.215-2.032,6.215-5.972c0-3.94-2.404-5.417-6.215-5.888
		c0.004-0.023,0.01-0.044,0.016-0.066h-0.964h-0.009H33.62H33.6C16.574,2.742,2.731,16.589,2.731,33.619v216.223
		c0,17.035,13.851,30.889,30.889,30.889h216.22c17.037,0,30.889-13.854,30.889-30.889V33.619
		C280.729,16.583,266.876,2.73,249.84,2.73"/>
	<path clip-path="url(#SVGID_2_)" fill="#272636" d="M149.218,190.496l67.254-67.258c3.876-3.873,6.372-6.339,2.335-10.053
		c-1.501-1.382-3.05-1.653-6.925,2.222l-66.08,67.157V67.3c0-5.049,1.25-9.142-3.798-9.142c-5.048,0-4.429,4.093-4.429,9.142
		v115.565l-66.558-67.782c-3.876-3.876-3.884-6.361-7.766-2.483c-3.875,3.88-0.141,6.839,3.736,10.716l67.268,67.267
		c0,0,4.03,4.585,7.086,4.585C144.972,195.167,149.218,190.496,149.218,190.496 M210.094,213.39H73.444
		c-6.302,0-9.93-1.526-9.93,3.961c0,5.477,3.151,4.266,9.93,4.266h136.65c6.273,0,9.929,1.369,9.929-4.113
		C220.023,212.023,216.272,213.39,210.094,213.39"/>
</g>
</svg>
