<?xml version="1.0" encoding="utf-8"?>
<!-- Generator: Adobe Illustrator 16.0.0, SVG Export Plug-In . SVG Version: 6.00 Build 0)  -->
<!DOCTYPE svg PUBLIC "-//W3C//DTD SVG 1.1//EN" "http://www.w3.org/Graphics/SVG/1.1/DTD/svg11.dtd">
<svg version="1.1" id="图层_1" xmlns="http://www.w3.org/2000/svg" xmlns:xlink="http://www.w3.org/1999/xlink" x="0px" y="0px"
	 width="283.46px" height="283.46px" viewBox="0 0 283.46 283.46" enable-background="new 0 0 283.46 283.46" xml:space="preserve">
<g>
	<path fill="#272636" d="M163.8,159.566c-0.985-0.32-7.21-3.127-3.32-14.951h-0.053c10.136-10.44,17.885-27.248,17.885-43.788
		c0-25.438-16.919-38.767-36.575-38.767c-19.668,0-36.49,13.329-36.49,38.767c0,16.609,7.706,33.483,17.903,43.897
		c3.974,10.426-3.133,14.297-4.621,14.842c-20.588,7.445-44.739,21.017-44.739,34.413v5.02c0,18.254,35.389,22.404,68.14,22.404
		c32.8,0,67.742-4.15,67.742-22.404v-5.02C209.67,180.178,185.399,166.715,163.8,159.566L163.8,159.566L163.8,159.566z
		 M163.8,159.566"/>
	<path fill="#272636" d="M141.729,280.73c-76.646,0-138.999-62.353-138.999-139C2.73,65.083,65.083,2.73,141.729,2.73
		c76.65,0,139.001,62.352,139.001,138.999C280.73,218.379,218.377,280.73,141.729,280.73L141.729,280.73L141.729,280.73z
		 M141.729,22.677c-65.647,0-119.053,53.405-119.053,119.053c0,65.638,53.406,119.054,119.053,119.054
		c65.639,0,119.055-53.416,119.055-119.054C260.784,76.082,207.368,22.677,141.729,22.677L141.729,22.677L141.729,22.677z
		 M141.729,22.677"/>
</g>
</svg>
