<?xml version="1.0" encoding="utf-8"?>
<!-- Generator: Adobe Illustrator 16.0.0, SVG Export Plug-In . SVG Version: 6.00 Build 0)  -->
<!DOCTYPE svg PUBLIC "-//W3C//DTD SVG 1.1//EN" "http://www.w3.org/Graphics/SVG/1.1/DTD/svg11.dtd">
<svg version="1.1" id="图层_1" xmlns="http://www.w3.org/2000/svg" xmlns:xlink="http://www.w3.org/1999/xlink" x="0px" y="0px"
	 width="283.46px" height="283.46px" viewBox="0 0 283.46 283.46" enable-background="new 0 0 283.46 283.46" xml:space="preserve">
<g>
	<path fill="#272636" d="M163.801,159.566c-0.986-0.32-7.21-3.127-3.321-14.951h-0.053c10.137-10.44,17.885-27.248,17.885-43.789
		c0-25.438-16.918-38.767-36.575-38.767c-19.668,0-36.49,13.33-36.49,38.767c0,16.609,7.707,33.484,17.903,43.898
		c3.975,10.426-3.133,14.297-4.621,14.842c-20.588,7.444-44.739,21.017-44.739,34.413v5.02c0,18.253,35.389,22.403,68.14,22.403
		c32.801,0,67.743-4.15,67.743-22.403v-5.02C209.67,180.178,185.399,166.714,163.801,159.566L163.801,159.566L163.801,159.566z
		 M163.801,159.566"/>
	<path fill="#272636" d="M141.729,280.73C65.083,280.73,2.73,218.377,2.73,141.729C2.73,65.083,65.083,2.73,141.729,2.73
		c76.65,0,139,62.353,139,138.999C280.73,218.379,218.377,280.73,141.729,280.73L141.729,280.73L141.729,280.73z M141.729,22.676
		c-65.647,0-119.053,53.406-119.053,119.053c0,65.639,53.406,119.055,119.053,119.055c65.638,0,119.054-53.416,119.054-119.055
		C260.784,76.082,207.368,22.676,141.729,22.676L141.729,22.676L141.729,22.676z M141.729,22.676"/>
</g>
</svg>
