<?xml version="1.0" encoding="utf-8"?>
<!-- Generator: Adobe Illustrator 16.0.0, SVG Export Plug-In . SVG Version: 6.00 Build 0)  -->
<!DOCTYPE svg PUBLIC "-//W3C//DTD SVG 1.1//EN" "http://www.w3.org/Graphics/SVG/1.1/DTD/svg11.dtd">
<svg version="1.1" id="图层_1" xmlns="http://www.w3.org/2000/svg" xmlns:xlink="http://www.w3.org/1999/xlink" x="0px" y="0px"
	 width="283.46px" height="283.46px" viewBox="0 0 283.46 283.46" enable-background="new 0 0 283.46 283.46" xml:space="preserve">
<g>
	<path fill="#272636" d="M141.73,4.257c-76.768,0-139,61.549-139,137.472c0,75.924,62.232,137.473,139,137.473
		c76.769,0,139-61.549,139-137.473C280.73,65.807,218.499,4.257,141.73,4.257L141.73,4.257z M141.73,268.619
		c-69.091,0-128.264-58.558-128.264-126.889c0-68.331,59.173-126.888,128.264-126.888s128.266,58.557,128.266,126.888
		C269.996,210.061,210.821,268.619,141.73,268.619L141.73,268.619z M141.73,268.619"/>
	<path fill="#272636" d="M145.916,48.813h-8.371c-4.605,0-8.372,1.949-8.372,4.333v134.843c0,2.383,3.767,4.333,8.372,4.333h8.371
		c4.604,0,8.372-1.95,8.372-4.333V53.146C154.288,50.762,150.52,48.813,145.916,48.813L145.916,48.813z M145.916,48.813"/>
	<path fill="#272636" d="M145.916,209.534h-8.371c-4.605,0-8.372,2.825-8.372,6.279v12.556c0,3.453,3.767,6.279,8.372,6.279h8.371
		c4.604,0,8.372-2.826,8.372-6.279v-12.556C154.288,212.359,150.52,209.534,145.916,209.534L145.916,209.534z M145.916,209.534"/>
</g>
</svg>
