<?xml version="1.0" encoding="utf-8"?>
<!-- Generator: Adobe Illustrator 16.0.0, SVG Export Plug-In . SVG Version: 6.00 Build 0)  -->
<!DOCTYPE svg PUBLIC "-//W3C//DTD SVG 1.1//EN" "http://www.w3.org/Graphics/SVG/1.1/DTD/svg11.dtd">
<svg version="1.1" id="图层_1" xmlns="http://www.w3.org/2000/svg" xmlns:xlink="http://www.w3.org/1999/xlink" x="0px" y="0px"
	 width="283.46px" height="283.46px" viewBox="0 0 283.46 283.46" enable-background="new 0 0 283.46 283.46" xml:space="preserve">
<g>
	<path fill="#272636" d="M108.71,175.12c-16.638,9.31-19.105-5.221-19.105-5.221l-20.854-48.816
		c-8.023-23.2,6.944-10.46,6.944-10.46s12.843,9.747,22.59,15.687c9.742,5.94,20.848,1.743,20.848,1.743l136.332-63.126
		C230.311,33.531,188.762,13,141.724,13C64.956,13,2.73,67.635,2.73,135.034c0,38.765,20.604,73.271,52.698,95.63l-5.788,33.379
		c0,0-2.821,9.742,6.957,5.222c6.664-3.076,23.65-14.122,33.763-20.843c15.896,5.557,33.215,8.646,51.37,8.646
		c76.761,0,139-54.636,139-122.033c0-19.526-5.245-37.96-14.535-54.325C222.762,106.924,121.729,167.852,108.71,175.12
		L108.71,175.12z M108.71,175.12"/>
</g>
</svg>
