<?xml version="1.0" encoding="utf-8"?>
<!-- Generator: Adobe Illustrator 16.0.0, SVG Export Plug-In . SVG Version: 6.00 Build 0)  -->
<!DOCTYPE svg PUBLIC "-//W3C//DTD SVG 1.1//EN" "http://www.w3.org/Graphics/SVG/1.1/DTD/svg11.dtd">
<svg version="1.1" id="图层_1" xmlns="http://www.w3.org/2000/svg" xmlns:xlink="http://www.w3.org/1999/xlink" x="0px" y="0px"
	 width="283.46px" height="283.46px" viewBox="0 0 283.46 283.46" enable-background="new 0 0 283.46 283.46" xml:space="preserve">
<g>
	<path d="M183.61,209.22H23.235c-4.678,0-8.478-3.808-8.478-8.5V82.733c0-4.685,3.8-8.5,8.478-8.5h212.68
		c4.677,0,8.492,3.808,8.492,8.5v20.823c0.014,3.309,2.701,5.979,6.01,5.979s5.994-2.671,6.01-5.979V82.733
		c0-11.316-9.203-20.519-20.512-20.519H23.235c-11.302,0-20.504,9.194-20.504,20.519v117.995c0,11.316,9.202,20.519,20.504,20.519
		l160.889-0.028c3.077-0.262,5.496-2.845,5.496-5.988C189.62,211.915,186.926,209.22,183.61,209.22z"/>
	<path d="M264.404,192.822c0.456-0.376,0.956-0.687,1.398-1.079c0.882-0.781,1.354-1.947,1.274-3.128l-0.441-6.074l6.017-0.92
		c1.179-0.181,2.207-0.912,2.772-1.962c3.476-6.422,5.306-13.707,5.306-21.047c0-0.492-0.028-0.986-0.064-1.47l-0.043-0.565
		c-0.058-1.188-0.666-2.272-1.644-2.954l-5.01-3.468l3.091-5.416c0.586-1.027,0.659-2.267,0.203-3.36
		c-3.1-7.326-8.146-13.706-14.633-18.455c-0.97-0.717-2.223-0.919-3.373-0.564l-5.845,1.803l-2.266-5.771
		c-0.44-1.115-1.368-1.962-2.526-2.273c-7.798-2.188-15.654-2.188-23.451,0c-1.152,0.318-2.085,1.158-2.521,2.273l-2.266,5.771
		l-5.843-1.803c-1.152-0.354-2.404-0.152-3.374,0.564c-6.487,4.742-11.548,11.129-14.625,18.447
		c-0.464,1.095-0.392,2.341,0.195,3.368l3.084,5.416l-5.018,3.468c-0.985,0.682-1.593,1.774-1.645,2.962l-0.035,0.593
		c-0.028,0.472-0.058,0.948-0.058,1.435c0,7.348,1.832,14.632,5.292,21.047c0.566,1.058,1.594,1.773,2.773,1.962l6.017,0.92
		l-0.441,6.074c-0.095,1.181,0.383,2.339,1.273,3.128c0.428,0.385,0.899,0.68,1.341,1.036l-10.218,16.724
		c-0.919,1.514-0.853,3.354,0.16,4.687c1.014,1.331,2.78,1.882,4.461,1.395l9.477-2.655l5.887,6.791
		c0.854,0.977,2.006,1.514,3.215,1.514c0.289,0,0.587-0.037,0.883-0.102c1.514-0.326,2.687-1.435,3.157-2.976l4.873-16.298
		c0.462-0.174,0.904-0.428,1.281-0.774l4.38-4.084l4.381,4.076c0.716,0.673,1.65,1.036,2.599,1.036c0.226,0,0.441-0.023,0.667-0.066
		c4.779-0.847,9.317-2.576,13.538-4.944l5.481,8.709l-2.346-0.659c-1.831-0.52-3.902,0.088-5.155,1.521l-3.251,3.736l-0.579-1.622
		c-0.716-1.985-2.889-3.026-4.873-2.295c-1.983,0.717-3.011,2.89-2.295,4.873l2.521,6.994c0.528,1.469,1.723,2.519,3.207,2.795
		c0.254,0.05,0.521,0.079,0.775,0.079c1.207,0,2.381-0.537,3.222-1.514l5.93-6.791l9.549,2.665c1.724,0.47,3.482-0.087,4.497-1.428
		c1.014-1.354,1.056-3.2,0.102-4.705L264.404,192.822z M262.023,175.539c-1.963,0.304-3.367,2.064-3.224,4.048l0.551,7.639
		c-4.198,3.36-9.079,5.726-14.278,6.928l-5.56-5.161c-1.463-1.361-3.735-1.361-5.199,0l-5.545,5.161
		c-5.207-1.208-10.086-3.575-14.292-6.928l0.55-7.646c0.152-1.976-1.254-3.736-3.215-4.04l-7.552-1.158
		c-2.295-4.836-3.513-10.166-3.549-15.561l6.351-4.372c1.622-1.122,2.121-3.301,1.137-5.017l-3.852-6.778
		c2.316-4.785,5.677-9.035,9.854-12.431l7.335,2.266c1.918,0.602,3.946-0.397,4.676-2.252l2.847-7.247
		c5.264-1.194,10.455-1.194,15.72,0l2.845,7.247c0.73,1.854,2.767,2.846,4.677,2.252l7.334-2.266
		c4.177,3.396,7.538,7.646,9.855,12.431l-3.859,6.771c-0.984,1.716-0.479,3.902,1.144,5.017l6.342,4.374
		c-0.028,5.393-1.253,10.73-3.539,15.559L262.023,175.539z"/>
	<path d="M236.907,131.859c-14.568,0-26.429,11.852-26.429,26.426c0,14.575,11.853,26.435,26.429,26.435
		c14.574,0,26.44-11.859,26.434-26.435C263.34,143.718,251.473,131.859,236.907,131.859z M236.907,177.096
		c-10.376,0-18.812-8.441-18.812-18.819c0-10.374,8.436-18.81,18.812-18.81c10.381,0,18.816,8.443,18.816,18.81
		C255.723,168.661,247.288,177.096,236.907,177.096z"/>
	<path d="M99.703,159.909v-44.945H69.82v-14.18H57.642v14.18H27.759v45.185h11.857v-5.768h18.025v25.797H69.82V154.38h18.026v5.528
		H99.703z M57.642,143.325H39.617v-17.306h18.025V143.325z M69.82,143.325v-17.306h18.026v17.306H69.82z"/>
	<path d="M106.432,131.146l3.285,10.335c4.914-2.27,10.121-4.513,15.622-6.729v11.857h10.334v-45.666h-10.334v14.381
		c-5.261-4.86-9.08-8.318-11.456-10.375l-6.33,5.929c2.938,2.831,6.623,6.569,11.056,11.216l6.729-6.489v8.332
		C119.784,126.259,113.482,128.663,106.432,131.146z"/>
	<path d="M109.957,180.257c16.396-2.725,28.133-8.693,35.21-17.905c7.05,10.414,18.707,16.409,34.97,17.984
		c2.349-5.395,4.165-9.24,5.448-11.535c-14.795-0.908-24.956-4.3-30.484-10.176h29.522v-9.453h-33.047
		c0.347-1.201,0.653-2.443,0.921-3.725c16.129-5.77,26.544-15.155,31.245-28.161v-7.852h-25.837c1.308-2.216,2.577-4.539,3.806-6.97
		l-10.415-2.003c-3.58,8.226-8.492,15.436-14.741,21.631c2.724,2.457,5.047,4.7,6.97,6.729c3.15-3.257,6.129-6.89,8.933-10.896
		h20.55c-1.816,3.393-4.527,6.503-8.131,9.334c-3.847-3.312-7.011-5.915-9.494-7.812l-6.41,6.249
		c2.591,2.003,5.208,4.205,7.853,6.609c-3.58,1.843-7.666,3.512-12.259,5.007c1.095,1.362,2.07,2.644,2.924,3.846h-5.647
		c-0.267,2.884-0.829,5.556-1.683,8.012h-32.767v9.453h26.998c-5.127,5.395-14.554,9-28.28,10.815
		C107.553,173.019,108.835,176.625,109.957,180.257z"/>
</g>
</svg>
