<?xml version="1.0" encoding="utf-8"?>
<!-- Generator: Adobe Illustrator 16.0.0, SVG Export Plug-In . SVG Version: 6.00 Build 0)  -->
<!DOCTYPE svg PUBLIC "-//W3C//DTD SVG 1.1//EN" "http://www.w3.org/Graphics/SVG/1.1/DTD/svg11.dtd">
<svg version="1.1" id="图层_1" xmlns="http://www.w3.org/2000/svg" xmlns:xlink="http://www.w3.org/1999/xlink" x="0px" y="0px"
	 width="283.46px" height="283.46px" viewBox="0 0 283.46 283.46" enable-background="new 0 0 283.46 283.46" xml:space="preserve">
<g>
	<path fill="#272636" d="M280.066,141.305C280.014,63.988,219.232,1.891,141.682,2.739C62.211,3.606,3.816,65.205,3.214,142.097
		c-0.59,75.565,62.219,139.136,137.82,138.63C227.431,280.149,283.905,209.026,280.066,141.305L280.066,141.305z M141.699,264.369
		c-63.252,0.841-123.813-55.529-121.848-123.993C21.807,72.425,74.284,19.164,142.889,19.291
		c67.638,0.128,122.028,54.619,122.064,122.29C264.986,209.925,210.281,263.467,141.699,264.369L141.699,264.369z M141.699,264.369"
		/>
	<path fill="#272636" d="M200.932,205.429H82.527c-3.276,0-5.935-2.659-5.935-5.935v-25.933c0-3.277,2.659-5.937,5.935-5.937
		s5.936,2.659,5.936,5.937v19.997h106.534v-19.997c0-3.277,2.659-5.937,5.936-5.937s5.936,2.659,5.936,5.937v25.933
		C206.868,202.77,204.211,205.429,200.932,205.429L200.932,205.429z M200.932,205.429"/>
	<path fill="#272636" d="M107.932,111.399c-1.553,0-3.104-0.606-4.269-1.811c-2.279-2.357-2.214-6.117,0.145-8.394l33.988-32.832
		c2.3-2.223,5.947-2.223,8.247,0l33.983,32.832c2.356,2.28,2.423,6.037,0.146,8.394c-2.281,2.356-6.036,2.418-8.394,0.145
		l-29.861-28.846l-29.864,28.846C110.902,110.846,109.415,111.399,107.932,111.399L107.932,111.399z M107.932,111.399"/>
	<path fill="#272636" d="M141.918,179.498c-3.276,0-5.936-2.659-5.936-5.936V72.634c0-3.276,2.66-5.936,5.936-5.936
		s5.935,2.659,5.935,5.936v100.928C147.853,176.838,145.194,179.498,141.918,179.498L141.918,179.498z M141.918,179.498"/>
</g>
</svg>
